<?xml version="1.0" encoding="UTF-8" standalone="no"?><!DOCTYPE svg PUBLIC "-//W3C//DTD SVG 1.1//EN" "http://www.w3.org/Graphics/SVG/1.1/DTD/svg11.dtd"><svg width="100%" height="100%" viewBox="0 0 2332 1010" version="1.1" xmlns="http://www.w3.org/2000/svg" xmlns:xlink="http://www.w3.org/1999/xlink" xml:space="preserve" xmlns:serif="http://www.serif.com/" style="fill-rule:evenodd;clip-rule:evenodd;stroke-linejoin:round;stroke-miterlimit:2;"><path d="M2323.79,0l-0.3,0l0,43.184l-52.57,0l0,-43.184l-0.53,0l0,43.184l-52.56,0l0,-43.184l-0.27,0l0,43.184l-52.57,0l0,-43.184l-0.52,0l0,43.184l-52.57,0l0,-43.184l-0.27,0l0,43.184l-52.56,0l0,-43.184l-0.53,0l0,43.184l-52.57,0l0,-43.184l-0.26,0l0,43.184l-52.57,0l0,-43.184l-0.53,0l0,43.184l-52.56,0l0,-43.184l-0.27,0l0,43.184l-52.57,0l0,-43.184l-0.52,0l0,43.184l-52.57,0l0,-43.184l-0.27,0l0,43.184l-52.56,0l0,-43.184l-0.53,0l0,43.184l-52.57,0l0,-43.184l-0.26,0l0,43.184l-52.57,0l0,-43.184l-0.53,0l0,43.184l-52.57,0l0,-43.184l-0.26,0l0,43.184l-52.57,0l0,-43.184l-0.53,0l0,43.184l-52.56,0l0,-43.184l-0.27,0l0,43.184l-52.57,0l0,-43.184l-0.52,0l0,43.184l-52.57,0l0,-43.184l-0.27,0l0,43.184l-52.56,0l0,-43.184l-0.53,0l0,43.184l-52.57,0l0,-43.184l-0.26,0l0,43.184l-52.57,0l0,-43.184l-0.53,0l0,43.184l-52.56,0l0,-43.184l-0.27,0l0,43.184l-52.57,0l0,-43.184l-0.52,0l0,43.184l-52.57,0l0,-43.184l-0.27,0l0,43.184l-52.564,0l0,-43.184l-0.527,0l0,43.184l-52.567,0l0,-43.184l-0.266,0l0,43.184l-52.567,0l0,-43.184l-0.527,0l0,43.184l-52.567,0l0,-43.184l-0.266,0l0,43.184l-52.567,0l0,-43.184l-0.527,0l0,43.184l-52.567,0l0,-43.184l-0.266,0l0,43.184l-52.567,0l0,-43.184l-0.527,0l0,43.184l-52.567,0l0,-43.184l-0.266,0l0,43.184l-52.567,0l0,-43.184l-0.527,0l0,43.184l-52.567,0l0,-43.184l-0.266,0l0,43.184l-52.567,0l0,-43.184l-0.527,0l0,43.184l-52.567,0l0,-43.184l-0.266,0l0,43.184l-52.567,0l0,-43.184l-0.527,0l0,43.184l-52.567,0l0,-43.184l-0.266,0l0,43.184l-52.567,0l0,-43.184l-0.527,0l0,43.184l-52.567,0l0,-43.184l-0.266,0l0,43.184l-52.567,0l0,-43.184l-0.527,0l0,43.184l-52.567,0l0,-43.184l-0.266,0l0,43.184l-52.567,0l0,-43.184l-0.527,0l0,43.184l-45.926,0l0,0.57l45.963,0l0,56.887l-45.963,0l0,0.288l45.963,0l0,56.887l-45.963,0l0,0.57l45.963,0l0,56.887l-45.963,0l0,0.288l45.963,0l0,56.887l-45.963,0l0,0.57l45.963,0l0,56.888l-45.963,0l0,0.287l45.963,0l0,56.887l-45.963,0l0,0.571l45.963,0l0,56.887l-45.963,0l0,0.288l45.963,0l0,56.887l-45.963,0l0,0.57l45.963,0l0,56.887l-45.963,0l0,0.288l45.963,0l0,56.887l-45.963,0l0,0.571l45.963,0l0,56.887l-45.963,0l0,0.288l45.963,0l0,56.887l-45.963,0l0,0.57l45.963,0l0,56.887l-45.963,0l0,0.288l45.963,0l0,56.887l-45.963,0l0,0.571l45.963,0l0,56.887l-45.963,0l0,0.288l45.963,0l0,56.887l-45.963,0l0,0.57l45.963,0l0,48.645l0.527,0l0,-48.645l52.567,0l0,48.645l0.266,0l0,-48.645l52.567,0l0,48.645l0.527,0l0,-48.645l52.567,0l0,48.645l0.266,0l0,-48.645l52.567,0l0,48.645l0.527,0l0,-48.645l52.567,0l0,48.645l0.266,0l0,-48.645l52.567,0l0,48.645l0.527,0l0,-48.645l52.567,0l0,48.645l0.266,0l0,-48.645l52.567,0l0,48.645l0.527,0l0,-48.645l52.567,0l0,48.645l0.266,0l0,-48.645l52.567,0l0,48.645l0.527,0l0,-48.645l52.568,0l0,48.645l0.265,0l0,-48.645l52.567,0l0,48.645l0.527,0l0,-48.645l52.568,0l0,48.645l0.265,0l0,-48.645l52.567,0l0,48.645l0.527,0l0,-48.645l52.568,0l0,48.645l0.265,0l0,-48.645l52.568,0l0,48.645l0.527,0l0,-48.645l52.567,0l0,48.645l0.266,0l0,-48.645l52.567,0l0,48.645l0.527,0l0,-48.645l52.566,0l0,48.645l0.27,0l0,-48.645l52.56,0l0,48.645l0.53,0l0,-48.645l52.57,0l0,48.645l0.26,0l0,-48.645l52.57,0l0,48.645l0.53,0l0,-48.645l52.56,0l0,48.645l0.27,0l0,-48.645l52.57,0l0,48.645l0.52,0l0,-48.645l52.57,0l0,48.645l0.27,0l0,-48.645l52.57,0l0,48.645l0.52,0l0,-48.645l52.57,0l0,48.645l0.26,0l0,-48.645l52.57,0l0,48.645l0.53,0l0,-48.645l52.57,0l0,48.645l0.26,0l0,-48.645l52.57,0l0,48.645l0.53,0l0,-48.645l52.56,0l0,48.645l0.27,0l0,-48.645l52.57,0l0,48.645l0.52,0l0,-48.645l52.57,0l0,48.645l0.27,0l0,-48.645l52.56,0l0,48.645l0.53,0l0,-48.645l52.57,0l0,48.645l0.26,0l0,-48.645l52.57,0l0,48.645l0.53,0l0,-48.645l52.56,0l0,48.645l0.27,0l0,-48.645l52.57,0l0,48.645l0.52,0l0,-48.645l52.57,0l0,48.645l0.27,0l0,-48.645l52.56,0l0,48.645l0.53,0l0,-48.645l52.57,0l0,48.645l0.26,0l0,-48.645l52.57,0l0,48.645l0.53,0l0,-48.645l52.57,0l0,48.645l0.26,0l0,-48.645l8.21,0l0,-0.57l-8.21,0l0,-56.887l8.21,0l0,-0.288l-8.21,0l0,-56.887l8.21,0l0,-0.571l-8.21,0l0,-56.887l8.21,0l0,-0.288l-8.21,0l0,-56.887l8.21,0l0,-0.57l-8.21,0l0,-56.887l8.21,0l0,-0.288l-8.21,0l0,-56.887l8.21,0l0,-0.571l-8.21,0l0,-56.887l8.21,0l0,-0.288l-8.21,0l0,-56.887l8.21,0l0,-0.57l-8.21,0l0,-56.887l8.21,0l0,-0.288l-8.21,0l0,-56.887l8.21,0l0,-0.571l-8.21,0l0,-56.887l8.21,0l0,-0.287l-8.21,0l0,-56.888l8.21,0l0,-0.57l-8.21,0l0,-56.887l8.21,0l0,-0.288l-8.21,0l0,-56.887l8.21,0l0,-0.57l-8.21,0l0,-56.887l8.21,0l0,-0.288l-8.21,0l0,-56.887l8.21,0l0,-0.57l-8.21,0l0,-43.184Zm-2277.431,960.365l0,0.288l-0.266,0l0,-0.288l0.266,0Zm0,-114.627l0,0.287l-0.266,0l0,-0.287l0.266,0Zm0,-114.633l0,0.288l-0.266,0l0,-0.288l0.266,0Zm0,-114.632l0,0.287l-0.266,0l0,-0.287l0.266,0Zm0,-114.628l0,0.288l-0.266,0l0,-0.288l0.266,0Zm0,-114.632l0,0.287l-0.266,0l0,-0.287l0.266,0Zm0,-114.633l0,0.288l-0.266,0l0,-0.288l0.266,0Zm0,-114.627l0,0.288l-0.266,0l0,-0.288l0.266,0Zm0,-114.632l0,0.288l-0.266,0l0,-0.288l0.266,0Zm52.698,916.909l-52.567,0l0,-56.888l52.567,0l0,56.888Zm0,-57.175l-52.567,0l0,-56.887l52.567,0l0,56.887Zm0,-57.458l-52.567,0l0,-56.887l52.567,0l0,56.887Zm0,-57.17l-52.567,0l0,-56.887l52.567,0l0,56.887Zm0,-57.462l-52.567,0l0,-56.888l52.567,0l0,56.888Zm0,-57.17l-52.567,0l0,-56.887l52.567,0l0,56.887Zm0,-57.458l-52.567,0l0,-56.887l52.567,0l0,56.887Zm0,-57.175l-52.567,0l0,-56.887l52.567,0l0,56.887Zm0,-57.457l-52.567,0l0,-56.887l52.567,0l0,56.887Zm0,-57.17l-52.567,0l0,-56.887l52.567,0l0,56.887Zm0,-57.463l-52.567,0l0,-56.887l52.567,0l0,56.887Zm0,-57.17l-52.567,0l0,-56.887l52.567,0l0,56.887Zm0,-57.457l-52.567,0l0,-56.887l52.567,0l0,56.887Zm0,-57.175l-52.567,0l0,-56.887l52.567,0l0,56.887Zm0,-57.457l-52.567,0l0,-56.887l52.567,0l0,56.887Zm0,-57.17l-52.567,0l0,-56.887l52.567,0l0,56.887Zm52.828,859.587l-52.567,0l0,-56.888l52.567,0l0,56.888Zm0,-57.175l-52.567,0l0,-56.887l52.567,0l0,56.887Zm0,-57.458l-52.567,0l0,-56.887l52.567,0l0,56.887Zm0,-57.17l-52.567,0l0,-56.887l52.567,0l0,56.887Zm0,-57.462l-52.567,0l0,-56.888l52.567,0l0,56.888Zm0,-57.17l-52.567,0l0,-56.887l52.567,0l0,56.887Zm0,-57.458l-52.567,0l0,-56.887l52.567,0l0,56.887Zm0,-57.175l-52.567,0l0,-56.887l52.567,0l0,56.887Zm0,-57.457l-52.567,0l0,-56.887l52.567,0l0,56.887Zm0,-57.17l-52.567,0l0,-56.887l52.567,0l0,56.887Zm0,-57.463l-52.567,0l0,-56.887l52.567,0l0,56.887Zm0,-57.17l-52.567,0l0,-56.887l52.567,0l0,56.887Zm0,-57.457l-52.567,0l0,-56.887l52.567,0l0,56.887Zm0,-57.175l-52.567,0l0,-56.887l52.567,0l0,56.887Zm0,-57.457l-52.567,0l0,-56.887l52.567,0l0,56.887Zm0,-57.17l-52.567,0l0,-56.887l52.567,0l0,56.887Zm0.397,859.723l0,0.288l-0.266,0l0,-0.288l0.266,0Zm0,-114.627l0,0.287l-0.266,0l0,-0.287l0.266,0Zm0,-114.633l0,0.288l-0.266,0l0,-0.288l0.266,0Zm0,-114.632l0,0.287l-0.266,0l0,-0.287l0.266,0Zm0,-114.628l0,0.288l-0.266,0l0,-0.288l0.266,0Zm0,-114.632l0,0.287l-0.266,0l0,-0.287l0.266,0Zm0,-114.633l0,0.288l-0.266,0l0,-0.288l0.266,0Zm0,-114.627l0,0.288l-0.266,0l0,-0.288l0.266,0Zm0,-114.632l0,0.288l-0.266,0l0,-0.288l0.266,0Zm52.698,916.909l-52.568,0l0,-56.888l52.568,0l0,56.888Zm0,-57.175l-52.568,0l0,-56.887l52.568,0l0,56.887Zm0,-57.458l-52.568,0l0,-56.887l52.568,0l0,56.887Zm0,-57.17l-52.568,0l0,-56.887l52.568,0l0,56.887Zm0,-57.462l-52.568,0l0,-56.888l52.568,0l0,56.888Zm0,-57.17l-52.568,0l0,-56.887l52.568,0l0,56.887Zm0,-57.458l-52.568,0l0,-56.887l52.568,0l0,56.887Zm0,-57.175l-52.568,0l0,-56.887l52.568,0l0,56.887Zm0,-57.457l-52.568,0l0,-56.887l52.568,0l0,56.887Zm0,-57.17l-52.568,0l0,-56.887l52.568,0l0,56.887Zm0,-57.463l-52.568,0l0,-56.887l52.568,0l0,56.887Zm0,-57.17l-52.568,0l0,-56.887l52.568,0l0,56.887Zm0,-57.457l-52.568,0l0,-56.887l52.568,0l0,56.887Zm0,-57.175l-52.568,0l0,-56.887l52.568,0l0,56.887Zm0,-57.457l-52.568,0l0,-56.887l52.568,0l0,56.887Zm0,-57.17l-52.568,0l0,-56.887l52.568,0l0,56.887Zm52.832,859.587l-52.567,0l0,-56.888l52.567,0l0,56.888Zm0,-57.175l-52.567,0l0,-56.887l52.567,0l0,56.887Zm0,-57.458l-52.567,0l0,-56.887l52.567,0l0,56.887Zm0,-57.17l-52.567,0l0,-56.887l52.567,0l0,56.887Zm0,-57.462l-52.567,0l0,-56.888l52.567,0l0,56.888Zm0,-57.17l-52.567,0l0,-56.887l52.567,0l0,56.887Zm0,-57.458l-52.567,0l0,-56.887l52.567,0l0,56.887Zm0,-57.175l-52.567,0l0,-56.887l52.567,0l0,56.887Zm0,-57.457l-52.567,0l0,-56.887l52.567,0l0,56.887Zm0,-57.17l-52.567,0l0,-56.887l52.567,0l0,56.887Zm0,-57.463l-52.567,0l0,-56.887l52.567,0l0,56.887Zm0,-57.17l-52.567,0l0,-56.887l52.567,0l0,56.887Zm0,-57.457l-52.567,0l0,-56.887l52.567,0l0,56.887Zm0,-57.175l-52.567,0l0,-56.887l52.567,0l0,56.887Zm0,-57.457l-52.567,0l0,-56.887l52.567,0l0,56.887Zm0,-57.17l-52.567,0l0,-56.887l52.567,0l0,56.887Zm0.397,859.723l0,0.288l-0.266,0l0,-0.288l0.266,0Zm0,-114.627l0,0.287l-0.266,0l0,-0.287l0.266,0Zm0,-114.633l0,0.288l-0.266,0l0,-0.288l0.266,0Zm0,-114.632l0,0.287l-0.266,0l0,-0.287l0.266,0Zm0,-114.628l0,0.288l-0.266,0l0,-0.288l0.266,0Zm0,-114.632l0,0.287l-0.266,0l0,-0.287l0.266,0Zm0,-114.633l0,0.288l-0.266,0l0,-0.288l0.266,0Zm0,-114.627l0,0.288l-0.266,0l0,-0.288l0.266,0Zm0,-114.632l0,0.288l-0.266,0l0,-0.288l0.266,0Zm52.698,916.909l-52.568,0l0,-56.888l52.568,0l0,56.888Zm0,-57.175l-52.568,0l0,-56.887l52.568,0l0,56.887Zm0,-57.458l-52.568,0l0,-56.887l52.568,0l0,56.887Zm0,-57.17l-52.568,0l0,-56.887l52.568,0l0,56.887Zm0,-57.462l-52.568,0l0,-56.888l52.568,0l0,56.888Zm0,-57.17l-52.568,0l0,-56.887l52.568,0l0,56.887Zm0,-57.458l-52.568,0l0,-56.887l52.568,0l0,56.887Zm0,-57.175l-52.568,0l0,-56.887l52.568,0l0,56.887Zm0,-57.457l-52.568,0l0,-56.887l52.568,0l0,56.887Zm0,-57.17l-52.568,0l0,-56.887l52.568,0l0,56.887Zm0,-57.463l-52.568,0l0,-56.887l52.568,0l0,56.887Zm0,-57.17l-52.568,0l0,-56.887l52.568,0l0,56.887Zm0,-57.457l-52.568,0l0,-56.887l52.568,0l0,56.887Zm0,-57.175l-52.568,0l0,-56.887l52.568,0l0,56.887Zm0,-57.457l-52.568,0l0,-56.887l52.568,0l0,56.887Zm0,-57.17l-52.568,0l0,-56.887l52.568,0l0,56.887Zm52.833,859.587l-52.568,0l0,-56.888l52.568,0l0,56.888Zm0,-57.175l-52.568,0l0,-56.887l52.568,0l0,56.887Zm0,-57.458l-52.568,0l0,-56.887l52.568,0l0,56.887Zm0,-57.17l-52.568,0l0,-56.887l52.568,0l0,56.887Zm0,-57.462l-52.568,0l0,-56.888l52.568,0l0,56.888Zm0,-57.17l-52.568,0l0,-56.887l52.568,0l0,56.887Zm0,-57.458l-52.568,0l0,-56.887l52.568,0l0,56.887Zm0,-57.175l-52.568,0l0,-56.887l52.568,0l0,56.887Zm0,-57.457l-52.568,0l0,-56.887l52.568,0l0,56.887Zm0,-57.17l-52.568,0l0,-56.887l52.568,0l0,56.887Zm0,-57.463l-52.568,0l0,-56.887l52.568,0l0,56.887Zm0,-57.17l-52.568,0l0,-56.887l52.568,0l0,56.887Zm0,-57.457l-52.568,0l0,-56.887l52.568,0l0,56.887Zm0,-57.175l-52.568,0l0,-56.887l52.568,0l0,56.887Zm0,-57.457l-52.568,0l0,-56.887l52.568,0l0,56.887Zm0,-57.17l-52.568,0l0,-56.887l52.568,0l0,56.887Zm0.396,859.723l0,0.288l-0.266,0l0,-0.288l0.266,0Zm0,-114.627l0,0.287l-0.266,0l0,-0.287l0.266,0Zm0,-114.633l0,0.288l-0.266,0l0,-0.288l0.266,0Zm0,-114.632l0,0.287l-0.266,0l0,-0.287l0.266,0Zm0,-114.628l0,0.288l-0.266,0l0,-0.288l0.266,0Zm0,-114.632l0,0.287l-0.266,0l0,-0.287l0.266,0Zm0,-114.633l0,0.288l-0.266,0l0,-0.288l0.266,0Zm0,-114.627l0,0.288l-0.266,0l0,-0.288l0.266,0Zm0,-114.632l0,0.288l-0.266,0l0,-0.288l0.266,0Zm52.698,916.909l-52.567,0l0,-56.888l52.567,0l0,56.888Zm0,-57.175l-52.567,0l0,-56.887l52.567,0l0,56.887Zm0,-57.458l-52.567,0l0,-56.887l52.567,0l0,56.887Zm0,-57.17l-52.567,0l0,-56.887l52.567,0l0,56.887Zm0,-57.462l-52.567,0l0,-56.888l52.567,0l0,56.888Zm0,-57.17l-52.567,0l0,-56.887l52.567,0l0,56.887Zm0,-57.458l-52.567,0l0,-56.887l52.567,0l0,56.887Zm0,-57.175l-52.567,0l0,-56.887l52.567,0l0,56.887Zm0,-57.457l-52.567,0l0,-56.887l52.567,0l0,56.887Zm0,-57.17l-52.567,0l0,-56.887l52.567,0l0,56.887Zm0,-57.463l-52.567,0l0,-56.887l52.567,0l0,56.887Zm0,-57.17l-52.567,0l0,-56.887l52.567,0l0,56.887Zm0,-57.457l-52.567,0l0,-56.887l52.567,0l0,56.887Zm0,-57.175l-52.567,0l0,-56.887l52.567,0l0,56.887Zm0,-57.457l-52.567,0l0,-56.887l52.567,0l0,56.887Zm0,-57.17l-52.567,0l0,-56.887l52.567,0l0,56.887Zm52.828,859.587l-52.567,0l0,-56.888l52.567,0l0,56.888Zm0,-57.175l-52.567,0l0,-56.887l52.567,0l0,56.887Zm0,-57.458l-52.567,0l0,-56.887l52.567,0l0,56.887Zm0,-57.17l-52.567,0l0,-56.887l52.567,0l0,56.887Zm0,-57.462l-52.567,0l0,-56.888l52.567,0l0,56.888Zm0,-57.17l-52.567,0l0,-56.887l52.567,0l0,56.887Zm0,-57.458l-52.567,0l0,-56.887l52.567,0l0,56.887Zm0,-57.175l-52.567,0l0,-56.887l52.567,0l0,56.887Zm0,-57.457l-52.567,0l0,-56.887l52.567,0l0,56.887Zm0,-57.17l-52.567,0l0,-56.887l52.567,0l0,56.887Zm0,-57.463l-52.567,0l0,-56.887l52.567,0l0,56.887Zm0,-57.17l-52.567,0l0,-56.887l52.567,0l0,56.887Zm0,-57.457l-52.567,0l0,-56.887l52.567,0l0,56.887Zm0,-57.175l-52.567,0l0,-56.887l52.567,0l0,56.887Zm0,-57.457l-52.567,0l0,-56.887l52.567,0l0,56.887Zm0,-57.17l-52.567,0l0,-56.887l52.567,0l0,56.887Zm0.396,859.723l0,0.288l-0.265,0l0,-0.288l0.265,0Zm0,-114.627l0,0.287l-0.265,0l0,-0.287l0.265,0Zm0,-114.633l0,0.288l-0.265,0l0,-0.288l0.265,0Zm0,-114.632l0,0.287l-0.265,0l0,-0.287l0.265,0Zm0,-114.628l0,0.288l-0.265,0l0,-0.288l0.265,0Zm0,-114.632l0,0.287l-0.265,0l0,-0.287l0.265,0Zm0,-114.633l0,0.288l-0.265,0l0,-0.288l0.265,0Zm0,-114.627l0,0.288l-0.265,0l0,-0.288l0.265,0Zm0,-114.632l0,0.288l-0.265,0l0,-0.288l0.265,0Zm52.698,916.909l-52.567,0l0,-56.888l52.567,0l0,56.888Zm0,-57.175l-52.567,0l0,-56.887l52.567,0l0,56.887Zm0,-57.458l-52.567,0l0,-56.887l52.567,0l0,56.887Zm0,-57.17l-52.567,0l0,-56.887l52.567,0l0,56.887Zm0,-57.462l-52.567,0l0,-56.888l52.567,0l0,56.888Zm0,-57.17l-52.567,0l0,-56.887l52.567,0l0,56.887Zm0,-57.458l-52.567,0l0,-56.887l52.567,0l0,56.887Zm0,-57.175l-52.567,0l0,-56.887l52.567,0l0,56.887Zm0,-57.457l-52.567,0l0,-56.887l52.567,0l0,56.887Zm0,-57.17l-52.567,0l0,-56.887l52.567,0l0,56.887Zm0,-57.463l-52.567,0l0,-56.887l52.567,0l0,56.887Zm0,-57.17l-52.567,0l0,-56.887l52.567,0l0,56.887Zm0,-57.457l-52.567,0l0,-56.887l52.567,0l0,56.887Zm0,-57.175l-52.567,0l0,-56.887l52.567,0l0,56.887Zm0,-57.457l-52.567,0l0,-56.887l52.567,0l0,56.887Zm0,-57.17l-52.567,0l0,-56.887l52.567,0l0,56.887Zm52.833,859.587l-52.567,0l0,-56.888l52.567,0l0,56.888Zm0,-57.175l-52.567,0l0,-56.887l52.567,0l0,56.887Zm0,-57.458l-52.567,0l0,-56.887l52.567,0l0,56.887Zm0,-57.17l-52.567,0l0,-56.887l52.567,0l0,56.887Zm0,-57.462l-52.567,0l0,-56.888l52.567,0l0,56.888Zm0,-57.17l-52.567,0l0,-56.887l52.567,0l0,56.887Zm0,-57.458l-52.567,0l0,-56.887l52.567,0l0,56.887Zm0,-57.175l-52.567,0l0,-56.887l52.567,0l0,56.887Zm0,-57.457l-52.567,0l0,-56.887l52.567,0l0,56.887Zm0,-57.17l-52.567,0l0,-56.887l52.567,0l0,56.887Zm0,-57.463l-52.567,0l0,-56.887l52.567,0l0,56.887Zm0,-57.17l-52.567,0l0,-56.887l52.567,0l0,56.887Zm0,-57.457l-52.567,0l0,-56.887l52.567,0l0,56.887Zm0,-57.175l-52.567,0l0,-56.887l52.567,0l0,56.887Zm0,-57.457l-52.567,0l0,-56.887l52.567,0l0,56.887Zm0,-57.17l-52.567,0l0,-56.887l52.567,0l0,56.887Zm0.396,859.723l0,0.288l-0.265,0l0,-0.288l0.265,0Zm0,-114.627l0,0.287l-0.265,0l0,-0.287l0.265,0Zm0,-114.633l0,0.288l-0.265,0l0,-0.288l0.265,0Zm0,-114.632l0,0.287l-0.265,0l0,-0.287l0.265,0Zm0,-114.628l0,0.288l-0.265,0l0,-0.288l0.265,0Zm0,-114.632l0,0.287l-0.265,0l0,-0.287l0.265,0Zm0,-114.633l0,0.288l-0.265,0l0,-0.288l0.265,0Zm0,-114.627l0,0.288l-0.265,0l0,-0.288l0.265,0Zm0,-114.632l0,0.288l-0.265,0l0,-0.288l0.265,0Zm52.698,916.909l-52.567,0l0,-56.888l52.567,0l0,56.888Zm0,-57.175l-52.567,0l0,-56.887l52.567,0l0,56.887Zm0,-57.458l-52.567,0l0,-56.887l52.567,0l0,56.887Zm0,-57.17l-52.567,0l0,-56.887l52.567,0l0,56.887Zm0,-57.462l-52.567,0l0,-56.888l52.567,0l0,56.888Zm0,-57.17l-52.567,0l0,-56.887l52.567,0l0,56.887Zm0,-57.458l-52.567,0l0,-56.887l52.567,0l0,56.887Zm0,-57.175l-52.567,0l0,-56.887l52.567,0l0,56.887Zm0,-57.457l-52.567,0l0,-56.887l52.567,0l0,56.887Zm0,-57.17l-52.567,0l0,-56.887l52.567,0l0,56.887Zm0,-57.463l-52.567,0l0,-56.887l52.567,0l0,56.887Zm0,-57.17l-52.567,0l0,-56.887l52.567,0l0,56.887Zm0,-57.457l-52.567,0l0,-56.887l52.567,0l0,56.887Zm0,-57.175l-52.567,0l0,-56.887l52.567,0l0,56.887Zm0,-57.457l-52.567,0l0,-56.887l52.567,0l0,56.887Zm0,-57.17l-52.567,0l0,-56.887l52.567,0l0,56.887Zm52.833,859.587l-52.567,0l0,-56.888l52.567,0l0,56.888Zm0,-57.175l-52.567,0l0,-56.887l52.567,0l0,56.887Zm0,-57.458l-52.567,0l0,-56.887l52.567,0l0,56.887Zm0,-57.17l-52.567,0l0,-56.887l52.567,0l0,56.887Zm0,-57.462l-52.567,0l0,-56.888l52.567,0l0,56.888Zm0,-57.17l-52.567,0l0,-56.887l52.567,0l0,56.887Zm0,-57.458l-52.567,0l0,-56.887l52.567,0l0,56.887Zm0,-57.175l-52.567,0l0,-56.887l52.567,0l0,56.887Zm0,-57.457l-52.567,0l0,-56.887l52.567,0l0,56.887Zm0,-57.17l-52.567,0l0,-56.887l52.567,0l0,56.887Zm0,-57.463l-52.567,0l0,-56.887l52.567,0l0,56.887Zm0,-57.17l-52.567,0l0,-56.887l52.567,0l0,56.887Zm0,-57.457l-52.567,0l0,-56.887l52.567,0l0,56.887Zm0,-57.175l-52.567,0l0,-56.887l52.567,0l0,56.887Zm0,-57.457l-52.567,0l0,-56.887l52.567,0l0,56.887Zm0,-57.17l-52.567,0l0,-56.887l52.567,0l0,56.887Zm0.396,859.723l0,0.288l-0.265,0l0,-0.288l0.265,0Zm0,-114.627l0,0.287l-0.265,0l0,-0.287l0.265,0Zm0,-114.633l0,0.288l-0.265,0l0,-0.288l0.265,0Zm0,-114.632l0,0.287l-0.265,0l0,-0.287l0.265,0Zm0,-114.628l0,0.288l-0.265,0l0,-0.288l0.265,0Zm0,-114.632l0,0.287l-0.265,0l0,-0.287l0.265,0Zm0,-114.633l0,0.288l-0.265,0l0,-0.288l0.265,0Zm0,-114.627l0,0.288l-0.265,0l0,-0.288l0.265,0Zm0,-114.632l0,0.288l-0.265,0l0,-0.288l0.265,0Zm52.698,916.909l-52.567,0l0,-56.888l52.567,0l0,56.888Zm0,-57.175l-52.567,0l0,-56.887l52.567,0l0,56.887Zm0,-57.458l-52.567,0l0,-56.887l52.567,0l0,56.887Zm0,-57.17l-52.567,0l0,-56.887l52.567,0l0,56.887Zm0,-57.462l-52.567,0l0,-56.888l52.567,0l0,56.888Zm0,-57.17l-52.567,0l0,-56.887l52.567,0l0,56.887Zm0,-57.458l-52.567,0l0,-56.887l52.567,0l0,56.887Zm0,-57.175l-52.567,0l0,-56.887l52.567,0l0,56.887Zm0,-57.457l-52.567,0l0,-56.887l52.567,0l0,56.887Zm0,-57.17l-52.567,0l0,-56.887l52.567,0l0,56.887Zm0,-57.463l-52.567,0l0,-56.887l52.567,0l0,56.887Zm0,-57.17l-52.567,0l0,-56.887l52.567,0l0,56.887Zm0,-57.457l-52.567,0l0,-56.887l52.567,0l0,56.887Zm0,-57.175l-52.567,0l0,-56.887l52.567,0l0,56.887Zm0,-57.457l-52.567,0l0,-56.887l52.567,0l0,56.887Zm0,-57.17l-52.567,0l0,-56.887l52.567,0l0,56.887Zm52.828,859.587l-52.567,0l0,-56.888l52.567,0l0,56.888Zm0,-57.175l-52.567,0l0,-56.887l52.567,0l0,56.887Zm0,-57.458l-52.567,0l0,-56.887l52.567,0l0,56.887Zm0,-57.17l-52.567,0l0,-56.887l52.567,0l0,56.887Zm0,-57.462l-52.567,0l0,-56.888l52.567,0l0,56.888Zm0,-57.17l-52.567,0l0,-56.887l52.567,0l0,56.887Zm0,-57.458l-52.567,0l0,-56.887l52.567,0l0,56.887Zm0,-57.175l-52.567,0l0,-56.887l52.567,0l0,56.887Zm0,-57.457l-52.567,0l0,-56.887l52.567,0l0,56.887Zm0,-57.17l-52.567,0l0,-56.887l52.567,0l0,56.887Zm0,-57.463l-52.567,0l0,-56.887l52.567,0l0,56.887Zm0,-57.17l-52.567,0l0,-56.887l52.567,0l0,56.887Zm0,-57.457l-52.567,0l0,-56.887l52.567,0l0,56.887Zm0,-57.175l-52.567,0l0,-56.887l52.567,0l0,56.887Zm0,-57.457l-52.567,0l0,-56.887l52.567,0l0,56.887Zm0,-57.17l-52.567,0l0,-56.887l52.567,0l0,56.887Zm0.397,859.723l0,0.288l-0.266,0l0,-0.288l0.266,0Zm0,-114.627l0,0.287l-0.266,0l0,-0.287l0.266,0Zm0,-114.633l0,0.288l-0.266,0l0,-0.288l0.266,0Zm0,-114.632l0,0.287l-0.266,0l0,-0.287l0.266,0Zm0,-114.628l0,0.288l-0.266,0l0,-0.288l0.266,0Zm0,-114.632l0,0.287l-0.266,0l0,-0.287l0.266,0Zm0,-114.633l0,0.288l-0.266,0l0,-0.288l0.266,0Zm0,-114.627l0,0.288l-0.266,0l0,-0.288l0.266,0Zm0,-114.632l0,0.288l-0.266,0l0,-0.288l0.266,0Zm52.698,916.909l-52.567,0l0,-56.888l52.567,0l0,56.888Zm0,-57.175l-52.567,0l0,-56.887l52.567,0l0,56.887Zm0,-57.458l-52.567,0l0,-56.887l52.567,0l0,56.887Zm0,-57.17l-52.567,0l0,-56.887l52.567,0l0,56.887Zm0,-57.462l-52.567,0l0,-56.888l52.567,0l0,56.888Zm0,-57.17l-52.567,0l0,-56.887l52.567,0l0,56.887Zm0,-57.458l-52.567,0l0,-56.887l52.567,0l0,56.887Zm0,-57.175l-52.567,0l0,-56.887l52.567,0l0,56.887Zm0,-57.457l-52.567,0l0,-56.887l52.567,0l0,56.887Zm0,-57.17l-52.567,0l0,-56.887l52.567,0l0,56.887Zm0,-57.463l-52.567,0l0,-56.887l52.567,0l0,56.887Zm0,-57.17l-52.567,0l0,-56.887l52.567,0l0,56.887Zm0,-57.457l-52.567,0l0,-56.887l52.567,0l0,56.887Zm0,-57.175l-52.567,0l0,-56.887l52.567,0l0,56.887Zm0,-57.457l-52.567,0l0,-56.887l52.567,0l0,56.887Zm0,-57.17l-52.567,0l0,-56.887l52.567,0l0,56.887Zm52.833,859.587l-52.568,0l0,-56.888l52.568,0l0,56.888Zm0,-57.175l-52.568,0l0,-56.887l52.568,0l0,56.887Zm0,-57.458l-52.568,0l0,-56.887l52.568,0l0,56.887Zm0,-57.17l-52.568,0l0,-56.887l52.568,0l0,56.887Zm0,-57.462l-52.568,0l0,-56.888l52.568,0l0,56.888Zm0,-57.17l-52.568,0l0,-56.887l52.568,0l0,56.887Zm0,-57.458l-52.568,0l0,-56.887l52.568,0l0,56.887Zm0,-57.175l-52.568,0l0,-56.887l52.568,0l0,56.887Zm0,-57.457l-52.568,0l0,-56.887l52.568,0l0,56.887Zm0,-57.17l-52.568,0l0,-56.887l52.568,0l0,56.887Zm0,-57.463l-52.568,0l0,-56.887l52.568,0l0,56.887Zm0,-57.17l-52.568,0l0,-56.887l52.568,0l0,56.887Zm0,-57.457l-52.568,0l0,-56.887l52.568,0l0,56.887Zm0,-57.175l-52.568,0l0,-56.887l52.568,0l0,56.887Zm0,-57.457l-52.568,0l0,-56.887l52.568,0l0,56.887Zm0,-57.17l-52.568,0l0,-56.887l52.568,0l0,56.887Zm0.396,859.723l0,0.288l-0.266,0l0,-0.288l0.266,0Zm0,-114.627l0,0.287l-0.266,0l0,-0.287l0.266,0Zm0,-114.633l0,0.288l-0.266,0l0,-0.288l0.266,0Zm0,-114.632l0,0.287l-0.266,0l0,-0.287l0.266,0Zm0,-114.628l0,0.288l-0.266,0l0,-0.288l0.266,0Zm0,-114.632l0,0.287l-0.266,0l0,-0.287l0.266,0Zm0,-114.633l0,0.288l-0.266,0l0,-0.288l0.266,0Zm0,-114.627l0,0.288l-0.266,0l0,-0.288l0.266,0Zm0,-114.632l0,0.288l-0.266,0l0,-0.288l0.266,0Zm52.698,916.909l-52.567,0l0,-56.888l52.567,0l0,56.888Zm0,-57.175l-52.567,0l0,-56.887l52.567,0l0,56.887Zm0,-57.458l-52.567,0l0,-56.887l52.567,0l0,56.887Zm0,-57.17l-52.567,0l0,-56.887l52.567,0l0,56.887Zm0,-57.462l-52.567,0l0,-56.888l52.567,0l0,56.888Zm0,-57.17l-52.567,0l0,-56.887l52.567,0l0,56.887Zm0,-57.458l-52.567,0l0,-56.887l52.567,0l0,56.887Zm0,-57.175l-52.567,0l0,-56.887l52.567,0l0,56.887Zm0,-57.457l-52.567,0l0,-56.887l52.567,0l0,56.887Zm0,-57.17l-52.567,0l0,-56.887l52.567,0l0,56.887Zm0,-57.463l-52.567,0l0,-56.887l52.567,0l0,56.887Zm0,-57.17l-52.567,0l0,-56.887l52.567,0l0,56.887Zm0,-57.457l-52.567,0l0,-56.887l52.567,0l0,56.887Zm0,-57.175l-52.567,0l0,-56.887l52.567,0l0,56.887Zm0,-57.457l-52.567,0l0,-56.887l52.567,0l0,56.887Zm0,-57.17l-52.567,0l0,-56.887l52.567,0l0,56.887Zm52.833,859.587l-52.567,0l0,-56.888l52.567,0l0,56.888Zm0,-57.175l-52.567,0l0,-56.887l52.567,0l0,56.887Zm0,-57.458l-52.567,0l0,-56.887l52.567,0l0,56.887Zm0,-57.17l-52.567,0l0,-56.887l52.567,0l0,56.887Zm0,-57.462l-52.567,0l0,-56.888l52.567,0l0,56.888Zm0,-57.17l-52.567,0l0,-56.887l52.567,0l0,56.887Zm0,-57.458l-52.567,0l0,-56.887l52.567,0l0,56.887Zm0,-57.175l-52.567,0l0,-56.887l52.567,0l0,56.887Zm0,-57.457l-52.567,0l0,-56.887l52.567,0l0,56.887Zm0,-57.17l-52.567,0l0,-56.887l52.567,0l0,56.887Zm0,-57.463l-52.567,0l0,-56.887l52.567,0l0,56.887Zm0,-57.17l-52.567,0l0,-56.887l52.567,0l0,56.887Zm0,-57.457l-52.567,0l0,-56.887l52.567,0l0,56.887Zm0,-57.175l-52.567,0l0,-56.887l52.567,0l0,56.887Zm0,-57.457l-52.567,0l0,-56.887l52.567,0l0,56.887Zm0,-57.17l-52.567,0l0,-56.887l52.567,0l0,56.887Zm0.396,859.723l0,0.288l-0.266,0l0,-0.288l0.266,0Zm0,-114.627l0,0.287l-0.266,0l0,-0.287l0.266,0Zm0,-114.633l0,0.288l-0.266,0l0,-0.288l0.266,0Zm0,-114.632l0,0.287l-0.266,0l0,-0.287l0.266,0Zm0,-114.628l0,0.288l-0.266,0l0,-0.288l0.266,0Zm0,-114.632l0,0.287l-0.266,0l0,-0.287l0.266,0Zm0,-114.633l0,0.288l-0.266,0l0,-0.288l0.266,0Zm0,-114.627l0,0.288l-0.266,0l0,-0.288l0.266,0Zm0,-114.632l0,0.288l-0.266,0l0,-0.288l0.266,0Zm52.701,916.909l-52.57,0l0,-56.888l52.57,0l0,56.888Zm0,-57.175l-52.57,0l0,-56.887l52.57,0l0,56.887Zm0,-57.458l-52.57,0l0,-56.887l52.57,0l0,56.887Zm0,-57.17l-52.57,0l0,-56.887l52.57,0l0,56.887Zm0,-57.462l-52.57,0l0,-56.888l52.57,0l0,56.888Zm0,-57.17l-52.57,0l0,-56.887l52.57,0l0,56.887Zm0,-57.458l-52.57,0l0,-56.887l52.57,0l0,56.887Zm0,-57.175l-52.57,0l0,-56.887l52.57,0l0,56.887Zm0,-57.457l-52.57,0l0,-56.887l52.57,0l0,56.887Zm0,-57.17l-52.57,0l0,-56.887l52.57,0l0,56.887Zm0,-57.463l-52.57,0l0,-56.887l52.57,0l0,56.887Zm0,-57.17l-52.57,0l0,-56.887l52.57,0l0,56.887Zm0,-57.457l-52.57,0l0,-56.887l52.57,0l0,56.887Zm0,-57.175l-52.57,0l0,-56.887l52.57,0l0,56.887Zm0,-57.457l-52.57,0l0,-56.887l52.57,0l0,56.887Zm0,-57.17l-52.57,0l0,-56.887l52.57,0l0,56.887Zm52.82,859.587l-52.56,0l0,-56.888l52.56,0l0,56.888Zm0,-57.175l-52.56,0l0,-56.887l52.56,0l0,56.887Zm0,-57.458l-52.56,0l0,-56.887l52.56,0l0,56.887Zm0,-57.17l-52.56,0l0,-56.887l52.56,0l0,56.887Zm0,-57.462l-52.56,0l0,-56.888l52.56,0l0,56.888Zm0,-57.17l-52.56,0l0,-56.887l52.56,0l0,56.887Zm0,-57.458l-52.56,0l0,-56.887l52.56,0l0,56.887Zm0,-57.175l-52.56,0l0,-56.887l52.56,0l0,56.887Zm0,-57.457l-52.56,0l0,-56.887l52.56,0l0,56.887Zm0,-57.17l-52.56,0l0,-56.887l52.56,0l0,56.887Zm0,-57.463l-52.56,0l0,-56.887l52.56,0l0,56.887Zm0,-57.17l-52.56,0l0,-56.887l52.56,0l0,56.887Zm0,-57.457l-52.56,0l0,-56.887l52.56,0l0,56.887Zm0,-57.175l-52.56,0l0,-56.887l52.56,0l0,56.887Zm0,-57.457l-52.56,0l0,-56.887l52.56,0l0,56.887Zm0,-57.17l-52.56,0l0,-56.887l52.56,0l0,56.887Zm0.4,859.723l0,0.288l-0.26,0l0,-0.288l0.26,0Zm0,-114.627l0,0.287l-0.26,0l0,-0.287l0.26,0Zm0,-114.633l0,0.288l-0.26,0l0,-0.288l0.26,0Zm0,-114.632l0,0.287l-0.26,0l0,-0.287l0.26,0Zm0,-114.628l0,0.288l-0.26,0l0,-0.288l0.26,0Zm0,-114.632l0,0.287l-0.26,0l0,-0.287l0.26,0Zm0,-114.633l0,0.288l-0.26,0l0,-0.288l0.26,0Zm0,-114.627l0,0.288l-0.26,0l0,-0.288l0.26,0Zm0,-114.632l0,0.288l-0.26,0l0,-0.288l0.26,0Zm52.7,916.909l-52.57,0l0,-56.888l52.57,0l0,56.888Zm0,-57.175l-52.57,0l0,-56.887l52.57,0l0,56.887Zm0,-57.458l-52.57,0l0,-56.887l52.57,0l0,56.887Zm0,-57.17l-52.57,0l0,-56.887l52.57,0l0,56.887Zm0,-57.462l-52.57,0l0,-56.888l52.57,0l0,56.888Zm0,-57.17l-52.57,0l0,-56.887l52.57,0l0,56.887Zm0,-57.458l-52.57,0l0,-56.887l52.57,0l0,56.887Zm0,-57.175l-52.57,0l0,-56.887l52.57,0l0,56.887Zm0,-57.457l-52.57,0l0,-56.887l52.57,0l0,56.887Zm0,-57.17l-52.57,0l0,-56.887l52.57,0l0,56.887Zm0,-57.463l-52.57,0l0,-56.887l52.57,0l0,56.887Zm0,-57.17l-52.57,0l0,-56.887l52.57,0l0,56.887Zm0,-57.457l-52.57,0l0,-56.887l52.57,0l0,56.887Zm0,-57.175l-52.57,0l0,-56.887l52.57,0l0,56.887Zm0,-57.457l-52.57,0l0,-56.887l52.57,0l0,56.887Zm0,-57.17l-52.57,0l0,-56.887l52.57,0l0,56.887Zm52.83,859.587l-52.56,0l0,-56.888l52.56,0l0,56.888Zm0,-57.175l-52.56,0l0,-56.887l52.56,0l0,56.887Zm0,-57.458l-52.56,0l0,-56.887l52.56,0l0,56.887Zm0,-57.17l-52.56,0l0,-56.887l52.56,0l0,56.887Zm0,-57.462l-52.56,0l0,-56.888l52.56,0l0,56.888Zm0,-57.17l-52.56,0l0,-56.887l52.56,0l0,56.887Zm0,-57.458l-52.56,0l0,-56.887l52.56,0l0,56.887Zm0,-57.175l-52.56,0l0,-56.887l52.56,0l0,56.887Zm0,-57.457l-52.56,0l0,-56.887l52.56,0l0,56.887Zm0,-57.17l-52.56,0l0,-56.887l52.56,0l0,56.887Zm0,-57.463l-52.56,0l0,-56.887l52.56,0l0,56.887Zm0,-57.17l-52.56,0l0,-56.887l52.56,0l0,56.887Zm0,-57.457l-52.56,0l0,-56.887l52.56,0l0,56.887Zm0,-57.175l-52.56,0l0,-56.887l52.56,0l0,56.887Zm0,-57.457l-52.56,0l0,-56.887l52.56,0l0,56.887Zm0,-57.17l-52.56,0l0,-56.887l52.56,0l0,56.887Zm0.4,859.723l0,0.288l-0.27,0l0,-0.288l0.27,0Zm0,-114.627l0,0.287l-0.27,0l0,-0.287l0.27,0Zm0,-114.633l0,0.288l-0.27,0l0,-0.288l0.27,0Zm0,-114.632l0,0.287l-0.27,0l0,-0.287l0.27,0Zm0,-114.628l0,0.288l-0.27,0l0,-0.288l0.27,0Zm0,-114.632l0,0.287l-0.27,0l0,-0.287l0.27,0Zm0,-114.633l0,0.288l-0.27,0l0,-0.288l0.27,0Zm0,-114.627l0,0.288l-0.27,0l0,-0.288l0.27,0Zm0,-114.632l0,0.288l-0.27,0l0,-0.288l0.27,0Zm52.7,916.909l-52.57,0l0,-56.888l52.57,0l0,56.888Zm0,-57.175l-52.57,0l0,-56.887l52.57,0l0,56.887Zm0,-57.458l-52.57,0l0,-56.887l52.57,0l0,56.887Zm0,-57.17l-52.57,0l0,-56.887l52.57,0l0,56.887Zm0,-57.462l-52.57,0l0,-56.888l52.57,0l0,56.888Zm0,-57.17l-52.57,0l0,-56.887l52.57,0l0,56.887Zm0,-57.458l-52.57,0l0,-56.887l52.57,0l0,56.887Zm0,-57.175l-52.57,0l0,-56.887l52.57,0l0,56.887Zm0,-57.457l-52.57,0l0,-56.887l52.57,0l0,56.887Zm0,-57.17l-52.57,0l0,-56.887l52.57,0l0,56.887Zm0,-57.463l-52.57,0l0,-56.887l52.57,0l0,56.887Zm0,-57.17l-52.57,0l0,-56.887l52.57,0l0,56.887Zm0,-57.457l-52.57,0l0,-56.887l52.57,0l0,56.887Zm0,-57.175l-52.57,0l0,-56.887l52.57,0l0,56.887Zm0,-57.457l-52.57,0l0,-56.887l52.57,0l0,56.887Zm0,-57.17l-52.57,0l0,-56.887l52.57,0l0,56.887Zm52.83,859.587l-52.57,0l0,-56.888l52.57,0l0,56.888Zm0,-57.175l-52.57,0l0,-56.887l52.57,0l0,56.887Zm0,-57.458l-52.57,0l0,-56.887l52.57,0l0,56.887Zm0,-57.17l-52.57,0l0,-56.887l52.57,0l0,56.887Zm0,-57.462l-52.57,0l0,-56.888l52.57,0l0,56.888Zm0,-57.17l-52.57,0l0,-56.887l52.57,0l0,56.887Zm0,-57.458l-52.57,0l0,-56.887l52.57,0l0,56.887Zm0,-57.175l-52.57,0l0,-56.887l52.57,0l0,56.887Zm0,-57.457l-52.57,0l0,-56.887l52.57,0l0,56.887Zm0,-57.17l-52.57,0l0,-56.887l52.57,0l0,56.887Zm0,-57.463l-52.57,0l0,-56.887l52.57,0l0,56.887Zm0,-57.17l-52.57,0l0,-56.887l52.57,0l0,56.887Zm0,-57.457l-52.57,0l0,-56.887l52.57,0l0,56.887Zm0,-57.175l-52.57,0l0,-56.887l52.57,0l0,56.887Zm0,-57.457l-52.57,0l0,-56.887l52.57,0l0,56.887Zm0,-57.17l-52.57,0l0,-56.887l52.57,0l0,56.887Zm0.4,859.723l0,0.288l-0.27,0l0,-0.288l0.27,0Zm0,-114.627l0,0.287l-0.27,0l0,-0.287l0.27,0Zm0,-114.633l0,0.288l-0.27,0l0,-0.288l0.27,0Zm0,-114.632l0,0.287l-0.27,0l0,-0.287l0.27,0Zm0,-114.628l0,0.288l-0.27,0l0,-0.288l0.27,0Zm0,-114.632l0,0.287l-0.27,0l0,-0.287l0.27,0Zm0,-114.633l0,0.288l-0.27,0l0,-0.288l0.27,0Zm0,-114.627l0,0.288l-0.27,0l0,-0.288l0.27,0Zm0,-114.632l0,0.288l-0.27,0l0,-0.288l0.27,0Zm52.69,916.909l-52.56,0l0,-56.888l52.56,0l0,56.888Zm0,-57.175l-52.56,0l0,-56.887l52.56,0l0,56.887Zm0,-57.458l-52.56,0l0,-56.887l52.56,0l0,56.887Zm0,-57.17l-52.56,0l0,-56.887l52.56,0l0,56.887Zm0,-57.462l-52.56,0l0,-56.888l52.56,0l0,56.888Zm0,-57.17l-52.56,0l0,-56.887l52.56,0l0,56.887Zm0,-57.458l-52.56,0l0,-56.887l52.56,0l0,56.887Zm0,-57.175l-52.56,0l0,-56.887l52.56,0l0,56.887Zm0,-57.457l-52.56,0l0,-56.887l52.56,0l0,56.887Zm0,-57.17l-52.56,0l0,-56.887l52.56,0l0,56.887Zm0,-57.463l-52.56,0l0,-56.887l52.56,0l0,56.887Zm0,-57.17l-52.56,0l0,-56.887l52.56,0l0,56.887Zm0,-57.457l-52.56,0l0,-56.887l52.56,0l0,56.887Zm0,-57.175l-52.56,0l0,-56.887l52.56,0l0,56.887Zm0,-57.457l-52.56,0l0,-56.887l52.56,0l0,56.887Zm0,-57.17l-52.56,0l0,-56.887l52.56,0l0,56.887Zm52.83,859.587l-52.57,0l0,-56.888l52.57,0l0,56.888Zm0,-57.175l-52.57,0l0,-56.887l52.57,0l0,56.887Zm0,-57.458l-52.57,0l0,-56.887l52.57,0l0,56.887Zm0,-57.17l-52.57,0l0,-56.887l52.57,0l0,56.887Zm0,-57.462l-52.57,0l0,-56.888l52.57,0l0,56.888Zm0,-57.17l-52.57,0l0,-56.887l52.57,0l0,56.887Zm0,-57.458l-52.57,0l0,-56.887l52.57,0l0,56.887Zm0,-57.175l-52.57,0l0,-56.887l52.57,0l0,56.887Zm0,-57.457l-52.57,0l0,-56.887l52.57,0l0,56.887Zm0,-57.17l-52.57,0l0,-56.887l52.57,0l0,56.887Zm0,-57.463l-52.57,0l0,-56.887l52.57,0l0,56.887Zm0,-57.17l-52.57,0l0,-56.887l52.57,0l0,56.887Zm0,-57.457l-52.57,0l0,-56.887l52.57,0l0,56.887Zm0,-57.175l-52.57,0l0,-56.887l52.57,0l0,56.887Zm0,-57.457l-52.57,0l0,-56.887l52.57,0l0,56.887Zm0,-57.17l-52.57,0l0,-56.887l52.57,0l0,56.887Zm0.4,859.723l0,0.288l-0.27,0l0,-0.288l0.27,0Zm0,-114.627l0,0.287l-0.27,0l0,-0.287l0.27,0Zm0,-114.633l0,0.288l-0.27,0l0,-0.288l0.27,0Zm0,-114.632l0,0.287l-0.27,0l0,-0.287l0.27,0Zm0,-114.628l0,0.288l-0.27,0l0,-0.288l0.27,0Zm0,-114.632l0,0.287l-0.27,0l0,-0.287l0.27,0Zm0,-114.633l0,0.288l-0.27,0l0,-0.288l0.27,0Zm0,-114.627l0,0.288l-0.27,0l0,-0.288l0.27,0Zm0,-114.632l0,0.288l-0.27,0l0,-0.288l0.27,0Zm52.7,916.909l-52.57,0l0,-56.888l52.57,0l0,56.888Zm0,-57.175l-52.57,0l0,-56.887l52.57,0l0,56.887Zm0,-57.458l-52.57,0l0,-56.887l52.57,0l0,56.887Zm0,-57.17l-52.57,0l0,-56.887l52.57,0l0,56.887Zm0,-57.462l-52.57,0l0,-56.888l52.57,0l0,56.888Zm0,-57.17l-52.57,0l0,-56.887l52.57,0l0,56.887Zm0,-57.458l-52.57,0l0,-56.887l52.57,0l0,56.887Zm0,-57.175l-52.57,0l0,-56.887l52.57,0l0,56.887Zm0,-57.457l-52.57,0l0,-56.887l52.57,0l0,56.887Zm0,-57.17l-52.57,0l0,-56.887l52.57,0l0,56.887Zm0,-57.463l-52.57,0l0,-56.887l52.57,0l0,56.887Zm0,-57.17l-52.57,0l0,-56.887l52.57,0l0,56.887Zm0,-57.457l-52.57,0l0,-56.887l52.57,0l0,56.887Zm0,-57.175l-52.57,0l0,-56.887l52.57,0l0,56.887Zm0,-57.457l-52.57,0l0,-56.887l52.57,0l0,56.887Zm0,-57.17l-52.57,0l0,-56.887l52.57,0l0,56.887Zm52.83,859.587l-52.57,0l0,-56.888l52.57,0l0,56.888Zm0,-57.175l-52.57,0l0,-56.887l52.57,0l0,56.887Zm0,-57.458l-52.57,0l0,-56.887l52.57,0l0,56.887Zm0,-57.17l-52.57,0l0,-56.887l52.57,0l0,56.887Zm0,-57.462l-52.57,0l0,-56.888l52.57,0l0,56.888Zm0,-57.17l-52.57,0l0,-56.887l52.57,0l0,56.887Zm0,-57.458l-52.57,0l0,-56.887l52.57,0l0,56.887Zm0,-57.175l-52.57,0l0,-56.887l52.57,0l0,56.887Zm0,-57.457l-52.57,0l0,-56.887l52.57,0l0,56.887Zm0,-57.17l-52.57,0l0,-56.887l52.57,0l0,56.887Zm0,-57.463l-52.57,0l0,-56.887l52.57,0l0,56.887Zm0,-57.17l-52.57,0l0,-56.887l52.57,0l0,56.887Zm0,-57.457l-52.57,0l0,-56.887l52.57,0l0,56.887Zm0,-57.175l-52.57,0l0,-56.887l52.57,0l0,56.887Zm0,-57.457l-52.57,0l0,-56.887l52.57,0l0,56.887Zm0,-57.17l-52.57,0l0,-56.887l52.57,0l0,56.887Zm0.4,859.723l0,0.288l-0.27,0l0,-0.288l0.27,0Zm0,-114.627l0,0.287l-0.27,0l0,-0.287l0.27,0Zm0,-114.633l0,0.288l-0.27,0l0,-0.288l0.27,0Zm0,-114.632l0,0.287l-0.27,0l0,-0.287l0.27,0Zm0,-114.628l0,0.288l-0.27,0l0,-0.288l0.27,0Zm0,-114.632l0,0.287l-0.27,0l0,-0.287l0.27,0Zm0,-114.633l0,0.288l-0.27,0l0,-0.288l0.27,0Zm0,-114.627l0,0.288l-0.27,0l0,-0.288l0.27,0Zm0,-114.632l0,0.288l-0.27,0l0,-0.288l0.27,0Zm52.69,916.909l-52.56,0l0,-56.888l52.56,0l0,56.888Zm0,-57.175l-52.56,0l0,-56.887l52.56,0l0,56.887Zm0,-57.458l-52.56,0l0,-56.887l52.56,0l0,56.887Zm0,-57.17l-52.56,0l0,-56.887l52.56,0l0,56.887Zm0,-57.462l-52.56,0l0,-56.888l52.56,0l0,56.888Zm0,-57.17l-52.56,0l0,-56.887l52.56,0l0,56.887Zm0,-57.458l-52.56,0l0,-56.887l52.56,0l0,56.887Zm0,-57.175l-52.56,0l0,-56.887l52.56,0l0,56.887Zm0,-57.457l-52.56,0l0,-56.887l52.56,0l0,56.887Zm0,-57.17l-52.56,0l0,-56.887l52.56,0l0,56.887Zm0,-57.463l-52.56,0l0,-56.887l52.56,0l0,56.887Zm0,-57.17l-52.56,0l0,-56.887l52.56,0l0,56.887Zm0,-57.457l-52.56,0l0,-56.887l52.56,0l0,56.887Zm0,-57.175l-52.56,0l0,-56.887l52.56,0l0,56.887Zm0,-57.457l-52.56,0l0,-56.887l52.56,0l0,56.887Zm0,-57.17l-52.56,0l0,-56.887l52.56,0l0,56.887Zm52.83,859.587l-52.57,0l0,-56.888l52.57,0l0,56.888Zm0,-57.175l-52.57,0l0,-56.887l52.57,0l0,56.887Zm0,-57.458l-52.57,0l0,-56.887l52.57,0l0,56.887Zm0,-57.17l-52.57,0l0,-56.887l52.57,0l0,56.887Zm0,-57.462l-52.57,0l0,-56.888l52.57,0l0,56.888Zm0,-57.17l-52.57,0l0,-56.887l52.57,0l0,56.887Zm0,-57.458l-52.57,0l0,-56.887l52.57,0l0,56.887Zm0,-57.175l-52.57,0l0,-56.887l52.57,0l0,56.887Zm0,-57.457l-52.57,0l0,-56.887l52.57,0l0,56.887Zm0,-57.17l-52.57,0l0,-56.887l52.57,0l0,56.887Zm0,-57.463l-52.57,0l0,-56.887l52.57,0l0,56.887Zm0,-57.17l-52.57,0l0,-56.887l52.57,0l0,56.887Zm0,-57.457l-52.57,0l0,-56.887l52.57,0l0,56.887Zm0,-57.175l-52.57,0l0,-56.887l52.57,0l0,56.887Zm0,-57.457l-52.57,0l0,-56.887l52.57,0l0,56.887Zm0,-57.17l-52.57,0l0,-56.887l52.57,0l0,56.887Zm0.4,859.723l0,0.288l-0.27,0l0,-0.288l0.27,0Zm0,-114.627l0,0.287l-0.27,0l0,-0.287l0.27,0Zm0,-114.633l0,0.288l-0.27,0l0,-0.288l0.27,0Zm0,-114.632l0,0.287l-0.27,0l0,-0.287l0.27,0Zm0,-114.628l0,0.288l-0.27,0l0,-0.288l0.27,0Zm0,-114.632l0,0.287l-0.27,0l0,-0.287l0.27,0Zm0,-114.633l0,0.288l-0.27,0l0,-0.288l0.27,0Zm0,-114.627l0,0.288l-0.27,0l0,-0.288l0.27,0Zm0,-114.632l0,0.288l-0.27,0l0,-0.288l0.27,0Zm52.7,916.909l-52.57,0l0,-56.888l52.57,0l0,56.888Zm0,-57.175l-52.57,0l0,-56.887l52.57,0l0,56.887Zm0,-57.458l-52.57,0l0,-56.887l52.57,0l0,56.887Zm0,-57.17l-52.57,0l0,-56.887l52.57,0l0,56.887Zm0,-57.462l-52.57,0l0,-56.888l52.57,0l0,56.888Zm0,-57.17l-52.57,0l0,-56.887l52.57,0l0,56.887Zm0,-57.458l-52.57,0l0,-56.887l52.57,0l0,56.887Zm0,-57.175l-52.57,0l0,-56.887l52.57,0l0,56.887Zm0,-57.457l-52.57,0l0,-56.887l52.57,0l0,56.887Zm0,-57.17l-52.57,0l0,-56.887l52.57,0l0,56.887Zm0,-57.463l-52.57,0l0,-56.887l52.57,0l0,56.887Zm0,-57.17l-52.57,0l0,-56.887l52.57,0l0,56.887Zm0,-57.457l-52.57,0l0,-56.887l52.57,0l0,56.887Zm0,-57.175l-52.57,0l0,-56.887l52.57,0l0,56.887Zm0,-57.457l-52.57,0l0,-56.887l52.57,0l0,56.887Zm0,-57.17l-52.57,0l0,-56.887l52.57,0l0,56.887Zm52.83,859.587l-52.57,0l0,-56.888l52.57,0l0,56.888Zm0,-57.175l-52.57,0l0,-56.887l52.57,0l0,56.887Zm0,-57.458l-52.57,0l0,-56.887l52.57,0l0,56.887Zm0,-57.17l-52.57,0l0,-56.887l52.57,0l0,56.887Zm0,-57.462l-52.57,0l0,-56.888l52.57,0l0,56.888Zm0,-57.17l-52.57,0l0,-56.887l52.57,0l0,56.887Zm0,-57.458l-52.57,0l0,-56.887l52.57,0l0,56.887Zm0,-57.175l-52.57,0l0,-56.887l52.57,0l0,56.887Zm0,-57.457l-52.57,0l0,-56.887l52.57,0l0,56.887Zm0,-57.17l-52.57,0l0,-56.887l52.57,0l0,56.887Zm0,-57.463l-52.57,0l0,-56.887l52.57,0l0,56.887Zm0,-57.17l-52.57,0l0,-56.887l52.57,0l0,56.887Zm0,-57.457l-52.57,0l0,-56.887l52.57,0l0,56.887Zm0,-57.175l-52.57,0l0,-56.887l52.57,0l0,56.887Zm0,-57.457l-52.57,0l0,-56.887l52.57,0l0,56.887Zm0,-57.17l-52.57,0l0,-56.887l52.57,0l0,56.887Zm0.39,859.723l0,0.288l-0.26,0l0,-0.288l0.26,0Zm0,-114.627l0,0.287l-0.26,0l0,-0.287l0.26,0Zm0,-114.633l0,0.288l-0.26,0l0,-0.288l0.26,0Zm0,-114.632l0,0.287l-0.26,0l0,-0.287l0.26,0Zm0,-114.628l0,0.288l-0.26,0l0,-0.288l0.26,0Zm0,-114.632l0,0.287l-0.26,0l0,-0.287l0.26,0Zm0,-114.633l0,0.288l-0.26,0l0,-0.288l0.26,0Zm0,-114.627l0,0.288l-0.26,0l0,-0.288l0.26,0Zm0,-114.632l0,0.288l-0.26,0l0,-0.288l0.26,0Zm52.7,916.909l-52.56,0l0,-56.888l52.56,0l0,56.888Zm0,-57.175l-52.56,0l0,-56.887l52.56,0l0,56.887Zm0,-57.458l-52.56,0l0,-56.887l52.56,0l0,56.887Zm0,-57.17l-52.56,0l0,-56.887l52.56,0l0,56.887Zm0,-57.462l-52.56,0l0,-56.888l52.56,0l0,56.888Zm0,-57.17l-52.56,0l0,-56.887l52.56,0l0,56.887Zm0,-57.458l-52.56,0l0,-56.887l52.56,0l0,56.887Zm0,-57.175l-52.56,0l0,-56.887l52.56,0l0,56.887Zm0,-57.457l-52.56,0l0,-56.887l52.56,0l0,56.887Zm0,-57.17l-52.56,0l0,-56.887l52.56,0l0,56.887Zm0,-57.463l-52.56,0l0,-56.887l52.56,0l0,56.887Zm0,-57.17l-52.56,0l0,-56.887l52.56,0l0,56.887Zm0,-57.457l-52.56,0l0,-56.887l52.56,0l0,56.887Zm0,-57.175l-52.56,0l0,-56.887l52.56,0l0,56.887Zm0,-57.457l-52.56,0l0,-56.887l52.56,0l0,56.887Zm0,-57.17l-52.56,0l0,-56.887l52.56,0l0,56.887Zm52.84,859.587l-52.57,0l0,-56.888l52.57,0l0,56.888Zm0,-57.175l-52.57,0l0,-56.887l52.57,0l0,56.887Zm0,-57.458l-52.57,0l0,-56.887l52.57,0l0,56.887Zm0,-57.17l-52.57,0l0,-56.887l52.57,0l0,56.887Zm0,-57.462l-52.57,0l0,-56.888l52.57,0l0,56.888Zm0,-57.17l-52.57,0l0,-56.887l52.57,0l0,56.887Zm0,-57.458l-52.57,0l0,-56.887l52.57,0l0,56.887Zm0,-57.175l-52.57,0l0,-56.887l52.57,0l0,56.887Zm0,-57.457l-52.57,0l0,-56.887l52.57,0l0,56.887Zm0,-57.17l-52.57,0l0,-56.887l52.57,0l0,56.887Zm0,-57.463l-52.57,0l0,-56.887l52.57,0l0,56.887Zm0,-57.17l-52.57,0l0,-56.887l52.57,0l0,56.887Zm0,-57.457l-52.57,0l0,-56.887l52.57,0l0,56.887Zm0,-57.175l-52.57,0l0,-56.887l52.57,0l0,56.887Zm0,-57.457l-52.57,0l0,-56.887l52.57,0l0,56.887Zm0,-57.17l-52.57,0l0,-56.887l52.57,0l0,56.887Zm0.39,859.723l0,0.288l-0.26,0l0,-0.288l0.26,0Zm0,-114.627l0,0.287l-0.26,0l0,-0.287l0.26,0Zm0,-114.633l0,0.288l-0.26,0l0,-0.288l0.26,0Zm0,-114.632l0,0.287l-0.26,0l0,-0.287l0.26,0Zm0,-114.628l0,0.288l-0.26,0l0,-0.288l0.26,0Zm0,-114.632l0,0.287l-0.26,0l0,-0.287l0.26,0Zm0,-114.633l0,0.288l-0.26,0l0,-0.288l0.26,0Zm0,-114.627l0,0.288l-0.26,0l0,-0.288l0.26,0Zm0,-114.632l0,0.288l-0.26,0l0,-0.288l0.26,0Zm52.7,916.909l-52.57,0l0,-56.888l52.57,0l0,56.888Zm0,-57.175l-52.57,0l0,-56.887l52.57,0l0,56.887Zm0,-57.458l-52.57,0l0,-56.887l52.57,0l0,56.887Zm0,-57.17l-52.57,0l0,-56.887l52.57,0l0,56.887Zm0,-57.462l-52.57,0l0,-56.888l52.57,0l0,56.888Zm0,-57.17l-52.57,0l0,-56.887l52.57,0l0,56.887Zm0,-57.458l-52.57,0l0,-56.887l52.57,0l0,56.887Zm0,-57.175l-52.57,0l0,-56.887l52.57,0l0,56.887Zm0,-57.457l-52.57,0l0,-56.887l52.57,0l0,56.887Zm0,-57.17l-52.57,0l0,-56.887l52.57,0l0,56.887Zm0,-57.463l-52.57,0l0,-56.887l52.57,0l0,56.887Zm0,-57.17l-52.57,0l0,-56.887l52.57,0l0,56.887Zm0,-57.457l-52.57,0l0,-56.887l52.57,0l0,56.887Zm0,-57.175l-52.57,0l0,-56.887l52.57,0l0,56.887Zm0,-57.457l-52.57,0l0,-56.887l52.57,0l0,56.887Zm0,-57.17l-52.57,0l0,-56.887l52.57,0l0,56.887Zm52.83,859.587l-52.57,0l0,-56.888l52.57,0l0,56.888Zm0,-57.175l-52.57,0l0,-56.887l52.57,0l0,56.887Zm0,-57.458l-52.57,0l0,-56.887l52.57,0l0,56.887Zm0,-57.17l-52.57,0l0,-56.887l52.57,0l0,56.887Zm0,-57.462l-52.57,0l0,-56.888l52.57,0l0,56.888Zm0,-57.17l-52.57,0l0,-56.887l52.57,0l0,56.887Zm0,-57.458l-52.57,0l0,-56.887l52.57,0l0,56.887Zm0,-57.175l-52.57,0l0,-56.887l52.57,0l0,56.887Zm0,-57.457l-52.57,0l0,-56.887l52.57,0l0,56.887Zm0,-57.17l-52.57,0l0,-56.887l52.57,0l0,56.887Zm0,-57.463l-52.57,0l0,-56.887l52.57,0l0,56.887Zm0,-57.17l-52.57,0l0,-56.887l52.57,0l0,56.887Zm0,-57.457l-52.57,0l0,-56.887l52.57,0l0,56.887Zm0,-57.175l-52.57,0l0,-56.887l52.57,0l0,56.887Zm0,-57.457l-52.57,0l0,-56.887l52.57,0l0,56.887Zm0,-57.17l-52.57,0l0,-56.887l52.57,0l0,56.887Zm0.39,859.723l0,0.288l-0.26,0l0,-0.288l0.26,0Zm0,-114.627l0,0.287l-0.26,0l0,-0.287l0.26,0Zm0,-114.633l0,0.288l-0.26,0l0,-0.288l0.26,0Zm0,-114.632l0,0.287l-0.26,0l0,-0.287l0.26,0Zm0,-114.628l0,0.288l-0.26,0l0,-0.288l0.26,0Zm0,-114.632l0,0.287l-0.26,0l0,-0.287l0.26,0Zm0,-114.633l0,0.288l-0.26,0l0,-0.288l0.26,0Zm0,-114.627l0,0.288l-0.26,0l0,-0.288l0.26,0Zm0,-114.632l0,0.288l-0.26,0l0,-0.288l0.26,0Zm52.71,916.909l-52.57,0l0,-56.888l52.57,0l0,56.888Zm0,-57.175l-52.57,0l0,-56.887l52.57,0l0,56.887Zm0,-57.458l-52.57,0l0,-56.887l52.57,0l0,56.887Zm0,-57.17l-52.57,0l0,-56.887l52.57,0l0,56.887Zm0,-57.462l-52.57,0l0,-56.888l52.57,0l0,56.888Zm0,-57.17l-52.57,0l0,-56.887l52.57,0l0,56.887Zm0,-57.458l-52.57,0l0,-56.887l52.57,0l0,56.887Zm0,-57.175l-52.57,0l0,-56.887l52.57,0l0,56.887Zm0,-57.457l-52.57,0l0,-56.887l52.57,0l0,56.887Zm0,-57.17l-52.57,0l0,-56.887l52.57,0l0,56.887Zm0,-57.463l-52.57,0l0,-56.887l52.57,0l0,56.887Zm0,-57.17l-52.57,0l0,-56.887l52.57,0l0,56.887Zm0,-57.457l-52.57,0l0,-56.887l52.57,0l0,56.887Zm0,-57.175l-52.57,0l0,-56.887l52.57,0l0,56.887Zm0,-57.457l-52.57,0l0,-56.887l52.57,0l0,56.887Zm0,-57.17l-52.57,0l0,-56.887l52.57,0l0,56.887Zm52.82,859.587l-52.56,0l0,-56.888l52.56,0l0,56.888Zm0,-57.175l-52.56,0l0,-56.887l52.56,0l0,56.887Zm0,-57.458l-52.56,0l0,-56.887l52.56,0l0,56.887Zm0,-57.17l-52.56,0l0,-56.887l52.56,0l0,56.887Zm0,-57.462l-52.56,0l0,-56.888l52.56,0l0,56.888Zm0,-57.17l-52.56,0l0,-56.887l52.56,0l0,56.887Zm0,-57.458l-52.56,0l0,-56.887l52.56,0l0,56.887Zm0,-57.175l-52.56,0l0,-56.887l52.56,0l0,56.887Zm0,-57.457l-52.56,0l0,-56.887l52.56,0l0,56.887Zm0,-57.17l-52.56,0l0,-56.887l52.56,0l0,56.887Zm0,-57.463l-52.56,0l0,-56.887l52.56,0l0,56.887Zm0,-57.17l-52.56,0l0,-56.887l52.56,0l0,56.887Zm0,-57.457l-52.56,0l0,-56.887l52.56,0l0,56.887Zm0,-57.175l-52.56,0l0,-56.887l52.56,0l0,56.887Zm0,-57.457l-52.56,0l0,-56.887l52.56,0l0,56.887Zm0,-57.17l-52.56,0l0,-56.887l52.56,0l0,56.887Zm0.4,859.723l0,0.288l-0.26,0l0,-0.288l0.26,0Zm0,-114.627l0,0.287l-0.26,0l0,-0.287l0.26,0Zm0,-114.633l0,0.288l-0.26,0l0,-0.288l0.26,0Zm0,-114.632l0,0.287l-0.26,0l0,-0.287l0.26,0Zm0,-114.628l0,0.288l-0.26,0l0,-0.288l0.26,0Zm0,-114.632l0,0.287l-0.26,0l0,-0.287l0.26,0Zm0,-114.633l0,0.288l-0.26,0l0,-0.288l0.26,0Zm0,-114.627l0,0.288l-0.26,0l0,-0.288l0.26,0Zm0,-114.632l0,0.288l-0.26,0l0,-0.288l0.26,0Zm52.7,916.909l-52.57,0l0,-56.888l52.57,0l0,56.888Zm0,-57.175l-52.57,0l0,-56.887l52.57,0l0,56.887Zm0,-57.458l-52.57,0l0,-56.887l52.57,0l0,56.887Zm0,-57.17l-52.57,0l0,-56.887l52.57,0l0,56.887Zm0,-57.462l-52.57,0l0,-56.888l52.57,0l0,56.888Zm0,-57.17l-52.57,0l0,-56.887l52.57,0l0,56.887Zm0,-57.458l-52.57,0l0,-56.887l52.57,0l0,56.887Zm0,-57.175l-52.57,0l0,-56.887l52.57,0l0,56.887Zm0,-57.457l-52.57,0l0,-56.887l52.57,0l0,56.887Zm0,-57.17l-52.57,0l0,-56.887l52.57,0l0,56.887Zm0,-57.463l-52.57,0l0,-56.887l52.57,0l0,56.887Zm0,-57.17l-52.57,0l0,-56.887l52.57,0l0,56.887Zm0,-57.457l-52.57,0l0,-56.887l52.57,0l0,56.887Zm0,-57.175l-52.57,0l0,-56.887l52.57,0l0,56.887Zm0,-57.457l-52.57,0l0,-56.887l52.57,0l0,56.887Zm0,-57.17l-52.57,0l0,-56.887l52.57,0l0,56.887Zm52.83,859.587l-52.57,0l0,-56.888l52.57,0l0,56.888Zm0,-57.175l-52.57,0l0,-56.887l52.57,0l0,56.887Zm0,-57.458l-52.57,0l0,-56.887l52.57,0l0,56.887Zm0,-57.17l-52.57,0l0,-56.887l52.57,0l0,56.887Zm0,-57.462l-52.57,0l0,-56.888l52.57,0l0,56.888Zm0,-57.17l-52.57,0l0,-56.887l52.57,0l0,56.887Zm0,-57.458l-52.57,0l0,-56.887l52.57,0l0,56.887Zm0,-57.175l-52.57,0l0,-56.887l52.57,0l0,56.887Zm0,-57.457l-52.57,0l0,-56.887l52.57,0l0,56.887Zm0,-57.17l-52.57,0l0,-56.887l52.57,0l0,56.887Zm0,-57.463l-52.57,0l0,-56.887l52.57,0l0,56.887Zm0,-57.17l-52.57,0l0,-56.887l52.57,0l0,56.887Zm0,-57.457l-52.57,0l0,-56.887l52.57,0l0,56.887Zm0,-57.175l-52.57,0l0,-56.887l52.57,0l0,56.887Zm0,-57.457l-52.57,0l0,-56.887l52.57,0l0,56.887Zm0,-57.17l-52.57,0l0,-56.887l52.57,0l0,56.887Zm0.4,859.723l0,0.288l-0.27,0l0,-0.288l0.27,0Zm0,-114.627l0,0.287l-0.27,0l0,-0.287l0.27,0Zm0,-114.633l0,0.288l-0.27,0l0,-0.288l0.27,0Zm0,-114.632l0,0.287l-0.27,0l0,-0.287l0.27,0Zm0,-114.628l0,0.288l-0.27,0l0,-0.288l0.27,0Zm0,-114.632l0,0.287l-0.27,0l0,-0.287l0.27,0Zm0,-114.633l0,0.288l-0.27,0l0,-0.288l0.27,0Zm0,-114.627l0,0.288l-0.27,0l0,-0.288l0.27,0Zm0,-114.632l0,0.288l-0.27,0l0,-0.288l0.27,0Zm52.7,916.909l-52.57,0l0,-56.888l52.57,0l0,56.888Zm0,-57.175l-52.57,0l0,-56.887l52.57,0l0,56.887Zm0,-57.458l-52.57,0l0,-56.887l52.57,0l0,56.887Zm0,-57.17l-52.57,0l0,-56.887l52.57,0l0,56.887Zm0,-57.462l-52.57,0l0,-56.888l52.57,0l0,56.888Zm0,-57.17l-52.57,0l0,-56.887l52.57,0l0,56.887Zm0,-57.458l-52.57,0l0,-56.887l52.57,0l0,56.887Zm0,-57.175l-52.57,0l0,-56.887l52.57,0l0,56.887Zm0,-57.457l-52.57,0l0,-56.887l52.57,0l0,56.887Zm0,-57.17l-52.57,0l0,-56.887l52.57,0l0,56.887Zm0,-57.463l-52.57,0l0,-56.887l52.57,0l0,56.887Zm0,-57.17l-52.57,0l0,-56.887l52.57,0l0,56.887Zm0,-57.457l-52.57,0l0,-56.887l52.57,0l0,56.887Zm0,-57.175l-52.57,0l0,-56.887l52.57,0l0,56.887Zm0,-57.457l-52.57,0l0,-56.887l52.57,0l0,56.887Zm0,-57.17l-52.57,0l0,-56.887l52.57,0l0,56.887Zm52.82,859.587l-52.56,0l0,-56.888l52.56,0l0,56.888Zm0,-57.175l-52.56,0l0,-56.887l52.56,0l0,56.887Zm0,-57.458l-52.56,0l0,-56.887l52.56,0l0,56.887Zm0,-57.17l-52.56,0l0,-56.887l52.56,0l0,56.887Zm0,-57.462l-52.56,0l0,-56.888l52.56,0l0,56.888Zm0,-57.17l-52.56,0l0,-56.887l52.56,0l0,56.887Zm0,-57.458l-52.56,0l0,-56.887l52.56,0l0,56.887Zm0,-57.175l-52.56,0l0,-56.887l52.56,0l0,56.887Zm0,-57.457l-52.56,0l0,-56.887l52.56,0l0,56.887Zm0,-57.17l-52.56,0l0,-56.887l52.56,0l0,56.887Zm0,-57.463l-52.56,0l0,-56.887l52.56,0l0,56.887Zm0,-57.17l-52.56,0l0,-56.887l52.56,0l0,56.887Zm0,-57.457l-52.56,0l0,-56.887l52.56,0l0,56.887Zm0,-57.175l-52.56,0l0,-56.887l52.56,0l0,56.887Zm0,-57.457l-52.56,0l0,-56.887l52.56,0l0,56.887Zm0,-57.17l-52.56,0l0,-56.887l52.56,0l0,56.887Zm0.4,859.723l0,0.288l-0.27,0l0,-0.288l0.27,0Zm0,-114.627l0,0.287l-0.27,0l0,-0.287l0.27,0Zm0,-114.633l0,0.288l-0.27,0l0,-0.288l0.27,0Zm0,-114.632l0,0.287l-0.27,0l0,-0.287l0.27,0Zm0,-114.628l0,0.288l-0.27,0l0,-0.288l0.27,0Zm0,-114.632l0,0.287l-0.27,0l0,-0.287l0.27,0Zm0,-114.633l0,0.288l-0.27,0l0,-0.288l0.27,0Zm0,-114.627l0,0.288l-0.27,0l0,-0.288l0.27,0Zm0,-114.632l0,0.288l-0.27,0l0,-0.288l0.27,0Zm52.7,916.909l-52.56,0l0,-56.888l52.56,0l0,56.888Zm0,-57.175l-52.56,0l0,-56.887l52.56,0l0,56.887Zm0,-57.458l-52.56,0l0,-56.887l52.56,0l0,56.887Zm0,-57.17l-52.56,0l0,-56.887l52.56,0l0,56.887Zm0,-57.462l-52.56,0l0,-56.888l52.56,0l0,56.888Zm0,-57.17l-52.56,0l0,-56.887l52.56,0l0,56.887Zm0,-57.458l-52.56,0l0,-56.887l52.56,0l0,56.887Zm0,-57.175l-52.56,0l0,-56.887l52.56,0l0,56.887Zm0,-57.457l-52.56,0l0,-56.887l52.56,0l0,56.887Zm0,-57.17l-52.56,0l0,-56.887l52.56,0l0,56.887Zm0,-57.463l-52.56,0l0,-56.887l52.56,0l0,56.887Zm0,-57.17l-52.56,0l0,-56.887l52.56,0l0,56.887Zm0,-57.457l-52.56,0l0,-56.887l52.56,0l0,56.887Zm0,-57.175l-52.56,0l0,-56.887l52.56,0l0,56.887Zm0,-57.457l-52.56,0l0,-56.887l52.56,0l0,56.887Zm0,-57.17l-52.56,0l0,-56.887l52.56,0l0,56.887Z" style="fill:#dddcd8;fill-rule:nonzero;"/></svg>