<svg width="89" height="203" viewBox="0 0 89 203" fill="none" xmlns="http://www.w3.org/2000/svg">
<g clip-path="url(#clip0_472_4327)">
<path d="M73.75 5.58004C73.75 5.43004 73.9 5.29004 74.04 5.29004H74.33C74.48 5.44004 74.62 5.44004 74.62 5.73004C74.62 5.73004 74.62 5.88004 74.47 6.02004L70.95 12.17L64.07 25.06C60.26 32.68 56.45 40.44 53.53 48.49C51.63 53.91 50.01 59.33 48.99 64.89C47.23 74.7 46.65 84.66 46.65 94.62C46.65 117.91 49.73 141.34 47.82 164.63C47.67 166.09 46.65 172.25 45.48 179.13V182.65C45.33 187.34 44.75 194.81 43.87 198.91C43.43 200.81 42.85 201.99 42.11 202.28C41.38 202.57 40.5 202.28 39.47 200.52C39.47 200.37 39.32 198.76 39.76 196.27C41.08 187.78 45.47 167.27 45.62 164.49C47.82 141.35 45.03 117.92 45.33 94.63C45.48 84.52 46.06 74.57 47.97 64.75C49 59.04 50.61 53.47 52.66 48.05C55.59 39.99 59.4 32.09 63.35 24.47C64.67 21.83 66.13 19.2 67.45 16.71C68.47 14.95 69.35 13.34 70.38 11.58L73.75 5.58004ZM43.58 187.92C42.99 191.29 42.41 194.36 41.97 196.56C41.68 197.73 41.53 198.61 41.38 199.2C41.82 198.32 42.4 197.3 42.7 195.83C43.14 193.63 43.43 190.7 43.58 187.92Z" fill="#1F5440"/>
<path d="M73.8902 5.14C73.7402 4.99 73.7402 4.85 73.7402 4.7C73.7402 3.24 74.7702 1.04 76.0802 0.310001C77.1102 -0.279999 78.4202 -0.129999 79.4502 1.77C80.0402 2.79 80.1802 4.55 79.6002 5.87C79.1602 6.89 78.4302 7.63 77.4002 7.77C76.6702 7.92 76.0802 7.77 75.5002 7.33C74.9102 7.04 74.4702 6.6 74.1802 6.01C74.0302 5.86 74.0302 5.42 73.8902 5.13V5.14ZM74.7702 4.84C74.9202 4.99 75.0602 5.28 75.0602 5.43C75.2102 5.72 75.6502 6.02 75.9402 6.31C76.2302 6.46 76.6702 6.6 76.9702 6.46C77.7002 6.31 78.1402 5.58 78.2902 4.85C78.4402 3.97 78.2902 3.09 78.0002 2.36C77.5602 1.48 76.9702 1.33 76.5402 1.48C75.6602 2.07 74.7802 3.68 74.7802 4.85L74.7702 4.84Z" fill="#1F5440"/>
<path d="M61.0091 8.93995C60.8591 9.08995 60.5691 9.81995 60.4191 10.8399C60.2691 12.2999 60.2691 14.3599 60.2691 14.6499C59.9791 17.8699 59.5391 21.3899 59.5391 24.7599C59.5391 27.0999 59.6891 29.4499 60.1291 31.4999C60.1291 31.6499 60.4191 31.7899 60.5691 31.7899C60.7191 31.7899 60.8591 31.4999 60.8591 31.3499C60.4191 29.1499 60.4191 26.9599 60.4191 24.7599C60.5691 21.3899 60.8591 17.8799 61.1491 14.6499L61.2991 9.51995C61.4491 9.36995 61.5891 9.22995 61.4491 8.92995C61.2991 8.92995 61.1591 8.77995 61.0091 8.92995V8.93995Z" fill="#1F5440"/>
<path d="M56.7596 39.56L56.1696 36.19C55.8796 34.29 55.5796 32.38 55.2896 30.48C54.9996 28.58 54.8496 26.67 54.6996 24.77C54.6996 24.62 54.5496 24.33 54.2596 24.48C54.1096 24.48 53.8196 24.63 53.9696 24.92C53.9696 25.65 54.1196 26.53 54.1196 27.26C54.4096 30.34 54.9996 33.41 55.4396 36.49C55.4396 36.78 55.7296 38.54 55.8796 39.42C56.0296 40.01 56.1696 40.3 56.3196 40.45C56.4696 40.6 56.7596 40.45 56.9096 40.3C57.0596 39.86 57.0596 39.71 56.7596 39.57V39.56Z" fill="#1F5440"/>
<path d="M52.2207 49.66C51.2007 48.64 50.6107 46.58 50.0207 44.24C49.2907 41.02 48.8507 37.36 48.7007 35.31C48.7007 35.16 48.5507 35.02 48.2607 35.02C48.1107 35.02 47.9707 35.17 47.9707 35.46C48.1207 37.51 48.5607 41.32 49.2907 44.54C49.8807 47.03 50.7507 49.23 51.7807 50.25C51.9307 50.4 52.2207 50.4 52.3707 50.25C52.3707 50.1 52.3707 49.81 52.2207 49.66Z" fill="#1F5440"/>
<path d="M49.8698 58.01C50.0198 57.86 49.7198 56.99 49.2798 55.96C48.2598 53.62 46.3498 49.96 46.0598 49.22C45.9098 48.93 45.6198 48.93 45.4698 49.07C45.1798 49.22 45.1798 49.51 45.3198 49.66C45.6098 50.25 46.7798 52.59 47.8098 54.64C48.5398 56.1 49.2698 57.57 49.1298 57.72C49.1298 57.87 49.1298 58.16 49.4198 58.16C49.5698 58.31 49.7098 58.16 49.8598 58.01H49.8698Z" fill="#1F5440"/>
<path d="M47.9699 68.7C48.1199 68.85 48.1199 68.99 47.9699 69.14C47.6799 69.43 47.5299 69.29 47.3799 69.14C47.2299 68.99 47.2299 68.26 47.0899 67.97L46.4999 66.36C46.2099 65.48 45.7699 64.75 45.3299 63.87C44.8899 63.14 44.3099 62.26 43.7199 61.53C43.5699 61.38 43.5699 61.09 43.7199 60.94C43.8699 60.79 44.1599 60.79 44.3099 60.94C44.8999 61.53 45.3299 62.11 45.7699 62.84C46.3599 63.87 46.9399 64.89 47.2299 66.06L47.8199 67.82C47.9699 67.97 48.1099 68.55 47.9699 68.7Z" fill="#1F5440"/>
<path d="M46.21 79.39C46.36 79.54 46.36 79.68 46.21 79.98C45.9167 80.1734 45.72 80.2234 45.62 80.13C45.47 79.98 45.47 79.4 45.33 79.11L44.6 77.79L42.4 73.98C42.25 73.83 42.4 73.54 42.55 73.39C42.7 73.24 42.99 73.24 43.14 73.54L45.34 77.49L45.93 78.95C46.22 78.8 46.22 79.24 46.22 79.39H46.21Z" fill="#1F5440"/>
<path d="M45.33 88.03L44.45 87.15L42.55 84.66C42.4 84.51 42.4 84.22 42.55 84.07C42.7 83.92 42.99 83.92 43.14 84.07L45.04 86.56C45.33 87 45.92 87.73 45.92 88.02C45.92 88.17 45.92 88.31 45.77 88.31C45.77 88.46 45.62 88.31 45.18 88.46C45.33 88.61 45.18 88.31 45.33 88.02V88.03ZM45.48 88.18C45.33 88.33 45.33 88.47 45.48 88.18C45.48 88.28 45.48 88.28 45.48 88.18Z" fill="#1F5440"/>
<path d="M46.0695 98.58L41.6795 93.01C41.5295 92.86 41.3895 92.86 41.2395 93.01C41.0895 93.16 41.0895 93.3 41.2395 93.45C41.8295 94.04 43.5795 96.53 44.6095 98.14C45.1995 98.87 45.6295 99.31 45.6295 99.31C45.7795 99.46 46.0695 99.31 46.2195 99.16C46.3695 99.01 46.2195 98.72 46.0695 98.57V98.58Z" fill="#1F5440"/>
<path d="M45.4796 111.03C45.3296 111.03 45.1896 110.74 45.0396 110.59L43.8696 109.27L40.6496 105.61C40.4996 105.46 40.4996 105.17 40.6496 105.02C40.7996 104.87 41.0896 104.87 41.2396 105.02L44.4596 108.68L45.4896 110C45.6396 110.15 45.9296 110.44 45.9296 110.44C46.2196 110.88 45.7796 111.03 45.7796 111.17C45.9296 111.17 45.7796 111.32 45.4896 111.02C45.4896 111.12 45.4896 111.12 45.4896 111.02L45.4796 111.03Z" fill="#1F5440"/>
<path d="M60.8609 30.91C61.0109 30.76 61.3009 30.18 61.4509 30.03L63.7909 28.27L70.3809 22.56C70.5309 22.41 70.6709 22.41 70.8209 22.56C70.9709 22.71 70.9709 22.85 70.8209 23C69.9409 23.88 69.2109 24.76 68.3309 25.49C67.0109 26.66 65.6909 27.83 64.3809 29.01L62.0409 30.77C61.7509 30.92 61.4509 31.5 61.1609 31.65C60.8709 31.94 60.5709 31.8 60.2809 31.5C60.1309 31.35 60.2809 31.06 60.4309 30.91C60.5809 30.76 60.7209 30.76 60.8709 30.91H60.8609ZM60.8609 30.91C60.7109 30.91 60.5709 30.91 60.7109 30.91C60.7109 31.06 60.7109 30.91 60.8609 30.91Z" fill="#1F5440"/>
<path d="M56.9103 40.87L58.2303 39.41C58.9603 38.53 59.8403 37.8 60.5703 37.07C61.8903 35.9 63.2103 34.87 64.5203 33.7C64.6703 33.55 64.6703 33.41 64.5203 33.26C64.3703 33.11 64.2303 33.11 64.0803 33.26C62.7603 34.28 61.4403 35.46 60.1303 36.63C59.2503 37.36 58.3703 38.24 57.6403 39.12C57.4903 39.27 56.6203 40.15 56.3203 40.73C56.1703 41.02 56.3203 41.17 56.1703 41.32C56.0203 41.61 56.3203 41.32 56.1703 41.61C56.3203 41.76 56.4603 41.9 56.7603 41.76C57.0503 41.32 57.0503 41.03 56.9103 40.88V40.87Z" fill="#1F5440"/>
<path d="M53.24 50.69L57.19 48.79C58.8 47.76 60.41 46.59 61.88 45.27C63.34 43.95 64.66 42.63 65.98 41.32C66.13 41.17 66.13 41.03 65.98 40.88C65.83 40.73 65.69 40.73 65.54 40.88C64.22 42.2 62.76 43.37 61.29 44.69C59.83 45.86 58.21 47.03 56.75 48.06C56.46 48.21 54.85 48.94 53.82 49.52C53.09 49.96 52.5 50.4 52.5 50.69C52.5 50.84 52.5 51.13 52.79 51.13C52.94 50.98 53.23 50.98 53.23 50.69H53.24Z" fill="#1F5440"/>
<path d="M49.8697 59.62C50.1597 59.77 50.7497 59.47 51.4797 59.03C52.5097 58.3 53.8197 57.13 54.1197 56.98C55.8797 55.81 57.6297 54.78 59.3897 53.76C61.1497 52.73 63.0497 51.86 64.9597 51.12C65.1097 51.12 65.2497 50.83 65.1097 50.68C65.1097 50.53 64.8197 50.39 64.6697 50.53C62.6197 51.12 60.7197 51.99 58.8097 52.87C56.8997 53.75 55.1497 54.92 53.3897 55.95L49.8697 58.73C49.7197 58.73 49.4297 58.88 49.4297 59.02C49.5797 59.31 49.7197 59.46 49.8697 59.61V59.62Z" fill="#1F5440"/>
<path d="M48.5597 69.87C48.7097 69.58 48.5597 68.85 48.7097 68.7L50.6097 66.21C51.7797 65.04 52.9497 64.01 54.1297 62.99C55.4497 61.96 56.7697 61.09 58.0797 60.35C58.2297 60.2 58.5197 60.35 58.5197 60.5C58.6697 60.65 58.5197 60.94 58.3697 60.94C56.9097 61.97 55.2897 63.14 53.8297 64.31C52.7997 65.04 51.9297 65.92 51.0497 66.8L49.1497 69.14C48.9997 69.43 48.8597 70.02 48.7097 70.31C48.6097 70.41 48.513 70.5066 48.4197 70.6C48.2697 70.75 48.2697 70.6 47.9797 70.6C47.8297 70.45 47.8297 70.16 47.9797 70.01C48.2697 69.86 48.4197 69.86 48.5697 69.86L48.5597 69.87Z" fill="#1F5440"/>
<path d="M47.2395 82.91C47.3895 82.62 47.3895 82.03 47.3895 81.88L49.2895 79.24C50.3195 77.92 51.3395 76.6 52.5095 75.43C53.6795 74.26 54.8495 73.09 56.1695 72.06C56.3195 71.91 56.4595 71.91 56.4595 72.06C56.6095 72.21 56.6095 72.35 56.4595 72.5C55.2895 73.67 54.1195 74.84 52.9495 76.02C51.9195 77.19 50.8995 78.51 49.8695 79.83L48.1095 82.47C47.9595 82.76 47.6695 83.35 47.5195 83.64C47.2295 84.08 47.0795 84.23 46.6395 83.79C46.4895 83.64 46.4895 83.35 46.7895 83.2C46.9395 82.91 47.0795 82.91 47.2295 82.91H47.2395Z" fill="#1F5440"/>
<path d="M46.0696 93.01C46.3596 92.86 47.5296 91.69 48.7096 90.37C50.6096 88.03 53.0996 84.8 53.9796 83.93C54.1296 83.78 54.1296 83.49 53.9796 83.34C53.8296 83.19 53.5396 83.19 53.3896 83.34L45.6296 92.42C45.4796 92.57 45.3396 92.71 45.4796 93.01C45.6296 93.16 45.9196 93.16 46.0696 93.01Z" fill="#1F5440"/>
<path d="M47.2395 107.22L48.8495 104.44C50.0195 102.54 51.3395 100.78 52.6595 99.02C53.9795 97.26 55.2995 95.5 56.7595 93.89C56.9095 93.74 56.9095 93.6 56.7595 93.45C56.6095 93.3 56.4695 93.3 56.3195 93.45C54.7095 95.06 53.2395 96.67 51.9295 98.43C50.6095 100.19 49.2895 102.09 48.1195 104C47.9695 104.15 47.2395 105.46 46.7995 106.34C46.5095 107.07 46.5095 107.8 46.7995 107.95C46.9495 108.1 47.2395 107.95 47.3895 107.8C47.5395 107.51 47.3895 107.21 47.2395 107.21V107.22Z" fill="#1F5440"/>
<path d="M47.8206 124.21C47.9706 123.92 48.1106 123.18 48.5506 121.87L50.7506 117.18C50.9006 117.03 51.0406 116.89 51.3406 117.03C51.4906 117.18 51.6306 117.32 51.4906 117.62L49.4406 122.31C48.8506 123.48 48.4106 124.21 48.4106 124.51C48.2606 125.24 47.6806 124.95 47.6806 124.8C47.5306 124.65 47.5306 124.36 47.8306 124.21H47.8206Z" fill="#1F5440"/>
<path d="M47.2396 135.49C47.0896 135.2 46.9496 134.9 46.7996 134.76L46.0696 133.44L43.7296 128.75C42.1196 125.82 40.5096 122.75 38.8996 119.82C37.7296 117.92 36.5596 115.87 35.3796 113.96C32.0096 108.39 28.1996 103.12 24.2496 98C18.2496 90.24 11.9496 82.91 5.64961 75.44C5.49961 75.29 5.49961 75 5.64961 74.71C5.79961 74.56 6.08961 74.56 6.37961 74.71C12.6796 82.03 19.1196 89.5 25.1296 97.27C29.0796 102.4 32.8896 107.81 36.2596 113.38L44.6096 128.17L47.0996 132.86L47.6896 134.18C47.6896 134.33 47.9796 134.77 47.9796 134.91C48.1296 134.91 48.1296 135.06 48.1296 135.06L47.8396 135.65C47.8396 135.65 47.5496 135.65 47.5496 135.5C47.2596 135.65 47.2596 135.5 47.2596 135.5L47.2396 135.49Z" fill="#1F5440"/>
<path d="M6.38055 74.56L6.53055 74.41C6.68055 74.26 6.97055 74.26 7.12055 74.56C7.27055 74.71 7.27055 75 6.97055 75.15C5.36055 76.47 3.31055 76.17 2.14055 75.15C0.680547 73.98 0.240547 72.07 2.58055 70.61C4.34055 69.59 5.51055 70.32 6.10055 71.34C6.69055 72.37 6.69055 73.83 6.39055 74.56H6.38055ZM5.35055 75C5.20055 74.71 5.20055 74.41 5.50055 74.41C5.50055 74.41 5.50055 74.56 5.65055 74.56C5.94055 74.56 5.80055 74.12 5.80055 73.83C5.80055 73.1 5.65055 72.07 5.07055 71.63C4.63055 71.19 4.05055 71.19 3.17055 71.63C1.71055 72.51 1.85055 73.83 2.88055 74.56C3.47055 74.85 4.49055 75.15 5.37055 75H5.35055Z" fill="#1F5440"/>
<path d="M15.4599 85.6899L14.7299 82.9099L12.3899 74.7099C12.3899 74.5599 12.0999 74.4199 11.9499 74.5599C11.7999 74.5599 11.6599 74.8499 11.7999 74.9999L14.1399 83.1999C14.1399 83.4899 14.4299 84.9599 14.7299 85.8399C14.8799 86.2799 15.0199 86.5699 15.1699 86.7199C15.3199 86.8699 15.6099 86.7199 15.7599 86.5699C15.7599 85.9799 15.6099 85.6899 15.4699 85.6899H15.4599Z" fill="#1F5440"/>
<path d="M22.4904 93.4499L22.3404 90.8099C22.1904 88.7599 21.9004 86.7099 21.6104 84.8099C21.4604 83.4899 21.1704 82.1699 20.8804 80.8599C20.8804 80.7099 20.7304 80.5699 20.4404 80.5699C20.2904 80.5699 20.1504 80.7199 20.1504 81.0099L21.6104 90.9699C21.6104 91.2599 21.6104 93.0199 21.7604 93.6099C21.7604 93.8999 21.9104 94.0499 22.0504 94.1999C22.2004 94.3499 22.4904 94.1999 22.6404 94.0499C22.7904 93.9 22.6404 93.6099 22.4904 93.4599V93.4499Z" fill="#1F5440"/>
<path d="M28.9299 102.39C28.9299 102.54 29.0799 102.68 28.9299 102.68C28.7799 102.83 28.6399 102.97 28.3399 102.83C28.1899 102.83 28.0499 102.54 28.0499 102.24C27.8999 101.51 27.8999 99.6 27.8999 99.46L27.1699 89.65C27.1699 89.5 27.3199 89.21 27.4599 89.21C27.5999 89.21 27.8999 89.36 27.8999 89.5L28.9299 99.31C28.9299 99.75 28.7799 101.51 28.9299 102.39ZM28.9299 102.39C28.9299 102.39 28.7799 102.39 28.7799 102.24C28.7799 102.24 28.7799 102.39 28.9299 102.39Z" fill="#1F5440"/>
<path d="M5.3494 84.23C5.4994 83.64 7.3994 84.38 7.6894 84.38L14.7194 85.41C14.8694 85.41 15.0094 85.56 15.0094 85.7C15.0094 85.84 14.8594 85.99 14.7194 85.99L7.6894 85.11C7.5394 85.11 5.9294 85.11 5.3494 84.96C5.0594 84.96 4.9094 84.81 4.7594 84.67C4.6094 84.52 4.7594 84.23 4.9094 84.08C5.0594 83.93 5.1994 84.08 5.3494 84.23Z" fill="#1F5440"/>
<path d="M13.4103 94.92C14.1403 94.92 15.4603 94.77 15.6103 94.77C17.0703 94.77 18.6903 94.48 20.1503 94.62C21.1703 94.62 22.3503 94.77 23.2303 95.06C23.3803 95.06 23.5203 95.35 23.5203 95.5C23.5203 95.65 23.2303 95.79 23.0803 95.79C22.2003 95.5 21.1803 95.35 20.1503 95.35C18.6903 95.35 17.0703 95.5 15.6103 95.64C15.4603 95.64 14.0003 95.79 13.4103 95.79C12.9703 95.79 12.8203 95.5 12.8203 95.5C12.8203 95.35 12.8203 95.06 13.1103 95.06C13.2103 94.96 13.307 94.91 13.4003 94.91L13.4103 94.92Z" fill="#1F5440"/>
<path d="M27.7594 101.65C27.9094 101.5 28.1994 101.65 28.3494 101.8C28.4994 101.95 28.4994 102.24 28.1994 102.39C28.1994 102.39 28.0494 102.54 27.7594 102.54C27.1694 102.69 25.4194 102.69 25.4194 102.69L21.8994 102.4C21.7494 102.4 21.6094 102.25 21.6094 101.96C21.6094 101.81 21.7594 101.67 22.0494 101.67L25.5694 101.96C25.4194 101.96 27.0294 101.81 27.7694 101.67L27.7594 101.65Z" fill="#1F5440"/>
<path d="M35.6694 114.69C35.5694 114.69 35.5694 114.69 35.6694 114.69L32.7394 113.66L27.1694 111.76C26.8794 111.61 26.7294 111.47 26.8794 111.17C27.0294 110.88 27.1694 110.73 27.4694 110.88L33.0394 112.78L35.8194 113.95C35.9694 113.95 36.2594 114.1 36.2594 114.1C36.4094 114.25 36.2594 114.25 36.2594 114.54C36.1094 114.83 35.9694 114.83 35.6694 114.69Z" fill="#1F5440"/>
<path d="M54.2702 25.5C54.1202 25.65 53.9802 25.79 53.6802 25.79C51.6302 25.35 50.7502 23.45 51.0402 21.84C51.3302 20.08 52.6502 18.62 54.8502 19.2C55.7302 19.35 56.3102 19.93 56.6102 20.66C57.0502 21.68 57.0502 23 56.4602 23.88C56.3102 24.17 56.0202 24.47 55.7302 24.76C55.4402 25.05 55.1402 25.2 54.7002 25.35C54.8502 25.35 54.4102 25.35 54.2602 25.5H54.2702ZM54.2702 24.47C54.4202 24.47 54.5602 24.32 54.5602 24.32C54.8502 24.17 55.0002 24.03 55.1502 23.88C55.3002 23.73 55.4402 23.44 55.5902 23.29C55.8802 22.7 56.0302 21.97 55.7402 21.24C55.5902 20.65 55.1502 20.07 54.5702 19.92C53.1102 19.63 52.0802 20.65 51.9302 21.82C51.7802 22.85 52.2202 24.16 53.3902 24.6H53.5402C53.6902 24.01 54.1302 24.16 54.2702 24.45C54.1202 24.45 53.9802 24.6 53.9802 24.6C54.1302 24.6 54.1302 24.75 54.1302 24.75C54.2802 24.75 54.2802 24.6 54.2802 24.46L54.2702 24.47Z" fill="#1F5440"/>
<path d="M61.5903 10.12C61.4403 10.41 61.1503 10.41 61.0003 10.27C60.5603 10.12 60.2703 9.82996 59.9803 9.53996C59.5403 9.09996 59.3903 8.50996 59.2503 7.92996C58.9603 5.14996 61.0103 4.40996 62.7703 4.99996C64.5303 5.43996 65.8503 7.19996 64.0903 9.38996C63.6503 9.82996 63.0703 10.12 62.4803 10.27C62.1903 10.12 61.8903 10.12 61.6003 10.12H61.5903ZM61.4503 8.93996C61.7403 9.22996 62.0403 9.22996 62.3303 9.08996C62.6203 9.08996 63.0603 8.79996 63.2103 8.64996C64.2403 7.32996 63.5003 6.44996 62.4803 6.15996C61.4503 5.86996 60.2803 6.30996 60.4303 7.76996C60.4303 8.05996 60.5803 8.35996 60.7203 8.64996C60.8703 8.20996 61.3103 8.64996 61.4503 8.93996Z" fill="#1F5440"/>
<path d="M48.5602 35.89C48.5602 36.18 48.2702 36.33 48.1202 36.33C46.2202 36.18 45.1902 34.87 45.1902 33.55C45.0402 32.23 45.9202 30.77 47.9702 30.62C48.7002 30.62 49.5802 30.77 50.0202 31.35C50.6102 31.94 50.9002 32.67 50.7502 33.4C50.7502 33.84 50.4602 34.28 50.3102 34.57C50.0202 35.01 49.7202 35.3 49.2802 35.45C49.1302 35.89 48.8402 35.89 48.5502 35.89H48.5602ZM48.4102 35.02C48.5602 35.02 48.7002 34.87 48.8502 34.87C49.1402 34.72 49.2902 34.58 49.4402 34.28C49.5902 33.99 49.7302 33.69 49.7302 33.4C49.8802 32.96 49.5802 32.52 49.2902 32.08C49.0002 31.79 48.4102 31.64 47.9702 31.64C46.6502 31.79 46.0702 32.67 46.0702 33.54C46.0702 34.27 46.6602 35 47.5302 35.3L47.6802 35.15C47.8302 35.15 47.6802 34.86 47.9702 34.86C48.0702 34.96 48.2168 35.01 48.4102 35.01C48.2602 34.86 48.2602 35.01 48.4102 35.01L48.5602 35.16V35.31C48.5602 35.31 48.5602 35.16 48.4102 35.02Z" fill="#1F5440"/>
<path d="M46.0698 49.6601C46.1698 49.6601 46.1698 49.6601 46.0698 49.6601C46.3598 49.9501 46.2198 50.2501 46.0698 50.39C45.4798 50.83 44.8998 50.98 44.3098 51.12C43.7198 51.12 42.9898 51.1201 42.4098 50.8301C39.7698 49.5101 40.0698 47.1701 41.3898 45.7001C42.7098 44.0901 45.3398 43.5 46.5198 46.14C46.8098 46.73 46.8098 47.3101 46.8098 47.9001C46.8098 48.4901 46.5198 49.0701 46.2198 49.6601C46.2198 49.3701 46.2198 49.5101 46.0698 49.6601ZM44.3098 50.1C44.3098 49.95 44.3098 49.8101 44.5998 49.6601C44.8898 49.5101 45.4798 49.3701 45.6298 49.0701C45.9198 48.6301 45.9198 48.1901 46.0698 47.7501C46.0698 47.3101 46.0698 46.8701 45.7798 46.4301C44.8998 44.6701 43.2898 45.26 42.4098 46.28C41.5298 47.31 41.2398 48.92 42.9998 49.94C43.2898 49.94 43.8798 50.0901 44.3198 50.0901L44.3098 50.1Z" fill="#1F5440"/>
<path d="M44.3105 60.94C44.3105 61.09 44.3105 61.38 44.1605 61.53C42.2605 62.56 41.6705 60.8 41.9605 58.89C42.2505 56.69 43.8605 55.23 44.7405 57.57C44.8905 58.01 45.0305 58.59 45.0305 59.03C45.0305 59.47 44.8805 60.06 44.7405 60.49C44.4505 60.64 44.4505 60.78 44.3005 60.93L44.3105 60.94ZM43.1405 60.79C43.1405 60.64 43.2905 60.64 43.2905 60.5C43.4405 60.35 43.7305 60.35 43.8805 60.21C44.0305 59.92 44.0305 59.48 44.0305 59.04C44.0305 58.6 43.8805 58.31 43.7405 57.87C43.5905 57.58 43.4505 57.28 43.4505 57.43C43.3005 57.58 43.4505 58.02 43.1605 57.87C42.7205 57.58 42.7205 59.04 42.7205 59.77C42.7205 60.21 42.7205 60.79 43.1605 60.79H43.1405Z" fill="#1F5440"/>
<path d="M43.7192 73.53C44.0092 73.82 44.0092 74.12 43.8692 74.41C42.1092 76.17 40.0592 75.44 38.8892 73.82C37.8692 72.36 37.8692 70.16 39.7692 68.84C41.2292 67.81 42.4092 68.4 43.1392 69.43C43.8692 70.45 44.3092 72.36 43.8692 73.24C43.8692 73.24 43.7192 73.39 43.7192 73.53ZM42.6992 73.97C42.5492 73.97 42.5492 73.82 42.5492 73.68C42.5492 73.54 42.5492 73.24 42.8392 73.24C43.1292 73.09 42.9892 72.8 43.1292 72.51C43.1292 71.78 42.9792 70.75 42.3992 70.02C41.9592 69.43 41.3792 69.29 40.6392 69.73C39.3192 70.61 39.4692 72.07 40.0492 73.1C40.4892 73.98 41.6592 74.56 42.6892 73.98L42.6992 73.97Z" fill="#1F5440"/>
<path d="M42.8399 84.37C42.9899 84.22 43.1299 84.08 43.1299 83.93C43.2799 83.78 43.4199 83.64 43.7199 83.78C44.0099 83.93 44.0099 84.07 43.8699 84.37C42.5499 86.57 40.2099 86.27 38.8899 84.96C37.4299 83.64 36.8399 81.3 38.8899 79.83C39.6199 79.39 40.4999 79.24 41.3799 79.39C42.2599 79.54 42.9899 80.12 43.2799 81C43.4299 81.44 43.5699 81.73 43.5699 82.17V83.34C43.2799 83.63 42.9799 84.07 42.8399 84.37C42.8399 84.66 42.8399 84.52 42.8399 84.37ZM42.4099 84.81C42.2599 84.66 42.2599 84.81 42.4099 84.81C42.1199 84.81 41.8199 84.66 41.9699 84.08C41.9699 83.93 42.4099 83.49 42.4099 83.35C42.4099 83.06 42.5599 82.76 42.4099 82.47C42.4099 82.18 42.2599 81.88 42.1199 81.59C41.8299 81 41.3899 80.71 40.9499 80.56C40.3599 80.41 39.7799 80.56 39.3399 80.85C37.8799 81.88 38.3099 83.49 39.3399 84.37C40.2199 84.96 41.3899 85.4 42.4199 84.81H42.4099Z" fill="#1F5440"/>
<path d="M42.1098 93.16C42.2598 93.3101 42.2598 93.45 42.2598 93.75C41.2398 95.8 39.3298 95.95 37.8698 95.07C36.4098 94.19 35.5298 92.43 36.6998 90.53C37.8698 88.77 39.6298 88.63 41.0898 89.5C42.4098 90.09 43.1398 91.84 42.1098 93.16ZM41.3798 93.6C41.2298 93.45 41.2298 93.16 41.3798 93.01C42.1098 91.98 41.5298 90.81 40.4998 90.37C39.6198 89.93 38.4498 89.93 37.7198 91.1C36.8398 92.42 37.4298 93.59 38.4498 94.18C39.3298 94.77 40.6498 94.77 41.3798 93.59V93.6Z" fill="#1F5440"/>
<path d="M41.6709 105.17C41.9609 105.32 41.9609 105.61 41.8209 105.9C40.3609 107.95 38.1609 107.8 36.8409 106.49C35.6709 105.32 35.2309 103.27 37.1309 101.51C37.8609 100.78 38.7409 100.49 39.4709 100.63C40.2009 100.78 40.9309 101.36 41.2309 102.39L41.6709 104.59C41.6709 104.59 41.6709 104.88 41.6709 105.18V105.17ZM40.6509 104.29L40.5009 102.53C40.2109 101.94 39.9109 101.5 39.4709 101.36C39.0309 101.21 38.4509 101.51 38.0109 101.95C36.6909 103.27 36.9809 104.73 37.8609 105.61C38.7409 106.49 40.2009 106.64 41.3809 105.17C41.2309 105.17 41.0909 105.17 40.9409 105.32C40.9409 105.17 41.0909 104.88 41.3809 104.88H41.5309C41.0909 104.73 40.8009 104.44 40.6509 104.29ZM40.6509 104.29C40.6509 104.58 40.8009 105.46 40.6509 105.46C38.3109 105.9 39.1909 103.26 40.6509 104.29Z" fill="#1F5440"/>
<path d="M50.7509 114.84C50.7509 112.35 51.9209 111.32 53.2409 111.32C55.0009 111.17 56.9009 112.93 56.7509 115.27C56.6009 116.15 56.1609 117.17 55.4309 117.76C54.7009 118.35 53.6709 118.64 52.6509 118.35C52.3609 118.2 52.0609 118.06 51.9209 117.91C51.6309 117.62 51.1909 117.32 50.9009 117.18C50.7509 117.03 50.3109 116.3 50.1709 115.72C50.0209 115.13 50.6109 114.69 50.6109 114.84H50.7609H50.7509ZM51.6309 116.3L52.9509 117.33C53.5409 117.48 54.1209 117.33 54.5609 116.89C55.0009 116.45 55.2909 115.87 55.4409 115.28C55.5909 113.67 54.4109 112.5 53.2409 112.64C52.2109 112.64 51.6309 113.66 51.7809 115.86C51.7809 116.01 51.7809 116.15 51.6309 116.3Z" fill="#1F5440"/>
<path d="M57.0506 93.75C57.0506 93.9 56.9006 93.9 56.9006 93.9C56.6106 94.05 56.3106 93.9 56.1706 93.75C55.4406 92.58 56.0206 90.53 57.0506 89.36C57.9306 88.48 59.1006 88.19 60.2706 89.36C61.4406 90.82 61.1506 92.44 60.1206 93.31C59.3906 94.04 58.2206 94.33 57.0406 93.75H57.0506ZM56.9106 92.57C57.9306 93.3 58.8106 93.16 59.4006 92.57C59.9906 91.98 60.1306 90.96 59.4006 90.08C58.8106 89.35 58.0806 89.79 57.5006 90.52C57.0606 91.11 56.7706 91.98 56.9106 92.57Z" fill="#1F5440"/>
<path d="M53.6808 82.76C53.8308 81.59 54.2708 80.12 55.0008 79.39C55.7308 78.51 56.9008 78.36 58.0808 79.83C59.8408 81.88 58.6708 83.64 57.0608 84.52C55.0108 85.69 52.3708 85.4 53.6908 82.76H53.6808ZM54.4108 83.93C54.7008 84.52 56.3108 83.93 57.0508 83.05C57.6408 82.46 57.9308 81.59 57.0508 80.56C56.4608 79.97 56.1708 79.83 55.7308 80.27C55.0008 81 54.5608 82.61 54.5608 83.35C54.5608 83.64 54.4108 83.79 54.4108 83.94V83.93Z" fill="#1F5440"/>
<path d="M56.6102 72.51C56.5102 72.51 56.5102 72.51 56.6102 72.51C56.3202 72.66 56.0202 72.51 56.0202 72.22C55.2902 70.02 57.1902 69.58 58.8002 70.02C60.5602 70.61 61.7302 72.07 59.6802 73.54C59.2402 73.83 58.6502 73.98 58.0702 73.69C57.6302 73.54 57.0502 73.25 56.7502 72.81C56.6002 72.81 56.6002 72.66 56.6002 72.52L56.6102 72.51ZM57.2002 71.04C57.2002 71.04 57.2002 71.19 57.3502 71.19C57.5002 71.34 57.5002 72.07 57.6402 72.22C57.7902 72.37 58.0802 72.51 58.3702 72.66C58.5202 72.66 58.8102 72.66 58.9602 72.51C59.6902 72.07 59.4002 71.63 58.8102 71.34C58.5202 71.19 58.2202 71.05 57.7802 71.05C57.4902 70.9 57.3402 70.9 57.1902 71.05L57.2002 71.04Z" fill="#1F5440"/>
<path d="M58.2203 60.5C58.0703 60.35 58.0703 60.21 58.0703 60.06C58.5103 57.86 60.1203 56.98 61.5903 56.98C63.2003 57.13 64.5203 58.44 63.7903 60.79C63.0603 63.13 61.4503 63.57 60.1303 62.99C59.1003 62.7 58.3703 61.67 58.2303 60.5H58.2203ZM59.1003 60.21C59.1003 61.09 59.6903 61.82 60.4203 62.11C61.3003 62.4 62.4703 62.11 62.9103 60.5C63.3503 58.89 62.6203 58.01 61.5903 57.86C60.5703 57.86 59.3903 58.59 59.1003 60.2V60.21Z" fill="#1F5440"/>
<path d="M65.2492 49.08C65.6892 47.76 67.0092 47.03 68.0292 47.03C69.3492 47.03 70.6692 48.06 70.5192 50.25C70.3692 51.13 69.7892 52.45 68.9092 53.33C68.1792 53.92 67.2992 54.21 66.4192 53.92C65.9792 53.77 65.6892 53.33 65.3892 52.89C65.0992 52.3 64.9492 51.57 64.9492 50.99V49.67C64.9492 49.23 65.0992 49.08 65.2392 49.08H65.2492ZM65.8392 50.25V50.69C65.8392 51.13 65.9892 51.71 66.2792 52.3C66.4292 52.59 66.5692 52.89 66.8692 52.89C67.4592 53.04 67.8892 52.89 68.4792 52.45C69.2092 51.72 69.7992 50.69 69.7992 49.96C69.9492 48.5 69.2092 47.76 68.1892 47.76C67.3092 47.76 66.2892 48.49 66.1392 49.81C65.9892 49.96 65.8492 50.1 65.8492 50.25H65.8392Z" fill="#1F5440"/>
<path d="M66.1304 41.17C66.0304 41.27 65.9337 41.32 65.8404 41.32C65.5504 41.32 65.4004 41.17 65.4004 40.88C65.4004 39.27 66.4204 37.8 67.6004 37.36C68.9204 36.77 70.3804 37.21 70.9704 39.56C71.1204 40.44 70.6804 41.61 69.9504 42.34C69.0704 43.22 67.9004 43.51 67.0204 42.78C66.7304 42.63 66.5804 42.34 66.4304 41.9C66.2804 41.61 66.1404 41.31 66.1404 41.17H66.1304ZM66.4304 39.7C66.4304 39.85 66.5804 39.85 66.5804 39.99C66.7304 40.58 66.8704 41.75 67.3104 42.19C67.9004 42.63 68.7704 42.34 69.2104 41.75C69.8004 41.16 70.2304 40.29 70.0904 39.7C69.8004 38.09 68.7704 37.8 67.8904 38.09C67.3004 38.38 66.7204 38.97 66.4304 39.7Z" fill="#1F5440"/>
<path d="M64.2291 31.94C64.6691 30.33 65.8391 29.74 66.8691 29.89C68.0391 30.18 69.2091 31.35 68.7691 33.26C68.1791 35.75 66.8691 35.9 65.8391 35.31C64.8191 34.87 63.7891 33.55 63.7891 32.82C63.7891 32.38 63.9391 32.09 64.2291 31.94ZM64.8091 32.82C64.8091 32.82 64.9591 32.97 64.9591 33.11C65.2491 33.84 65.9791 34.72 66.7191 34.72C67.3091 34.72 67.7491 34.28 67.8891 33.11C68.1791 31.79 67.4491 31.06 66.7191 30.91C65.9891 30.76 65.1091 31.35 64.9591 32.67C64.9591 32.67 64.9591 32.82 64.8091 32.82Z" fill="#1F5440"/>
<path d="M69.9391 21.1001C70.8191 19.4901 72.2791 20.6601 73.0191 22.2701C73.8991 24.1701 73.6091 26.2201 71.4091 25.2001C71.1191 25.0501 70.8191 24.6101 70.5291 24.1801C70.2391 23.5901 70.0891 22.7201 69.9391 22.2801C69.7891 22.1301 69.7891 21.9901 69.7891 21.8401V21.5501C69.7891 21.2601 69.9391 21.1101 69.9391 21.1101V21.1001ZM70.6691 21.9801C70.8191 22.5701 71.1091 23.1501 71.3991 23.7401C71.5491 24.0301 71.6891 24.1801 71.8391 24.3301C72.8591 24.9201 72.4291 23.7401 72.1291 22.7201C71.6891 21.8401 71.1091 20.8201 70.6691 21.9901V21.9801ZM69.7891 21.6901C69.7891 21.7901 69.7891 21.7901 69.7891 21.6901V21.6901Z" fill="#1F5440"/>
<path d="M11.3599 74.71C10.1899 74.42 9.59985 73.54 9.45985 72.66C9.16985 71.34 9.89985 69.88 11.7999 69.88C12.5299 69.88 13.1199 70.32 13.4099 70.91C13.8499 71.64 13.8499 72.81 13.6999 73.55C13.5499 73.84 13.2599 74.58 12.8199 75.01C12.5299 75.3 12.0899 75.45 11.7999 75.16C11.6499 74.87 11.5099 74.72 11.3599 74.72V74.71ZM12.3799 73.97C12.6699 73.53 12.8199 73.24 12.8199 73.09C12.9699 72.65 12.9699 71.92 12.8199 71.48C12.6699 71.04 12.2299 70.6 11.7999 70.6C10.6299 70.6 10.0399 71.63 10.3399 72.5C10.3399 73.23 11.0699 73.96 12.3899 73.96L12.3799 73.97Z" fill="#1F5440"/>
<path d="M19.7009 81C18.0909 80.56 17.6509 79.24 17.8009 78.07C17.9509 76.61 19.4109 75.14 21.4609 75.73C22.1909 76.02 22.6309 76.46 22.9209 77.19C23.2109 78.07 23.0709 79.24 22.4809 79.97C22.1909 80.26 21.8909 80.56 21.6009 80.85C21.4509 81 21.1609 81.14 21.0109 81.14C20.8609 81.14 20.8609 81.29 20.7209 81.29H20.4309C20.1409 81.14 19.8409 81.14 19.7009 81ZM20.0009 80.12C20.1509 80.12 20.4409 80.27 20.5909 80.12L21.6209 79.24C21.9109 78.8 22.0609 78.21 22.0609 77.63C22.0609 77.19 21.7709 76.75 21.1809 76.6C19.8609 76.16 18.9809 77.04 18.8409 78.06C18.6909 78.94 18.9909 79.82 20.0109 80.11L20.0009 80.12Z" fill="#1F5440"/>
<path d="M27.1709 90.08C24.9709 89.2 24.9709 87.44 26.0009 86.13C26.8809 84.96 28.6409 84.23 30.2509 85.25C32.0109 86.42 31.5709 87.89 30.4009 89.06C29.8109 89.65 28.9409 90.09 28.3509 90.23C27.7609 90.23 27.4709 90.23 27.1809 90.08H27.1709ZM27.6109 89.21C27.7109 89.21 27.8075 89.16 27.9009 89.06C28.6309 88.91 29.5109 88.33 29.9509 87.74C30.2409 87.15 30.2409 86.57 29.5109 86.13C28.4809 85.4 27.3109 85.98 26.7309 86.72C26.2909 87.31 26.1409 88.18 26.8809 88.77H27.0309C27.1809 88.77 27.4709 88.92 27.4709 89.06L27.6209 89.21H27.6109Z" fill="#1F5440"/>
<path d="M22.0499 101.51H22.3399C22.6299 101.51 22.6299 101.8 22.6299 102.1C22.1899 103.86 20.1399 104.59 18.6799 104.3C17.5099 104.01 16.6299 103.13 17.5099 101.37C18.0999 100.2 19.4099 99.91 20.4399 100.35C21.1699 100.5 21.7599 100.94 22.0499 101.52V101.51ZM21.4599 102.39C21.6099 101.8 20.8699 101.36 20.1399 101.22C19.4099 101.07 18.6799 101.07 18.3799 101.81C17.7899 102.84 18.6699 103.42 19.5499 103.42C20.1399 103.42 21.0099 102.98 21.4499 102.39H21.4599Z" fill="#1F5440"/>
<path d="M27.0308 111.91C26.4408 112.93 25.4208 113.67 24.3908 113.67C22.9308 113.82 21.6108 112.79 22.0508 110.59C22.3408 108.98 23.5108 108.39 24.6908 108.54C25.8608 108.69 26.8908 109.42 27.3308 110.59C27.3308 110.59 27.4808 111.18 27.3308 111.47C27.4808 111.91 27.3308 111.91 27.0408 111.91H27.0308ZM26.5908 110.88C26.3008 110.15 25.5708 109.71 24.8308 109.71C24.0908 109.71 23.3708 110 23.2208 110.88C22.9308 112.2 23.6608 112.78 24.5408 112.78C25.2708 112.63 26.3008 112.05 26.5908 110.88Z" fill="#1F5440"/>
<path d="M13.6993 95.65C13.8493 95.8 13.8493 95.94 13.8493 96.09C13.5593 98.29 11.7993 98.73 10.3293 98.29C9.0093 97.85 8.1293 96.39 8.8693 94.48C9.1593 93.6 9.7493 93.16 10.4793 93.02C11.0693 92.87 11.7993 93.17 12.5293 93.61C12.8193 93.9 13.1193 94.05 13.2593 94.49C13.4093 94.64 13.5493 94.93 13.6993 95.22C13.6993 95.07 13.6993 95.37 13.6993 95.66V95.65ZM12.9693 95.8C12.8193 95.8 12.8193 95.36 12.8193 95.21L11.9393 94.04C11.4993 93.75 11.0593 93.6 10.6193 93.6C10.1793 93.75 9.8893 94.04 9.7393 94.48C9.2993 95.8 9.88931 96.82 10.7693 97.12C11.6493 97.71 12.8193 97.27 12.9693 95.8ZM13.1093 95.65C13.2593 95.5 13.3993 95.36 13.5493 95.5C13.3993 95.35 13.1093 95.5 13.1093 95.65Z" fill="#1F5440"/>
<path d="M5.05934 84.0799C5.20934 84.2299 5.34934 84.3699 5.34934 84.6699C4.90934 86.2799 3.44934 87.0099 2.12934 86.8699C0.669342 86.7199 -0.510658 85.5499 0.229342 83.4999C0.819342 81.7399 2.12934 81.2999 3.30934 81.5999C4.18934 82.0399 5.06934 83.0599 5.06934 84.0899L5.05934 84.0799ZM4.17934 84.8099V84.66C4.32934 83.63 3.73934 83.0499 3.00934 82.7599C2.27934 82.6099 1.54934 82.9099 1.24934 83.9299C0.959342 85.0999 1.53934 85.6899 2.27934 85.8299C2.86934 85.9799 3.73934 85.6799 4.17934 84.8099Z" fill="#1F5440"/>
<path d="M45.9196 174.45C46.0696 174.45 46.5096 173.72 46.9496 172.84C47.5396 171.52 48.1196 169.76 48.2696 169.62C49.2896 167.57 50.4696 165.81 51.6396 163.91C52.9596 162.15 54.2796 160.39 55.5896 158.64C58.6696 154.83 62.1796 151.61 65.8396 148.83C71.5496 144.44 77.6996 140.77 83.9996 137.26C84.2896 137.11 84.2896 136.82 84.1496 136.53C83.9996 136.24 83.7096 136.24 83.4196 136.38C77.1196 139.9 70.8196 143.56 65.1096 147.95C61.2996 150.88 57.7896 154.1 54.5696 157.91C53.1096 159.67 51.7896 161.43 50.4696 163.33C49.1496 165.23 48.1296 167.14 47.0996 169.19L45.6396 173.88C45.4896 173.88 45.3496 174.17 45.3496 174.32C45.4996 174.47 45.7896 174.61 45.9396 174.47L45.9196 174.45Z" fill="#1F5440"/>
<path d="M47.0906 163.46C47.0906 158.77 44.4506 154.09 40.9406 149.84C36.9906 145.15 32.0106 140.91 27.4706 137.83C26.1506 136.95 24.8306 136.07 23.6606 135.34C23.3706 135.19 23.0706 135.19 22.9306 135.49C22.7806 135.78 22.7806 136.08 23.0806 136.22C24.1006 136.95 25.4206 137.98 26.7406 138.86C30.9906 142.08 36.2606 146.04 40.2106 150.43C43.7306 154.53 46.3606 158.92 46.3606 163.32C46.3606 163.47 46.5106 163.76 46.8006 163.76C46.9506 163.76 47.0906 163.61 47.0906 163.47V163.46Z" fill="#1F5440"/>
<path d="M23.9503 135.63L24.1003 135.78C24.2503 136.07 24.2503 136.37 23.9503 136.51C22.1903 137.68 20.4303 136.95 19.4103 135.63C18.3903 134.31 18.2403 132.26 20.0003 130.94C20.8803 130.35 21.7603 130.35 22.6403 130.65C23.3703 131.09 23.9603 131.82 24.2503 132.55C24.4003 132.99 24.4003 133.87 24.2503 134.45C24.2503 135.04 24.1003 135.33 23.9603 135.62L23.9503 135.63ZM23.0703 135.05C23.2203 134.9 23.3603 134.46 23.3603 134.17C23.3603 133.73 23.3603 133.14 23.2103 133C23.0603 132.41 22.6203 131.97 22.0403 131.68C21.6003 131.39 21.0103 131.39 20.4303 131.83C19.2603 132.71 19.4103 134.03 19.9903 135.05C20.5803 135.78 21.6003 136.37 22.7703 135.93C22.6203 135.78 22.4803 135.78 22.6203 135.64C22.7703 135.35 22.9103 135.05 23.0603 135.05H23.0703Z" fill="#1F5440"/>
<path d="M83.9991 136.66C83.8491 136.81 83.7091 136.95 83.5591 136.81C83.2691 136.81 83.1191 136.52 83.1191 136.22C83.1191 134.61 84.1391 132.85 85.1691 132.41C85.8991 132.12 86.9291 132.41 87.8091 134.02C88.2491 134.9 88.2491 136.66 87.5191 137.54C86.9291 138.27 86.1991 138.71 85.0291 137.98C84.8791 137.98 84.4391 137.25 83.9991 136.66ZM84.4391 135.78C84.8791 135.63 85.4591 137.24 85.6091 137.39C86.1991 137.68 86.4891 137.54 86.7791 137.1C87.2191 136.37 87.3691 135.2 86.9291 134.61C86.4891 133.73 86.0491 133.29 85.6091 133.59C85.0191 133.88 84.5891 134.61 84.2891 135.49C84.2891 135.49 84.4391 135.64 84.4391 135.78Z" fill="#1F5440"/>
<path d="M29.9609 133.73C30.2509 133.73 30.6909 134.9 31.1309 136.22C32.0109 138.86 32.8909 142.52 33.1809 143.54C33.1809 143.69 33.4709 143.83 33.6209 143.69C33.7709 143.69 33.9109 143.4 33.7709 143.25C33.3309 142.08 32.1609 137.54 31.2809 134.9C30.8409 133.58 30.2609 132.85 29.8209 132.85C29.6709 132.85 29.3809 133 29.3809 133.29C29.3809 133.58 29.6709 133.73 29.9709 133.73H29.9609Z" fill="#1F5440"/>
<path d="M40.5009 149.4C40.6509 149.55 40.6509 149.84 40.5009 149.99C40.0609 150.14 39.9109 150.14 39.9109 149.84V148.67L39.7609 147.06L38.8809 141.93C38.8809 141.78 39.0309 141.49 39.1709 141.49C39.3109 141.49 39.6109 141.64 39.6109 141.78L40.3409 146.91L40.4909 148.52V149.4H40.5009Z" fill="#1F5440"/>
<path d="M29.3695 133.73C28.6395 133.73 28.0495 133.29 27.7595 132.85C27.1695 132.12 27.0295 130.95 27.9095 129.92C28.0595 129.77 28.1995 129.63 28.4995 129.48C28.6495 129.33 28.9395 129.33 29.2295 129.33C30.5495 129.33 31.1295 129.92 31.2795 130.65C31.4295 131.24 31.1295 131.97 30.8395 132.7C30.9895 132.7 30.9895 132.85 30.9895 132.99C31.1395 133.28 30.9895 133.58 30.6995 133.58C30.5495 133.58 30.4095 133.73 30.2595 133.73C30.1095 133.88 29.9695 134.02 29.6695 133.88C29.5195 133.88 29.5195 133.73 29.3795 133.73H29.3695ZM29.6595 132.7C29.9495 132.11 30.2495 131.38 30.0995 130.94C29.9495 130.65 29.6595 130.5 29.0795 130.5L28.7895 130.65C28.3495 131.24 28.3495 131.82 28.6395 132.26C28.9295 132.41 29.2295 132.7 29.6595 132.7Z" fill="#1F5440"/>
<path d="M39.9198 141.49C39.9198 141.49 40.0698 141.64 40.0698 141.78C40.0698 142.07 39.9198 142.37 39.6298 142.37C38.1698 142.52 36.9898 141.49 36.6998 140.32C36.2598 139 36.6998 137.39 38.3098 137.1C39.0398 136.95 40.0698 137.1 40.6498 137.69C41.0898 138.13 41.3798 138.57 41.3798 139.3C41.3798 139.74 41.2298 140.18 41.0898 140.62C40.9398 141.06 40.6498 141.35 40.3598 141.64C40.2098 141.35 40.0698 141.35 39.9198 141.49ZM39.0398 141.05C39.0398 140.9 39.4798 140.76 39.6298 140.61C39.7798 140.32 40.0698 140.17 40.2198 139.88C40.3698 139.59 40.5098 139.29 40.5098 139C40.5098 138.56 40.2198 138.27 39.7798 138.12C39.3398 137.97 38.8998 137.83 38.4598 137.97C37.5798 138.26 37.4298 139.14 37.7298 139.87C37.8798 140.46 38.3198 141.04 39.0498 141.04C39.0498 141.14 39.0498 141.14 39.0498 141.04L39.0398 141.05Z" fill="#1F5440"/>
<path d="M24.3891 146.47C24.3891 146.47 25.1191 146.32 25.9991 145.88C28.3391 145 32.1491 143.39 33.0291 142.95C33.3191 142.8 33.3191 142.51 33.1791 142.36C33.0291 142.07 32.7391 142.07 32.5891 142.21C31.7091 142.65 27.7591 144.11 25.5591 145.14C24.3891 145.58 23.6591 146.02 23.6591 146.17C23.5091 146.32 23.5091 146.61 23.8091 146.76C23.9591 146.61 24.2491 146.61 24.3991 146.47H24.3891Z" fill="#1F5440"/>
<path d="M32.4502 153.5L40.5102 149.69C40.6602 149.54 40.8002 149.4 40.6602 149.25C40.5202 149.1 40.3702 148.96 40.2202 149.1L32.0202 152.91C31.8702 153.06 31.7302 153.2 31.8702 153.5C32.0202 153.65 32.1602 153.65 32.4602 153.5H32.4502Z" fill="#1F5440"/>
<path d="M24.1001 146.03C24.2501 146.18 24.2501 146.32 24.2501 146.47C24.2501 148.67 22.7901 149.55 21.4701 149.25C20.1501 149.1 18.8301 147.79 19.4201 145.88C19.8601 144.42 21.0301 143.83 22.2001 143.98C23.3701 144.13 24.2501 144.86 24.1001 146.03ZM23.3701 146.77C23.2201 146.62 23.2201 146.48 23.2201 146.33C23.5101 145.45 22.9301 145.01 22.0501 144.87C21.3201 144.87 20.5901 145.16 20.4401 146.04C20.1501 147.21 20.8801 147.94 21.7601 148.09C22.3501 148.24 23.0801 147.8 23.3701 146.77Z" fill="#1F5440"/>
<path d="M31.8603 151.89C31.9603 151.79 32.057 151.74 32.1503 151.74C32.3003 151.74 32.4403 151.89 32.5903 152.03C32.7403 152.32 33.0303 153.2 33.0303 153.35C33.1803 154.08 33.4703 155.25 33.3203 156.13C33.1703 156.86 32.5903 157.45 31.5603 157.3C28.9203 157.15 27.9003 155.25 28.1903 153.78C28.3403 152.02 29.8003 150.56 31.8503 151.88L31.8603 151.89ZM32.1503 153.06C32.0003 153.06 31.8603 153.06 31.8603 152.91C30.4003 151.74 29.2203 152.62 29.0803 153.79C28.9303 154.82 29.6703 156.13 31.5703 156.28C32.0103 156.28 32.3003 156.13 32.4503 155.84C32.6003 155.11 32.4503 154.08 32.3003 153.5C32.1503 153.5 32.1503 153.35 32.1503 153.06ZM31.8603 152.48C31.7103 152.63 31.8603 152.63 31.8603 152.48H32.0103C32.0103 152.63 31.8603 152.48 31.8603 152.48Z" fill="#1F5440"/>
<path d="M70.8195 145.3C70.8195 145.45 70.6694 145.59 70.5294 145.74C70.0894 145.89 69.9395 145.59 69.9395 145.45C69.9395 145.31 70.3794 144.72 70.5294 144.42L71.6994 141.78C72.5794 140.02 73.4594 138.12 74.3394 136.36C74.6294 135.92 74.9295 135.48 75.0695 135.04C75.2195 134.89 75.3595 134.75 75.6595 134.89C75.8095 135.04 75.9494 135.18 75.8094 135.48C75.6594 135.92 75.3695 136.36 75.2195 136.8C74.3395 138.56 73.3195 140.32 72.4395 142.07L70.9795 144.56C71.1295 144.71 70.9795 145.15 70.8295 145.29L70.8195 145.3Z" fill="#1F5440"/>
<path d="M63.2007 150.87C63.0507 151.6 62.4707 150.87 62.4707 150.87V150.58L63.4907 147.65L65.3907 141.21C65.3907 141.06 65.6807 140.92 65.8307 140.92C65.9807 140.92 66.1207 141.21 66.1207 141.36L64.3607 147.95L63.1907 150.88L63.2007 150.87Z" fill="#1F5440"/>
<path d="M57.0505 157.02V157.31C56.9005 157.6 56.6105 157.6 56.4605 157.46C56.4605 157.46 56.3105 157.31 56.3105 157.17V156.44L56.4605 154.68L57.1905 149.55C57.1905 149.26 57.4805 149.11 57.6305 149.26C57.9205 149.26 58.0705 149.55 57.9205 149.7L57.3305 154.83L57.0405 156.59V157.03L57.0505 157.02ZM56.4705 156.72C56.4705 156.62 56.4205 156.67 56.3205 156.87C56.3205 156.72 56.4705 156.72 56.4705 156.72Z" fill="#1F5440"/>
<path d="M71.1105 145.3C71.9905 145.59 72.8705 145.74 73.7505 145.74C75.8005 145.89 78.0005 145.45 79.7505 145.45C79.9005 145.45 80.1906 145.3 80.1906 145.01C80.1906 144.86 80.0405 144.57 79.7505 144.57C78.1405 144.57 76.3806 144.57 74.6206 144.72C73.4506 144.72 72.2805 144.72 71.2505 144.57C71.1005 144.57 70.8105 144.72 70.8105 144.86C70.8105 145 70.8105 145.3 71.1005 145.3H71.1105Z" fill="#1F5440"/>
<path d="M63.7905 150.13C64.3805 150.72 66.2805 151.45 68.6205 151.59C71.4005 151.88 74.6205 151.74 75.8005 151.88C75.9505 151.88 76.0905 151.73 76.2405 151.59C76.2405 151.44 76.0905 151.3 75.9505 151.15C75.0705 151 73.1705 150.86 70.9705 150.56C69.8005 150.41 68.7705 150.41 67.7505 150.27C66.2905 150.12 64.9705 149.98 64.5305 149.54C64.3805 149.39 64.0905 149.39 63.9405 149.54C63.6505 149.69 63.6505 149.98 63.7905 150.13Z" fill="#1F5440"/>
<path d="M57.1992 156.28C57.3492 156.13 57.9292 156.28 58.0792 156.43L59.8392 156.72L65.1092 157.6C65.3992 157.6 65.5492 157.89 65.5492 158.19C65.5492 158.49 65.2592 158.63 64.9592 158.63L59.5392 158.04L57.7792 157.45C57.4892 157.3 56.7592 157.16 56.6092 157.16C56.4592 157.01 56.3192 156.72 56.7592 156.43C56.9092 156.28 57.0492 156.28 57.1992 156.28Z" fill="#1F5440"/>
<path d="M49.8703 165.51C50.6003 165.95 51.9203 166.1 53.3903 165.95C55.1503 165.8 57.2003 165.07 58.2203 164.92C58.5103 164.92 58.6603 164.63 58.6603 164.33C58.6603 164.03 58.3703 163.89 58.0703 163.89C56.7503 164.04 54.4103 164.62 52.3603 164.77C51.4803 164.92 50.7503 164.92 50.1603 164.62C50.0103 164.47 49.7203 164.62 49.5703 164.77C49.5703 165.21 49.7203 165.5 49.8603 165.5L49.8703 165.51Z" fill="#1F5440"/>
<path d="M65.9902 156.72L66.1402 156.57C65.9902 156.72 66.1402 156.86 66.1402 157.01C66.1402 157.16 66.4302 157.01 66.5802 157.01L66.7302 156.72C66.7302 156.43 66.5802 156.28 66.2902 156.28C66.1402 156.43 66.0002 156.57 66.0002 156.72H65.9902Z" fill="#1F5440"/>
<path d="M65.1103 157.46C65.5503 156.14 66.8703 155.41 68.1903 155.41C69.6503 155.41 70.9703 156.44 70.6803 158.19C70.5303 159.21 69.5103 160.09 68.3403 160.53C67.0203 160.97 65.7003 160.82 65.1203 159.8C64.9703 159.51 64.9703 158.48 65.1203 157.75V157.6C64.9703 157.6 65.1203 157.6 65.1203 157.45L65.1103 157.46ZM65.8403 158.19C65.8403 158.63 65.6903 159.21 65.8403 159.36C66.2803 160.09 67.1603 159.95 67.8903 159.65C68.7703 159.36 69.5003 158.77 69.6503 158.04C69.8003 157.01 68.9203 156.58 68.1903 156.58C67.3103 156.58 66.2903 157.02 66.1403 157.9C65.9903 158.05 65.9903 158.19 65.8503 158.19H65.8403Z" fill="#1F5440"/>
<path d="M75.6491 151.16H75.4991C75.2091 151.01 75.2091 150.72 75.3491 150.43C76.0791 149.11 77.3991 148.82 78.5691 149.26C79.7391 149.7 80.6191 150.87 80.0291 152.34C79.4391 153.95 78.1291 154.24 76.9491 153.8C76.0691 153.21 75.4891 152.34 75.6291 151.16H75.6491ZM76.5291 150.43C76.6791 150.58 76.6791 150.72 76.5291 150.87C76.2391 151.75 76.6791 152.48 77.4091 152.77C77.9991 153.06 78.7291 152.77 79.0191 151.89C79.3091 151.01 78.8691 150.43 78.1391 150.13C77.5491 149.98 76.9691 149.98 76.5291 150.42V150.43Z" fill="#1F5440"/>
<path d="M79.4604 144.71C79.1704 144.56 79.0204 144.27 79.1704 143.98C79.7604 142.66 81.5104 141.78 82.6904 142.08C83.7204 142.23 84.4504 142.96 84.4504 144.42C84.4504 145.15 84.0104 146.03 83.2804 146.47C82.5504 146.91 81.8204 147.2 80.9404 146.91C80.5004 146.76 80.0604 146.47 79.7704 146.03C79.6204 145.59 79.4804 145.15 79.4804 144.71H79.4604ZM80.1904 144.13C80.1904 144.42 80.3404 144.86 80.4804 145.3C80.6304 145.59 80.9204 145.89 81.2104 145.89C81.6504 146.04 82.2404 145.89 82.5304 145.6C82.9704 145.31 83.2604 144.87 83.2604 144.43C83.2604 143.41 82.6704 143.11 81.9404 143.26C81.3504 143.26 80.6204 143.55 80.1804 144.14L80.1904 144.13Z" fill="#1F5440"/>
<path d="M75.9408 135.49C75.7908 135.78 75.5008 135.93 75.2108 135.78C73.7508 135.19 73.3108 133.73 73.7508 132.41C74.1908 131.09 75.3608 130.07 76.9708 130.51C78.5808 130.95 79.0208 132.56 78.2908 133.88C78.0008 134.76 77.1208 135.34 75.9508 135.49H75.9408ZM75.3608 134.75C76.3808 134.75 77.1208 134.16 77.4108 133.58C77.7008 132.85 77.5608 131.97 76.8208 131.82C75.9408 131.67 75.3608 132.26 75.0608 132.99C74.7708 133.43 74.7708 134.16 75.3508 134.75H75.3608Z" fill="#1F5440"/>
<path d="M67.0092 141.49C67.0092 141.78 66.8592 141.93 66.7192 142.08C64.3792 142.81 64.2292 140.76 65.1092 139C65.6992 137.68 66.8692 136.8 67.5992 137.24C67.8892 137.39 68.3292 137.83 68.4792 138.56C68.6292 139.29 68.3292 140.17 67.8892 140.9C67.5992 141.05 67.2992 141.34 67.0092 141.49ZM65.8392 141.05C66.2792 140.9 66.5692 140.61 66.8592 140.17C67.1492 139.73 67.2992 139.14 67.2992 138.71C67.2992 138.42 67.1492 138.12 67.1492 138.27C66.9992 138.42 66.7092 138.42 66.8592 138.56C67.2992 139 66.1292 139.59 65.9792 140.17C65.8292 140.46 65.6892 140.9 65.8292 141.05H65.8392Z" fill="#1F5440"/>
<path d="M58.3704 149.84C58.5204 149.84 58.6604 149.99 58.8104 150.13C58.9604 150.42 58.8104 150.57 58.5204 150.72C56.9104 151.45 55.1504 150.72 54.2704 149.7C53.2404 148.53 53.1004 146.62 55.0004 145.45C56.9004 144.28 58.5104 145.01 59.2504 146.18C59.9804 147.2 59.8404 148.67 58.3704 149.84ZM57.4904 149.55C57.4904 149.4 57.6404 149.4 57.4904 149.55C58.8104 148.67 58.9504 147.5 58.5204 146.77C58.0804 146.04 56.9104 145.74 55.7404 146.48C54.5704 147.21 54.5704 148.38 55.1504 149.12C55.5904 149.71 56.1704 150 56.9104 150.14C56.9104 149.99 56.9104 149.85 57.0604 149.7C57.2104 149.55 57.3504 149.41 57.5004 149.55C57.5004 149.45 57.5004 149.45 57.5004 149.55H57.4904Z" fill="#1F5440"/>
<path d="M58.2191 163.02C57.9291 162.73 57.9291 162.29 58.2191 162.14C59.6791 160.68 61.7391 160.97 62.9091 161.99C64.0791 163.01 64.5191 164.77 62.9091 166.53C62.1791 167.26 61.1491 167.85 60.2691 167.7C59.6791 167.7 58.9491 167.26 58.5091 166.53C58.2191 166.09 58.0691 165.65 57.9191 165.21C57.7691 164.77 57.7691 164.33 57.9191 163.75C57.9191 163.75 58.0691 163.31 58.2091 163.02H58.2191ZM59.0991 163.31V165.07C59.0991 165.36 59.2491 165.8 59.3891 166.09C59.6791 166.68 60.1191 166.82 60.5591 166.82C61.1491 166.82 61.5791 166.38 62.0191 165.94C63.0491 164.77 62.7491 163.6 62.0191 162.86C61.2891 162.27 60.1191 162.13 59.0891 162.71C59.3791 162.86 59.2391 163 59.0891 163.3C59.2391 163.3 59.3791 163.15 59.0891 163.3C59.0891 163.2 59.0891 163.2 59.0891 163.3L59.0991 163.31Z" fill="#1F5440"/>
</g>
<defs>
<clipPath id="clip0_472_4327">
<rect width="88.11" height="202.37" fill="white"/>
</clipPath>
</defs>
</svg>
