<svg width="67" height="187" viewBox="0 0 67 187" fill="none" xmlns="http://www.w3.org/2000/svg">
<g clip-path="url(#clip0_472_3678)">
<path d="M41.8347 24.4797L41.731 24.3756C40.9273 23.9765 39.6224 23.4647 39.2249 23.1698C37.92 22.1635 36.615 21.1573 35.4138 19.9428C34.2126 18.737 33.2015 17.4272 32.1991 16.1173C28.7856 11.1814 29.788 6.84405 32.3978 5.03104C35.0077 3.21804 39.4236 3.92068 42.1372 9.66332C43.2433 11.884 43.4421 13.8966 43.4421 15.9091C43.4421 18.7284 42.7421 21.4522 42.6384 24.471C42.7421 24.5751 42.7421 24.6705 42.6384 24.7746V25.2777C42.6384 25.4773 42.4396 25.6768 42.2409 25.6768C42.0421 25.6768 41.8433 25.4773 41.8433 25.2777C41.8433 25.0782 41.8433 24.7746 41.8433 24.471L41.8347 24.4797ZM41.8347 23.8811C42.0335 21.0618 42.6384 18.5375 42.6384 15.9178C42.6384 14.0007 42.3359 12.0922 41.3335 9.97561C38.8273 4.8402 35.0077 4.03345 32.7003 5.64694C30.3929 7.26043 29.5892 11.1901 32.7003 15.6228C33.6077 16.9327 34.7052 18.1385 35.8114 19.3529C36.9175 20.5587 38.2224 21.5737 39.4236 22.5799C39.8212 22.8835 40.8322 23.2826 41.5322 23.7857C41.6647 23.8551 41.7656 23.8898 41.8347 23.8898V23.8811Z" fill="#1F5440"/>
<path d="M43.4432 22.3725C44.3419 22.572 44.7481 23.3787 44.8518 24.2896C44.9555 25.2958 44.3506 26.5103 43.2444 26.8052C41.7407 27.2043 40.7383 25.799 40.7383 24.385C40.842 22.971 41.6457 21.7653 43.4518 22.3725H43.4432ZM43.4432 24.0814C43.374 24.1508 43.374 24.1508 43.4432 24.0814C43.4432 24.1508 43.4432 24.1508 43.4432 24.0814Z" fill="#1F5440"/>
<path d="M41.7406 24.3839C41.5419 24.3839 41.1357 24.2798 40.937 24.2798C40.6345 24.1757 40.332 24.0803 40.0382 23.9762C39.7357 23.8721 39.537 23.6726 39.2345 23.473C38.4308 22.8658 37.6271 22.2673 36.7284 21.66C36.2272 21.3564 35.6222 21.0528 34.9223 20.9574C32.3124 20.4543 27.8965 20.9574 24.8805 22.7704C22.8756 23.9762 21.3632 25.7892 21.6657 28.2094C21.7694 29.0162 22.0632 29.6234 22.5731 30.2219C23.0743 30.8292 23.6793 31.2282 24.3792 31.5318C26.9891 32.7376 29.4001 32.5381 31.6038 31.5318C34.3173 30.326 36.8235 28.1053 39.4333 26.5959C40.1333 26.1969 40.8419 25.7892 41.5419 25.4856C41.6456 25.3815 41.8443 25.4856 41.8443 25.5897C41.8443 25.6938 41.8443 25.8933 41.7406 25.8933C41.0407 26.2923 40.4357 26.7 39.8308 27.2032C37.3247 28.9121 34.7148 31.1328 31.8976 32.2431C29.4866 33.2494 26.8767 33.553 23.9644 32.2431C23.1607 31.8441 22.4608 31.3323 21.9595 30.7337C21.4583 30.0311 21.0608 29.2244 20.9571 28.3135C20.5596 25.5897 22.1583 23.473 24.5694 22.0677C27.7841 20.1506 32.3988 19.6475 35.2074 20.1506C35.9074 20.3502 36.6161 20.6538 37.2123 21.0615C38.1197 21.5646 38.8197 22.2673 39.7185 22.8745L41.2221 23.7853C41.4209 23.8894 42.0258 23.9848 42.1209 24.0889C42.2246 24.193 42.3196 24.3926 42.0172 24.488C41.9135 24.5921 41.8184 24.488 41.7147 24.3839H41.7406Z" fill="#1F5440"/>
<path d="M42.5435 22.6679C42.6472 22.772 42.6472 22.8675 42.5435 22.9715C42.4398 23.0756 42.3447 23.0756 42.241 23.0756C42.1373 23.0756 42.0423 22.9715 42.0423 22.772C41.9386 22.5725 42.241 22.0694 42.5435 21.3581C43.4509 19.6491 45.5509 16.7258 45.8533 16.4222C46.5533 15.5113 47.357 14.7133 48.2644 14.0019C49.1631 13.2993 50.0705 12.588 51.1767 12.0848C53.1816 11.0786 56.2926 10.775 59.3086 11.174C62.316 11.573 65.1332 12.588 66.8356 14.2969C67.0344 14.4964 67.0344 14.9041 66.9394 15.6067C66.6369 16.9166 65.8332 18.9291 65.7381 19.2328C64.9345 21.3494 63.8283 22.9629 62.5234 24.0732C60.7172 25.7821 58.4099 26.8925 55.6963 27.8033C55.3939 27.9074 55.1951 28.0029 54.8927 28.0029C54.6939 28.107 54.5902 28.0029 54.4951 27.8033C54.3914 27.6038 54.4951 27.4997 54.6939 27.4043C54.9964 27.3002 55.1951 27.1007 55.4976 27.0053C58.0037 25.7995 60.3197 24.9927 62.1259 23.3793C63.3271 22.2689 64.4332 20.8636 65.1332 18.747C65.2369 18.4434 65.7381 17.2376 66.1357 16.1272C66.2394 15.6241 66.4381 15.2251 66.4381 14.9214C66.4381 14.8174 66.5418 14.7219 66.4381 14.7219C64.8307 13.1084 62.1259 12.1022 59.3086 11.7986C56.5 11.3995 53.484 11.6945 51.5828 12.6053C50.5804 13.1084 49.673 13.7157 48.8693 14.4183C48.0656 15.121 47.2619 15.9277 46.5619 16.7345C46.3632 16.934 45.0583 18.747 44.0558 20.2564C43.5546 21.0631 43.1571 21.7658 42.9497 22.1735C42.6472 22.4771 42.5521 22.6766 42.5521 22.6766L42.5435 22.6679Z" fill="#1F5440"/>
<path d="M42.9416 24.9915C43.2441 25.2951 43.5466 25.4946 44.1428 25.6941C46.7527 26.605 52.3699 26.3013 55.0834 28.1143C55.9908 28.7216 57.4945 31.1331 58.7994 33.5534C59.6981 35.3664 60.5018 37.2835 60.8043 38.4893C60.908 38.9924 60.908 39.296 60.8043 39.4955C60.6055 39.695 60.1043 39.5996 59.3957 39.5996C57.892 39.4955 55.8871 39.2006 55.2821 39.296C50.9699 39.695 48.1526 40.2068 46.2514 39.1919C44.3416 38.2811 43.4429 36.069 42.6392 31.2286C42.4404 30.1182 42.3367 28.9124 42.3367 27.7066C42.3367 26.5963 42.5355 25.59 42.6392 24.5838V24.1847C42.6392 24.0806 42.6392 23.9852 42.5355 23.8811C42.4318 23.8811 42.3367 23.8811 42.233 23.9852C42.1293 24.0893 42.0342 24.0893 42.0342 24.1847C41.6367 24.8874 41.6367 25.8936 41.6367 26.8045C41.6367 28.3139 41.7404 29.8233 41.9392 31.1331C42.7429 36.3726 43.849 38.7929 45.9576 39.695C47.9625 40.7013 50.9785 40.1982 55.4895 39.695C56.0945 39.5909 58.6006 39.9987 60.1043 39.9987C60.8043 39.9987 61.3055 39.8946 61.5129 39.695C61.7117 39.4955 61.8154 38.9924 61.7117 38.3852C61.608 37.3789 61.0117 35.7654 60.303 34.1519C58.8944 31.1331 56.8895 27.9062 55.7834 27.0994C55.0834 26.7004 54.2797 26.2927 53.3723 26.0931C50.7625 25.3905 47.5477 25.2864 45.3441 24.8874C44.5404 24.7833 43.9354 24.5838 43.6416 24.2801C43.5379 24.176 43.4429 24.176 43.3392 24.2801C42.8379 24.7833 42.8379 24.8874 42.9416 24.9828V24.9915Z" fill="#1F5440"/>
<path d="M35.1116 40.6049C35.1808 40.6049 35.247 40.5702 35.3104 40.5008C36.1141 40.1972 37.6177 39.3905 39.0264 38.5837C40.1325 37.9765 41.135 37.2738 41.6362 36.8748C41.7399 36.7707 42.0337 36.5712 42.3362 36.2676C42.5349 36.0681 42.6386 35.964 42.7337 35.7644C42.7337 35.7644 42.8374 35.7644 42.8374 35.6604C42.8374 35.5563 42.9411 35.4608 43.0362 35.4608C43.1312 35.4608 43.2349 35.5649 43.2349 35.6604C43.2349 35.8599 43.1312 36.0594 42.9325 36.363C42.63 36.762 42.1288 37.0657 41.93 37.2738C41.0313 37.9765 38.819 39.2864 37.1079 40.1972C36.2091 40.7003 35.5005 41.004 35.103 41.108C34.8005 41.2121 34.6018 41.108 34.4981 41.004C34.2993 40.8044 34.1956 40.5008 34.1005 40.0931C33.9968 39.3905 33.9968 38.5837 33.9968 38.176C33.7981 35.4522 34.3944 33.4396 35.5005 31.6266C36.7017 29.7095 38.4128 28.096 39.9165 26.283C40.5214 25.5804 41.1177 24.7736 41.6189 23.9669C41.7226 23.8628 41.8177 23.8628 41.9214 23.8628C42.0251 23.9669 42.0251 24.0623 42.0251 24.1664C41.5239 25.0772 41.0226 25.8753 40.4177 26.6821C38.914 28.5992 37.2029 30.1086 36.1054 32.0257C35.103 33.6392 34.4981 35.5563 34.6968 38.0719C34.6968 38.3755 34.6968 39.0782 34.8005 39.6854C34.9993 40.1885 34.9993 40.4921 35.103 40.5876L35.1116 40.6049Z" fill="#1F5440"/>
<path d="M41.4377 26.5975C41.4377 26.4934 41.5414 26.4934 41.6364 26.4934C41.7315 26.4934 41.7401 26.5975 41.7401 26.6929L41.6364 26.8925C41.5327 26.8925 41.4377 26.8924 41.334 26.7884C41.334 26.6843 41.334 26.5888 41.4377 26.4847V26.5888V26.5975Z" fill="#1F5440"/>
<path d="M41.9392 24.8876C41.7405 25.998 41.3343 27.1084 40.9368 28.21C39.9343 30.7257 38.5257 33.1459 37.627 35.5662C37.627 35.6703 37.627 35.7657 37.7307 35.7657C37.8344 35.7657 37.9294 35.7657 37.9294 35.6616C38.8282 33.2413 40.1331 30.7257 41.2392 28.3055C41.7405 27.1951 42.138 26.0847 42.3454 24.9831C42.3454 24.879 42.3454 24.7835 42.1466 24.6794C42.1466 24.6794 41.9479 24.7835 41.9479 24.879L41.9392 24.8876Z" fill="#1F5440"/>
<path d="M42.6389 25.8943C42.8377 26.597 43.8402 28.2105 43.8402 28.2105C44.5401 29.3208 45.2488 30.3271 45.9488 31.3333C46.6487 32.3396 47.4524 33.3459 48.2561 34.3521C48.3598 34.4562 48.2561 34.5516 48.2561 34.5516C48.1524 34.6557 48.0574 34.5516 48.0574 34.5516C47.2537 33.6408 46.45 32.6345 45.6463 31.6283C44.8426 30.622 44.1426 29.5117 43.5377 28.5054C43.5377 28.4013 42.734 27.0914 42.4315 26.3888C42.2328 25.8856 42.3278 25.582 42.5352 25.582C42.6389 25.582 42.734 25.582 42.8377 25.7815C42.734 25.7815 42.734 25.8856 42.6389 25.8856V25.8943ZM42.6389 25.8943C42.7081 25.8943 42.7081 25.8943 42.6389 25.8943V25.8943Z" fill="#1F5440"/>
<path d="M42.4396 25.392C43.0446 25.6956 43.6408 26.3028 44.2458 26.8059C45.6544 28.1158 46.9593 29.7293 48.1605 30.8397C48.2642 30.9438 48.2642 30.8397 48.3593 30.8397C48.463 30.7356 48.3593 30.7356 48.3593 30.6402C47.1581 29.5298 45.8531 27.8209 44.5482 26.511C43.9433 25.9038 43.2433 25.4006 42.6384 25.0016C42.5347 24.8975 42.4396 25.0016 42.3359 25.1057C42.2322 25.2098 42.3359 25.4093 42.4396 25.4093V25.392Z" fill="#1F5440"/>
<path d="M42.8371 23.9757C43.7358 23.3684 44.6432 22.7699 45.4469 22.0586C47.3568 20.4451 49.258 18.7362 51.1678 17.1227C51.2715 17.0186 51.2715 16.9232 51.1678 16.9232C51.0641 16.8191 50.969 16.8191 50.969 16.9232L42.6383 23.6721C42.5346 23.7762 42.5346 23.8716 42.6383 23.8716C42.6383 23.9757 42.742 23.9757 42.8371 23.9757Z" fill="#1F5440"/>
<path d="M43.7447 24.1862C44.0472 23.9866 44.7471 23.5789 45.0496 23.3794L47.7631 21.5664C47.8668 21.4623 47.9619 21.5664 48.0656 21.5664C48.1693 21.6705 48.0656 21.7659 48.0656 21.87L45.3521 23.7871C45.0496 23.9866 44.3496 24.3944 44.0472 24.5939C44.0472 24.5939 44.0472 24.698 43.9435 24.698H43.8398C43.1398 25.2011 42.7336 25.3052 43.0361 25.0016C42.6385 25.1057 42.9324 24.8021 43.641 24.3944L43.7447 24.2903C43.6756 24.2209 43.6756 24.1862 43.7447 24.1862Z" fill="#1F5440"/>
<path d="M43.2428 23.4734C43.0441 23.2739 42.6379 22.7708 42.6379 22.7708C42.3354 22.3717 42.1367 21.964 41.9379 21.4609C41.6354 20.7582 41.4367 20.0469 41.1342 19.4484C40.3305 17.4358 39.6305 15.3192 38.8269 13.3067C38.5244 12.3959 38.1269 11.5978 37.7207 10.6869C37.7207 10.5828 37.7207 10.4874 37.8244 10.4874C37.9281 10.4874 38.0232 10.4874 38.0232 10.5915C38.6281 11.7019 39.1293 12.9077 39.5268 14.018C40.2268 15.7269 40.7281 17.5486 41.4367 19.2575C41.7391 19.9602 41.9379 20.5674 42.2404 21.2701C42.4391 21.6691 42.6379 22.1809 42.9404 22.4758C42.9404 22.4758 43.3379 22.979 43.5453 23.1785C43.744 23.378 43.5453 23.5775 43.5453 23.5775C43.4416 23.6816 43.3465 23.6816 43.2428 23.4734Z" fill="#1F5440"/>
<path d="M41.4366 21.8601C41.4366 21.8601 41.5403 21.8601 41.5403 21.9642C41.644 22.0683 41.5403 22.1638 41.4366 22.2678C41.4366 22.2678 41.2378 22.3719 41.0391 22.1637C40.8403 21.9556 40.4341 21.4611 40.4341 21.4611C39.4317 20.1512 38.5243 18.7373 37.7206 17.2279C36.5194 15.0071 35.612 12.691 34.5059 10.5744C34.5059 10.505 34.5404 10.4385 34.6096 10.3749C34.6787 10.3113 34.7449 10.346 34.8083 10.479C35.9145 12.5956 37.0206 14.9117 38.2218 17.0283C39.0255 18.4423 39.8292 19.8476 40.8317 21.1575C40.8317 21.1575 41.1341 21.7647 41.2292 21.8601C41.428 21.8601 41.5317 21.8601 41.428 21.8601H41.4366Z" fill="#1F5440"/>
<path d="M42.6383 23.8816H41.7396C39.3285 23.682 33.7113 22.7712 32.5015 22.6758C32.3978 22.6758 32.3027 22.7799 32.3027 22.8753C32.3027 22.9707 32.4064 23.0748 32.5015 23.0748C33.5039 23.1789 37.0212 23.7775 39.631 24.1852C41.2384 24.3847 42.5433 24.4888 42.8457 24.3847C42.9495 24.3847 43.0445 24.1852 42.9495 24.0811C42.8457 23.8816 42.7507 23.7775 42.647 23.8816H42.6383Z" fill="#1F5440"/>
<path d="M42.2407 24.1848C41.7395 24.4884 41.2382 24.6879 40.6333 24.792C38.4297 25.4947 35.7161 25.7029 33.7112 26.4055C33.6075 26.4055 33.5125 26.605 33.6075 26.7091C33.6075 26.8132 33.8063 26.9087 33.91 26.8132C35.6124 26.206 37.9284 26.0065 39.9333 25.5034C40.8321 25.3038 41.7395 25.0002 42.4395 24.4971C42.5432 24.393 42.5432 24.2976 42.5432 24.1935C42.5432 24.1935 42.3444 24.0894 42.2407 24.1935V24.1848Z" fill="#1F5440"/>
<path d="M11.8215 18.0358H11.7178C10.6116 17.6368 10.0153 16.83 10.7153 15.6156C11.6227 14.3057 12.9276 14.3057 13.7227 14.9129C14.1202 14.9129 14.5264 15.017 14.7251 15.2165C14.9239 15.4161 15.1227 15.8238 14.9239 16.4223C14.7251 17.0296 14.319 17.4286 13.8177 17.7322L13.714 17.8363C13.1091 18.4435 12.3054 18.3394 11.8042 18.0358H11.8215ZM12.1239 16.3269C11.9252 16.431 11.9252 16.5264 11.9252 16.7259C12.0289 16.7259 12.1239 16.83 12.2276 16.83C12.1239 16.6305 12.1239 16.5264 12.1239 16.3269ZM13.5326 16.4223C13.5326 16.4223 13.4289 16.5264 13.5326 16.5264V16.4223ZM12.4264 15.6156C12.2276 15.6156 12.0289 15.8151 11.9252 15.9192H12.2276C12.2276 15.8151 12.3313 15.7197 12.4264 15.6156Z" fill="#1F5440"/>
<path d="M13.2305 16.5261C13.2305 16.5261 13.1268 16.5261 12.9281 16.422C12.4269 16.2225 11.2256 15.7194 10.517 15.1122C9.51456 14.2013 8.40841 13.195 7.60472 11.9893C7.10349 11.1825 6.60227 10.2804 6.40351 9.36951C5.70352 6.85386 6.40351 4.43362 7.90718 2.71604C9.41086 1.00712 11.7182 -0.0078125 14.233 -0.0078125C15.2354 -0.0078125 16.1428 0.191705 16.8428 0.599415C17.5428 0.99845 18.2514 1.60568 18.7527 2.51652C20.1613 4.72856 20.0576 6.84518 19.2539 8.65819C18.1477 11.382 15.4428 13.6982 13.6367 16.0143C13.533 16.1184 13.4379 16.1184 13.3342 16.0143C13.2305 15.9102 13.2305 15.8148 13.3342 15.7107C15.0367 13.49 17.5514 11.0784 18.6576 8.45867C19.3576 6.74976 19.3576 4.92808 18.1564 3.01965C17.6552 2.317 17.1539 1.70977 16.549 1.40616C15.9441 1.00712 15.1404 0.903029 14.3367 0.798932C12.0293 0.694836 9.92073 1.7011 8.61581 3.21917C7.2072 4.72856 6.61091 6.94928 7.2072 9.16132C7.40596 10.0722 7.81212 10.8702 8.31335 11.5816C9.11704 12.6919 10.0158 13.6982 11.0269 14.6003C11.6318 15.2076 12.7293 15.7107 13.2392 15.9102C13.3429 16.0143 13.4379 16.0143 13.4379 16.0143C13.7404 16.1184 13.4379 16.4134 13.4379 16.4134L13.2392 16.5174L13.2305 16.5261Z" fill="#1F5440"/>
<path d="M13.7311 16.0221C13.9299 16.0221 14.0336 15.918 14.1287 15.8226C14.2324 15.6231 14.2324 15.2153 14.3274 15.0158C15.3299 13.3069 16.7385 11.3898 18.5446 10.0799C19.7458 9.16909 21.0508 8.66596 22.4594 8.66596C23.7643 8.66596 25.0692 10.3749 25.9766 12.292C26.8753 14.2091 27.2815 16.3257 26.3741 17.332C24.9655 19.0409 23.1594 19.4486 21.3532 19.2491C19.1409 19.0495 16.8336 17.8351 14.7249 16.8288C14.12 16.5252 13.6188 16.3257 13.0225 16.1262C12.8237 16.0221 12.72 16.1262 12.625 16.2303C12.5213 16.4298 12.625 16.5339 12.7287 16.6293C13.2299 16.9329 13.7311 17.2365 14.2324 17.5402C16.2373 18.6505 18.752 19.7609 21.1545 19.9604C23.2631 20.1599 25.268 19.6568 26.8753 17.6442C27.8778 16.4385 27.5753 14.0182 26.4778 11.7975C25.4754 9.5768 23.7643 7.76379 22.2606 7.76379C20.6532 7.76379 19.2533 8.37102 17.9483 9.37728C16.1422 10.7913 14.6385 12.8038 13.6274 14.6168L13.5237 15.4235C13.42 15.4235 13.325 15.5276 13.325 15.6231C13.5237 15.9267 13.6274 16.0221 13.7225 16.0221H13.7311Z" fill="#1F5440"/>
<path d="M11.5288 16.5263C11.5288 16.4222 11.6325 16.4222 11.5288 16.5263C11.6325 16.2227 11.7276 16.2227 11.8313 16.2227C11.935 16.1186 12.2288 16.3268 12.1338 16.6218C12.1338 16.9254 11.6325 17.9316 11.5288 18.3307L10.6301 21.254C10.2326 22.8675 9.32517 25.7909 9.52393 28.3066C9.62763 29.92 10.2239 31.3253 11.7362 31.8371C14.7436 32.9475 17.2584 32.0367 18.9608 30.2237C20.6632 28.4107 21.2682 25.4873 20.5682 22.7634C20.4645 22.3644 20.2657 21.9567 20.0669 21.6531C19.7645 21.1499 19.2633 20.7509 18.8657 20.2391C18.5633 19.9355 18.3645 19.5365 18.2608 19.1287C18.1571 19.0247 18.2608 18.8251 18.3645 18.8251C18.4682 18.721 18.667 18.8251 18.667 18.9292C18.8657 19.2328 19.1682 19.5365 19.4707 19.8401C19.8682 20.3432 20.2743 20.7509 20.6719 21.3495C20.8706 21.7485 21.0694 22.1562 21.1731 22.6593C21.8731 25.5827 21.0694 28.6015 19.367 30.6227C17.5608 32.6352 14.8473 33.6415 11.5375 32.5398C9.73133 31.9326 9.03134 30.3191 8.82394 28.4107C8.62518 25.895 9.42887 22.7721 9.93009 21.1586L10.8288 18.2353C10.9325 17.9316 11.4338 17.229 11.6325 16.8213C11.5634 16.6883 11.5288 16.5871 11.5288 16.5177V16.6218C11.598 16.5524 11.598 16.5177 11.5288 16.5177V16.5263ZM11.8226 16.83C11.8226 16.83 12.0214 16.9341 12.0214 16.7259H11.9177L11.814 16.83H11.8226Z" fill="#1F5440"/>
<path d="M11.7268 15.3108C11.9256 15.4149 11.9256 15.5103 11.9256 15.6144C11.9256 15.7185 11.7268 15.8139 11.5281 15.7185C11.3293 15.6144 10.9231 15.3194 10.9231 15.3194L8.91824 13.6105C8.41702 13.2115 6.20471 11.9016 4.30351 11.2944C3.60353 11.0949 2.8949 10.8953 2.39367 10.8953C1.99615 10.8953 1.69369 10.9994 1.58998 11.2944C-0.216155 15.7271 0.985058 23.9854 4.00105 25.2953C5.40967 25.9025 6.91334 24.8963 8.91824 21.4698C9.41947 20.663 9.9207 19.7609 10.4219 18.7459C10.4219 18.6418 10.6207 18.5464 10.7244 18.6418C10.8281 18.7459 10.9231 18.8413 10.8281 18.9454C10.4306 20.0558 10.0244 20.958 9.52317 21.8688C7.41457 25.7984 5.30597 26.7093 3.69859 25.998C0.483832 24.584 -1.12355 15.8226 0.881356 11.0862C1.27888 10.1753 2.38503 9.97583 3.68995 10.3835C5.90225 10.9908 8.71084 12.6997 9.30713 13.2028L11.312 15.0158C11.2083 14.9117 11.5108 15.2153 11.7096 15.3194C11.7096 15.25 11.7096 15.25 11.7096 15.3194L11.7268 15.3108ZM11.7268 15.3108C11.6577 15.3108 11.6577 15.3108 11.7268 15.3108V15.3108Z" fill="#1F5440"/>
<path d="M12.4264 16.2206L12.3227 16.1165C11.9252 15.7175 11.7178 15.1102 11.519 14.4076C11.3203 13.5054 11.2166 12.4905 11.2166 11.6838C11.1129 10.1744 11.1129 8.66496 11.3203 7.05147C11.519 5.54208 11.8215 3.92859 12.3227 2.51462C12.3227 2.41052 12.4264 2.41052 12.5215 2.41052C12.6165 2.41052 12.6252 2.51462 12.6252 2.61004C12.2276 4.02401 11.9252 5.53341 11.8215 7.0428C11.7178 8.55219 11.7178 10.1657 11.8215 11.5797C11.8215 12.2823 11.9252 13.2886 12.1239 14.1994C12.2276 14.8066 12.4264 15.3098 12.8239 15.7088L12.9276 15.8129C13.1264 16.0124 13.0313 16.2119 12.9276 16.2119C12.6252 16.4115 12.5301 16.4115 12.4264 16.2119V16.2206Z" fill="#1F5440"/>
<path d="M12.6247 16.1175C12.6247 16.0134 12.521 16.0134 12.521 15.918V14.8076C12.6247 14.3045 12.7198 13.8014 12.7198 13.2982L13.7222 8.16282C13.7222 8.05872 13.8259 7.9633 13.921 8.05872C14.0247 8.05872 14.1198 8.16282 14.0247 8.25824L13.126 13.3936C13.0223 13.8968 12.9272 14.3999 12.8235 14.903C12.8235 15.2067 12.7198 15.6057 12.7198 15.9093V16.1088C12.8235 16.3083 12.521 16.4124 12.521 16.4124C12.521 16.4124 12.4173 16.4124 12.3223 16.3083C12.5239 16.2389 12.6247 16.1724 12.6247 16.1088C12.521 16.1088 12.521 16.2129 12.6247 16.1088V16.1175ZM12.9272 16.0221C12.9963 16.0221 12.9963 16.0221 12.9272 16.0221V16.0221Z" fill="#1F5440"/>
<path d="M12.4275 15.6136C12.2287 15.31 11.5287 15.2146 10.6213 15.2146C9.11764 15.2146 7.2078 15.5182 6.70657 15.5182C6.60287 15.5182 6.50781 15.6223 6.50781 15.7177C6.50781 15.8132 6.61151 15.9172 6.70657 15.9172C7.2078 15.9172 9.2127 15.7177 10.6213 15.8132C11.3213 15.8132 11.9262 15.8132 12.0299 16.0127C12.1336 16.1168 12.2287 16.1168 12.3324 16.1168C12.4361 15.8132 12.4361 15.7177 12.4361 15.6136H12.4275Z" fill="#1F5440"/>
<path d="M11.4251 16.6194C11.4251 16.5153 11.5288 16.4199 11.6239 16.4199C12.4275 16.4199 12.2288 16.7235 11.8226 16.9231C11.5202 17.1226 10.2152 17.4262 9.81772 17.7298L6.3005 19.7423C6.19679 19.8464 5.99803 19.7423 5.99803 19.6382C5.89433 19.5341 5.99803 19.3346 6.10173 19.3346C6.70666 18.9356 7.20789 18.5279 7.80417 18.2243C8.4091 17.9206 9.00538 17.5216 9.61031 17.218C10.0078 17.0185 10.9152 16.819 11.4165 16.6108L11.4251 16.6194Z" fill="#1F5440"/>
<path d="M13.1271 16.525L13.0234 16.4209C13.0234 16.3168 13.1271 16.2214 13.2222 16.1173C13.2222 16.1173 13.6197 16.1173 13.5247 16.3168V17.2277L13.6284 20.0469L14.1296 26.3968C14.1296 26.5009 14.1296 26.5963 14.0259 26.5963C13.9222 26.5963 13.8271 26.5963 13.8271 26.4922C13.7234 25.3819 13.5247 24.3756 13.4296 23.2652C13.3259 22.1549 13.2308 21.1486 13.2308 20.0383L13.1271 17.219V16.5163V16.525Z" fill="#1F5440"/>
<path d="M13.3353 16.5247C13.439 16.9238 14.139 17.7305 14.3378 18.2337L16.0402 22.7705C16.0402 22.8746 16.0402 22.97 15.9365 22.97C15.8328 22.97 15.7377 22.97 15.7377 22.8659L13.9316 18.3291C13.7328 17.93 13.2316 17.1233 13.0329 16.6202C12.9292 16.4206 12.9292 16.2211 13.0329 16.2211C13.1366 16.117 13.2316 16.2211 13.3353 16.117C13.439 16.117 13.3353 16.117 13.3353 16.0129C13.439 16.0129 13.5341 16.2125 13.439 16.3166C13.5427 16.5161 13.439 16.5161 13.3353 16.5161V16.5247Z" fill="#1F5440"/>
<path d="M13.1262 17.2271C13.1262 17.4266 13.0225 17.5307 12.9275 17.5307C12.7287 17.5307 12.625 17.4266 12.625 17.2271C12.625 17.123 12.7287 17.0275 12.8238 16.9234C13.2213 16.4203 14.8287 15.31 14.9324 15.2145L20.0483 11.9875C20.152 11.9875 20.2471 11.9875 20.2471 12.0916V12.2912L15.2262 15.6136C15.0274 15.7177 13.5237 16.7239 13.1176 17.2271H13.1262Z" fill="#1F5440"/>
<path d="M14.035 17.0276L14.1387 16.9235L16.4461 15.9173L21.3632 13.8007C21.4669 13.8007 21.562 13.8007 21.6657 13.9048C21.6657 14.0089 21.6657 14.1043 21.562 14.2084C20.5596 14.7115 19.6522 15.2146 18.6497 15.6223C17.9497 15.926 17.3448 16.2296 16.6448 16.4291L14.2337 17.3399C14.13 17.3399 13.8362 17.444 13.8362 17.444C13.7325 17.444 13.6375 17.3399 13.7325 17.1404C13.7325 17.0363 13.8362 16.9409 13.9313 16.9409C13.9313 16.9409 14.035 16.9409 14.035 17.045C14.1041 17.045 14.1041 17.045 14.035 17.045V17.0276ZM13.9313 17.0276C13.9313 17.1317 14.035 17.0276 13.9313 17.0276V17.0276Z" fill="#1F5440"/>
<path d="M14.7343 46.7468C14.6306 46.7468 14.5355 46.5472 14.4318 46.4431C14.3281 46.4431 14.3281 46.339 14.3281 46.2436C14.3281 46.1482 14.4318 46.1395 14.5269 46.1395C14.6219 46.1395 14.7256 46.2436 14.8294 46.2436L14.9331 46.3477C15.1318 46.4518 15.0368 46.6513 15.0368 46.6513C15.1405 46.7554 15.0368 46.8509 14.7343 46.7554C14.8034 46.7554 14.8034 46.7554 14.7343 46.7554V46.7468Z" fill="#1F5440"/>
<path d="M13.0312 44.129C13.23 44.0249 13.4287 44.0249 13.6361 44.0249C14.6386 43.9208 15.546 44.528 15.3386 45.5343C15.2349 46.0374 15.0361 46.4451 14.7336 46.74C14.7336 46.8441 14.6299 46.9395 14.6299 46.9395C14.6299 47.0436 14.6299 47.1391 14.5262 47.2432C14.4225 47.6422 14.025 48.0499 13.1176 47.8504C12.3139 47.6509 11.709 46.74 11.6139 46.0374C11.3115 45.5342 11.4152 44.927 12.0115 44.528C12.3139 44.2244 12.6164 44.129 13.0139 44.129H13.0312Z" fill="#1F5440"/>
<path d="M13.636 46.2447C13.5668 46.1753 13.5006 46.1088 13.4372 46.0452C13.1347 45.6462 12.7372 45.143 12.6335 44.8394C12.4347 44.2322 12.331 43.6336 12.236 43.0264C12.1323 42.4192 12.1323 41.8206 12.236 41.2134C12.3397 39.704 13.4372 37.3879 14.8458 35.9739C15.952 34.9676 17.2569 34.4645 18.6568 34.9676C20.8692 35.7744 21.2667 37.2838 20.7655 38.8973C19.9618 41.517 16.6519 44.8394 14.9409 46.4529C14.6384 46.7565 14.3359 46.956 14.2409 47.1556C14.1372 47.2597 14.0421 47.2597 13.9384 47.2597C13.8347 47.1556 13.8347 47.0601 13.8347 46.956C13.9384 46.7565 14.1372 46.4529 14.5347 46.0452C16.0384 44.3363 19.3568 41.3088 20.1519 38.6891C20.5494 37.3792 20.1519 36.2688 18.4494 35.5662C17.3433 35.1672 16.2458 35.5662 15.3384 36.477C13.9298 37.7869 13.031 39.9035 12.8323 41.2134C12.7286 41.8206 12.7286 42.3238 12.8323 42.9223C12.936 43.5295 13.031 44.0327 13.1347 44.6312C13.2384 45.1344 14.0335 46.0452 14.0335 46.3401C14.0335 46.5397 13.9298 46.6438 13.636 46.6438C13.5323 46.6438 13.4372 46.5397 13.4372 46.3401C13.636 46.3401 13.636 46.236 13.636 46.236V46.2447Z" fill="#1F5440"/>
<path d="M13.2316 46.8519C13.3353 47.0515 13.4303 47.251 13.4303 47.3551V49.1681C13.4303 50.1743 13.534 51.6837 14.1303 52.3951C14.4328 52.7941 15.0291 53.0023 15.8328 52.5946C18.7451 51.2847 19.5488 48.769 19.1426 46.956C18.6414 45.143 17.034 44.1368 15.0291 45.6462C14.7266 45.9498 14.3291 46.2534 13.9229 46.6524C13.8192 46.7565 13.7242 46.7565 13.6205 46.6524C13.5168 46.5483 13.5168 46.4529 13.6205 46.3488C13.9229 45.8457 14.3205 45.4466 14.6229 45.143C17.034 43.0264 19.2376 44.5358 19.8426 46.8519C20.3438 48.9686 19.5401 51.8919 16.1266 53.2972C14.8217 53.8004 14.018 53.4967 13.5168 52.8982C12.8168 51.9873 12.7131 50.3825 12.7131 49.1681V47.3551C12.7131 47.1556 12.6094 46.6524 12.6094 46.5483C12.6094 46.2447 12.8081 46.2447 12.9118 46.2447C12.9118 46.2447 13.0155 46.2447 13.1106 46.3488V46.4529V46.6524C13.1106 46.6524 13.1106 46.7565 13.0069 46.7565H12.8081C13.0069 46.956 13.1106 46.956 13.2057 46.8606C13.2057 46.7912 13.1711 46.7565 13.102 46.7565V46.557C13.4995 46.4529 13.4044 46.7565 13.2057 46.8606L13.2316 46.8519Z" fill="#1F5440"/>
<path d="M12.4269 45.0399C13.3343 44.5368 13.4294 44.7363 13.0319 45.144C13.6368 45.3436 13.6368 45.5431 12.4269 45.4477H12.3232C12.0208 45.5518 11.122 45.7513 10.7158 45.9508C10.2146 46.1503 9.7134 46.3498 9.21217 46.558C8.71095 46.7575 8.31342 47.0611 7.80356 47.3648C6.49864 48.1715 5.39249 49.3773 4.6925 50.8954C3.99252 52.3093 3.69005 53.9141 4.08758 55.4322C4.4851 56.9416 5.99742 57.0457 7.59615 56.638C9.60106 56.1349 11.9171 54.7209 13.2133 53.9141C13.4121 53.81 13.6109 53.6105 13.8183 53.5151C13.922 53.411 14.017 53.411 14.1207 53.5151C14.2244 53.6192 14.2244 53.7146 14.1207 53.8187C13.922 54.0182 13.7232 54.2178 13.5158 54.4259C12.0121 55.6317 8.90107 57.3493 6.5937 57.5488C5.09003 57.7483 3.88017 57.2452 3.48265 55.7358C3.08513 54.0269 3.37895 52.3093 4.18264 50.6958C4.98633 49.1864 6.18754 47.8766 7.59615 46.9657C8.09738 46.6621 8.5986 46.3585 9.09983 46.159C9.60105 45.9595 10.1023 45.6558 10.6035 45.5518C10.906 45.2481 12.0035 45.0486 12.4096 45.0486L12.4269 45.0399Z" fill="#1F5440"/>
<path d="M12.5305 45.0377C12.3317 45.1418 12.0292 45.3413 11.8305 45.3413L9.82559 45.8444C8.52067 46.0439 6.71453 46.2435 5.40962 45.8444C4.40717 45.4454 3.70718 44.7341 3.60348 43.4242C3.40472 40.6049 5.40962 38.0806 7.62192 37.0743C10.033 36.0681 12.7379 36.8748 13.144 40.8044C13.144 40.9085 13.0403 41.004 13.0403 41.004C12.9366 41.004 12.8416 40.8999 12.8416 40.8999C12.3404 37.4734 10.033 36.8661 7.92439 37.777C5.91949 38.6878 4.11335 40.7958 4.31211 43.3201C4.41581 44.3264 4.91703 44.8295 5.61702 45.1331C6.81823 45.5321 8.42561 45.4367 9.63547 45.1331L11.6404 44.7341C11.9428 44.7341 12.5391 44.5346 12.7465 44.5346C13.049 44.5346 13.049 44.7341 13.049 44.8382C13.049 44.8382 13.049 44.9423 12.8502 45.0377C12.9539 45.3413 12.5478 45.2372 12.5478 45.0377C12.6515 45.0377 12.6515 44.9336 12.6515 44.9336L12.5478 44.8295V44.63C12.5478 44.8295 12.4441 44.9336 12.5478 45.029L12.5305 45.0377ZM12.8329 45.0377C12.8329 44.9336 12.7292 44.9336 12.6342 45.0377H12.8329Z" fill="#1F5440"/>
<path d="M13.23 45.3433C13.1263 45.3433 13.0312 45.1438 13.0312 45.1438C13.0312 44.8402 13.0312 44.4411 13.135 44.0334C13.3337 43.5303 13.5325 43.0272 13.7399 42.6195C14.1374 41.9168 14.5436 41.2055 14.9411 40.5028C15.3386 39.8002 15.8398 39.0889 16.246 38.4903C16.246 38.3862 16.3497 38.3862 16.4448 38.4903C16.5485 38.4903 16.5485 38.5944 16.4448 38.6898C16.0472 39.3925 15.5374 40.1038 15.2436 40.8064C14.846 41.5091 14.5436 42.2204 14.2411 43.0272C14.0423 43.4262 13.7399 43.938 13.6362 44.4411C13.5325 44.7447 13.4374 45.0484 13.4374 45.3433C13.5411 45.4474 13.5411 45.5428 13.4374 45.6469C13.2387 45.2479 13.2387 45.3433 13.2387 45.3433H13.23Z" fill="#1F5440"/>
<path d="M13.5333 44.3362C13.4296 44.4403 13.3345 44.7352 13.3345 44.7352L11.7272 47.355L7.70871 53.7049C7.70871 53.809 7.60501 53.809 7.50995 53.809C7.41489 53.809 7.40625 53.7049 7.40625 53.6094C7.90748 52.6986 8.4087 51.9005 8.90993 50.9897C9.71362 49.6798 10.5173 48.474 11.321 47.1642L12.9284 44.5444C12.9284 44.5444 13.2308 44.2408 13.2308 44.1454C13.3345 43.8418 13.5333 44.0413 13.5333 44.0413C13.7321 44.1454 13.7321 44.3449 13.5333 44.3449V44.3362Z" fill="#1F5440"/>
<path d="M13.0324 45.2388C11.9262 44.6315 10.8201 43.9289 9.92134 43.018C8.91889 42.1159 8.1152 41.205 7.41521 40.0947C7.41521 39.9906 7.31151 39.9906 7.21645 40.0947C7.11275 40.0947 7.11275 40.1988 7.21645 40.2942C7.91644 41.4045 8.72012 42.4108 9.72257 43.313C10.725 44.2238 11.7275 45.0219 12.8336 45.6291C12.9373 45.7332 13.0324 45.6291 13.1361 45.525C13.1361 45.4209 13.1361 45.3255 13.0324 45.2214V45.2388Z" fill="#1F5440"/>
<path d="M13.0312 45.1421C13.0312 45.1421 13.0312 45.0381 12.9275 44.9426C12.625 44.4395 11.9251 43.4332 11.4238 42.5224V42.3229H11.6226C12.2275 43.2337 12.8238 44.24 13.23 44.639C13.3337 44.7431 13.4287 44.8385 13.4287 44.8385C13.5324 45.038 13.325 45.1421 13.325 45.1421C13.2213 45.2462 13.1263 45.2462 13.0226 45.1421H13.0312Z" fill="#1F5440"/>
<path d="M12.7293 45.2379H12.833C12.9367 45.342 12.9367 45.5416 13.0318 45.637C13.7318 47.0509 14.5355 48.3608 15.2355 49.7661C15.633 50.3733 16.0392 50.9719 16.4367 51.6832C16.4367 51.7873 16.5404 51.7873 16.6354 51.6832C16.7391 51.6832 16.7391 51.5791 16.6354 51.4837L13.0232 45.0384C12.9195 44.9343 12.8244 44.9343 12.7207 44.9343V45.2379H12.7293Z" fill="#1F5440"/>
<path d="M13.4302 45.7425L15.6338 47.2518C15.7375 47.3559 15.8326 47.2518 15.9363 47.2518C16.04 47.1478 15.9363 47.0523 15.9363 46.9482L13.724 45.3347C13.6203 45.2306 13.5252 45.3347 13.4215 45.4388C13.3178 45.5429 13.3178 45.7425 13.4215 45.7425H13.4302Z" fill="#1F5440"/>
<path d="M29.3904 80.1969C29.2867 80.1969 29.2867 80.0928 29.1916 80.1969C29.0879 80.1969 29.0879 80.301 29.0879 80.3964V80.5005C29.1916 80.6046 29.2867 80.6046 29.3904 80.5005C29.3904 80.5005 29.4941 80.301 29.3904 80.1969Z" fill="#1F5440"/>
<path d="M29.3912 80.1022C29.4949 80.1022 29.5899 79.9981 29.5899 79.9981L31.3961 78.2892C32.001 77.682 32.5973 77.0834 33.2022 76.3721C33.8071 75.6695 34.3084 75.0622 34.9047 74.3596C35.9071 73.0497 36.9096 71.6357 37.817 70.3259C39.8219 67.4025 41.4292 64.2796 43.4341 61.3562C43.6329 61.0526 43.9354 60.749 44.1341 60.4541C44.2378 60.35 44.4366 60.2546 44.5316 60.35C44.6267 60.4454 44.7304 60.6536 44.6353 60.749C44.3329 61.3562 44.0304 61.9548 43.6329 62.562C42.2243 64.8782 40.8243 67.1943 39.3206 69.415C38.1194 71.3321 36.8145 73.1451 35.4059 74.9581C34.801 75.6608 34.2997 76.3721 33.7034 76.9707C33.0985 77.6733 32.5022 78.2805 31.7936 78.8878C31.3961 79.1914 31.0936 79.5904 30.5924 79.894C30.2899 80.0935 29.9875 80.2931 29.685 80.5013C29.685 80.5013 29.4862 80.6053 29.3825 80.6053C29.1838 80.7094 29.0801 80.4058 29.0801 80.4058C29.2126 80.2034 29.3134 80.1022 29.3825 80.1022H29.3912Z" fill="#1F5440"/>
<path d="M44.5491 60.7583C44.5491 60.8624 44.5491 60.9578 44.4454 61.0619C44.3417 61.166 44.2466 61.0619 44.1429 60.9578C43.538 60.1511 42.9417 59.2489 42.5356 58.3381C42.138 57.4272 41.9306 56.421 42.0343 55.3193C42.138 53.9053 42.6393 52.5 43.4429 51.2856C44.1429 50.0798 45.1454 48.9694 46.1565 48.0586C47.4614 46.8528 48.5675 45.8379 49.2675 45.7424C49.9675 45.5429 50.6761 46.0461 51.1774 47.755C51.5749 49.4639 51.7823 51.0774 51.6786 52.6909C51.4798 54.3044 50.8749 55.8137 49.7688 57.2277C49.2675 57.9304 48.5675 58.4335 47.9626 58.9366C46.9602 59.6393 45.854 60.1424 44.8516 60.7496H44.5491V60.7583ZM44.3503 60.4547C44.3503 60.3506 44.454 60.3506 44.3503 60.4547C45.4565 59.752 46.4589 59.1448 47.4614 58.4422C48.0663 58.0431 48.6626 57.5313 49.1638 56.8287C50.1663 55.5188 50.6675 54.1048 50.8663 52.5954C51.065 51.086 50.8663 49.5767 50.4687 47.9632C50.1663 46.8528 49.9675 46.3497 49.4663 46.4538C48.7663 46.5579 47.8589 47.5641 46.6577 48.5704C45.6553 49.4812 44.7479 50.4875 44.1516 51.6933C43.4516 52.8036 43.0454 54.1135 42.8467 55.4234C42.743 56.2301 42.8467 56.9328 43.0454 57.6441C43.3479 58.5549 43.7454 59.2576 44.2466 60.1598C44.2466 60.2638 44.3503 60.3593 44.3503 60.4634V60.4547Z" fill="#1F5440"/>
<path d="M44.5492 60.4538C43.9443 59.3434 44.5492 57.1314 45.5516 54.7112C46.8566 51.4842 48.9652 47.9623 49.9676 46.6524C50.0713 46.5483 50.0713 46.3488 49.8639 46.3488C49.7602 46.2447 49.5614 46.2447 49.5614 46.4529C48.4553 47.9623 45.8455 52.4991 44.6443 56.1251C43.9443 58.1377 43.6418 59.8552 44.143 60.8615C44.2467 60.9656 44.3418 60.9656 44.4455 60.9656C44.5492 60.662 44.5492 60.5666 44.5492 60.4625V60.4538Z" fill="#1F5440"/>
<path d="M44.7478 50.2795C44.6786 50.3489 44.6786 50.3489 44.7478 50.2795C44.549 50.2795 44.4453 50.1754 44.4453 50.08C44.8428 49.9759 44.4453 49.6809 44.7478 49.8804C44.8515 49.8804 45.0502 50.08 45.0502 50.08C45.3527 50.3836 45.5515 50.7826 45.5515 51.2857C45.7502 52.292 45.5515 53.5064 45.6552 54.3045C45.6552 54.4086 45.5515 54.504 45.5515 54.504C45.4478 54.504 45.3527 54.3999 45.3527 54.3999C45.249 53.5932 45.4564 52.3874 45.249 51.3812C45.1453 50.9821 44.9465 50.5744 44.7478 50.2708V50.2795Z" fill="#1F5440"/>
<path d="M29.088 33.2501C29.088 33.0506 29.1917 32.9465 29.1917 32.9465C29.2954 32.8424 29.3904 32.8424 29.4941 32.9465C29.4941 32.9465 29.5978 33.0506 29.5978 33.146C29.7015 33.3455 29.7966 34.2564 29.7966 34.6554L30.1941 38.8886C30.3929 40.9012 30.4966 42.8183 30.5917 44.8308C30.6954 46.8433 30.7904 48.7604 30.8941 50.7729C31.0929 55.4052 31.0929 59.9421 30.7904 64.5744C30.4879 71.4273 29.788 78.3758 29.088 85.2288C27.9818 97.3213 26.4781 109.414 24.5683 121.402C23.2634 129.366 21.7597 137.424 20.1523 145.284C18.3462 153.646 15.9351 161.705 14.4315 169.972C13.6278 174.309 13.2302 178.742 13.1265 183.27V186.592C13.1265 186.792 12.9278 186.991 12.729 186.991C12.5303 186.991 12.3315 186.792 12.3315 186.592C12.2278 185.482 12.1327 184.276 12.1327 183.166C12.029 178.534 12.634 174.101 13.3339 169.668C14.7426 161.41 17.2487 153.342 18.9511 144.98C19.9536 140.044 20.956 135.108 21.8634 130.068C22.7708 125.132 23.6696 120.092 24.4732 115.156C26.0806 105.181 27.1868 95.1092 28.1892 85.0292C28.7941 78.1762 29.4941 71.3232 29.8917 64.4789C30.0904 59.9421 30.1941 55.3098 29.9954 50.7729C29.8917 48.7604 29.7966 46.8433 29.6929 44.8308C29.5892 42.8183 29.4941 40.9012 29.2954 38.8886L28.8979 34.6554C28.8979 34.3518 29.0016 33.7445 29.0016 33.3455C29.2003 33.4496 29.1053 33.4496 29.1053 33.2414C29.0016 33.3455 29.1053 33.3455 29.1053 33.2414L29.088 33.2501ZM29.1917 33.3542L29.088 33.2501C29.088 33.3542 29.1917 33.3542 29.1917 33.3542Z" fill="#1F5440"/>
<path d="M15.7377 157.377C15.5389 157.377 15.2365 156.978 15.1328 156.77L13.8278 154.046C13.4303 153.144 13.0242 152.233 12.7217 151.226C12.2205 149.812 11.7192 148.407 11.218 146.993C9.9131 143.367 9.10942 139.941 8.60819 136.41C8.10697 132.879 8.00326 129.358 7.9082 125.532C7.9082 125.332 8.01191 125.228 8.21067 125.228C8.40943 125.228 8.51313 125.332 8.51313 125.532C8.61683 129.262 8.81559 132.784 9.31682 136.315C9.81804 139.741 10.518 143.263 11.8229 146.794L14.4328 153.846L15.634 156.57C15.7377 156.77 16.0315 156.969 16.1352 157.073C16.334 157.273 16.2389 157.377 16.0315 157.576C15.9278 157.68 15.8327 157.576 15.729 157.472V157.368L15.7377 157.377Z" fill="#1F5440"/>
<path d="M12.7303 150.228C12.4279 150.228 11.6242 150.332 11.3217 150.228C10.9242 150.029 10.518 149.829 10.2156 149.621C9.71433 149.317 9.21311 148.814 8.71188 148.415C7.40697 147.209 6.40452 145.995 5.49713 144.589C4.58974 143.176 3.88975 141.666 3.38852 140.053C2.28237 136.323 1.97991 132.497 2.28237 128.567C2.67989 122.825 4.28727 117.082 5.69589 111.738C5.89465 111.131 6.8971 107.106 7.70079 104.79C8.09831 103.68 8.50448 102.977 8.70324 102.873C9.0057 102.769 9.40323 102.977 9.70569 103.576C10.2069 104.486 10.7081 106.299 10.8118 106.594C11.2094 107.705 11.6155 108.911 12.0131 110.125C12.4106 111.331 12.713 112.441 13.0155 113.656C14.1217 117.889 14.7179 122.217 14.9253 126.555C15.1241 130.883 14.9253 135.325 14.4241 139.549C14.1217 141.97 13.5167 144.286 13.1192 146.706C12.9204 147.712 12.8167 148.719 12.7217 149.725H12.8254C12.9291 149.725 12.9291 149.829 13.0241 149.829C13.0241 149.933 13.1278 150.029 12.9204 150.133H12.8167C12.8167 150.202 12.7822 150.237 12.713 150.237L12.7303 150.228ZM12.3328 149.924C11.8316 150.124 12.4365 150.228 12.7303 150.228L12.6266 150.124V150.02H12.5229C12.4192 150.02 12.4192 149.916 12.3242 149.916L12.3328 149.924ZM9.01435 103.775C9.01435 103.879 8.91064 103.879 8.91064 103.975C8.60818 104.582 8.30572 105.588 8.01189 106.698C7.31191 108.919 6.70698 111.435 6.60328 111.938C5.0996 117.282 3.59593 123.024 3.08606 128.663C2.7836 132.488 2.98236 136.218 4.08851 139.844C4.58974 141.458 5.19466 142.967 6.09341 144.277C6.8971 145.691 8.00325 146.897 9.20446 148.007C9.60199 148.311 9.90445 148.71 10.3106 149.014C10.7081 149.317 11.1143 149.621 11.6155 149.82C11.7192 149.924 12.0131 149.924 12.3155 149.82V149.716C12.3155 148.71 12.4192 147.6 12.618 146.593C12.9204 144.173 13.5167 141.857 13.8192 139.437C14.3204 135.203 14.4241 130.875 14.2167 126.537C14.018 122.209 13.413 117.871 12.4106 113.742C12.1081 112.537 11.8057 111.426 11.4081 110.22C11.0106 109.11 10.7081 107.904 10.2069 106.794C10.0082 106.49 9.50693 104.478 9.0057 103.775H9.01435Z" fill="#1F5440"/>
<path d="M26.885 103.983C26.6862 101.667 26.0813 99.6543 25.4764 97.8326C24.1715 94.4061 22.469 91.5868 20.9567 88.6635C20.3518 87.3536 19.7555 86.1478 19.3493 84.6297C19.3493 84.5256 19.2456 84.5256 19.1506 84.5256C19.0555 84.5256 19.0469 84.6297 19.0469 84.7251C19.3493 86.2345 19.8506 87.5444 20.4555 88.9584C21.7604 91.8818 23.6702 94.5969 24.9752 98.0234C25.6751 99.7323 26.1764 101.754 26.4788 103.966C26.4788 104.07 26.5825 104.165 26.6776 104.165C26.7813 104.165 26.8764 104.061 26.8764 103.966L26.885 103.983Z" fill="#1F5440"/>
<path d="M23.2722 94.5096C23.0735 94.4055 22.3735 94.206 22.1661 94.1105L20.2562 92.8007C19.2538 92.098 18.3464 91.2913 17.5427 90.3804C16.739 89.4696 16.039 88.5674 15.339 87.5612C14.639 86.5549 13.9304 85.4445 13.3341 84.3342C12.7292 83.2238 12.228 82.018 11.8305 80.8123C11.528 79.7019 10.4218 73.352 10.0243 68.5202C9.82556 65.7964 9.82556 63.5844 10.3268 62.9771C10.3268 62.9771 10.7243 62.7776 11.1305 63.1766C11.7354 63.6798 13.0403 65.1892 13.1354 65.2933L17.0501 69.6219C19.4612 72.5453 21.6648 76.3708 22.9698 80.5C24.3784 84.5337 24.8796 88.8624 24.2747 92.792C24.2747 92.9915 24.0759 93.0956 23.8771 93.0956C23.6784 93.0956 23.5747 92.8961 23.5747 92.6966C24.1796 88.871 23.471 84.7332 22.1661 80.8036C20.7575 76.874 18.6488 73.1438 16.2464 70.3246L12.3317 65.9959C12.228 65.8918 11.2255 64.5819 10.6292 63.9834C10.3268 64.9897 10.5255 67.514 10.828 70.3333C11.3292 74.766 12.2366 79.806 12.5304 80.7082C12.928 81.9139 13.4378 83.0243 13.9391 84.1347C14.544 85.245 15.1403 86.2513 15.8489 87.3616C16.4538 88.3679 17.2575 89.2787 17.9575 90.0855C18.7612 90.9963 19.5649 91.699 20.4636 92.5057L22.2698 93.8156C22.5722 94.0151 23.471 94.2146 23.5747 94.4228C23.6784 94.5269 23.6784 94.7264 23.3759 94.8219C23.2722 94.926 23.1772 94.8219 23.0735 94.7178C23.206 94.6484 23.2722 94.5819 23.2722 94.5182V94.5096Z" fill="#1F5440"/>
<path d="M22.0625 133.504L23.4711 132.393C24.3785 131.387 25.2773 130.277 26.081 129.166C26.8847 128.056 27.6883 126.85 28.3883 125.74C30.4969 122.417 32.1043 118.991 33.4092 115.365C34.7141 111.843 35.7166 108.208 36.719 104.383C36.719 104.279 36.719 104.183 36.6153 104.183C36.5116 104.183 36.4166 104.183 36.4166 104.287C35.1117 108.824 33.8068 113.049 32.1043 117.282C30.9982 120.006 29.5982 122.721 27.9908 125.341C27.2908 126.451 26.4871 127.657 25.6834 128.767C24.8798 129.877 24.0761 130.988 23.1773 131.89C23.0736 131.994 22.5724 132.393 22.1749 132.801C21.8724 133.104 21.7773 133.304 21.7773 133.504C21.7773 133.608 21.881 133.703 21.9761 133.703C22.0712 133.703 22.0798 133.599 22.0798 133.504H22.0625Z" fill="#1F5440"/>
<path d="M27.6885 125.843V126.147C27.291 126.147 27.291 126.251 27.291 126.147V125.843C27.291 125.539 27.4898 124.733 27.4898 124.637L28.1898 122.217L30.4971 113.855C31.6033 109.318 32.502 105.093 33.9106 100.86C34.8094 98.1361 36.0193 95.4209 37.6266 92.6971C37.9291 92.1939 38.8278 90.1814 39.6315 88.6633C40.1328 87.7525 40.7377 87.154 41.0401 87.0499C41.1438 87.0499 41.4377 86.9458 41.5414 87.3535V87.4576C41.5414 87.5617 41.5414 87.6571 41.6451 87.8566C41.7488 88.967 42.0426 91.6821 42.0426 91.8903L42.5438 100.652C42.7426 106.594 41.5414 111.027 39.234 114.861C37.1254 118.383 34.1181 121.514 30.2984 124.533C29.9008 124.837 29.4947 125.14 29.0972 125.444C28.9935 125.548 28.7947 125.548 28.6996 125.444C28.5959 125.34 28.5959 125.14 28.6996 125.045C29.0972 124.741 29.3996 124.342 29.8058 124.039C33.4181 120.812 36.5291 117.992 38.5427 114.566C40.7463 110.836 41.8525 106.507 41.6537 100.765L41.1525 92.0031C41.1525 91.8036 40.9537 89.5829 40.85 88.3771C40.6513 88.5766 40.5476 88.8802 40.3488 89.1838C39.5451 90.5978 38.6464 92.7144 38.3439 93.2176C36.7365 95.8373 35.6304 98.5612 34.6279 101.181C33.2193 105.31 32.2169 109.543 31.1107 114.08L28.8033 122.547L28.1033 124.967C28.1033 124.863 27.9046 125.574 27.7058 125.878L27.6885 125.843ZM27.4811 125.643C27.4811 125.713 27.4811 125.713 27.4811 125.643V125.643Z" fill="#1F5440"/>
<path d="M17.1444 157.281L17.2481 157.177C17.6456 156.57 18.1555 156.067 18.553 155.468C20.3592 153.256 22.269 151.139 24.0752 149.023C25.5788 147.21 27.0825 145.397 28.5948 143.48C28.6985 143.375 28.7936 143.375 28.8973 143.48C29.001 143.584 29.001 143.679 28.8973 143.783C27.0912 146.203 25.285 148.52 23.3752 150.836C22.0703 152.449 20.7653 154.063 19.3567 155.572C18.7518 156.275 18.1555 156.882 17.4469 157.489L17.0494 157.689C17.0494 157.585 16.9457 157.489 17.1531 157.29C17.0839 157.29 17.0839 157.29 17.1531 157.29L17.1444 157.281Z" fill="#1F5440"/>
<path d="M40.2355 126.251L35.6208 130.988C33.8146 132.697 28.2925 138.647 25.0777 143.583C24.2741 144.893 23.5741 146.203 23.1679 147.313C22.7704 148.32 22.6667 149.23 22.8654 149.933C22.8654 150.037 22.8654 150.133 22.7617 150.237C22.658 150.237 22.563 150.237 22.4593 150.133C22.1568 149.326 22.1568 148.32 22.4593 147.114C22.7617 145.908 23.4617 144.598 24.3691 143.184C27.5839 138.049 33.3047 132.306 35.1109 130.493C35.9146 129.686 36.7183 128.984 37.4183 128.177C38.2219 127.37 38.9219 126.564 39.6306 125.757C39.6306 125.653 40.0281 125.254 40.2355 125.15C40.4342 125.045 40.5379 125.15 40.633 125.15C40.7367 125.254 40.8318 125.349 40.8318 125.549C40.9355 125.852 40.9355 126.451 40.8318 127.162C40.633 129.478 40.0281 133.512 39.933 134.015C38.7318 138.344 36.5195 142.074 33.7109 145.101C31.1011 147.825 27.99 150.037 24.2741 151.547C23.8765 151.746 23.4704 151.85 23.0728 151.946C22.9691 152.05 22.7704 151.946 22.6753 151.746C22.5716 151.642 22.6753 151.442 22.8741 151.347C23.2716 151.148 23.5741 150.948 23.9802 150.74C27.3937 149.031 30.6085 147.01 33.1146 144.39C35.8282 141.467 37.9368 137.945 39.138 133.711C39.2417 133.408 39.5355 131.491 39.7429 129.582C40.1404 128.377 40.2441 127.162 40.2441 126.26L40.2355 126.251Z" fill="#1F5440"/>
<path d="M19.5565 51.3875C19.5565 51.587 20.2565 51.8907 20.3602 51.9948C21.2676 52.9056 22.0627 53.9119 22.8664 54.9181C23.67 55.9244 24.37 57.0347 25.07 58.041C26.5737 60.3571 27.7835 63.081 28.786 65.9003C29.7884 68.7195 30.4884 71.6429 30.8946 74.3667C30.8946 74.4708 30.7909 74.5663 30.6958 74.5663C30.6008 74.5663 30.4971 74.4622 30.4971 74.3667C29.9959 71.6429 29.2959 68.8236 28.2848 66.1085C27.2823 63.3846 26.0811 60.6694 24.5688 58.3533C23.8688 57.2429 23.1602 56.2367 22.4602 55.2304C21.6565 54.2241 20.8528 53.2179 20.0491 52.307C19.9454 52.2029 19.5479 51.908 19.3491 51.6044C19.1504 51.4049 19.1504 51.1013 19.2454 51.1013C19.3491 50.9972 19.4442 50.9972 19.5479 51.1013C19.4442 51.2054 19.5479 51.2054 19.5479 51.4049L19.5565 51.3875ZM19.5565 51.3875C19.5565 51.4569 19.5565 51.4569 19.5565 51.3875V51.3875Z" fill="#1F5440"/>
<path d="M20.4548 29.9277H20.256C20.1523 29.8236 20.1523 29.7282 20.1523 29.6241C20.3511 29.3205 20.5499 29.3205 20.7573 29.6241C20.861 29.8236 21.0597 30.3267 21.1548 30.5349L22.1572 32.1484L24.9658 37.2838C26.2707 39.7995 27.472 42.3238 28.5781 44.9436C29.6843 47.5633 30.488 50.2871 31.0842 53.0023C31.0842 53.1064 30.9805 53.3059 30.8855 53.3059C30.7904 53.3059 30.583 53.2018 30.583 53.1064C29.9781 50.3826 29.0793 47.7628 27.9732 45.1431C26.867 42.5233 25.6658 40.0077 24.456 37.4833L21.7424 32.3479L20.74 30.7344C20.6363 30.6303 20.6363 30.1272 20.4375 29.9277H20.4548ZM20.4548 29.9277C20.4548 29.9277 20.3511 29.8236 20.3511 29.9277H20.4548Z" fill="#1F5440"/>
<path d="M42.3357 24.6881C42.0332 24.7922 41.6357 25.0872 41.1345 25.3908C40.3308 26.0934 39.3283 27.0997 38.9308 27.5074C35.8198 30.2312 33.7112 32.851 32.2075 35.7657C30.7038 38.689 29.9952 42.0114 29.5977 46.1406C29.5977 46.2447 29.7014 46.3401 29.7964 46.3401C29.8915 46.3401 29.9952 46.236 29.9952 46.1406C30.4964 42.211 31.3001 38.984 32.8038 36.0693C34.2124 33.1459 36.321 30.6303 39.3283 27.9064C39.8296 27.5074 40.737 26.4924 41.5406 25.7898C41.9382 25.4862 42.2406 25.1826 42.5431 25.1826C42.6468 25.1826 42.7419 24.9831 42.7419 24.879C42.5431 24.6794 42.4394 24.6794 42.3443 24.6794L42.3357 24.6881Z" fill="#1F5440"/>
<path d="M29.5903 72.8496L29.2879 71.6438V69.5272C29.3916 68.8245 29.4866 68.1132 29.5903 67.4106C29.7891 66.2048 31.5952 60.1585 33.3063 55.9253C34.3088 53.3055 35.4149 51.3884 36.0199 51.3884C36.1236 51.3884 36.2186 51.4925 36.3223 51.692C36.426 51.8916 36.426 52.2993 36.426 52.8024C36.5297 54.4159 36.426 57.2352 36.426 57.6429C36.3223 60.1585 35.8211 62.4833 34.9223 64.6954C33.7211 67.7142 32.01 70.3339 30.1002 73.1619V73.3614C30.1002 73.665 29.9965 73.8645 29.599 73.8645C29.4953 73.9686 29.2965 74.064 29.2015 73.9686C29.0978 73.8645 29.0027 73.665 29.0978 73.5696L29.599 72.8669L29.5903 72.8496ZM35.9162 51.8916C35.3112 52.1952 34.5075 53.9041 33.7125 56.0207C32.1051 60.2539 30.4977 66.3002 30.299 67.506C30.1953 68.3127 29.9965 69.1195 29.9965 70.0216C29.9965 70.5248 29.8928 71.132 29.8928 71.6351C29.8928 71.8346 29.9965 72.0342 29.9965 72.3378C31.6989 69.718 33.3063 67.0983 34.4125 64.279C35.2162 62.1624 35.8211 59.9503 35.9162 57.5301C35.9162 57.1311 36.1149 53.6005 36.0199 52.1865C35.9161 52.0824 35.9162 51.987 35.9162 51.8829V51.8916Z" fill="#1F5440"/>
<path d="M29.2953 73.2502C29.3645 73.2502 29.3645 73.2502 29.2953 73.2502C29.5978 72.5475 30.2027 71.1335 30.2027 70.934L31.8101 65.9981C32.7089 63.2743 33.815 60.3596 34.5236 57.4362C34.9212 55.9268 35.1286 54.3133 35.2236 52.6999C35.2236 52.3008 35.3273 51.8931 35.3273 51.4941C35.3273 51.39 35.431 51.2946 35.5261 51.2946C35.6212 51.2946 35.7249 51.3987 35.7249 51.4941V52.6999C35.6212 54.3133 35.3273 55.8227 34.9212 57.4362C34.2212 60.3596 33.115 63.283 32.2076 65.9981L30.6003 70.934C30.6003 71.0381 29.7966 72.4434 29.5978 73.0506C29.4941 73.3543 29.2003 73.3543 29.2003 73.3543V73.2502C29.1312 73.2502 29.1312 73.2155 29.2003 73.1461C29.2003 73.2791 29.2349 73.3138 29.304 73.2502H29.2953Z" fill="#1F5440"/>
</g>
<defs>
<clipPath id="clip0_472_3678">
<rect width="67" height="187" fill="white"/>
</clipPath>
</defs>
</svg>
