<?xml version="1.0" encoding="UTF-8" standalone="no"?><!DOCTYPE svg PUBLIC "-//W3C//DTD SVG 1.1//EN" "http://www.w3.org/Graphics/SVG/1.1/DTD/svg11.dtd"><svg width="2332px" height="1010px" version="1.1" xmlns="http://www.w3.org/2000/svg" xmlns:xlink="http://www.w3.org/1999/xlink" xml:space="preserve" xmlns:serif="http://www.serif.com/" style="fill-rule:evenodd;clip-rule:evenodd;stroke-linejoin:round;stroke-miterlimit:2;"><g transform="matrix(1,0,0,1,-104,-93)"><g transform="matrix(1.169053,0,0,1.089381,37.4097,201.535398)"><g transform="matrix(0.855393,0,0,0.917953,57.816278,30.718928)"><path d="M2322.79,-142L2322.49,-142L2322.49,-98.816L2269.92,-98.816L2269.92,-142L2269.39,-142L2269.39,-98.816L2216.83,-98.816L2216.83,-142L2216.56,-142L2216.56,-98.816L2163.99,-98.816L2163.99,-142L2163.47,-142L2163.47,-98.816L2110.9,-98.816L2110.9,-142L2110.63,-142L2110.63,-98.816L2058.07,-98.816L2058.07,-142L2057.54,-142L2057.54,-98.816L2004.97,-98.816L2004.97,-142L2004.71,-142L2004.71,-98.816L1952.14,-98.816L1952.14,-142L1951.61,-142L1951.61,-98.816L1899.05,-98.816L1899.05,-142L1898.78,-142L1898.78,-98.816L1846.21,-98.816L1846.21,-142L1845.69,-142L1845.69,-98.816L1793.12,-98.816L1793.12,-142L1792.85,-142L1792.85,-98.816L1740.29,-98.816L1740.29,-142L1739.76,-142L1739.76,-98.816L1687.19,-98.816L1687.19,-142L1686.93,-142L1686.93,-98.816L1634.36,-98.816L1634.36,-142L1633.83,-142L1633.83,-98.816L1581.26,-98.816L1581.26,-142L1581,-142L1581,-98.816L1528.43,-98.816L1528.43,-142L1527.9,-142L1527.9,-98.816L1475.34,-98.816L1475.34,-142L1475.07,-142L1475.07,-98.816L1422.5,-98.816L1422.5,-142L1421.98,-142L1421.98,-98.816L1369.41,-98.816L1369.41,-142L1369.14,-142L1369.14,-98.816L1316.58,-98.816L1316.58,-142L1316.05,-142L1316.05,-98.816L1263.48,-98.816L1263.48,-142L1263.22,-142L1263.22,-98.816L1210.65,-98.816L1210.65,-142L1210.12,-142L1210.12,-98.816L1157.56,-98.816L1157.56,-142L1157.29,-142L1157.29,-98.816L1104.72,-98.816L1104.72,-142L1104.2,-142L1104.2,-98.816L1051.63,-98.816L1051.63,-142L1051.36,-142L1051.36,-98.816L998.796,-98.816L998.796,-142L998.269,-142L998.269,-98.816L945.702,-98.816L945.702,-142L945.436,-142L945.436,-98.816L892.869,-98.816L892.869,-142L892.342,-142L892.342,-98.816L839.775,-98.816L839.775,-142L839.509,-142L839.509,-98.816L786.942,-98.816L786.942,-142L786.415,-142L786.415,-98.816L733.848,-98.816L733.848,-142L733.582,-142L733.582,-98.816L681.015,-98.816L681.015,-142L680.488,-142L680.488,-98.816L627.921,-98.816L627.921,-142L627.655,-142L627.655,-98.816L575.088,-98.816L575.088,-142L574.561,-142L574.561,-98.816L521.994,-98.816L521.994,-142L521.728,-142L521.728,-98.816L469.161,-98.816L469.161,-142L468.634,-142L468.634,-98.816L416.067,-98.816L416.067,-142L415.801,-142L415.801,-98.816L363.234,-98.816L363.234,-142L362.707,-142L362.707,-98.816L310.14,-98.816L310.14,-142L309.874,-142L309.874,-98.816L257.307,-98.816L257.307,-142L256.78,-142L256.78,-98.816L204.213,-98.816L204.213,-142L203.947,-142L203.947,-98.816L151.38,-98.816L151.38,-142L150.853,-142L150.853,-98.816L98.286,-98.816L98.286,-142L98.02,-142L98.02,-98.816L45.453,-98.816L45.453,-142L44.926,-142L44.926,-98.816L-1,-98.816L-1,-98.246L44.963,-98.246L44.963,-41.358L-1,-41.358L-1,-41.071L44.963,-41.071L44.963,15.816L-1,15.816L-1,16.387L44.963,16.387L44.963,73.274L-1,73.274L-1,73.562L44.963,73.562L44.963,130.449L-1,130.449L-1,131.019L44.963,131.019L44.963,187.907L-1,187.907L-1,188.194L44.963,188.194L44.963,245.081L-1,245.081L-1,245.652L44.963,245.652L44.963,302.539L-1,302.539L-1,302.827L44.963,302.827L44.963,359.714L-1,359.714L-1,360.284L44.963,360.284L44.963,417.171L-1,417.171L-1,417.459L44.963,417.459L44.963,474.346L-1,474.346L-1,474.917L44.963,474.917L44.963,531.804L-1,531.804L-1,532.092L44.963,532.092L44.963,588.979L-1,588.979L-1,589.549L44.963,589.549L44.963,646.436L-1,646.436L-1,646.724L44.963,646.724L44.963,703.611L-1,703.611L-1,704.182L44.963,704.182L44.963,761.069L-1,761.069L-1,761.357L44.963,761.357L44.963,818.244L-1,818.244L-1,818.814L44.963,818.814L44.963,867.459L45.49,867.459L45.49,818.814L98.057,818.814L98.057,867.459L98.323,867.459L98.323,818.814L150.89,818.814L150.89,867.459L151.417,867.459L151.417,818.814L203.984,818.814L203.984,867.459L204.25,867.459L204.25,818.814L256.817,818.814L256.817,867.459L257.344,867.459L257.344,818.814L309.911,818.814L309.911,867.459L310.177,867.459L310.177,818.814L362.744,818.814L362.744,867.459L363.271,867.459L363.271,818.814L415.838,818.814L415.838,867.459L416.104,867.459L416.104,818.814L468.671,818.814L468.671,867.459L469.198,867.459L469.198,818.814L521.765,818.814L521.765,867.459L522.031,867.459L522.031,818.814L574.598,818.814L574.598,867.459L575.125,867.459L575.125,818.814L627.693,818.814L627.693,867.459L627.958,867.459L627.958,818.814L680.525,818.814L680.525,867.459L681.052,867.459L681.052,818.814L733.62,818.814L733.62,867.459L733.885,867.459L733.885,818.814L786.452,818.814L786.452,867.459L786.979,867.459L786.979,818.814L839.547,818.814L839.547,867.459L839.812,867.459L839.812,818.814L892.38,818.814L892.38,867.459L892.907,867.459L892.907,818.814L945.474,818.814L945.474,867.459L945.74,867.459L945.74,818.814L998.307,818.814L998.307,867.459L998.834,867.459L998.834,818.814L1051.4,818.814L1051.4,867.459L1051.67,867.459L1051.67,818.814L1104.23,818.814L1104.23,867.459L1104.76,867.459L1104.76,818.814L1157.33,818.814L1157.33,867.459L1157.59,867.459L1157.59,818.814L1210.16,818.814L1210.16,867.459L1210.69,867.459L1210.69,818.814L1263.25,818.814L1263.25,867.459L1263.52,867.459L1263.52,818.814L1316.09,818.814L1316.09,867.459L1316.61,867.459L1316.61,818.814L1369.18,818.814L1369.18,867.459L1369.45,867.459L1369.45,818.814L1422.02,818.814L1422.02,867.459L1422.54,867.459L1422.54,818.814L1475.11,818.814L1475.11,867.459L1475.37,867.459L1475.37,818.814L1527.94,818.814L1527.94,867.459L1528.47,867.459L1528.47,818.814L1581.04,818.814L1581.04,867.459L1581.3,867.459L1581.3,818.814L1633.87,818.814L1633.87,867.459L1634.4,867.459L1634.4,818.814L1686.96,818.814L1686.96,867.459L1687.23,867.459L1687.23,818.814L1739.8,818.814L1739.8,867.459L1740.32,867.459L1740.32,818.814L1792.89,818.814L1792.89,867.459L1793.16,867.459L1793.16,818.814L1845.72,818.814L1845.72,867.459L1846.25,867.459L1846.25,818.814L1898.82,818.814L1898.82,867.459L1899.08,867.459L1899.08,818.814L1951.65,818.814L1951.65,867.459L1952.18,867.459L1952.18,818.814L2004.74,818.814L2004.74,867.459L2005.01,867.459L2005.01,818.814L2057.58,818.814L2057.58,867.459L2058.1,867.459L2058.1,818.814L2110.67,818.814L2110.67,867.459L2110.94,867.459L2110.94,818.814L2163.5,818.814L2163.5,867.459L2164.03,867.459L2164.03,818.814L2216.6,818.814L2216.6,867.459L2216.86,867.459L2216.86,818.814L2269.43,818.814L2269.43,867.459L2269.96,867.459L2269.96,818.814L2322.53,818.814L2322.53,867.459L2322.79,867.459L2322.79,818.814L2331,818.814L2331,818.244L2322.79,818.244L2322.79,761.357L2331,761.357L2331,761.069L2322.79,761.069L2322.79,704.182L2331,704.182L2331,703.611L2322.79,703.611L2322.79,646.724L2331,646.724L2331,646.436L2322.79,646.436L2322.79,589.549L2331,589.549L2331,588.979L2322.79,588.979L2322.79,532.092L2331,532.092L2331,531.804L2322.79,531.804L2322.79,474.917L2331,474.917L2331,474.346L2322.79,474.346L2322.79,417.459L2331,417.459L2331,417.171L2322.79,417.171L2322.79,360.284L2331,360.284L2331,359.714L2322.79,359.714L2322.79,302.827L2331,302.827L2331,302.539L2322.79,302.539L2322.79,245.652L2331,245.652L2331,245.081L2322.79,245.081L2322.79,188.194L2331,188.194L2331,187.907L2322.79,187.907L2322.79,131.019L2331,131.019L2331,130.449L2322.79,130.449L2322.79,73.562L2331,73.562L2331,73.274L2322.79,73.274L2322.79,16.387L2331,16.387L2331,15.816L2322.79,15.816L2322.79,-41.071L2331,-41.071L2331,-41.358L2322.79,-41.358L2322.79,-98.246L2331,-98.246L2331,-98.816L2322.79,-98.816L2322.79,-142ZM45.359,818.365L45.359,818.653L45.094,818.653L45.094,818.365L45.359,818.365ZM45.359,703.738L45.359,704.025L45.094,704.025L45.094,703.738L45.359,703.738ZM45.359,589.105L45.359,589.393L45.094,589.393L45.094,589.105L45.359,589.105ZM45.359,474.473L45.359,474.76L45.094,474.76L45.094,474.473L45.359,474.473ZM45.359,359.845L45.359,360.133L45.094,360.133L45.094,359.845L45.359,359.845ZM45.359,245.213L45.359,245.5L45.094,245.5L45.094,245.213L45.359,245.213ZM45.359,130.58L45.359,130.868L45.094,130.868L45.094,130.58L45.359,130.58ZM45.359,15.953L45.359,16.241L45.094,16.241L45.094,15.953L45.359,15.953ZM45.359,-98.68L45.359,-98.392L45.094,-98.392L45.094,-98.68L45.359,-98.68ZM98.057,818.229L45.49,818.229L45.49,761.341L98.057,761.341L98.057,818.229ZM98.057,761.054L45.49,761.054L45.49,704.167L98.057,704.167L98.057,761.054ZM98.057,703.596L45.49,703.596L45.49,646.709L98.057,646.709L98.057,703.596ZM98.057,646.426L45.49,646.426L45.49,589.539L98.057,589.539L98.057,646.426ZM98.057,588.964L45.49,588.964L45.49,532.076L98.057,532.076L98.057,588.964ZM98.057,531.794L45.49,531.794L45.49,474.907L98.057,474.907L98.057,531.794ZM98.057,474.336L45.49,474.336L45.49,417.449L98.057,417.449L98.057,474.336ZM98.057,417.161L45.49,417.161L45.49,360.274L98.057,360.274L98.057,417.161ZM98.057,359.704L45.49,359.704L45.49,302.817L98.057,302.817L98.057,359.704ZM98.057,302.534L45.49,302.534L45.49,245.647L98.057,245.647L98.057,302.534ZM98.057,245.071L45.49,245.071L45.49,188.184L98.057,188.184L98.057,245.071ZM98.057,187.901L45.49,187.901L45.49,131.014L98.057,131.014L98.057,187.901ZM98.057,130.444L45.49,130.444L45.49,73.557L98.057,73.557L98.057,130.444ZM98.057,73.269L45.49,73.269L45.49,16.382L98.057,16.382L98.057,73.269ZM98.057,15.812L45.49,15.812L45.49,-41.076L98.057,-41.076L98.057,15.812ZM98.057,-41.358L45.49,-41.358L45.49,-98.246L98.057,-98.246L98.057,-41.358ZM150.885,818.229L98.318,818.229L98.318,761.341L150.885,761.341L150.885,818.229ZM150.885,761.054L98.318,761.054L98.318,704.167L150.885,704.167L150.885,761.054ZM150.885,703.596L98.318,703.596L98.318,646.709L150.885,646.709L150.885,703.596ZM150.885,646.426L98.318,646.426L98.318,589.539L150.885,589.539L150.885,646.426ZM150.885,588.964L98.318,588.964L98.318,532.076L150.885,532.076L150.885,588.964ZM150.885,531.794L98.318,531.794L98.318,474.907L150.885,474.907L150.885,531.794ZM150.885,474.336L98.318,474.336L98.318,417.449L150.885,417.449L150.885,474.336ZM150.885,417.161L98.318,417.161L98.318,360.274L150.885,360.274L150.885,417.161ZM150.885,359.704L98.318,359.704L98.318,302.817L150.885,302.817L150.885,359.704ZM150.885,302.534L98.318,302.534L98.318,245.647L150.885,245.647L150.885,302.534ZM150.885,245.071L98.318,245.071L98.318,188.184L150.885,188.184L150.885,245.071ZM150.885,187.901L98.318,187.901L98.318,131.014L150.885,131.014L150.885,187.901ZM150.885,130.444L98.318,130.444L98.318,73.557L150.885,73.557L150.885,130.444ZM150.885,73.269L98.318,73.269L98.318,16.382L150.885,16.382L150.885,73.269ZM150.885,15.812L98.318,15.812L98.318,-41.076L150.885,-41.076L150.885,15.812ZM150.885,-41.358L98.318,-41.358L98.318,-98.246L150.885,-98.246L150.885,-41.358ZM151.282,818.365L151.282,818.653L151.016,818.653L151.016,818.365L151.282,818.365ZM151.282,703.738L151.282,704.025L151.016,704.025L151.016,703.738L151.282,703.738ZM151.282,589.105L151.282,589.393L151.016,589.393L151.016,589.105L151.282,589.105ZM151.282,474.473L151.282,474.76L151.016,474.76L151.016,474.473L151.282,474.473ZM151.282,359.845L151.282,360.133L151.016,360.133L151.016,359.845L151.282,359.845ZM151.282,245.213L151.282,245.5L151.016,245.5L151.016,245.213L151.282,245.213ZM151.282,130.58L151.282,130.868L151.016,130.868L151.016,130.58L151.282,130.58ZM151.282,15.953L151.282,16.241L151.016,16.241L151.016,15.953L151.282,15.953ZM151.282,-98.68L151.282,-98.392L151.016,-98.392L151.016,-98.68L151.282,-98.68ZM203.98,818.229L151.412,818.229L151.412,761.341L203.98,761.341L203.98,818.229ZM203.98,761.054L151.412,761.054L151.412,704.167L203.98,704.167L203.98,761.054ZM203.98,703.596L151.412,703.596L151.412,646.709L203.98,646.709L203.98,703.596ZM203.98,646.426L151.412,646.426L151.412,589.539L203.98,589.539L203.98,646.426ZM203.98,588.964L151.412,588.964L151.412,532.076L203.98,532.076L203.98,588.964ZM203.98,531.794L151.412,531.794L151.412,474.907L203.98,474.907L203.98,531.794ZM203.98,474.336L151.412,474.336L151.412,417.449L203.98,417.449L203.98,474.336ZM203.98,417.161L151.412,417.161L151.412,360.274L203.98,360.274L203.98,417.161ZM203.98,359.704L151.412,359.704L151.412,302.817L203.98,302.817L203.98,359.704ZM203.98,302.534L151.412,302.534L151.412,245.647L203.98,245.647L203.98,302.534ZM203.98,245.071L151.412,245.071L151.412,188.184L203.98,188.184L203.98,245.071ZM203.98,187.901L151.412,187.901L151.412,131.014L203.98,131.014L203.98,187.901ZM203.98,130.444L151.412,130.444L151.412,73.557L203.98,73.557L203.98,130.444ZM203.98,73.269L151.412,73.269L151.412,16.382L203.98,16.382L203.98,73.269ZM203.98,15.812L151.412,15.812L151.412,-41.076L203.98,-41.076L203.98,15.812ZM203.98,-41.358L151.412,-41.358L151.412,-98.246L203.98,-98.246L203.98,-41.358ZM256.812,818.229L204.245,818.229L204.245,761.341L256.812,761.341L256.812,818.229ZM256.812,761.054L204.245,761.054L204.245,704.167L256.812,704.167L256.812,761.054ZM256.812,703.596L204.245,703.596L204.245,646.709L256.812,646.709L256.812,703.596ZM256.812,646.426L204.245,646.426L204.245,589.539L256.812,589.539L256.812,646.426ZM256.812,588.964L204.245,588.964L204.245,532.076L256.812,532.076L256.812,588.964ZM256.812,531.794L204.245,531.794L204.245,474.907L256.812,474.907L256.812,531.794ZM256.812,474.336L204.245,474.336L204.245,417.449L256.812,417.449L256.812,474.336ZM256.812,417.161L204.245,417.161L204.245,360.274L256.812,360.274L256.812,417.161ZM256.812,359.704L204.245,359.704L204.245,302.817L256.812,302.817L256.812,359.704ZM256.812,302.534L204.245,302.534L204.245,245.647L256.812,245.647L256.812,302.534ZM256.812,245.071L204.245,245.071L204.245,188.184L256.812,188.184L256.812,245.071ZM256.812,187.901L204.245,187.901L204.245,131.014L256.812,131.014L256.812,187.901ZM256.812,130.444L204.245,130.444L204.245,73.557L256.812,73.557L256.812,130.444ZM256.812,73.269L204.245,73.269L204.245,16.382L256.812,16.382L256.812,73.269ZM256.812,15.812L204.245,15.812L204.245,-41.076L256.812,-41.076L256.812,15.812ZM256.812,-41.358L204.245,-41.358L204.245,-98.246L256.812,-98.246L256.812,-41.358ZM257.209,818.365L257.209,818.653L256.943,818.653L256.943,818.365L257.209,818.365ZM257.209,703.738L257.209,704.025L256.943,704.025L256.943,703.738L257.209,703.738ZM257.209,589.105L257.209,589.393L256.943,589.393L256.943,589.105L257.209,589.105ZM257.209,474.473L257.209,474.76L256.943,474.76L256.943,474.473L257.209,474.473ZM257.209,359.845L257.209,360.133L256.943,360.133L256.943,359.845L257.209,359.845ZM257.209,245.213L257.209,245.5L256.943,245.5L256.943,245.213L257.209,245.213ZM257.209,130.58L257.209,130.868L256.943,130.868L256.943,130.58L257.209,130.58ZM257.209,15.953L257.209,16.241L256.943,16.241L256.943,15.953L257.209,15.953ZM257.209,-98.68L257.209,-98.392L256.943,-98.392L256.943,-98.68L257.209,-98.68ZM309.907,818.229L257.339,818.229L257.339,761.341L309.907,761.341L309.907,818.229ZM309.907,761.054L257.339,761.054L257.339,704.167L309.907,704.167L309.907,761.054ZM309.907,703.596L257.339,703.596L257.339,646.709L309.907,646.709L309.907,703.596ZM309.907,646.426L257.339,646.426L257.339,589.539L309.907,589.539L309.907,646.426ZM309.907,588.964L257.339,588.964L257.339,532.076L309.907,532.076L309.907,588.964ZM309.907,531.794L257.339,531.794L257.339,474.907L309.907,474.907L309.907,531.794ZM309.907,474.336L257.339,474.336L257.339,417.449L309.907,417.449L309.907,474.336ZM309.907,417.161L257.339,417.161L257.339,360.274L309.907,360.274L309.907,417.161ZM309.907,359.704L257.339,359.704L257.339,302.817L309.907,302.817L309.907,359.704ZM309.907,302.534L257.339,302.534L257.339,245.647L309.907,245.647L309.907,302.534ZM309.907,245.071L257.339,245.071L257.339,188.184L309.907,188.184L309.907,245.071ZM309.907,187.901L257.339,187.901L257.339,131.014L309.907,131.014L309.907,187.901ZM309.907,130.444L257.339,130.444L257.339,73.557L309.907,73.557L309.907,130.444ZM309.907,73.269L257.339,73.269L257.339,16.382L309.907,16.382L309.907,73.269ZM309.907,15.812L257.339,15.812L257.339,-41.076L309.907,-41.076L309.907,15.812ZM309.907,-41.358L257.339,-41.358L257.339,-98.246L309.907,-98.246L309.907,-41.358ZM362.74,818.229L310.172,818.229L310.172,761.341L362.74,761.341L362.74,818.229ZM362.74,761.054L310.172,761.054L310.172,704.167L362.74,704.167L362.74,761.054ZM362.74,703.596L310.172,703.596L310.172,646.709L362.74,646.709L362.74,703.596ZM362.74,646.426L310.172,646.426L310.172,589.539L362.74,589.539L362.74,646.426ZM362.74,588.964L310.172,588.964L310.172,532.076L362.74,532.076L362.74,588.964ZM362.74,531.794L310.172,531.794L310.172,474.907L362.74,474.907L362.74,531.794ZM362.74,474.336L310.172,474.336L310.172,417.449L362.74,417.449L362.74,474.336ZM362.74,417.161L310.172,417.161L310.172,360.274L362.74,360.274L362.74,417.161ZM362.74,359.704L310.172,359.704L310.172,302.817L362.74,302.817L362.74,359.704ZM362.74,302.534L310.172,302.534L310.172,245.647L362.74,245.647L362.74,302.534ZM362.74,245.071L310.172,245.071L310.172,188.184L362.74,188.184L362.74,245.071ZM362.74,187.901L310.172,187.901L310.172,131.014L362.74,131.014L362.74,187.901ZM362.74,130.444L310.172,130.444L310.172,73.557L362.74,73.557L362.74,130.444ZM362.74,73.269L310.172,73.269L310.172,16.382L362.74,16.382L362.74,73.269ZM362.74,15.812L310.172,15.812L310.172,-41.076L362.74,-41.076L362.74,15.812ZM362.74,-41.358L310.172,-41.358L310.172,-98.246L362.74,-98.246L362.74,-41.358ZM363.136,818.365L363.136,818.653L362.87,818.653L362.87,818.365L363.136,818.365ZM363.136,703.738L363.136,704.025L362.87,704.025L362.87,703.738L363.136,703.738ZM363.136,589.105L363.136,589.393L362.87,589.393L362.87,589.105L363.136,589.105ZM363.136,474.473L363.136,474.76L362.87,474.76L362.87,474.473L363.136,474.473ZM363.136,359.845L363.136,360.133L362.87,360.133L362.87,359.845L363.136,359.845ZM363.136,245.213L363.136,245.5L362.87,245.5L362.87,245.213L363.136,245.213ZM363.136,130.58L363.136,130.868L362.87,130.868L362.87,130.58L363.136,130.58ZM363.136,15.953L363.136,16.241L362.87,16.241L362.87,15.953L363.136,15.953ZM363.136,-98.68L363.136,-98.392L362.87,-98.392L362.87,-98.68L363.136,-98.68ZM415.834,818.229L363.267,818.229L363.267,761.341L415.834,761.341L415.834,818.229ZM415.834,761.054L363.267,761.054L363.267,704.167L415.834,704.167L415.834,761.054ZM415.834,703.596L363.267,703.596L363.267,646.709L415.834,646.709L415.834,703.596ZM415.834,646.426L363.267,646.426L363.267,589.539L415.834,589.539L415.834,646.426ZM415.834,588.964L363.267,588.964L363.267,532.076L415.834,532.076L415.834,588.964ZM415.834,531.794L363.267,531.794L363.267,474.907L415.834,474.907L415.834,531.794ZM415.834,474.336L363.267,474.336L363.267,417.449L415.834,417.449L415.834,474.336ZM415.834,417.161L363.267,417.161L363.267,360.274L415.834,360.274L415.834,417.161ZM415.834,359.704L363.267,359.704L363.267,302.817L415.834,302.817L415.834,359.704ZM415.834,302.534L363.267,302.534L363.267,245.647L415.834,245.647L415.834,302.534ZM415.834,245.071L363.267,245.071L363.267,188.184L415.834,188.184L415.834,245.071ZM415.834,187.901L363.267,187.901L363.267,131.014L415.834,131.014L415.834,187.901ZM415.834,130.444L363.267,130.444L363.267,73.557L415.834,73.557L415.834,130.444ZM415.834,73.269L363.267,73.269L363.267,16.382L415.834,16.382L415.834,73.269ZM415.834,15.812L363.267,15.812L363.267,-41.076L415.834,-41.076L415.834,15.812ZM415.834,-41.358L363.267,-41.358L363.267,-98.246L415.834,-98.246L415.834,-41.358ZM468.662,818.229L416.095,818.229L416.095,761.341L468.662,761.341L468.662,818.229ZM468.662,761.054L416.095,761.054L416.095,704.167L468.662,704.167L468.662,761.054ZM468.662,703.596L416.095,703.596L416.095,646.709L468.662,646.709L468.662,703.596ZM468.662,646.426L416.095,646.426L416.095,589.539L468.662,589.539L468.662,646.426ZM468.662,588.964L416.095,588.964L416.095,532.076L468.662,532.076L468.662,588.964ZM468.662,531.794L416.095,531.794L416.095,474.907L468.662,474.907L468.662,531.794ZM468.662,474.336L416.095,474.336L416.095,417.449L468.662,417.449L468.662,474.336ZM468.662,417.161L416.095,417.161L416.095,360.274L468.662,360.274L468.662,417.161ZM468.662,359.704L416.095,359.704L416.095,302.817L468.662,302.817L468.662,359.704ZM468.662,302.534L416.095,302.534L416.095,245.647L468.662,245.647L468.662,302.534ZM468.662,245.071L416.095,245.071L416.095,188.184L468.662,188.184L468.662,245.071ZM468.662,187.901L416.095,187.901L416.095,131.014L468.662,131.014L468.662,187.901ZM468.662,130.444L416.095,130.444L416.095,73.557L468.662,73.557L468.662,130.444ZM468.662,73.269L416.095,73.269L416.095,16.382L468.662,16.382L468.662,73.269ZM468.662,15.812L416.095,15.812L416.095,-41.076L468.662,-41.076L468.662,15.812ZM468.662,-41.358L416.095,-41.358L416.095,-98.246L468.662,-98.246L468.662,-41.358ZM469.058,818.365L469.058,818.653L468.793,818.653L468.793,818.365L469.058,818.365ZM469.058,703.738L469.058,704.025L468.793,704.025L468.793,703.738L469.058,703.738ZM469.058,589.105L469.058,589.393L468.793,589.393L468.793,589.105L469.058,589.105ZM469.058,474.473L469.058,474.76L468.793,474.76L468.793,474.473L469.058,474.473ZM469.058,359.845L469.058,360.133L468.793,360.133L468.793,359.845L469.058,359.845ZM469.058,245.213L469.058,245.5L468.793,245.5L468.793,245.213L469.058,245.213ZM469.058,130.58L469.058,130.868L468.793,130.868L468.793,130.58L469.058,130.58ZM469.058,15.953L469.058,16.241L468.793,16.241L468.793,15.953L469.058,15.953ZM469.058,-98.68L469.058,-98.392L468.793,-98.392L468.793,-98.68L469.058,-98.68ZM521.756,818.229L469.189,818.229L469.189,761.341L521.756,761.341L521.756,818.229ZM521.756,761.054L469.189,761.054L469.189,704.167L521.756,704.167L521.756,761.054ZM521.756,703.596L469.189,703.596L469.189,646.709L521.756,646.709L521.756,703.596ZM521.756,646.426L469.189,646.426L469.189,589.539L521.756,589.539L521.756,646.426ZM521.756,588.964L469.189,588.964L469.189,532.076L521.756,532.076L521.756,588.964ZM521.756,531.794L469.189,531.794L469.189,474.907L521.756,474.907L521.756,531.794ZM521.756,474.336L469.189,474.336L469.189,417.449L521.756,417.449L521.756,474.336ZM521.756,417.161L469.189,417.161L469.189,360.274L521.756,360.274L521.756,417.161ZM521.756,359.704L469.189,359.704L469.189,302.817L521.756,302.817L521.756,359.704ZM521.756,302.534L469.189,302.534L469.189,245.647L521.756,245.647L521.756,302.534ZM521.756,245.071L469.189,245.071L469.189,188.184L521.756,188.184L521.756,245.071ZM521.756,187.901L469.189,187.901L469.189,131.014L521.756,131.014L521.756,187.901ZM521.756,130.444L469.189,130.444L469.189,73.557L521.756,73.557L521.756,130.444ZM521.756,73.269L469.189,73.269L469.189,16.382L521.756,16.382L521.756,73.269ZM521.756,15.812L469.189,15.812L469.189,-41.076L521.756,-41.076L521.756,15.812ZM521.756,-41.358L469.189,-41.358L469.189,-98.246L521.756,-98.246L521.756,-41.358ZM574.589,818.229L522.022,818.229L522.022,761.341L574.589,761.341L574.589,818.229ZM574.589,761.054L522.022,761.054L522.022,704.167L574.589,704.167L574.589,761.054ZM574.589,703.596L522.022,703.596L522.022,646.709L574.589,646.709L574.589,703.596ZM574.589,646.426L522.022,646.426L522.022,589.539L574.589,589.539L574.589,646.426ZM574.589,588.964L522.022,588.964L522.022,532.076L574.589,532.076L574.589,588.964ZM574.589,531.794L522.022,531.794L522.022,474.907L574.589,474.907L574.589,531.794ZM574.589,474.336L522.022,474.336L522.022,417.449L574.589,417.449L574.589,474.336ZM574.589,417.161L522.022,417.161L522.022,360.274L574.589,360.274L574.589,417.161ZM574.589,359.704L522.022,359.704L522.022,302.817L574.589,302.817L574.589,359.704ZM574.589,302.534L522.022,302.534L522.022,245.647L574.589,245.647L574.589,302.534ZM574.589,245.071L522.022,245.071L522.022,188.184L574.589,188.184L574.589,245.071ZM574.589,187.901L522.022,187.901L522.022,131.014L574.589,131.014L574.589,187.901ZM574.589,130.444L522.022,130.444L522.022,73.557L574.589,73.557L574.589,130.444ZM574.589,73.269L522.022,73.269L522.022,16.382L574.589,16.382L574.589,73.269ZM574.589,15.812L522.022,15.812L522.022,-41.076L574.589,-41.076L574.589,15.812ZM574.589,-41.358L522.022,-41.358L522.022,-98.246L574.589,-98.246L574.589,-41.358ZM574.985,818.365L574.985,818.653L574.72,818.653L574.72,818.365L574.985,818.365ZM574.985,703.738L574.985,704.025L574.72,704.025L574.72,703.738L574.985,703.738ZM574.985,589.105L574.985,589.393L574.72,589.393L574.72,589.105L574.985,589.105ZM574.985,474.473L574.985,474.76L574.72,474.76L574.72,474.473L574.985,474.473ZM574.985,359.845L574.985,360.133L574.72,360.133L574.72,359.845L574.985,359.845ZM574.985,245.213L574.985,245.5L574.72,245.5L574.72,245.213L574.985,245.213ZM574.985,130.58L574.985,130.868L574.72,130.868L574.72,130.58L574.985,130.58ZM574.985,15.953L574.985,16.241L574.72,16.241L574.72,15.953L574.985,15.953ZM574.985,-98.68L574.985,-98.392L574.72,-98.392L574.72,-98.68L574.985,-98.68ZM627.683,818.229L575.116,818.229L575.116,761.341L627.683,761.341L627.683,818.229ZM627.683,761.054L575.116,761.054L575.116,704.167L627.683,704.167L627.683,761.054ZM627.683,703.596L575.116,703.596L575.116,646.709L627.683,646.709L627.683,703.596ZM627.683,646.426L575.116,646.426L575.116,589.539L627.683,589.539L627.683,646.426ZM627.683,588.964L575.116,588.964L575.116,532.076L627.683,532.076L627.683,588.964ZM627.683,531.794L575.116,531.794L575.116,474.907L627.683,474.907L627.683,531.794ZM627.683,474.336L575.116,474.336L575.116,417.449L627.683,417.449L627.683,474.336ZM627.683,417.161L575.116,417.161L575.116,360.274L627.683,360.274L627.683,417.161ZM627.683,359.704L575.116,359.704L575.116,302.817L627.683,302.817L627.683,359.704ZM627.683,302.534L575.116,302.534L575.116,245.647L627.683,245.647L627.683,302.534ZM627.683,245.071L575.116,245.071L575.116,188.184L627.683,188.184L627.683,245.071ZM627.683,187.901L575.116,187.901L575.116,131.014L627.683,131.014L627.683,187.901ZM627.683,130.444L575.116,130.444L575.116,73.557L627.683,73.557L627.683,130.444ZM627.683,73.269L575.116,73.269L575.116,16.382L627.683,16.382L627.683,73.269ZM627.683,15.812L575.116,15.812L575.116,-41.076L627.683,-41.076L627.683,15.812ZM627.683,-41.358L575.116,-41.358L575.116,-98.246L627.683,-98.246L627.683,-41.358ZM680.516,818.229L627.949,818.229L627.949,761.341L680.516,761.341L680.516,818.229ZM680.516,761.054L627.949,761.054L627.949,704.167L680.516,704.167L680.516,761.054ZM680.516,703.596L627.949,703.596L627.949,646.709L680.516,646.709L680.516,703.596ZM680.516,646.426L627.949,646.426L627.949,589.539L680.516,589.539L680.516,646.426ZM680.516,588.964L627.949,588.964L627.949,532.076L680.516,532.076L680.516,588.964ZM680.516,531.794L627.949,531.794L627.949,474.907L680.516,474.907L680.516,531.794ZM680.516,474.336L627.949,474.336L627.949,417.449L680.516,417.449L680.516,474.336ZM680.516,417.161L627.949,417.161L627.949,360.274L680.516,360.274L680.516,417.161ZM680.516,359.704L627.949,359.704L627.949,302.817L680.516,302.817L680.516,359.704ZM680.516,302.534L627.949,302.534L627.949,245.647L680.516,245.647L680.516,302.534ZM680.516,245.071L627.949,245.071L627.949,188.184L680.516,188.184L680.516,245.071ZM680.516,187.901L627.949,187.901L627.949,131.014L680.516,131.014L680.516,187.901ZM680.516,130.444L627.949,130.444L627.949,73.557L680.516,73.557L680.516,130.444ZM680.516,73.269L627.949,73.269L627.949,16.382L680.516,16.382L680.516,73.269ZM680.516,15.812L627.949,15.812L627.949,-41.076L680.516,-41.076L680.516,15.812ZM680.516,-41.358L627.949,-41.358L627.949,-98.246L680.516,-98.246L680.516,-41.358ZM680.912,818.365L680.912,818.653L680.647,818.653L680.647,818.365L680.912,818.365ZM680.912,703.738L680.912,704.025L680.647,704.025L680.647,703.738L680.912,703.738ZM680.912,589.105L680.912,589.393L680.647,589.393L680.647,589.105L680.912,589.105ZM680.912,474.473L680.912,474.76L680.647,474.76L680.647,474.473L680.912,474.473ZM680.912,359.845L680.912,360.133L680.647,360.133L680.647,359.845L680.912,359.845ZM680.912,245.213L680.912,245.5L680.647,245.5L680.647,245.213L680.912,245.213ZM680.912,130.58L680.912,130.868L680.647,130.868L680.647,130.58L680.912,130.58ZM680.912,15.953L680.912,16.241L680.647,16.241L680.647,15.953L680.912,15.953ZM680.912,-98.68L680.912,-98.392L680.647,-98.392L680.647,-98.68L680.912,-98.68ZM733.61,818.229L681.043,818.229L681.043,761.341L733.61,761.341L733.61,818.229ZM733.61,761.054L681.043,761.054L681.043,704.167L733.61,704.167L733.61,761.054ZM733.61,703.596L681.043,703.596L681.043,646.709L733.61,646.709L733.61,703.596ZM733.61,646.426L681.043,646.426L681.043,589.539L733.61,589.539L733.61,646.426ZM733.61,588.964L681.043,588.964L681.043,532.076L733.61,532.076L733.61,588.964ZM733.61,531.794L681.043,531.794L681.043,474.907L733.61,474.907L733.61,531.794ZM733.61,474.336L681.043,474.336L681.043,417.449L733.61,417.449L733.61,474.336ZM733.61,417.161L681.043,417.161L681.043,360.274L733.61,360.274L733.61,417.161ZM733.61,359.704L681.043,359.704L681.043,302.817L733.61,302.817L733.61,359.704ZM733.61,302.534L681.043,302.534L681.043,245.647L733.61,245.647L733.61,302.534ZM733.61,245.071L681.043,245.071L681.043,188.184L733.61,188.184L733.61,245.071ZM733.61,187.901L681.043,187.901L681.043,131.014L733.61,131.014L733.61,187.901ZM733.61,130.444L681.043,130.444L681.043,73.557L733.61,73.557L733.61,130.444ZM733.61,73.269L681.043,73.269L681.043,16.382L733.61,16.382L733.61,73.269ZM733.61,15.812L681.043,15.812L681.043,-41.076L733.61,-41.076L733.61,15.812ZM733.61,-41.358L681.043,-41.358L681.043,-98.246L733.61,-98.246L733.61,-41.358ZM786.438,818.229L733.871,818.229L733.871,761.341L786.438,761.341L786.438,818.229ZM786.438,761.054L733.871,761.054L733.871,704.167L786.438,704.167L786.438,761.054ZM786.438,703.596L733.871,703.596L733.871,646.709L786.438,646.709L786.438,703.596ZM786.438,646.426L733.871,646.426L733.871,589.539L786.438,589.539L786.438,646.426ZM786.438,588.964L733.871,588.964L733.871,532.076L786.438,532.076L786.438,588.964ZM786.438,531.794L733.871,531.794L733.871,474.907L786.438,474.907L786.438,531.794ZM786.438,474.336L733.871,474.336L733.871,417.449L786.438,417.449L786.438,474.336ZM786.438,417.161L733.871,417.161L733.871,360.274L786.438,360.274L786.438,417.161ZM786.438,359.704L733.871,359.704L733.871,302.817L786.438,302.817L786.438,359.704ZM786.438,302.534L733.871,302.534L733.871,245.647L786.438,245.647L786.438,302.534ZM786.438,245.071L733.871,245.071L733.871,188.184L786.438,188.184L786.438,245.071ZM786.438,187.901L733.871,187.901L733.871,131.014L786.438,131.014L786.438,187.901ZM786.438,130.444L733.871,130.444L733.871,73.557L786.438,73.557L786.438,130.444ZM786.438,73.269L733.871,73.269L733.871,16.382L786.438,16.382L786.438,73.269ZM786.438,15.812L733.871,15.812L733.871,-41.076L786.438,-41.076L786.438,15.812ZM786.438,-41.358L733.871,-41.358L733.871,-98.246L786.438,-98.246L786.438,-41.358ZM786.835,818.365L786.835,818.653L786.569,818.653L786.569,818.365L786.835,818.365ZM786.835,703.738L786.835,704.025L786.569,704.025L786.569,703.738L786.835,703.738ZM786.835,589.105L786.835,589.393L786.569,589.393L786.569,589.105L786.835,589.105ZM786.835,474.473L786.835,474.76L786.569,474.76L786.569,474.473L786.835,474.473ZM786.835,359.845L786.835,360.133L786.569,360.133L786.569,359.845L786.835,359.845ZM786.835,245.213L786.835,245.5L786.569,245.5L786.569,245.213L786.835,245.213ZM786.835,130.58L786.835,130.868L786.569,130.868L786.569,130.58L786.835,130.58ZM786.835,15.953L786.835,16.241L786.569,16.241L786.569,15.953L786.835,15.953ZM786.835,-98.68L786.835,-98.392L786.569,-98.392L786.569,-98.68L786.835,-98.68ZM839.533,818.229L786.966,818.229L786.966,761.341L839.533,761.341L839.533,818.229ZM839.533,761.054L786.966,761.054L786.966,704.167L839.533,704.167L839.533,761.054ZM839.533,703.596L786.966,703.596L786.966,646.709L839.533,646.709L839.533,703.596ZM839.533,646.426L786.966,646.426L786.966,589.539L839.533,589.539L839.533,646.426ZM839.533,588.964L786.966,588.964L786.966,532.076L839.533,532.076L839.533,588.964ZM839.533,531.794L786.966,531.794L786.966,474.907L839.533,474.907L839.533,531.794ZM839.533,474.336L786.966,474.336L786.966,417.449L839.533,417.449L839.533,474.336ZM839.533,417.161L786.966,417.161L786.966,360.274L839.533,360.274L839.533,417.161ZM839.533,359.704L786.966,359.704L786.966,302.817L839.533,302.817L839.533,359.704ZM839.533,302.534L786.966,302.534L786.966,245.647L839.533,245.647L839.533,302.534ZM839.533,245.071L786.966,245.071L786.966,188.184L839.533,188.184L839.533,245.071ZM839.533,187.901L786.966,187.901L786.966,131.014L839.533,131.014L839.533,187.901ZM839.533,130.444L786.966,130.444L786.966,73.557L839.533,73.557L839.533,130.444ZM839.533,73.269L786.966,73.269L786.966,16.382L839.533,16.382L839.533,73.269ZM839.533,15.812L786.966,15.812L786.966,-41.076L839.533,-41.076L839.533,15.812ZM839.533,-41.358L786.966,-41.358L786.966,-98.246L839.533,-98.246L839.533,-41.358ZM892.366,818.229L839.798,818.229L839.798,761.341L892.366,761.341L892.366,818.229ZM892.366,761.054L839.798,761.054L839.798,704.167L892.366,704.167L892.366,761.054ZM892.366,703.596L839.798,703.596L839.798,646.709L892.366,646.709L892.366,703.596ZM892.366,646.426L839.798,646.426L839.798,589.539L892.366,589.539L892.366,646.426ZM892.366,588.964L839.798,588.964L839.798,532.076L892.366,532.076L892.366,588.964ZM892.366,531.794L839.798,531.794L839.798,474.907L892.366,474.907L892.366,531.794ZM892.366,474.336L839.798,474.336L839.798,417.449L892.366,417.449L892.366,474.336ZM892.366,417.161L839.798,417.161L839.798,360.274L892.366,360.274L892.366,417.161ZM892.366,359.704L839.798,359.704L839.798,302.817L892.366,302.817L892.366,359.704ZM892.366,302.534L839.798,302.534L839.798,245.647L892.366,245.647L892.366,302.534ZM892.366,245.071L839.798,245.071L839.798,188.184L892.366,188.184L892.366,245.071ZM892.366,187.901L839.798,187.901L839.798,131.014L892.366,131.014L892.366,187.901ZM892.366,130.444L839.798,130.444L839.798,73.557L892.366,73.557L892.366,130.444ZM892.366,73.269L839.798,73.269L839.798,16.382L892.366,16.382L892.366,73.269ZM892.366,15.812L839.798,15.812L839.798,-41.076L892.366,-41.076L892.366,15.812ZM892.366,-41.358L839.798,-41.358L839.798,-98.246L892.366,-98.246L892.366,-41.358ZM892.762,818.365L892.762,818.653L892.496,818.653L892.496,818.365L892.762,818.365ZM892.762,703.738L892.762,704.025L892.496,704.025L892.496,703.738L892.762,703.738ZM892.762,589.105L892.762,589.393L892.496,589.393L892.496,589.105L892.762,589.105ZM892.762,474.473L892.762,474.76L892.496,474.76L892.496,474.473L892.762,474.473ZM892.762,359.845L892.762,360.133L892.496,360.133L892.496,359.845L892.762,359.845ZM892.762,245.213L892.762,245.5L892.496,245.5L892.496,245.213L892.762,245.213ZM892.762,130.58L892.762,130.868L892.496,130.868L892.496,130.58L892.762,130.58ZM892.762,15.953L892.762,16.241L892.496,16.241L892.496,15.953L892.762,15.953ZM892.762,-98.68L892.762,-98.392L892.496,-98.392L892.496,-98.68L892.762,-98.68ZM945.46,818.229L892.893,818.229L892.893,761.341L945.46,761.341L945.46,818.229ZM945.46,761.054L892.893,761.054L892.893,704.167L945.46,704.167L945.46,761.054ZM945.46,703.596L892.893,703.596L892.893,646.709L945.46,646.709L945.46,703.596ZM945.46,646.426L892.893,646.426L892.893,589.539L945.46,589.539L945.46,646.426ZM945.46,588.964L892.893,588.964L892.893,532.076L945.46,532.076L945.46,588.964ZM945.46,531.794L892.893,531.794L892.893,474.907L945.46,474.907L945.46,531.794ZM945.46,474.336L892.893,474.336L892.893,417.449L945.46,417.449L945.46,474.336ZM945.46,417.161L892.893,417.161L892.893,360.274L945.46,360.274L945.46,417.161ZM945.46,359.704L892.893,359.704L892.893,302.817L945.46,302.817L945.46,359.704ZM945.46,302.534L892.893,302.534L892.893,245.647L945.46,245.647L945.46,302.534ZM945.46,245.071L892.893,245.071L892.893,188.184L945.46,188.184L945.46,245.071ZM945.46,187.901L892.893,187.901L892.893,131.014L945.46,131.014L945.46,187.901ZM945.46,130.444L892.893,130.444L892.893,73.557L945.46,73.557L945.46,130.444ZM945.46,73.269L892.893,73.269L892.893,16.382L945.46,16.382L945.46,73.269ZM945.46,15.812L892.893,15.812L892.893,-41.076L945.46,-41.076L945.46,15.812ZM945.46,-41.358L892.893,-41.358L892.893,-98.246L945.46,-98.246L945.46,-41.358ZM998.293,818.229L945.726,818.229L945.726,761.341L998.293,761.341L998.293,818.229ZM998.293,761.054L945.726,761.054L945.726,704.167L998.293,704.167L998.293,761.054ZM998.293,703.596L945.726,703.596L945.726,646.709L998.293,646.709L998.293,703.596ZM998.293,646.426L945.726,646.426L945.726,589.539L998.293,589.539L998.293,646.426ZM998.293,588.964L945.726,588.964L945.726,532.076L998.293,532.076L998.293,588.964ZM998.293,531.794L945.726,531.794L945.726,474.907L998.293,474.907L998.293,531.794ZM998.293,474.336L945.726,474.336L945.726,417.449L998.293,417.449L998.293,474.336ZM998.293,417.161L945.726,417.161L945.726,360.274L998.293,360.274L998.293,417.161ZM998.293,359.704L945.726,359.704L945.726,302.817L998.293,302.817L998.293,359.704ZM998.293,302.534L945.726,302.534L945.726,245.647L998.293,245.647L998.293,302.534ZM998.293,245.071L945.726,245.071L945.726,188.184L998.293,188.184L998.293,245.071ZM998.293,187.901L945.726,187.901L945.726,131.014L998.293,131.014L998.293,187.901ZM998.293,130.444L945.726,130.444L945.726,73.557L998.293,73.557L998.293,130.444ZM998.293,73.269L945.726,73.269L945.726,16.382L998.293,16.382L998.293,73.269ZM998.293,15.812L945.726,15.812L945.726,-41.076L998.293,-41.076L998.293,15.812ZM998.293,-41.358L945.726,-41.358L945.726,-98.246L998.293,-98.246L998.293,-41.358ZM998.689,818.365L998.689,818.653L998.423,818.653L998.423,818.365L998.689,818.365ZM998.689,703.738L998.689,704.025L998.423,704.025L998.423,703.738L998.689,703.738ZM998.689,589.105L998.689,589.393L998.423,589.393L998.423,589.105L998.689,589.105ZM998.689,474.473L998.689,474.76L998.423,474.76L998.423,474.473L998.689,474.473ZM998.689,359.845L998.689,360.133L998.423,360.133L998.423,359.845L998.689,359.845ZM998.689,245.213L998.689,245.5L998.423,245.5L998.423,245.213L998.689,245.213ZM998.689,130.58L998.689,130.868L998.423,130.868L998.423,130.58L998.689,130.58ZM998.689,15.953L998.689,16.241L998.423,16.241L998.423,15.953L998.689,15.953ZM998.689,-98.68L998.689,-98.392L998.423,-98.392L998.423,-98.68L998.689,-98.68ZM1051.39,818.229L998.82,818.229L998.82,761.341L1051.39,761.341L1051.39,818.229ZM1051.39,761.054L998.82,761.054L998.82,704.167L1051.39,704.167L1051.39,761.054ZM1051.39,703.596L998.82,703.596L998.82,646.709L1051.39,646.709L1051.39,703.596ZM1051.39,646.426L998.82,646.426L998.82,589.539L1051.39,589.539L1051.39,646.426ZM1051.39,588.964L998.82,588.964L998.82,532.076L1051.39,532.076L1051.39,588.964ZM1051.39,531.794L998.82,531.794L998.82,474.907L1051.39,474.907L1051.39,531.794ZM1051.39,474.336L998.82,474.336L998.82,417.449L1051.39,417.449L1051.39,474.336ZM1051.39,417.161L998.82,417.161L998.82,360.274L1051.39,360.274L1051.39,417.161ZM1051.39,359.704L998.82,359.704L998.82,302.817L1051.39,302.817L1051.39,359.704ZM1051.39,302.534L998.82,302.534L998.82,245.647L1051.39,245.647L1051.39,302.534ZM1051.39,245.071L998.82,245.071L998.82,188.184L1051.39,188.184L1051.39,245.071ZM1051.39,187.901L998.82,187.901L998.82,131.014L1051.39,131.014L1051.39,187.901ZM1051.39,130.444L998.82,130.444L998.82,73.557L1051.39,73.557L1051.39,130.444ZM1051.39,73.269L998.82,73.269L998.82,16.382L1051.39,16.382L1051.39,73.269ZM1051.39,15.812L998.82,15.812L998.82,-41.076L1051.39,-41.076L1051.39,15.812ZM1051.39,-41.358L998.82,-41.358L998.82,-98.246L1051.39,-98.246L1051.39,-41.358ZM1104.21,818.229L1051.65,818.229L1051.65,761.341L1104.21,761.341L1104.21,818.229ZM1104.21,761.054L1051.65,761.054L1051.65,704.167L1104.21,704.167L1104.21,761.054ZM1104.21,703.596L1051.65,703.596L1051.65,646.709L1104.21,646.709L1104.21,703.596ZM1104.21,646.426L1051.65,646.426L1051.65,589.539L1104.21,589.539L1104.21,646.426ZM1104.21,588.964L1051.65,588.964L1051.65,532.076L1104.21,532.076L1104.21,588.964ZM1104.21,531.794L1051.65,531.794L1051.65,474.907L1104.21,474.907L1104.21,531.794ZM1104.21,474.336L1051.65,474.336L1051.65,417.449L1104.21,417.449L1104.21,474.336ZM1104.21,417.161L1051.65,417.161L1051.65,360.274L1104.21,360.274L1104.21,417.161ZM1104.21,359.704L1051.65,359.704L1051.65,302.817L1104.21,302.817L1104.21,359.704ZM1104.21,302.534L1051.65,302.534L1051.65,245.647L1104.21,245.647L1104.21,302.534ZM1104.21,245.071L1051.65,245.071L1051.65,188.184L1104.21,188.184L1104.21,245.071ZM1104.21,187.901L1051.65,187.901L1051.65,131.014L1104.21,131.014L1104.21,187.901ZM1104.21,130.444L1051.65,130.444L1051.65,73.557L1104.21,73.557L1104.21,130.444ZM1104.21,73.269L1051.65,73.269L1051.65,16.382L1104.21,16.382L1104.21,73.269ZM1104.21,15.812L1051.65,15.812L1051.65,-41.076L1104.21,-41.076L1104.21,15.812ZM1104.21,-41.358L1051.65,-41.358L1051.65,-98.246L1104.21,-98.246L1104.21,-41.358ZM1104.61,818.365L1104.61,818.653L1104.35,818.653L1104.35,818.365L1104.61,818.365ZM1104.61,703.738L1104.61,704.025L1104.35,704.025L1104.35,703.738L1104.61,703.738ZM1104.61,589.105L1104.61,589.393L1104.35,589.393L1104.35,589.105L1104.61,589.105ZM1104.61,474.473L1104.61,474.76L1104.35,474.76L1104.35,474.473L1104.61,474.473ZM1104.61,359.845L1104.61,360.133L1104.35,360.133L1104.35,359.845L1104.61,359.845ZM1104.61,245.213L1104.61,245.5L1104.35,245.5L1104.35,245.213L1104.61,245.213ZM1104.61,130.58L1104.61,130.868L1104.35,130.868L1104.35,130.58L1104.61,130.58ZM1104.61,15.953L1104.61,16.241L1104.35,16.241L1104.35,15.953L1104.61,15.953ZM1104.61,-98.68L1104.61,-98.392L1104.35,-98.392L1104.35,-98.68L1104.61,-98.68ZM1157.31,818.229L1104.74,818.229L1104.74,761.341L1157.31,761.341L1157.31,818.229ZM1157.31,761.054L1104.74,761.054L1104.74,704.167L1157.31,704.167L1157.31,761.054ZM1157.31,703.596L1104.74,703.596L1104.74,646.709L1157.31,646.709L1157.31,703.596ZM1157.31,646.426L1104.74,646.426L1104.74,589.539L1157.31,589.539L1157.31,646.426ZM1157.31,588.964L1104.74,588.964L1104.74,532.076L1157.31,532.076L1157.31,588.964ZM1157.31,531.794L1104.74,531.794L1104.74,474.907L1157.31,474.907L1157.31,531.794ZM1157.31,474.336L1104.74,474.336L1104.74,417.449L1157.31,417.449L1157.31,474.336ZM1157.31,417.161L1104.74,417.161L1104.74,360.274L1157.31,360.274L1157.31,417.161ZM1157.31,359.704L1104.74,359.704L1104.74,302.817L1157.31,302.817L1157.31,359.704ZM1157.31,302.534L1104.74,302.534L1104.74,245.647L1157.31,245.647L1157.31,302.534ZM1157.31,245.071L1104.74,245.071L1104.74,188.184L1157.31,188.184L1157.31,245.071ZM1157.31,187.901L1104.74,187.901L1104.74,131.014L1157.31,131.014L1157.31,187.901ZM1157.31,130.444L1104.74,130.444L1104.74,73.557L1157.31,73.557L1157.31,130.444ZM1157.31,73.269L1104.74,73.269L1104.74,16.382L1157.31,16.382L1157.31,73.269ZM1157.31,15.812L1104.74,15.812L1104.74,-41.076L1157.31,-41.076L1157.31,15.812ZM1157.31,-41.358L1104.74,-41.358L1104.74,-98.246L1157.31,-98.246L1157.31,-41.358ZM1210.14,818.229L1157.58,818.229L1157.58,761.341L1210.14,761.341L1210.14,818.229ZM1210.14,761.054L1157.58,761.054L1157.58,704.167L1210.14,704.167L1210.14,761.054ZM1210.14,703.596L1157.58,703.596L1157.58,646.709L1210.14,646.709L1210.14,703.596ZM1210.14,646.426L1157.58,646.426L1157.58,589.539L1210.14,589.539L1210.14,646.426ZM1210.14,588.964L1157.58,588.964L1157.58,532.076L1210.14,532.076L1210.14,588.964ZM1210.14,531.794L1157.58,531.794L1157.58,474.907L1210.14,474.907L1210.14,531.794ZM1210.14,474.336L1157.58,474.336L1157.58,417.449L1210.14,417.449L1210.14,474.336ZM1210.14,417.161L1157.58,417.161L1157.58,360.274L1210.14,360.274L1210.14,417.161ZM1210.14,359.704L1157.58,359.704L1157.58,302.817L1210.14,302.817L1210.14,359.704ZM1210.14,302.534L1157.58,302.534L1157.58,245.647L1210.14,245.647L1210.14,302.534ZM1210.14,245.071L1157.58,245.071L1157.58,188.184L1210.14,188.184L1210.14,245.071ZM1210.14,187.901L1157.58,187.901L1157.58,131.014L1210.14,131.014L1210.14,187.901ZM1210.14,130.444L1157.58,130.444L1157.58,73.557L1210.14,73.557L1210.14,130.444ZM1210.14,73.269L1157.58,73.269L1157.58,16.382L1210.14,16.382L1210.14,73.269ZM1210.14,15.812L1157.58,15.812L1157.58,-41.076L1210.14,-41.076L1210.14,15.812ZM1210.14,-41.358L1157.58,-41.358L1157.58,-98.246L1210.14,-98.246L1210.14,-41.358ZM1210.54,818.365L1210.54,818.653L1210.27,818.653L1210.27,818.365L1210.54,818.365ZM1210.54,703.738L1210.54,704.025L1210.27,704.025L1210.27,703.738L1210.54,703.738ZM1210.54,589.105L1210.54,589.393L1210.27,589.393L1210.27,589.105L1210.54,589.105ZM1210.54,474.473L1210.54,474.76L1210.27,474.76L1210.27,474.473L1210.54,474.473ZM1210.54,359.845L1210.54,360.133L1210.27,360.133L1210.27,359.845L1210.54,359.845ZM1210.54,245.213L1210.54,245.5L1210.27,245.5L1210.27,245.213L1210.54,245.213ZM1210.54,130.58L1210.54,130.868L1210.27,130.868L1210.27,130.58L1210.54,130.58ZM1210.54,15.953L1210.54,16.241L1210.27,16.241L1210.27,15.953L1210.54,15.953ZM1210.54,-98.68L1210.54,-98.392L1210.27,-98.392L1210.27,-98.68L1210.54,-98.68ZM1263.24,818.229L1210.67,818.229L1210.67,761.341L1263.24,761.341L1263.24,818.229ZM1263.24,761.054L1210.67,761.054L1210.67,704.167L1263.24,704.167L1263.24,761.054ZM1263.24,703.596L1210.67,703.596L1210.67,646.709L1263.24,646.709L1263.24,703.596ZM1263.24,646.426L1210.67,646.426L1210.67,589.539L1263.24,589.539L1263.24,646.426ZM1263.24,588.964L1210.67,588.964L1210.67,532.076L1263.24,532.076L1263.24,588.964ZM1263.24,531.794L1210.67,531.794L1210.67,474.907L1263.24,474.907L1263.24,531.794ZM1263.24,474.336L1210.67,474.336L1210.67,417.449L1263.24,417.449L1263.24,474.336ZM1263.24,417.161L1210.67,417.161L1210.67,360.274L1263.24,360.274L1263.24,417.161ZM1263.24,359.704L1210.67,359.704L1210.67,302.817L1263.24,302.817L1263.24,359.704ZM1263.24,302.534L1210.67,302.534L1210.67,245.647L1263.24,245.647L1263.24,302.534ZM1263.24,245.071L1210.67,245.071L1210.67,188.184L1263.24,188.184L1263.24,245.071ZM1263.24,187.901L1210.67,187.901L1210.67,131.014L1263.24,131.014L1263.24,187.901ZM1263.24,130.444L1210.67,130.444L1210.67,73.557L1263.24,73.557L1263.24,130.444ZM1263.24,73.269L1210.67,73.269L1210.67,16.382L1263.24,16.382L1263.24,73.269ZM1263.24,15.812L1210.67,15.812L1210.67,-41.076L1263.24,-41.076L1263.24,15.812ZM1263.24,-41.358L1210.67,-41.358L1210.67,-98.246L1263.24,-98.246L1263.24,-41.358ZM1316.07,818.229L1263.5,818.229L1263.5,761.341L1316.07,761.341L1316.07,818.229ZM1316.07,761.054L1263.5,761.054L1263.5,704.167L1316.07,704.167L1316.07,761.054ZM1316.07,703.596L1263.5,703.596L1263.5,646.709L1316.07,646.709L1316.07,703.596ZM1316.07,646.426L1263.5,646.426L1263.5,589.539L1316.07,589.539L1316.07,646.426ZM1316.07,588.964L1263.5,588.964L1263.5,532.076L1316.07,532.076L1316.07,588.964ZM1316.07,531.794L1263.5,531.794L1263.5,474.907L1316.07,474.907L1316.07,531.794ZM1316.07,474.336L1263.5,474.336L1263.5,417.449L1316.07,417.449L1316.07,474.336ZM1316.07,417.161L1263.5,417.161L1263.5,360.274L1316.07,360.274L1316.07,417.161ZM1316.07,359.704L1263.5,359.704L1263.5,302.817L1316.07,302.817L1316.07,359.704ZM1316.07,302.534L1263.5,302.534L1263.5,245.647L1316.07,245.647L1316.07,302.534ZM1316.07,245.071L1263.5,245.071L1263.5,188.184L1316.07,188.184L1316.07,245.071ZM1316.07,187.901L1263.5,187.901L1263.5,131.014L1316.07,131.014L1316.07,187.901ZM1316.07,130.444L1263.5,130.444L1263.5,73.557L1316.07,73.557L1316.07,130.444ZM1316.07,73.269L1263.5,73.269L1263.5,16.382L1316.07,16.382L1316.07,73.269ZM1316.07,15.812L1263.5,15.812L1263.5,-41.076L1316.07,-41.076L1316.07,15.812ZM1316.07,-41.358L1263.5,-41.358L1263.5,-98.246L1316.07,-98.246L1316.07,-41.358ZM1316.47,818.365L1316.47,818.653L1316.2,818.653L1316.2,818.365L1316.47,818.365ZM1316.47,703.738L1316.47,704.025L1316.2,704.025L1316.2,703.738L1316.47,703.738ZM1316.47,589.105L1316.47,589.393L1316.2,589.393L1316.2,589.105L1316.47,589.105ZM1316.47,474.473L1316.47,474.76L1316.2,474.76L1316.2,474.473L1316.47,474.473ZM1316.47,359.845L1316.47,360.133L1316.2,360.133L1316.2,359.845L1316.47,359.845ZM1316.47,245.213L1316.47,245.5L1316.2,245.5L1316.2,245.213L1316.47,245.213ZM1316.47,130.58L1316.47,130.868L1316.2,130.868L1316.2,130.58L1316.47,130.58ZM1316.47,15.953L1316.47,16.241L1316.2,16.241L1316.2,15.953L1316.47,15.953ZM1316.47,-98.68L1316.47,-98.392L1316.2,-98.392L1316.2,-98.68L1316.47,-98.68ZM1369.16,818.229L1316.6,818.229L1316.6,761.341L1369.16,761.341L1369.16,818.229ZM1369.16,761.054L1316.6,761.054L1316.6,704.167L1369.16,704.167L1369.16,761.054ZM1369.16,703.596L1316.6,703.596L1316.6,646.709L1369.16,646.709L1369.16,703.596ZM1369.16,646.426L1316.6,646.426L1316.6,589.539L1369.16,589.539L1369.16,646.426ZM1369.16,588.964L1316.6,588.964L1316.6,532.076L1369.16,532.076L1369.16,588.964ZM1369.16,531.794L1316.6,531.794L1316.6,474.907L1369.16,474.907L1369.16,531.794ZM1369.16,474.336L1316.6,474.336L1316.6,417.449L1369.16,417.449L1369.16,474.336ZM1369.16,417.161L1316.6,417.161L1316.6,360.274L1369.16,360.274L1369.16,417.161ZM1369.16,359.704L1316.6,359.704L1316.6,302.817L1369.16,302.817L1369.16,359.704ZM1369.16,302.534L1316.6,302.534L1316.6,245.647L1369.16,245.647L1369.16,302.534ZM1369.16,245.071L1316.6,245.071L1316.6,188.184L1369.16,188.184L1369.16,245.071ZM1369.16,187.901L1316.6,187.901L1316.6,131.014L1369.16,131.014L1369.16,187.901ZM1369.16,130.444L1316.6,130.444L1316.6,73.557L1369.16,73.557L1369.16,130.444ZM1369.16,73.269L1316.6,73.269L1316.6,16.382L1369.16,16.382L1369.16,73.269ZM1369.16,15.812L1316.6,15.812L1316.6,-41.076L1369.16,-41.076L1369.16,15.812ZM1369.16,-41.358L1316.6,-41.358L1316.6,-98.246L1369.16,-98.246L1369.16,-41.358ZM1421.99,818.229L1369.42,818.229L1369.42,761.341L1421.99,761.341L1421.99,818.229ZM1421.99,761.054L1369.42,761.054L1369.42,704.167L1421.99,704.167L1421.99,761.054ZM1421.99,703.596L1369.42,703.596L1369.42,646.709L1421.99,646.709L1421.99,703.596ZM1421.99,646.426L1369.42,646.426L1369.42,589.539L1421.99,589.539L1421.99,646.426ZM1421.99,588.964L1369.42,588.964L1369.42,532.076L1421.99,532.076L1421.99,588.964ZM1421.99,531.794L1369.42,531.794L1369.42,474.907L1421.99,474.907L1421.99,531.794ZM1421.99,474.336L1369.42,474.336L1369.42,417.449L1421.99,417.449L1421.99,474.336ZM1421.99,417.161L1369.42,417.161L1369.42,360.274L1421.99,360.274L1421.99,417.161ZM1421.99,359.704L1369.42,359.704L1369.42,302.817L1421.99,302.817L1421.99,359.704ZM1421.99,302.534L1369.42,302.534L1369.42,245.647L1421.99,245.647L1421.99,302.534ZM1421.99,245.071L1369.42,245.071L1369.42,188.184L1421.99,188.184L1421.99,245.071ZM1421.99,187.901L1369.42,187.901L1369.42,131.014L1421.99,131.014L1421.99,187.901ZM1421.99,130.444L1369.42,130.444L1369.42,73.557L1421.99,73.557L1421.99,130.444ZM1421.99,73.269L1369.42,73.269L1369.42,16.382L1421.99,16.382L1421.99,73.269ZM1421.99,15.812L1369.42,15.812L1369.42,-41.076L1421.99,-41.076L1421.99,15.812ZM1421.99,-41.358L1369.42,-41.358L1369.42,-98.246L1421.99,-98.246L1421.99,-41.358ZM1422.39,818.365L1422.39,818.653L1422.12,818.653L1422.12,818.365L1422.39,818.365ZM1422.39,703.738L1422.39,704.025L1422.12,704.025L1422.12,703.738L1422.39,703.738ZM1422.39,589.105L1422.39,589.393L1422.12,589.393L1422.12,589.105L1422.39,589.105ZM1422.39,474.473L1422.39,474.76L1422.12,474.76L1422.12,474.473L1422.39,474.473ZM1422.39,359.845L1422.39,360.133L1422.12,360.133L1422.12,359.845L1422.39,359.845ZM1422.39,245.213L1422.39,245.5L1422.12,245.5L1422.12,245.213L1422.39,245.213ZM1422.39,130.58L1422.39,130.868L1422.12,130.868L1422.12,130.58L1422.39,130.58ZM1422.39,15.953L1422.39,16.241L1422.12,16.241L1422.12,15.953L1422.39,15.953ZM1422.39,-98.68L1422.39,-98.392L1422.12,-98.392L1422.12,-98.68L1422.39,-98.68ZM1475.09,818.229L1422.52,818.229L1422.52,761.341L1475.09,761.341L1475.09,818.229ZM1475.09,761.054L1422.52,761.054L1422.52,704.167L1475.09,704.167L1475.09,761.054ZM1475.09,703.596L1422.52,703.596L1422.52,646.709L1475.09,646.709L1475.09,703.596ZM1475.09,646.426L1422.52,646.426L1422.52,589.539L1475.09,589.539L1475.09,646.426ZM1475.09,588.964L1422.52,588.964L1422.52,532.076L1475.09,532.076L1475.09,588.964ZM1475.09,531.794L1422.52,531.794L1422.52,474.907L1475.09,474.907L1475.09,531.794ZM1475.09,474.336L1422.52,474.336L1422.52,417.449L1475.09,417.449L1475.09,474.336ZM1475.09,417.161L1422.52,417.161L1422.52,360.274L1475.09,360.274L1475.09,417.161ZM1475.09,359.704L1422.52,359.704L1422.52,302.817L1475.09,302.817L1475.09,359.704ZM1475.09,302.534L1422.52,302.534L1422.52,245.647L1475.09,245.647L1475.09,302.534ZM1475.09,245.071L1422.52,245.071L1422.52,188.184L1475.09,188.184L1475.09,245.071ZM1475.09,187.901L1422.52,187.901L1422.52,131.014L1475.09,131.014L1475.09,187.901ZM1475.09,130.444L1422.52,130.444L1422.52,73.557L1475.09,73.557L1475.09,130.444ZM1475.09,73.269L1422.52,73.269L1422.52,16.382L1475.09,16.382L1475.09,73.269ZM1475.09,15.812L1422.52,15.812L1422.52,-41.076L1475.09,-41.076L1475.09,15.812ZM1475.09,-41.358L1422.52,-41.358L1422.52,-98.246L1475.09,-98.246L1475.09,-41.358ZM1527.92,818.229L1475.35,818.229L1475.35,761.341L1527.92,761.341L1527.92,818.229ZM1527.92,761.054L1475.35,761.054L1475.35,704.167L1527.92,704.167L1527.92,761.054ZM1527.92,703.596L1475.35,703.596L1475.35,646.709L1527.92,646.709L1527.92,703.596ZM1527.92,646.426L1475.35,646.426L1475.35,589.539L1527.92,589.539L1527.92,646.426ZM1527.92,588.964L1475.35,588.964L1475.35,532.076L1527.92,532.076L1527.92,588.964ZM1527.92,531.794L1475.35,531.794L1475.35,474.907L1527.92,474.907L1527.92,531.794ZM1527.92,474.336L1475.35,474.336L1475.35,417.449L1527.92,417.449L1527.92,474.336ZM1527.92,417.161L1475.35,417.161L1475.35,360.274L1527.92,360.274L1527.92,417.161ZM1527.92,359.704L1475.35,359.704L1475.35,302.817L1527.92,302.817L1527.92,359.704ZM1527.92,302.534L1475.35,302.534L1475.35,245.647L1527.92,245.647L1527.92,302.534ZM1527.92,245.071L1475.35,245.071L1475.35,188.184L1527.92,188.184L1527.92,245.071ZM1527.92,187.901L1475.35,187.901L1475.35,131.014L1527.92,131.014L1527.92,187.901ZM1527.92,130.444L1475.35,130.444L1475.35,73.557L1527.92,73.557L1527.92,130.444ZM1527.92,73.269L1475.35,73.269L1475.35,16.382L1527.92,16.382L1527.92,73.269ZM1527.92,15.812L1475.35,15.812L1475.35,-41.076L1527.92,-41.076L1527.92,15.812ZM1527.92,-41.358L1475.35,-41.358L1475.35,-98.246L1527.92,-98.246L1527.92,-41.358ZM1528.32,818.365L1528.32,818.653L1528.05,818.653L1528.05,818.365L1528.32,818.365ZM1528.32,703.738L1528.32,704.025L1528.05,704.025L1528.05,703.738L1528.32,703.738ZM1528.32,589.105L1528.32,589.393L1528.05,589.393L1528.05,589.105L1528.32,589.105ZM1528.32,474.473L1528.32,474.76L1528.05,474.76L1528.05,474.473L1528.32,474.473ZM1528.32,359.845L1528.32,360.133L1528.05,360.133L1528.05,359.845L1528.32,359.845ZM1528.32,245.213L1528.32,245.5L1528.05,245.5L1528.05,245.213L1528.32,245.213ZM1528.32,130.58L1528.32,130.868L1528.05,130.868L1528.05,130.58L1528.32,130.58ZM1528.32,15.953L1528.32,16.241L1528.05,16.241L1528.05,15.953L1528.32,15.953ZM1528.32,-98.68L1528.32,-98.392L1528.05,-98.392L1528.05,-98.68L1528.32,-98.68ZM1581.01,818.229L1528.45,818.229L1528.45,761.341L1581.01,761.341L1581.01,818.229ZM1581.01,761.054L1528.45,761.054L1528.45,704.167L1581.01,704.167L1581.01,761.054ZM1581.01,703.596L1528.45,703.596L1528.45,646.709L1581.01,646.709L1581.01,703.596ZM1581.01,646.426L1528.45,646.426L1528.45,589.539L1581.01,589.539L1581.01,646.426ZM1581.01,588.964L1528.45,588.964L1528.45,532.076L1581.01,532.076L1581.01,588.964ZM1581.01,531.794L1528.45,531.794L1528.45,474.907L1581.01,474.907L1581.01,531.794ZM1581.01,474.336L1528.45,474.336L1528.45,417.449L1581.01,417.449L1581.01,474.336ZM1581.01,417.161L1528.45,417.161L1528.45,360.274L1581.01,360.274L1581.01,417.161ZM1581.01,359.704L1528.45,359.704L1528.45,302.817L1581.01,302.817L1581.01,359.704ZM1581.01,302.534L1528.45,302.534L1528.45,245.647L1581.01,245.647L1581.01,302.534ZM1581.01,245.071L1528.45,245.071L1528.45,188.184L1581.01,188.184L1581.01,245.071ZM1581.01,187.901L1528.45,187.901L1528.45,131.014L1581.01,131.014L1581.01,187.901ZM1581.01,130.444L1528.45,130.444L1528.45,73.557L1581.01,73.557L1581.01,130.444ZM1581.01,73.269L1528.45,73.269L1528.45,16.382L1581.01,16.382L1581.01,73.269ZM1581.01,15.812L1528.45,15.812L1528.45,-41.076L1581.01,-41.076L1581.01,15.812ZM1581.01,-41.358L1528.45,-41.358L1528.45,-98.246L1581.01,-98.246L1581.01,-41.358ZM1633.84,818.229L1581.27,818.229L1581.27,761.341L1633.84,761.341L1633.84,818.229ZM1633.84,761.054L1581.27,761.054L1581.27,704.167L1633.84,704.167L1633.84,761.054ZM1633.84,703.596L1581.27,703.596L1581.27,646.709L1633.84,646.709L1633.84,703.596ZM1633.84,646.426L1581.27,646.426L1581.27,589.539L1633.84,589.539L1633.84,646.426ZM1633.84,588.964L1581.27,588.964L1581.27,532.076L1633.84,532.076L1633.84,588.964ZM1633.84,531.794L1581.27,531.794L1581.27,474.907L1633.84,474.907L1633.84,531.794ZM1633.84,474.336L1581.27,474.336L1581.27,417.449L1633.84,417.449L1633.84,474.336ZM1633.84,417.161L1581.27,417.161L1581.27,360.274L1633.84,360.274L1633.84,417.161ZM1633.84,359.704L1581.27,359.704L1581.27,302.817L1633.84,302.817L1633.84,359.704ZM1633.84,302.534L1581.27,302.534L1581.27,245.647L1633.84,245.647L1633.84,302.534ZM1633.84,245.071L1581.27,245.071L1581.27,188.184L1633.84,188.184L1633.84,245.071ZM1633.84,187.901L1581.27,187.901L1581.27,131.014L1633.84,131.014L1633.84,187.901ZM1633.84,130.444L1581.27,130.444L1581.27,73.557L1633.84,73.557L1633.84,130.444ZM1633.84,73.269L1581.27,73.269L1581.27,16.382L1633.84,16.382L1633.84,73.269ZM1633.84,15.812L1581.27,15.812L1581.27,-41.076L1633.84,-41.076L1633.84,15.812ZM1633.84,-41.358L1581.27,-41.358L1581.27,-98.246L1633.84,-98.246L1633.84,-41.358ZM1634.24,818.365L1634.24,818.653L1633.97,818.653L1633.97,818.365L1634.24,818.365ZM1634.24,703.738L1634.24,704.025L1633.97,704.025L1633.97,703.738L1634.24,703.738ZM1634.24,589.105L1634.24,589.393L1633.97,589.393L1633.97,589.105L1634.24,589.105ZM1634.24,474.473L1634.24,474.76L1633.97,474.76L1633.97,474.473L1634.24,474.473ZM1634.24,359.845L1634.24,360.133L1633.97,360.133L1633.97,359.845L1634.24,359.845ZM1634.24,245.213L1634.24,245.5L1633.97,245.5L1633.97,245.213L1634.24,245.213ZM1634.24,130.58L1634.24,130.868L1633.97,130.868L1633.97,130.58L1634.24,130.58ZM1634.24,15.953L1634.24,16.241L1633.97,16.241L1633.97,15.953L1634.24,15.953ZM1634.24,-98.68L1634.24,-98.392L1633.97,-98.392L1633.97,-98.68L1634.24,-98.68ZM1686.94,818.229L1634.37,818.229L1634.37,761.341L1686.94,761.341L1686.94,818.229ZM1686.94,761.054L1634.37,761.054L1634.37,704.167L1686.94,704.167L1686.94,761.054ZM1686.94,703.596L1634.37,703.596L1634.37,646.709L1686.94,646.709L1686.94,703.596ZM1686.94,646.426L1634.37,646.426L1634.37,589.539L1686.94,589.539L1686.94,646.426ZM1686.94,588.964L1634.37,588.964L1634.37,532.076L1686.94,532.076L1686.94,588.964ZM1686.94,531.794L1634.37,531.794L1634.37,474.907L1686.94,474.907L1686.94,531.794ZM1686.94,474.336L1634.37,474.336L1634.37,417.449L1686.94,417.449L1686.94,474.336ZM1686.94,417.161L1634.37,417.161L1634.37,360.274L1686.94,360.274L1686.94,417.161ZM1686.94,359.704L1634.37,359.704L1634.37,302.817L1686.94,302.817L1686.94,359.704ZM1686.94,302.534L1634.37,302.534L1634.37,245.647L1686.94,245.647L1686.94,302.534ZM1686.94,245.071L1634.37,245.071L1634.37,188.184L1686.94,188.184L1686.94,245.071ZM1686.94,187.901L1634.37,187.901L1634.37,131.014L1686.94,131.014L1686.94,187.901ZM1686.94,130.444L1634.37,130.444L1634.37,73.557L1686.94,73.557L1686.94,130.444ZM1686.94,73.269L1634.37,73.269L1634.37,16.382L1686.94,16.382L1686.94,73.269ZM1686.94,15.812L1634.37,15.812L1634.37,-41.076L1686.94,-41.076L1686.94,15.812ZM1686.94,-41.358L1634.37,-41.358L1634.37,-98.246L1686.94,-98.246L1686.94,-41.358ZM1739.77,818.229L1687.2,818.229L1687.2,761.341L1739.77,761.341L1739.77,818.229ZM1739.77,761.054L1687.2,761.054L1687.2,704.167L1739.77,704.167L1739.77,761.054ZM1739.77,703.596L1687.2,703.596L1687.2,646.709L1739.77,646.709L1739.77,703.596ZM1739.77,646.426L1687.2,646.426L1687.2,589.539L1739.77,589.539L1739.77,646.426ZM1739.77,588.964L1687.2,588.964L1687.2,532.076L1739.77,532.076L1739.77,588.964ZM1739.77,531.794L1687.2,531.794L1687.2,474.907L1739.77,474.907L1739.77,531.794ZM1739.77,474.336L1687.2,474.336L1687.2,417.449L1739.77,417.449L1739.77,474.336ZM1739.77,417.161L1687.2,417.161L1687.2,360.274L1739.77,360.274L1739.77,417.161ZM1739.77,359.704L1687.2,359.704L1687.2,302.817L1739.77,302.817L1739.77,359.704ZM1739.77,302.534L1687.2,302.534L1687.2,245.647L1739.77,245.647L1739.77,302.534ZM1739.77,245.071L1687.2,245.071L1687.2,188.184L1739.77,188.184L1739.77,245.071ZM1739.77,187.901L1687.2,187.901L1687.2,131.014L1739.77,131.014L1739.77,187.901ZM1739.77,130.444L1687.2,130.444L1687.2,73.557L1739.77,73.557L1739.77,130.444ZM1739.77,73.269L1687.2,73.269L1687.2,16.382L1739.77,16.382L1739.77,73.269ZM1739.77,15.812L1687.2,15.812L1687.2,-41.076L1739.77,-41.076L1739.77,15.812ZM1739.77,-41.358L1687.2,-41.358L1687.2,-98.246L1739.77,-98.246L1739.77,-41.358ZM1740.16,818.365L1740.16,818.653L1739.9,818.653L1739.9,818.365L1740.16,818.365ZM1740.16,703.738L1740.16,704.025L1739.9,704.025L1739.9,703.738L1740.16,703.738ZM1740.16,589.105L1740.16,589.393L1739.9,589.393L1739.9,589.105L1740.16,589.105ZM1740.16,474.473L1740.16,474.76L1739.9,474.76L1739.9,474.473L1740.16,474.473ZM1740.16,359.845L1740.16,360.133L1739.9,360.133L1739.9,359.845L1740.16,359.845ZM1740.16,245.213L1740.16,245.5L1739.9,245.5L1739.9,245.213L1740.16,245.213ZM1740.16,130.58L1740.16,130.868L1739.9,130.868L1739.9,130.58L1740.16,130.58ZM1740.16,15.953L1740.16,16.241L1739.9,16.241L1739.9,15.953L1740.16,15.953ZM1740.16,-98.68L1740.16,-98.392L1739.9,-98.392L1739.9,-98.68L1740.16,-98.68ZM1792.86,818.229L1740.3,818.229L1740.3,761.341L1792.86,761.341L1792.86,818.229ZM1792.86,761.054L1740.3,761.054L1740.3,704.167L1792.86,704.167L1792.86,761.054ZM1792.86,703.596L1740.3,703.596L1740.3,646.709L1792.86,646.709L1792.86,703.596ZM1792.86,646.426L1740.3,646.426L1740.3,589.539L1792.86,589.539L1792.86,646.426ZM1792.86,588.964L1740.3,588.964L1740.3,532.076L1792.86,532.076L1792.86,588.964ZM1792.86,531.794L1740.3,531.794L1740.3,474.907L1792.86,474.907L1792.86,531.794ZM1792.86,474.336L1740.3,474.336L1740.3,417.449L1792.86,417.449L1792.86,474.336ZM1792.86,417.161L1740.3,417.161L1740.3,360.274L1792.86,360.274L1792.86,417.161ZM1792.86,359.704L1740.3,359.704L1740.3,302.817L1792.86,302.817L1792.86,359.704ZM1792.86,302.534L1740.3,302.534L1740.3,245.647L1792.86,245.647L1792.86,302.534ZM1792.86,245.071L1740.3,245.071L1740.3,188.184L1792.86,188.184L1792.86,245.071ZM1792.86,187.901L1740.3,187.901L1740.3,131.014L1792.86,131.014L1792.86,187.901ZM1792.86,130.444L1740.3,130.444L1740.3,73.557L1792.86,73.557L1792.86,130.444ZM1792.86,73.269L1740.3,73.269L1740.3,16.382L1792.86,16.382L1792.86,73.269ZM1792.86,15.812L1740.3,15.812L1740.3,-41.076L1792.86,-41.076L1792.86,15.812ZM1792.86,-41.358L1740.3,-41.358L1740.3,-98.246L1792.86,-98.246L1792.86,-41.358ZM1845.7,818.229L1793.13,818.229L1793.13,761.341L1845.7,761.341L1845.7,818.229ZM1845.7,761.054L1793.13,761.054L1793.13,704.167L1845.7,704.167L1845.7,761.054ZM1845.7,703.596L1793.13,703.596L1793.13,646.709L1845.7,646.709L1845.7,703.596ZM1845.7,646.426L1793.13,646.426L1793.13,589.539L1845.7,589.539L1845.7,646.426ZM1845.7,588.964L1793.13,588.964L1793.13,532.076L1845.7,532.076L1845.7,588.964ZM1845.7,531.794L1793.13,531.794L1793.13,474.907L1845.7,474.907L1845.7,531.794ZM1845.7,474.336L1793.13,474.336L1793.13,417.449L1845.7,417.449L1845.7,474.336ZM1845.7,417.161L1793.13,417.161L1793.13,360.274L1845.7,360.274L1845.7,417.161ZM1845.7,359.704L1793.13,359.704L1793.13,302.817L1845.7,302.817L1845.7,359.704ZM1845.7,302.534L1793.13,302.534L1793.13,245.647L1845.7,245.647L1845.7,302.534ZM1845.7,245.071L1793.13,245.071L1793.13,188.184L1845.7,188.184L1845.7,245.071ZM1845.7,187.901L1793.13,187.901L1793.13,131.014L1845.7,131.014L1845.7,187.901ZM1845.7,130.444L1793.13,130.444L1793.13,73.557L1845.7,73.557L1845.7,130.444ZM1845.7,73.269L1793.13,73.269L1793.13,16.382L1845.7,16.382L1845.7,73.269ZM1845.7,15.812L1793.13,15.812L1793.13,-41.076L1845.7,-41.076L1845.7,15.812ZM1845.7,-41.358L1793.13,-41.358L1793.13,-98.246L1845.7,-98.246L1845.7,-41.358ZM1846.09,818.365L1846.09,818.653L1845.83,818.653L1845.83,818.365L1846.09,818.365ZM1846.09,703.738L1846.09,704.025L1845.83,704.025L1845.83,703.738L1846.09,703.738ZM1846.09,589.105L1846.09,589.393L1845.83,589.393L1845.83,589.105L1846.09,589.105ZM1846.09,474.473L1846.09,474.76L1845.83,474.76L1845.83,474.473L1846.09,474.473ZM1846.09,359.845L1846.09,360.133L1845.83,360.133L1845.83,359.845L1846.09,359.845ZM1846.09,245.213L1846.09,245.5L1845.83,245.5L1845.83,245.213L1846.09,245.213ZM1846.09,130.58L1846.09,130.868L1845.83,130.868L1845.83,130.58L1846.09,130.58ZM1846.09,15.953L1846.09,16.241L1845.83,16.241L1845.83,15.953L1846.09,15.953ZM1846.09,-98.68L1846.09,-98.392L1845.83,-98.392L1845.83,-98.68L1846.09,-98.68ZM1898.79,818.229L1846.22,818.229L1846.22,761.341L1898.79,761.341L1898.79,818.229ZM1898.79,761.054L1846.22,761.054L1846.22,704.167L1898.79,704.167L1898.79,761.054ZM1898.79,703.596L1846.22,703.596L1846.22,646.709L1898.79,646.709L1898.79,703.596ZM1898.79,646.426L1846.22,646.426L1846.22,589.539L1898.79,589.539L1898.79,646.426ZM1898.79,588.964L1846.22,588.964L1846.22,532.076L1898.79,532.076L1898.79,588.964ZM1898.79,531.794L1846.22,531.794L1846.22,474.907L1898.79,474.907L1898.79,531.794ZM1898.79,474.336L1846.22,474.336L1846.22,417.449L1898.79,417.449L1898.79,474.336ZM1898.79,417.161L1846.22,417.161L1846.22,360.274L1898.79,360.274L1898.79,417.161ZM1898.79,359.704L1846.22,359.704L1846.22,302.817L1898.79,302.817L1898.79,359.704ZM1898.79,302.534L1846.22,302.534L1846.22,245.647L1898.79,245.647L1898.79,302.534ZM1898.79,245.071L1846.22,245.071L1846.22,188.184L1898.79,188.184L1898.79,245.071ZM1898.79,187.901L1846.22,187.901L1846.22,131.014L1898.79,131.014L1898.79,187.901ZM1898.79,130.444L1846.22,130.444L1846.22,73.557L1898.79,73.557L1898.79,130.444ZM1898.79,73.269L1846.22,73.269L1846.22,16.382L1898.79,16.382L1898.79,73.269ZM1898.79,15.812L1846.22,15.812L1846.22,-41.076L1898.79,-41.076L1898.79,15.812ZM1898.79,-41.358L1846.22,-41.358L1846.22,-98.246L1898.79,-98.246L1898.79,-41.358ZM1951.62,818.229L1899.05,818.229L1899.05,761.341L1951.62,761.341L1951.62,818.229ZM1951.62,761.054L1899.05,761.054L1899.05,704.167L1951.62,704.167L1951.62,761.054ZM1951.62,703.596L1899.05,703.596L1899.05,646.709L1951.62,646.709L1951.62,703.596ZM1951.62,646.426L1899.05,646.426L1899.05,589.539L1951.62,589.539L1951.62,646.426ZM1951.62,588.964L1899.05,588.964L1899.05,532.076L1951.62,532.076L1951.62,588.964ZM1951.62,531.794L1899.05,531.794L1899.05,474.907L1951.62,474.907L1951.62,531.794ZM1951.62,474.336L1899.05,474.336L1899.05,417.449L1951.62,417.449L1951.62,474.336ZM1951.62,417.161L1899.05,417.161L1899.05,360.274L1951.62,360.274L1951.62,417.161ZM1951.62,359.704L1899.05,359.704L1899.05,302.817L1951.62,302.817L1951.62,359.704ZM1951.62,302.534L1899.05,302.534L1899.05,245.647L1951.62,245.647L1951.62,302.534ZM1951.62,245.071L1899.05,245.071L1899.05,188.184L1951.62,188.184L1951.62,245.071ZM1951.62,187.901L1899.05,187.901L1899.05,131.014L1951.62,131.014L1951.62,187.901ZM1951.62,130.444L1899.05,130.444L1899.05,73.557L1951.62,73.557L1951.62,130.444ZM1951.62,73.269L1899.05,73.269L1899.05,16.382L1951.62,16.382L1951.62,73.269ZM1951.62,15.812L1899.05,15.812L1899.05,-41.076L1951.62,-41.076L1951.62,15.812ZM1951.62,-41.358L1899.05,-41.358L1899.05,-98.246L1951.62,-98.246L1951.62,-41.358ZM1952.01,818.365L1952.01,818.653L1951.75,818.653L1951.75,818.365L1952.01,818.365ZM1952.01,703.738L1952.01,704.025L1951.75,704.025L1951.75,703.738L1952.01,703.738ZM1952.01,589.105L1952.01,589.393L1951.75,589.393L1951.75,589.105L1952.01,589.105ZM1952.01,474.473L1952.01,474.76L1951.75,474.76L1951.75,474.473L1952.01,474.473ZM1952.01,359.845L1952.01,360.133L1951.75,360.133L1951.75,359.845L1952.01,359.845ZM1952.01,245.213L1952.01,245.5L1951.75,245.5L1951.75,245.213L1952.01,245.213ZM1952.01,130.58L1952.01,130.868L1951.75,130.868L1951.75,130.58L1952.01,130.58ZM1952.01,15.953L1952.01,16.241L1951.75,16.241L1951.75,15.953L1952.01,15.953ZM1952.01,-98.68L1952.01,-98.392L1951.75,-98.392L1951.75,-98.68L1952.01,-98.68ZM2004.72,818.229L1952.15,818.229L1952.15,761.341L2004.72,761.341L2004.72,818.229ZM2004.72,761.054L1952.15,761.054L1952.15,704.167L2004.72,704.167L2004.72,761.054ZM2004.72,703.596L1952.15,703.596L1952.15,646.709L2004.72,646.709L2004.72,703.596ZM2004.72,646.426L1952.15,646.426L1952.15,589.539L2004.72,589.539L2004.72,646.426ZM2004.72,588.964L1952.15,588.964L1952.15,532.076L2004.72,532.076L2004.72,588.964ZM2004.72,531.794L1952.15,531.794L1952.15,474.907L2004.72,474.907L2004.72,531.794ZM2004.72,474.336L1952.15,474.336L1952.15,417.449L2004.72,417.449L2004.72,474.336ZM2004.72,417.161L1952.15,417.161L1952.15,360.274L2004.72,360.274L2004.72,417.161ZM2004.72,359.704L1952.15,359.704L1952.15,302.817L2004.72,302.817L2004.72,359.704ZM2004.72,302.534L1952.15,302.534L1952.15,245.647L2004.72,245.647L2004.72,302.534ZM2004.72,245.071L1952.15,245.071L1952.15,188.184L2004.72,188.184L2004.72,245.071ZM2004.72,187.901L1952.15,187.901L1952.15,131.014L2004.72,131.014L2004.72,187.901ZM2004.72,130.444L1952.15,130.444L1952.15,73.557L2004.72,73.557L2004.72,130.444ZM2004.72,73.269L1952.15,73.269L1952.15,16.382L2004.72,16.382L2004.72,73.269ZM2004.72,15.812L1952.15,15.812L1952.15,-41.076L2004.72,-41.076L2004.72,15.812ZM2004.72,-41.358L1952.15,-41.358L1952.15,-98.246L2004.72,-98.246L2004.72,-41.358ZM2057.54,818.229L2004.98,818.229L2004.98,761.341L2057.54,761.341L2057.54,818.229ZM2057.54,761.054L2004.98,761.054L2004.98,704.167L2057.54,704.167L2057.54,761.054ZM2057.54,703.596L2004.98,703.596L2004.98,646.709L2057.54,646.709L2057.54,703.596ZM2057.54,646.426L2004.98,646.426L2004.98,589.539L2057.54,589.539L2057.54,646.426ZM2057.54,588.964L2004.98,588.964L2004.98,532.076L2057.54,532.076L2057.54,588.964ZM2057.54,531.794L2004.98,531.794L2004.98,474.907L2057.54,474.907L2057.54,531.794ZM2057.54,474.336L2004.98,474.336L2004.98,417.449L2057.54,417.449L2057.54,474.336ZM2057.54,417.161L2004.98,417.161L2004.98,360.274L2057.54,360.274L2057.54,417.161ZM2057.54,359.704L2004.98,359.704L2004.98,302.817L2057.54,302.817L2057.54,359.704ZM2057.54,302.534L2004.98,302.534L2004.98,245.647L2057.54,245.647L2057.54,302.534ZM2057.54,245.071L2004.98,245.071L2004.98,188.184L2057.54,188.184L2057.54,245.071ZM2057.54,187.901L2004.98,187.901L2004.98,131.014L2057.54,131.014L2057.54,187.901ZM2057.54,130.444L2004.98,130.444L2004.98,73.557L2057.54,73.557L2057.54,130.444ZM2057.54,73.269L2004.98,73.269L2004.98,16.382L2057.54,16.382L2057.54,73.269ZM2057.54,15.812L2004.98,15.812L2004.98,-41.076L2057.54,-41.076L2057.54,15.812ZM2057.54,-41.358L2004.98,-41.358L2004.98,-98.246L2057.54,-98.246L2057.54,-41.358ZM2057.94,818.365L2057.94,818.653L2057.68,818.653L2057.68,818.365L2057.94,818.365ZM2057.94,703.738L2057.94,704.025L2057.68,704.025L2057.68,703.738L2057.94,703.738ZM2057.94,589.105L2057.94,589.393L2057.68,589.393L2057.68,589.105L2057.94,589.105ZM2057.94,474.473L2057.94,474.76L2057.68,474.76L2057.68,474.473L2057.94,474.473ZM2057.94,359.845L2057.94,360.133L2057.68,360.133L2057.68,359.845L2057.94,359.845ZM2057.94,245.213L2057.94,245.5L2057.68,245.5L2057.68,245.213L2057.94,245.213ZM2057.94,130.58L2057.94,130.868L2057.68,130.868L2057.68,130.58L2057.94,130.58ZM2057.94,15.953L2057.94,16.241L2057.68,16.241L2057.68,15.953L2057.94,15.953ZM2057.94,-98.68L2057.94,-98.392L2057.68,-98.392L2057.68,-98.68L2057.94,-98.68ZM2110.64,818.229L2058.07,818.229L2058.07,761.341L2110.64,761.341L2110.64,818.229ZM2110.64,761.054L2058.07,761.054L2058.07,704.167L2110.64,704.167L2110.64,761.054ZM2110.64,703.596L2058.07,703.596L2058.07,646.709L2110.64,646.709L2110.64,703.596ZM2110.64,646.426L2058.07,646.426L2058.07,589.539L2110.64,589.539L2110.64,646.426ZM2110.64,588.964L2058.07,588.964L2058.07,532.076L2110.64,532.076L2110.64,588.964ZM2110.64,531.794L2058.07,531.794L2058.07,474.907L2110.64,474.907L2110.64,531.794ZM2110.64,474.336L2058.07,474.336L2058.07,417.449L2110.64,417.449L2110.64,474.336ZM2110.64,417.161L2058.07,417.161L2058.07,360.274L2110.64,360.274L2110.64,417.161ZM2110.64,359.704L2058.07,359.704L2058.07,302.817L2110.64,302.817L2110.64,359.704ZM2110.64,302.534L2058.07,302.534L2058.07,245.647L2110.64,245.647L2110.64,302.534ZM2110.64,245.071L2058.07,245.071L2058.07,188.184L2110.64,188.184L2110.64,245.071ZM2110.64,187.901L2058.07,187.901L2058.07,131.014L2110.64,131.014L2110.64,187.901ZM2110.64,130.444L2058.07,130.444L2058.07,73.557L2110.64,73.557L2110.64,130.444ZM2110.64,73.269L2058.07,73.269L2058.07,16.382L2110.64,16.382L2110.64,73.269ZM2110.64,15.812L2058.07,15.812L2058.07,-41.076L2110.64,-41.076L2110.64,15.812ZM2110.64,-41.358L2058.07,-41.358L2058.07,-98.246L2110.64,-98.246L2110.64,-41.358ZM2163.47,818.229L2110.9,818.229L2110.9,761.341L2163.47,761.341L2163.47,818.229ZM2163.47,761.054L2110.9,761.054L2110.9,704.167L2163.47,704.167L2163.47,761.054ZM2163.47,703.596L2110.9,703.596L2110.9,646.709L2163.47,646.709L2163.47,703.596ZM2163.47,646.426L2110.9,646.426L2110.9,589.539L2163.47,589.539L2163.47,646.426ZM2163.47,588.964L2110.9,588.964L2110.9,532.076L2163.47,532.076L2163.47,588.964ZM2163.47,531.794L2110.9,531.794L2110.9,474.907L2163.47,474.907L2163.47,531.794ZM2163.47,474.336L2110.9,474.336L2110.9,417.449L2163.47,417.449L2163.47,474.336ZM2163.47,417.161L2110.9,417.161L2110.9,360.274L2163.47,360.274L2163.47,417.161ZM2163.47,359.704L2110.9,359.704L2110.9,302.817L2163.47,302.817L2163.47,359.704ZM2163.47,302.534L2110.9,302.534L2110.9,245.647L2163.47,245.647L2163.47,302.534ZM2163.47,245.071L2110.9,245.071L2110.9,188.184L2163.47,188.184L2163.47,245.071ZM2163.47,187.901L2110.9,187.901L2110.9,131.014L2163.47,131.014L2163.47,187.901ZM2163.47,130.444L2110.9,130.444L2110.9,73.557L2163.47,73.557L2163.47,130.444ZM2163.47,73.269L2110.9,73.269L2110.9,16.382L2163.47,16.382L2163.47,73.269ZM2163.47,15.812L2110.9,15.812L2110.9,-41.076L2163.47,-41.076L2163.47,15.812ZM2163.47,-41.358L2110.9,-41.358L2110.9,-98.246L2163.47,-98.246L2163.47,-41.358ZM2163.87,818.365L2163.87,818.653L2163.6,818.653L2163.6,818.365L2163.87,818.365ZM2163.87,703.738L2163.87,704.025L2163.6,704.025L2163.6,703.738L2163.87,703.738ZM2163.87,589.105L2163.87,589.393L2163.6,589.393L2163.6,589.105L2163.87,589.105ZM2163.87,474.473L2163.87,474.76L2163.6,474.76L2163.6,474.473L2163.87,474.473ZM2163.87,359.845L2163.87,360.133L2163.6,360.133L2163.6,359.845L2163.87,359.845ZM2163.87,245.213L2163.87,245.5L2163.6,245.5L2163.6,245.213L2163.87,245.213ZM2163.87,130.58L2163.87,130.868L2163.6,130.868L2163.6,130.58L2163.87,130.58ZM2163.87,15.953L2163.87,16.241L2163.6,16.241L2163.6,15.953L2163.87,15.953ZM2163.87,-98.68L2163.87,-98.392L2163.6,-98.392L2163.6,-98.68L2163.87,-98.68ZM2216.57,818.229L2164,818.229L2164,761.341L2216.57,761.341L2216.57,818.229ZM2216.57,761.054L2164,761.054L2164,704.167L2216.57,704.167L2216.57,761.054ZM2216.57,703.596L2164,703.596L2164,646.709L2216.57,646.709L2216.57,703.596ZM2216.57,646.426L2164,646.426L2164,589.539L2216.57,589.539L2216.57,646.426ZM2216.57,588.964L2164,588.964L2164,532.076L2216.57,532.076L2216.57,588.964ZM2216.57,531.794L2164,531.794L2164,474.907L2216.57,474.907L2216.57,531.794ZM2216.57,474.336L2164,474.336L2164,417.449L2216.57,417.449L2216.57,474.336ZM2216.57,417.161L2164,417.161L2164,360.274L2216.57,360.274L2216.57,417.161ZM2216.57,359.704L2164,359.704L2164,302.817L2216.57,302.817L2216.57,359.704ZM2216.57,302.534L2164,302.534L2164,245.647L2216.57,245.647L2216.57,302.534ZM2216.57,245.071L2164,245.071L2164,188.184L2216.57,188.184L2216.57,245.071ZM2216.57,187.901L2164,187.901L2164,131.014L2216.57,131.014L2216.57,187.901ZM2216.57,130.444L2164,130.444L2164,73.557L2216.57,73.557L2216.57,130.444ZM2216.57,73.269L2164,73.269L2164,16.382L2216.57,16.382L2216.57,73.269ZM2216.57,15.812L2164,15.812L2164,-41.076L2216.57,-41.076L2216.57,15.812ZM2216.57,-41.358L2164,-41.358L2164,-98.246L2216.57,-98.246L2216.57,-41.358ZM2269.39,818.229L2216.83,818.229L2216.83,761.341L2269.39,761.341L2269.39,818.229ZM2269.39,761.054L2216.83,761.054L2216.83,704.167L2269.39,704.167L2269.39,761.054ZM2269.39,703.596L2216.83,703.596L2216.83,646.709L2269.39,646.709L2269.39,703.596ZM2269.39,646.426L2216.83,646.426L2216.83,589.539L2269.39,589.539L2269.39,646.426ZM2269.39,588.964L2216.83,588.964L2216.83,532.076L2269.39,532.076L2269.39,588.964ZM2269.39,531.794L2216.83,531.794L2216.83,474.907L2269.39,474.907L2269.39,531.794ZM2269.39,474.336L2216.83,474.336L2216.83,417.449L2269.39,417.449L2269.39,474.336ZM2269.39,417.161L2216.83,417.161L2216.83,360.274L2269.39,360.274L2269.39,417.161ZM2269.39,359.704L2216.83,359.704L2216.83,302.817L2269.39,302.817L2269.39,359.704ZM2269.39,302.534L2216.83,302.534L2216.83,245.647L2269.39,245.647L2269.39,302.534ZM2269.39,245.071L2216.83,245.071L2216.83,188.184L2269.39,188.184L2269.39,245.071ZM2269.39,187.901L2216.83,187.901L2216.83,131.014L2269.39,131.014L2269.39,187.901ZM2269.39,130.444L2216.83,130.444L2216.83,73.557L2269.39,73.557L2269.39,130.444ZM2269.39,73.269L2216.83,73.269L2216.83,16.382L2269.39,16.382L2269.39,73.269ZM2269.39,15.812L2216.83,15.812L2216.83,-41.076L2269.39,-41.076L2269.39,15.812ZM2269.39,-41.358L2216.83,-41.358L2216.83,-98.246L2269.39,-98.246L2269.39,-41.358ZM2269.79,818.365L2269.79,818.653L2269.52,818.653L2269.52,818.365L2269.79,818.365ZM2269.79,703.738L2269.79,704.025L2269.52,704.025L2269.52,703.738L2269.79,703.738ZM2269.79,589.105L2269.79,589.393L2269.52,589.393L2269.52,589.105L2269.79,589.105ZM2269.79,474.473L2269.79,474.76L2269.52,474.76L2269.52,474.473L2269.79,474.473ZM2269.79,359.845L2269.79,360.133L2269.52,360.133L2269.52,359.845L2269.79,359.845ZM2269.79,245.213L2269.79,245.5L2269.52,245.5L2269.52,245.213L2269.79,245.213ZM2269.79,130.58L2269.79,130.868L2269.52,130.868L2269.52,130.58L2269.79,130.58ZM2269.79,15.953L2269.79,16.241L2269.52,16.241L2269.52,15.953L2269.79,15.953ZM2269.79,-98.68L2269.79,-98.392L2269.52,-98.392L2269.52,-98.68L2269.79,-98.68ZM2322.49,818.229L2269.93,818.229L2269.93,761.341L2322.49,761.341L2322.49,818.229ZM2322.49,761.054L2269.93,761.054L2269.93,704.167L2322.49,704.167L2322.49,761.054ZM2322.49,703.596L2269.93,703.596L2269.93,646.709L2322.49,646.709L2322.49,703.596ZM2322.49,646.426L2269.93,646.426L2269.93,589.539L2322.49,589.539L2322.49,646.426ZM2322.49,588.964L2269.93,588.964L2269.93,532.076L2322.49,532.076L2322.49,588.964ZM2322.49,531.794L2269.93,531.794L2269.93,474.907L2322.49,474.907L2322.49,531.794ZM2322.49,474.336L2269.93,474.336L2269.93,417.449L2322.49,417.449L2322.49,474.336ZM2322.49,417.161L2269.93,417.161L2269.93,360.274L2322.49,360.274L2322.49,417.161ZM2322.49,359.704L2269.93,359.704L2269.93,302.817L2322.49,302.817L2322.49,359.704ZM2322.49,302.534L2269.93,302.534L2269.93,245.647L2322.49,245.647L2322.49,302.534ZM2322.49,245.071L2269.93,245.071L2269.93,188.184L2322.49,188.184L2322.49,245.071ZM2322.49,187.901L2269.93,187.901L2269.93,131.014L2322.49,131.014L2322.49,187.901ZM2322.49,130.444L2269.93,130.444L2269.93,73.557L2322.49,73.557L2322.49,130.444ZM2322.49,73.269L2269.93,73.269L2269.93,16.382L2322.49,16.382L2322.49,73.269ZM2322.49,15.812L2269.93,15.812L2269.93,-41.076L2322.49,-41.076L2322.49,15.812ZM2322.49,-41.358L2269.93,-41.358L2269.93,-98.246L2322.49,-98.246L2322.49,-41.358Z" style="fill:rgb(221,220,216);fill-rule:nonzero;"/></g></g></g></svg>