<svg width="89" height="195" viewBox="0 0 89 195" fill="none" xmlns="http://www.w3.org/2000/svg">
<g clip-path="url(#clip0_472_3586)">
<path d="M42.7805 194.8C42.9805 194.8 43.2805 194.6 43.6805 194.1C44.3805 193.1 45.0805 191.1 45.1805 190.9C45.8805 189.5 46.4805 188 47.0805 186.6C47.4805 185.6 47.8805 184.6 48.2805 183.7C50.1805 178.8 51.4805 173.8 52.4805 168.7C53.9805 161.1 54.8805 153.4 55.7805 145.6C57.1805 133.7 56.6805 118.7 54.6805 103.9C52.6805 89.1 49.0805 74.5 44.2805 63.5C42.2805 59 40.0805 54.8 37.5805 50.8C31.7805 41.3 24.9805 32.6 19.3805 22.9C18.5805 21.6 17.9805 20.2 17.5805 18.8C16.3805 15.5 15.7805 12 14.4805 8.6C14.0805 7.6 13.5805 6.5 13.0805 5.5C12.4805 4.3 11.7805 3.1 11.1805 2C10.9805 1.7 10.7805 1.4 10.6805 1.2C10.5805 1 10.3805 1 10.1805 1C9.98047 1.1 9.98047 1.3 9.98047 1.5C10.1805 1.9 10.2805 2.3 10.4805 2.8C11.1805 4.4 12.1805 5.9 12.9805 7.5C13.1805 8 13.3805 8.5 13.5805 9C14.8805 12.4 15.4805 15.8 16.5805 19.2C17.0805 20.6 17.6805 22 18.4805 23.4C24.0805 33.2 30.8805 41.9 36.5805 51.4C38.9805 55.4 41.2805 59.6 43.1805 64C47.9805 74.9 51.4805 89.4 53.4805 104.1C55.4805 118.8 55.9805 133.8 54.6805 145.5C53.7805 153.2 52.9805 160.9 51.4805 168.5C50.4805 173.5 49.1805 178.5 47.3805 183.3L44.3805 190.6L42.8805 194.4C42.7805 194.4 42.5805 194.5 42.5805 194.6C42.5805 194.6 42.6805 194.7 42.7805 194.8Z" fill="#1F5440"/>
<path d="M10.6809 2.09998C10.6809 2.59998 11.1809 3.59998 11.1809 3.99998L11.3809 8.09998C11.4809 11.3 11.0809 14.4 11.0809 17.6V19.9C11.2809 24.1 12.8809 26.6 15.1809 28.5C19.2809 31.8 25.3809 32.8 28.4809 36.3C28.5809 36.4 28.5809 36.7 28.4809 36.8C28.3809 36.9 28.0809 36.9 27.9809 36.8C24.7809 33.4 18.7809 32.6 14.5809 29.3C12.0809 27.3 10.1809 24.6 10.0809 20V16.4C10.1809 13.7 10.4809 10.9 10.3809 8.19998L10.1809 4.19998C10.1809 3.69998 9.88086 2.39998 9.88086 2.09998C9.88086 1.59998 10.2809 1.59998 10.3809 1.59998C10.3809 1.59998 10.6809 1.69998 10.5809 1.99998C10.6475 1.99998 10.6809 2.03331 10.6809 2.09998C10.6809 1.99998 10.7809 1.99998 10.6809 1.89998H10.7809V1.99998C10.6809 1.99998 10.6809 2.09998 10.6809 2.09998ZM10.2809 2.19998L10.1809 2.09998H10.0809C9.98086 2.19998 10.1809 2.19998 10.2809 2.19998Z" fill="#1F5440"/>
<path d="M28.0805 36.4C27.8805 36.1 27.7805 35.8 27.6805 35.5C27.2805 34.6 27.0805 33.7 26.7805 32.8C26.4805 31.7 26.1805 30.5 25.9805 29.3C25.6805 27.6 25.4805 25.8 25.2805 24C24.9805 21 23.1805 17.2 20.8805 13.5C18.6805 10 15.8805 6.6 13.2805 4C12.3805 3.1 11.4805 2.2 10.6805 1.5C10.2805 1.1 9.88047 0.7 9.58047 0.4C9.48047 0.3 9.48047 0.2 9.48047 0.1C9.58047 0 9.68047 0 9.78047 0C10.2805 0.3 10.7805 0.6 11.2805 0.9C11.9805 1.4 12.5805 2 13.2805 2.6C15.4805 4.7 17.8805 7.5 19.8805 10.5C23.0805 15.1 25.6805 20.1 25.9805 23.9C26.0805 25.4 26.2805 26.8 26.4805 28.3C26.6805 29.7 26.9805 31.2 27.2805 32.6C27.4805 33.5 27.6805 34.4 28.0805 35.2C28.2805 35.8 28.5805 36.3 28.8805 36.8V36.9C29.2805 37.3 28.6805 37.4 28.5805 37.3C28.5805 37.3 28.4805 37.2 28.4805 37.1V37C28.0805 36.6 27.9805 36.4 28.0805 36.4ZM28.0805 36.4C28.1805 36.6 28.3805 36.9 28.4805 37.1L28.6805 37.3C28.5805 37.2 28.5805 37 28.6805 36.9C28.7805 36.8 28.8805 36.8 28.9805 36.9C28.7805 36.8 28.1805 36.4 28.0805 36.4Z" fill="#1F5440"/>
<path d="M0.0808594 44.3C0.480859 44.9 1.08086 45.6 1.88086 46.4C3.88086 48.6 6.98086 51.5 9.88086 54.1C12.8809 56.8 15.6809 59 17.2809 59.8C18.5809 60.5 19.9809 61.1 21.3809 61.6C26.8809 63.7 32.7809 64.8 38.0809 67.4C38.9809 67.8 39.8809 68.4 40.6809 69C42.6809 70.4 44.4809 72.2 46.4809 73.7C46.6809 73.8 46.9809 73.8 47.0809 73.6C47.1809 73.4 47.1809 73.1 46.9809 73C44.9809 71.5 43.1809 69.7 41.2809 68.3C40.3809 67.6 39.4809 67.1 38.4809 66.6C33.1809 64 27.1809 62.8 21.7809 60.7C20.3809 60.2 19.0809 59.6 17.7809 59C16.2809 58.2 13.4809 56 10.5809 53.5C7.68086 51 4.68086 48.1 2.48086 46C1.68086 45.2 0.980859 44.6 0.480859 44.1C0.380859 44 0.180859 44 0.0808594 44.1C-0.0191406 44 -0.0191406 44.2 0.0808594 44.3Z" fill="#1F5440"/>
<path d="M47.5801 72.8C47.2801 72.7 47.2801 71.7 47.2801 71.7L46.2801 68C45.8801 66.3 45.5801 64.6 45.2801 62.9C44.9801 61.2 44.7801 59.4 44.6801 57.7C44.5801 56.2 44.6801 54.7 44.9801 53.2C45.5801 49.8 46.6801 46.6 47.0801 43.1C47.4801 39.9 47.1801 36.7 47.1801 33.5C47.1801 32.1 47.2801 30.7 47.3801 29.3C47.3801 29.2 47.4801 29.1 47.6801 29.1C47.7801 29.1 47.8801 29.2 47.8801 29.4C47.8801 31.1 48.0801 32.7 48.1801 34.3C48.2801 35.4 48.2801 36.5 48.2801 37.6C48.2801 39.5 48.2801 41.3 48.0801 43.2C47.6801 46.7 46.4801 49.9 45.7801 53.3C45.4801 54.7 45.3801 56.1 45.4801 57.6C45.5801 59.3 45.6801 61 45.9801 62.7C46.1801 64.4 46.5801 66.1 46.8801 67.8L47.7801 71.5C47.7801 71.5 47.8801 72.4 47.9801 72.7C48.0801 73 47.8801 73.1 47.7801 73.1C47.6801 73.2 47.5801 73 47.5801 72.8Z" fill="#1F5440"/>
<path d="M48.1801 36.5C48.4801 35.6 48.7801 34.8 49.1801 34C50.0801 32.1 51.2801 30.3 52.1801 28.3C52.1801 28.2 52.1801 28.1 52.0801 28C51.9801 27.9 51.8801 28 51.7801 28.1C50.8801 30.1 49.7801 31.9 48.7801 33.8C48.3801 34.6 47.9801 35.4 47.5801 36.3C47.5801 36.4 47.5801 36.6 47.7801 36.6C47.9801 36.7 48.1801 36.6 48.1801 36.5Z" fill="#1F5440"/>
<path d="M48.3808 41.4C48.2808 41.6 48.0808 41.6 48.0808 41.6C47.9808 41.6 47.7808 41.5 47.8808 41.3V41.2C47.9808 41 48.2808 40.5 48.4808 40.3L49.6808 38.4C50.2808 37.3 50.9808 36.3 51.4808 35.2C51.8808 34.5 52.1808 33.7 52.4808 32.9C52.4808 32.8 52.6808 32.7 52.7808 32.8C52.8808 32.8 52.9808 33 52.8808 33.1C52.5808 33.9 52.2808 34.7 51.8808 35.4C51.2808 36.5 50.6808 37.6 49.9808 38.7L48.7808 40.6C48.7808 40.7 48.5808 41.4 48.3808 41.4ZM48.0808 41.1C48.0141 41.1 48.0141 41.1 48.0808 41.1V41.1Z" fill="#1F5440"/>
<path d="M47.8805 44.1C47.8805 43.9 48.1805 43.7 48.2805 43.5L49.2805 42.3L52.3805 38.4001C52.4805 38.3001 52.5805 38.3 52.6805 38.3C52.7805 38.4 52.7805 38.5 52.7805 38.6L49.6805 42.6L48.6805 43.8C48.5805 44 48.3805 44.3 48.2805 44.5C48.0805 44.7 47.8805 44.7 47.7805 44.5C47.6805 44.4 47.6805 44.2 47.8805 44.1C47.8139 44.1 47.8139 44.1 47.8805 44.1Z" fill="#1F5440"/>
<path d="M11.1805 8.09997C11.2471 8.16663 11.2471 8.16663 11.1805 8.09997C11.5805 8.79997 12.7805 10.2 12.8805 10.3C13.5805 11.1 14.1805 11.9 14.7805 12.8C15.3805 13.7 15.8805 14.6 16.3805 15.5C16.4805 15.6 16.3805 15.8 16.2805 15.8C16.1805 15.9 15.9805 15.8 15.9805 15.7C15.4805 14.8 14.9805 13.9 14.4805 13C13.8805 12.1 13.2805 11.3 12.6805 10.5C12.5805 10.4 11.4805 8.89997 10.9805 8.39997C10.7805 8.09997 10.8805 7.89997 10.8805 7.79997C10.9805 7.69997 11.1805 7.79997 11.1805 7.89997C11.2805 7.99997 11.2805 8.09997 11.1805 8.09997Z" fill="#1F5440"/>
<path d="M10.3795 12.8C10.2795 13 10.4795 13.3 10.7795 13.6C11.1795 14 11.8795 14.4 11.9795 14.5C12.7795 15.1 13.5795 15.7 14.2795 16.4C14.9795 17.1 15.6795 17.8 16.2795 18.7C16.3795 18.8 16.4795 18.8 16.5795 18.8C16.6795 18.7 16.6795 18.6 16.6795 18.5C16.0795 17.6 15.3795 16.9 14.6795 16.1C13.9795 15.4 13.1795 14.8 12.2795 14.1L10.8795 13C10.8795 12.9 10.8795 12.7 10.7795 12.7C10.6795 12.7 10.4795 12.7 10.3795 12.8Z" fill="#1F5440"/>
<path d="M10.58 17.1C10.88 17.5 11.28 18 11.88 18.4C13.58 19.8 16.38 21.2 17.68 22.4C17.78 22.5 17.98 22.5 17.98 22.4C18.08 22.3 18.08 22.1 17.98 22.1C16.68 20.9 13.88 19.5 12.18 18.1C11.68 17.7 11.28 17.3 11.08 16.9C10.98 16.8 10.88 16.7 10.78 16.8C10.68 16.9 10.48 17 10.58 17.1Z" fill="#1F5440"/>
<path d="M11.1809 21.6C11.2809 21.6 11.5809 21.7 11.7809 21.9C12.3809 22.3 13.1809 23 13.4809 23.2L20.2809 27.1C20.3809 27.2 20.4809 27.1 20.5809 27C20.6809 26.9 20.5809 26.8 20.4809 26.7C19.8809 26.2 19.1809 25.8 18.4809 25.4C16.8809 24.5 15.2809 23.6 13.7809 22.7C13.4809 22.5 12.7809 21.9 12.0809 21.5C11.6809 21.2 11.2809 21.1 11.0809 21.1C10.9809 21.1 10.8809 21.2 10.8809 21.4C10.9809 21.5 11.0809 21.6 11.1809 21.6Z" fill="#1F5440"/>
<path d="M13.7809 27.2C13.9809 27.2 14.2809 27.4 14.4809 27.4L16.2809 27.9L21.8809 29.1C21.9809 29.1 22.0809 29.3 22.0809 29.4C22.0809 29.5 21.8809 29.6 21.7809 29.6L16.1809 28.4L14.3809 27.8C14.1809 27.7 13.5809 27.6 13.4809 27.5C13.4142 27.4333 13.3809 27.3667 13.3809 27.3C13.3809 27.2333 13.4475 27.1333 13.5809 27C13.5809 27.1 13.6809 27.2 13.7809 27.2ZM13.6809 27.6C13.5809 27.6 13.5809 27.7 13.6809 27.6V27.6Z" fill="#1F5440"/>
<path d="M6.97031 46.7C6.87031 46.7 6.77031 46.7 6.77031 46.6C6.67031 46.5 6.67031 46.4 6.77031 46.2C6.87031 46.1 7.07031 46 7.27031 46.3C7.67031 46.6 8.47031 47.8 8.47031 47.9C8.87031 48.5 9.17031 49.1 9.47031 49.7C10.1703 51.1 10.7703 52.7 11.4703 54.1C11.5703 54.2 11.4703 54.4 11.3703 54.4C11.2703 54.5 11.0703 54.4 11.0703 54.3C10.3703 52.9 9.77031 51.3 9.07031 49.9C8.77031 49.3 8.47031 48.7 8.07031 48.1L6.97031 46.7Z" fill="#1F5440"/>
<path d="M10.7801 48.6C10.8801 48.7 11.0801 48.9 11.1801 49.1C11.5801 49.7 11.9801 50.5 12.1801 50.7C12.4801 51.2 12.7801 51.6 13.0801 52.1C14.1801 54.1 14.8801 56.3 16.0801 58.3C16.1801 58.4 16.2801 58.4 16.3801 58.4C16.4801 58.3 16.4801 58.2 16.4801 58.1C15.2801 56.2 14.5801 53.9 13.5801 51.9C13.2801 51.4 12.9801 50.9 12.6801 50.4C12.4801 50.1 12.0801 49.3 11.6801 48.8C11.4801 48.5 11.1801 48.2 11.0801 48.1C10.9801 48 10.7801 48.1 10.7801 48.2C10.6801 48.4 10.6801 48.6 10.7801 48.6Z" fill="#1F5440"/>
<path d="M15.58 51.8L15.48 51.7C15.38 51.5 15.48 51.4 15.48 51.4C15.58 51.3 15.68 51.2 15.88 51.3L15.98 51.4C16.08 51.5 16.48 52.1 16.58 52.3L17.58 54.1L20.18 59.7C20.28 59.8 20.18 60 20.08 60C19.98 60.1 19.78 60 19.78 59.9L17.18 54.3L16.18 52.5C15.98 52.4 15.68 52 15.58 51.8Z" fill="#1F5440"/>
<path d="M20.2809 55L21.0809 56.4L23.9809 61.6C24.0809 61.7 24.2809 61.8 24.3809 61.7C24.4809 61.6 24.5809 61.4 24.4809 61.3L21.4809 56.2C21.3809 56.1 20.9809 55.3 20.6809 54.9C20.4809 54.7 20.2809 54.6 20.1809 54.6C20.0809 54.6 19.8809 54.7 19.8809 54.9C19.9809 54.9 20.0809 55 20.2809 55Z" fill="#1F5440"/>
<path d="M25.8805 57.9L26.6805 59.0999L28.4805 61.9C28.5805 62 28.4805 62.2 28.3805 62.2C28.2805 62.3 28.0805 62.1999 28.0805 62.0999L26.3805 59.2999L25.5805 58.0999L25.7805 57.7C25.7805 57.7666 25.8138 57.8333 25.8805 57.9ZM25.7805 58.0999C25.6805 58.1999 25.5805 58.2 25.4805 58.2C25.6805 58.3 25.7805 58.1999 25.7805 58.0999Z" fill="#1F5440"/>
<path d="M29.5805 59.4L30.5805 61L32.6805 64.1C32.7805 64.2 32.6805 64.4 32.5805 64.5C32.4805 64.6 32.2805 64.5 32.1805 64.4L30.0805 61.3L29.0805 59.8C28.9805 59.7 29.0805 59.4 29.1805 59.4H29.2805C29.4805 59.3 29.5805 59.4 29.5805 59.4Z" fill="#1F5440"/>
<path d="M33.4691 62.4C33.3691 62.3 33.3691 62.2 33.3691 62.1C33.4691 62 33.5691 61.9 33.6691 62C33.6691 62 33.7691 62 33.7691 62.1C33.7691 62.2 33.9691 62.3 34.0691 62.4C34.6691 63.2 36.0691 65.2 36.4691 65.9C36.5691 66 36.4691 66.1 36.3691 66.2C36.2691 66.3 36.1691 66.2 36.0691 66.1C35.6691 65.5 34.1691 63.5 33.6691 62.7C33.5691 62.6 33.4691 62.4 33.4691 62.4Z" fill="#1F5440"/>
<path d="M37.1806 62.3C37.2806 62.3 37.3806 62.7 37.4806 62.8L37.9806 63.7L39.6806 66.7C39.7806 66.8 39.6806 66.9 39.5806 67C39.4806 67.1 39.3806 67 39.2806 66.9L37.4806 63.9L36.9806 63C36.8806 62.9 36.6806 62.5 36.6806 62.4C36.5806 62.1 36.8806 62 36.8806 62C36.9806 62.1 37.0806 62.1 37.1806 62.3C37.1806 62.2333 37.1806 62.2333 37.1806 62.3ZM36.7806 62.6C36.7806 62.5333 36.7806 62.5333 36.7806 62.6V62.6Z" fill="#1F5440"/>
<path d="M30.4695 78C30.7695 78 31.2695 78.2 31.6695 78.6C32.3695 79.1 32.9695 79.9 33.2695 80.3C33.3695 80.4 33.4695 80.4 33.5695 80.4C33.6695 80.3 33.6695 80.2 33.6695 80.1C33.3695 79.7 32.7695 78.9 32.0695 78.3C31.4695 77.8 30.9695 77.5 30.4695 77.6C30.3695 77.6 30.2695 77.7 30.2695 77.9C30.2695 77.9 30.3695 78 30.4695 78Z" fill="#1F5440"/>
<path d="M33.9706 76.9C34.1706 77 34.5706 77.5 34.7706 77.7L36.5706 80.1C36.6706 80.2 36.5706 80.3 36.4706 80.4C36.3706 80.5 36.2706 80.4 36.1706 80.3L34.3706 78C34.1706 77.7 33.3706 77.2 33.3706 77C33.2706 76.8 33.2706 76.6 33.7706 76.6C33.8706 76.6 33.9706 76.8 33.9706 76.9Z" fill="#1F5440"/>
<path d="M37.4698 76.4C37.6698 76.8 38.2698 77.6 38.2698 77.7C38.6698 78.3 38.9698 79 39.2698 79.6C39.4698 80 39.5698 80.5 39.6698 81C39.6698 81.1 39.6698 81.3 39.4698 81.3C39.3698 81.3 39.1698 81.3 39.1698 81.1C38.9698 80.4 38.6698 79.8 38.4698 79.2C38.2698 78.8 38.0698 78.4 37.8698 78C37.8698 77.9 37.2698 77.1 37.0698 76.7C36.9698 76.5 37.0698 76.3 37.0698 76.2C37.1698 76.1 37.3698 76.1 37.4698 76.2C37.4032 76.2667 37.4032 76.3333 37.4698 76.4Z" fill="#1F5440"/>
<path d="M39.9693 77.2C34.6693 75.5 39.9693 73.8 40.1693 76.9C40.0693 76.9 39.9693 77 39.9693 77.2C39.9693 77 40.0693 76.9 40.0693 76.9C43.9693 78.4 42.4693 79.5 41.2693 79.1C41.3693 79.3 41.3693 79.5 41.4693 79.6C41.5693 80 41.6693 80.4 41.7693 80.8C41.7693 81 41.7693 81.1 41.5693 81.2C41.3693 81.2 41.2693 81.2 41.1693 81C40.8693 80 40.3693 79 40.0693 78C40.1693 77.8 40.0693 77.5 39.9693 77.2C40.036 77.2667 40.036 77.2667 39.9693 77.2Z" fill="#1F5440"/>
<path d="M42.1797 78.5C42.4797 79.1 42.6797 79.8 42.8797 80.4C43.1797 81.4 43.4797 82.4 43.5797 83.4C43.5797 83.6 43.7797 83.7 43.9797 83.7C44.1797 83.7 44.2797 83.5 44.2797 83.3C44.1797 82.6 43.9797 81.9 43.7797 81.3C43.4797 80.3 43.0797 79.3 42.6797 78.4C42.5797 78.3 42.4797 78.2 42.3797 78.3C42.1797 78.3 42.1797 78.4 42.1797 78.5Z" fill="#1F5440"/>
<path d="M52.6793 67.4C52.3793 66.5 52.3793 65.3 52.3793 64.2C52.4793 62.5 52.7793 60.6 53.0793 59.3C53.0793 59.2 52.9793 59 52.8793 59C52.7793 59 52.5793 59.1 52.5793 59.2C52.2793 60.6 51.9793 62.4 51.8793 64.2C51.7793 65.4 51.8793 66.6 52.1793 67.6C52.1793 67.7 52.3793 67.8 52.4793 67.8C52.6793 67.7 52.7793 67.5 52.6793 67.4Z" fill="#1F5440"/>
<path d="M55.1801 63.3C55.2801 63.2 55.2801 63 55.2801 62.7C55.2801 62 55.0801 61 55.0801 60.7C55.0801 59.7 55.1801 58.7 55.2801 57.8C55.3801 56.8 55.5801 55.9 55.8801 54.9C55.8801 54.8 55.8801 54.6 55.6801 54.6C55.5801 54.6 55.3801 54.6 55.3801 54.8C55.0801 55.8 54.9801 56.8 54.7801 57.7C54.6801 58.7 54.5801 59.7 54.5801 60.7L54.6801 63.1C54.5801 63.2 54.6801 63.4 54.7801 63.5C54.9801 63.5 55.0801 63.4 55.1801 63.3Z" fill="#1F5440"/>
<path d="M57.9707 59.5C57.9707 59.5 58.0707 59.3 58.0707 59.1V57.3C58.1707 56.3 58.3707 55.4 58.5707 54.4C58.7707 53.4 59.0707 52.5 59.3707 51.6C59.4707 51.5 59.3707 51.3 59.1707 51.2C59.0707 51.1 58.8707 51.2 58.7707 51.4C58.4707 52.3 58.1707 53.3 57.9707 54.3C57.7707 55.3 57.5707 56.3 57.4707 57.3L57.5707 59.1C57.4707 59.2 57.4707 59.4 57.5707 59.5C57.7707 59.6 57.8707 59.6 57.9707 59.5Z" fill="#1F5440"/>
<path d="M60.68 55.2C60.58 55.4 60.48 55.5 60.38 55.4C60.38 55.4 60.18 55.1 60.28 54.7C60.38 54 60.68 52.7 60.98 50.7C60.98 50.6 61.18 50.5 61.28 50.5C61.38 50.5 61.48 50.7 61.48 50.8C61.08 52.8 60.88 54.1 60.78 54.8C60.78 55 60.68 55.2 60.68 55.2Z" fill="#1F5440"/>
<path d="M56.0809 84.5C55.9809 84.4 55.9809 84 55.9809 83.9L55.8809 82.6V80.6C55.8809 79.9 55.9809 79.3 56.1809 78.6C56.1809 78.5 56.3809 78.4 56.4809 78.4C56.5809 78.4 56.6809 78.6 56.6809 78.7C56.5809 79.3 56.4809 80 56.3809 80.6V82.5L56.4809 83.8C56.4809 84 56.6809 84.6 56.5809 84.7C56.4809 84.8 56.3809 84.9 56.1809 84.8C56.0809 84.7 55.9809 84.6 56.0809 84.5ZM56.2809 84.3C56.3475 84.3 56.3475 84.3 56.2809 84.3V84.3Z" fill="#1F5440"/>
<path d="M58.7793 81.2001C58.7793 81.2667 58.7793 81.2667 58.7793 81.2001C58.8793 81.4001 58.7793 81.6001 58.5793 81.6001C58.4793 81.6001 58.2793 81.5001 58.2793 81.2001C58.2793 80.9001 58.3793 80.0001 58.3793 79.9001C58.4793 79.1001 58.5793 78.3001 58.7793 77.5001C58.8793 77.0001 59.0793 76.5001 59.2793 76.0001C59.3793 75.9001 59.4793 75.8001 59.5793 75.9001C59.6793 76.0001 59.7793 76.1001 59.6793 76.2001C59.4793 76.8001 59.2793 77.4001 59.1793 78.1001C59.0793 78.7001 58.8793 79.4001 58.7793 80.0001C58.8793 80.1001 59.0793 81.3001 58.7793 81.2001Z" fill="#1F5440"/>
<path d="M61.9695 78C61.8695 77.8 62.0695 77.4 62.0695 77.3L62.5695 75.6C62.5695 75.5 62.7695 75.4 62.8695 75.4C62.9695 75.4 63.0695 75.6 63.0695 75.7L62.5695 77.4C62.4695 77.6 62.5695 78 62.4695 78.2C62.3695 78.4 62.2695 78.5 61.9695 78.4C61.8695 78.3 61.7695 78.2 61.8695 78.1C61.8695 78.0334 61.9029 78 61.9695 78Z" fill="#1F5440"/>
<path d="M59.6797 103.5V103.4C59.6797 103 59.7797 102 59.7797 101.9C59.8797 101.3 59.9797 100.6 60.0797 100C60.1797 99.4 60.3797 98.8 60.5797 98.1C60.5797 98 60.7797 97.9 60.8797 97.9C60.9797 97.9 61.0797 98.1 61.0797 98.2C60.8797 98.8 60.7797 99.4 60.5797 100C60.4797 100.6 60.3797 101.2 60.2797 101.9C60.2797 102 60.1797 103 60.1797 103.3C60.1797 103.6 59.8797 103.7 59.8797 103.7C59.8797 103.8 59.6797 103.7 59.6797 103.5Z" fill="#1F5440"/>
<path d="M62.9707 100.6L64.0707 97C64.0707 96.9 64.0707 96.8 63.9707 96.7C63.8707 96.7 63.7707 96.7 63.6707 96.8L62.4707 100.3C62.4707 100.4 62.4707 100.6 62.6707 100.6C62.8707 100.8 62.9707 100.7 62.9707 100.6Z" fill="#1F5440"/>
<path d="M26.1792 97.6C26.0792 97.6 25.9792 97.5 25.9792 97.4C25.8792 97.2 26.0792 97.1 26.0792 97H26.3792C26.4792 97.1 26.9792 97.7 27.1792 97.8C27.6792 98.2 28.3792 98.5 28.7792 98.9C28.8792 99 28.9792 99.1 29.0792 99.3C29.1792 99.4 29.1792 99.5 29.0792 99.6C28.9792 99.7 28.8792 99.7 28.7792 99.6L26.7792 98.2C26.7792 98.2 26.3792 97.8 26.1792 97.6Z" fill="#1F5440"/>
<path d="M29.9707 96.4C30.0707 96.4 30.2707 96.6 30.2707 96.6L30.9707 97.2C31.3707 97.5 31.6707 97.9 32.0707 98.2C32.3707 98.5 32.7707 98.9 33.0707 99.3C33.1707 99.4 33.1707 99.5 33.0707 99.6C32.9707 99.7 32.8707 99.7 32.7707 99.6C32.4707 99.2 32.1707 98.9 31.7707 98.5C31.4707 98.2 31.0707 97.8 30.6707 97.5L29.9707 96.9C29.8707 96.8 29.5707 96.7 29.5707 96.6C29.4707 96.5 29.4707 96.4 29.4707 96.3C29.4707 96.2 29.5707 96.1 29.7707 96.1C29.8707 96.3 29.9707 96.3 29.9707 96.4Z" fill="#1F5440"/>
<path d="M33.5802 95.7C33.6802 95.7 33.7802 96 33.7802 96L34.6802 97C35.0802 97.4 35.3802 97.9 35.7802 98.3C36.0802 98.8 36.3802 99.2 36.6802 99.8C36.7802 99.9 36.6802 100.1 36.5802 100.2C36.4802 100.3 36.2802 100.2 36.1802 100.1C35.9802 99.6 35.6802 99.1 35.3802 98.7C35.0802 98.3 34.6802 97.8 34.3802 97.4L33.4802 96.4C33.4802 96.4 33.2802 96.1 33.1802 96C32.9802 95.7 33.3802 95.6 33.4802 95.6C33.4802 95.6 33.5802 95.6 33.5802 95.7ZM33.4702 96H33.2702C33.3702 96.1 33.3702 96 33.4702 96Z" fill="#1F5440"/>
<path d="M36.7801 96C36.6801 96 36.5801 95.9 36.5801 95.8C36.5801 95.8 36.8801 95.3999 37.0801 95.6999C37.1801 95.8999 37.5801 96.3 37.9801 96.9C38.2801 97.4 38.5801 98 38.8801 98.5C39.1801 99 39.3801 99.5999 39.5801 100.2C39.5801 100.3 39.5801 100.4 39.4801 100.5C39.3801 100.5 39.2801 100.5 39.1801 100.4L37.4801 97.3C37.1801 96.6 36.9801 96.2 36.7801 96Z" fill="#1F5440"/>
<path d="M40.6805 96.9C40.7805 97 40.8805 97.2 40.9805 97.3L41.4805 98.2C41.7805 98.8 42.0805 99.3 42.2805 99.9C42.4805 100.3 42.5805 100.7 42.6805 101.1C42.6805 101.2 42.6805 101.4 42.4805 101.4C42.3805 101.4 42.1805 101.4 42.1805 101.2L40.8805 98.4L40.3805 97.5C40.2805 97.3 39.9805 96.9 39.9805 96.8C39.9805 96.7 40.0805 96.6 40.2805 96.6C40.4805 96.7 40.6805 96.8 40.6805 96.9Z" fill="#1F5440"/>
<path d="M32.9691 117.7C33.0691 117.6 33.0691 117.4 32.9691 117.3C32.8691 117.2 32.6691 117.2 32.5691 117.3C32.4691 117.4 32.4691 117.6 32.5691 117.7C32.7691 117.8 32.8691 117.8 32.9691 117.7Z" fill="#1F5440"/>
<path d="M33.2793 117.8C33.1793 117.8 33.1793 117.7 33.0793 117.6C32.9793 117.2 33.1793 117.2 33.3793 117.3C33.4793 117.3 33.7793 117.6 33.8793 117.8L34.7793 118.6L37.2793 121.4C37.3793 121.5 37.3793 121.7 37.2793 121.8C37.1793 121.9 36.9793 121.9 36.8793 121.8L34.4793 119.1L33.6793 118.3C33.5793 118 33.2793 117.9 33.2793 117.8ZM33.5793 117.6V117.5C33.6793 117.5 33.5793 117.6 33.5793 117.6Z" fill="#1F5440"/>
<path d="M38.1801 118.4C38.2801 118.5 38.3801 118.7 38.4801 118.8L39.1801 119.7L41.0801 122.4C41.1801 122.5 41.0801 122.6 41.0801 122.7C40.9801 122.8 40.8801 122.7 40.7801 122.7L38.7801 120.1L38.0801 119.2C37.9801 119.1 37.6801 118.8 37.6801 118.7C37.5801 118.5 37.6801 118.4 37.7801 118.4H37.9801C38.0801 118.3 38.0801 118.4 38.1801 118.4Z" fill="#1F5440"/>
<path d="M40.2808 119L43.2808 123.4C43.3808 123.5 43.5808 123.6 43.6808 123.5C43.7808 123.4 43.8808 123.3 43.7808 123.1L40.6808 118.7C40.5808 118.6 40.4808 118.6 40.2808 118.6C40.2808 118.7 40.1808 118.9 40.2808 119Z" fill="#1F5440"/>
<path d="M44.0809 119.9L44.8809 120.9C45.1809 121.4 45.4809 121.8 45.7809 122.3C46.1809 123 46.5809 123.8 46.9809 124.6C47.0809 124.7 47.1809 124.8 47.2809 124.7C47.3809 124.6 47.4809 124.5 47.3809 124.4C46.9809 123.6 46.5809 122.9 46.1809 122.1C45.8809 121.6 45.5809 121.1 45.1809 120.6C45.0809 120.4 44.8809 120.1 44.5809 119.8C44.4809 119.6 44.2809 119.5 44.1809 119.5C44.0809 119.5 43.8809 119.5 43.8809 119.7C43.8809 119.8 43.8809 119.9 44.0809 119.9Z" fill="#1F5440"/>
<path d="M63.7793 124.9C63.7793 125 63.8793 125.2 64.0793 125.4C64.4793 125.7 65.2793 126 65.4793 126.1C66.4793 126.5 67.3793 126.7 68.3793 126.7C69.2793 126.7 70.2793 126.7 71.2793 126.6C71.3793 126.6 71.4793 126.5 71.4793 126.4C71.4793 126.3 71.3793 126.2 71.2793 126.2C70.0793 126.2 68.9793 126.2 67.8793 126C67.1793 125.9 66.4793 125.8 65.6793 125.5L64.1793 124.8C64.1793 124.7 64.0793 124.6 63.8793 124.6C63.8793 124.6 63.7793 124.8 63.7793 124.9Z" fill="#1F5440"/>
<path d="M67.7795 124.1C67.7795 124.1 67.6795 124.1 67.6795 124C67.2795 123 67.3795 123.2 67.9795 123.6C67.9795 123.6 68.0795 123.6 68.0795 123.7H68.1795C68.2795 123.8 68.4795 123.9 68.5795 123.9L69.7795 124.1L73.7795 124.4C73.8795 124.4 74.0795 124.5 74.0795 124.6C74.0795 124.7 73.9794 124.9 73.8794 124.9H72.6795C71.6795 124.9 70.7794 124.7 69.8794 124.6L68.5795 124.3C68.2795 124.3 67.9795 124.2 67.7795 124.1Z" fill="#1F5440"/>
<path d="M72.3793 121.6C72.4793 121.5 72.9793 121.8 73.0793 121.9C73.4793 122 73.7793 122.1 74.0793 122.1C74.5793 122.2 75.0793 122.1 75.6793 122.1C75.7793 122.1 75.9793 122.2 75.9793 122.3C75.9793 122.4 75.8793 122.6 75.7793 122.6C75.2793 122.7 74.7793 122.8 74.2793 122.8C73.7793 122.8 73.2793 122.7 72.7793 122.5C72.6793 122.5 72.1793 122.3 71.9793 122.2C71.8793 122.1 71.7793 122 71.7793 121.9C71.7793 121.8 71.8793 121.7 72.0793 121.7C72.2126 121.567 72.3126 121.533 72.3793 121.6Z" fill="#1F5440"/>
<path d="M75.2797 120.2C75.3797 120.3 75.6797 120.4 75.9797 120.5H77.3797C77.4797 120.5 77.5797 120.4 77.6797 120.3C77.6797 120.2 77.5797 120.1 77.4797 120L75.5797 119.9C75.4797 119.8 75.2797 119.8 75.1797 119.9C75.1797 119.9 75.1797 120.1 75.2797 120.2Z" fill="#1F5440"/>
<path d="M33.0809 135.9C32.9809 135.8 32.9809 135.6 33.0809 135.5C33.2809 135.3 33.4809 135.3 33.5809 135.6C33.6809 135.7 33.6809 136 33.7809 136.1L34.2809 137.1L36.1809 139.8C36.2809 139.9 36.2809 140 36.1809 140.1C36.0809 140.2 35.9809 140.2 35.8809 140.1L33.9809 137.3L33.3809 136.3C33.1809 136.2 33.0809 136 33.0809 135.9Z" fill="#1F5440"/>
<path d="M37.3797 136.8L37.8797 137.8L39.1797 140.2C39.2797 140.3 39.3797 140.3 39.4797 140.3C39.5797 140.2 39.5797 140.1 39.5797 140L38.2797 137.6L37.7797 136.5C37.6797 136.4 37.4797 136.4 37.3797 136.5C37.2797 136.6 37.2797 136.7 37.3797 136.8Z" fill="#1F5440"/>
<path d="M40.9695 137.9C41.1695 138.1 41.3695 138.4 41.5695 138.8C41.9695 139.6 42.3695 140.5 42.7695 141.2C42.8695 141.3 42.9695 141.4 43.0695 141.3C43.1695 141.2 43.2695 141.1 43.1695 141C42.8695 140.4 42.6695 139.6 42.2695 138.9C41.9695 138.4 41.6695 137.9 41.3695 137.6C41.2695 137.5 41.0695 137.5 40.9695 137.6C40.8695 137.6 40.8695 137.8 40.9695 137.9Z" fill="#1F5440"/>
<path d="M44.2797 138.9C44.2797 139.3 44.4797 139.8 44.6797 140.2C44.9797 140.8 45.3797 141.4 45.6797 141.9C45.7797 142 45.8797 142.1 46.0797 142C46.1797 141.9 46.2797 141.8 46.1797 141.6C45.8797 141 45.4797 140.3 45.1797 139.6C45.0797 139.3 44.8797 139 44.8797 138.8C44.8797 138.7 44.6797 138.6 44.5797 138.6C44.2797 138.6 44.1797 138.8 44.2797 138.9Z" fill="#1F5440"/>
<path d="M60.6797 148C60.9797 147 61.5797 146.1 62.2797 145.3C63.3797 144 64.6797 142.9 65.7797 141.9C65.8797 141.8 65.8797 141.7 65.7797 141.6C65.6797 141.5 65.5797 141.5 65.4797 141.6C64.3797 142.6 62.9797 143.8 61.8797 145.1C61.0797 146 60.4797 147 60.1797 148C60.1797 148.1 60.1797 148.3 60.3797 148.3C60.4797 148.3 60.6797 148.2 60.6797 148Z" fill="#1F5440"/>
<path d="M64.47 146.1C65.27 145 66.17 144.1 67.07 143.2C68.07 142.3 69.07 141.4 70.07 140.6C70.17 140.5 70.17 140.4 70.07 140.3C69.97 140.2 69.87 140.2 69.77 140.3C68.47 141.2 67.17 142.2 66.07 143.3C65.27 144.1 64.57 144.9 63.97 145.8C63.87 145.9 63.87 146.1 64.07 146.2C64.27 146.3 64.47 146.2 64.47 146.1Z" fill="#1F5440"/>
<path d="M67.0793 145.9C66.8793 145.9 66.7793 145.8 66.7793 145.7C66.7793 145.5 66.8793 145.4 67.0793 145.4H67.3793L68.3793 145.3L71.3793 145.1C73.0793 144.9 74.7793 144.9 76.4793 144.7C77.5793 144.6 78.6793 144.4 79.8793 144.1C79.9793 144.1 80.0793 144.1 80.0793 144.2C80.0793 144.3 80.0793 144.4 79.9793 144.4C79.1793 144.6 78.2793 144.8 77.4793 145C75.4793 145.3 73.4793 145.3 71.4793 145.5L68.4793 145.7L67.4793 145.8C67.3793 145.9 67.2793 145.9 67.0793 145.9C67.146 145.9 67.146 145.9 67.0793 145.9C67.1793 145.8 67.0793 145.8 67.0793 145.9Z" fill="#1F5440"/>
<path d="M76.5793 143.3C76.9793 143.2 77.3793 143.1 77.7793 143C79.3793 142.7 81.0793 142.7 82.7793 142.5C82.8793 142.5 82.9793 142.4 82.9793 142.2C82.9793 142.1 82.8793 142 82.6793 142C81.4793 142.1 80.1793 142.1 78.9793 142.3C78.1793 142.4 77.2793 142.5 76.4793 142.7C76.3793 142.7 76.2793 142.9 76.2793 143C76.2793 143.3 76.4793 143.3 76.5793 143.3Z" fill="#1F5440"/>
<path d="M60.7801 164.2C60.7801 164.267 60.7801 164.267 60.7801 164.2C60.9801 163.6 61.0801 162.5 61.1801 162.2C61.5801 161.3 62.0801 160.4 62.6801 159.6C63.2801 158.8 64.0801 158.1 64.8801 157.6C64.9801 157.5 65.0801 157.6 65.1801 157.7C65.2801 157.8 65.1801 157.9 65.0801 158C64.2801 158.5 63.5801 159.1 62.9801 159.9C62.3801 160.7 61.8801 161.5 61.5801 162.4L61.1801 164.5C61.0801 164.6 60.9801 164.6 60.7801 164.5C60.6801 164.5 60.6801 164.3 60.7801 164.2C60.7134 164.2 60.7134 164.2 60.7801 164.2Z" fill="#1F5440"/>
<path d="M63.8797 163C63.8797 162.9 64.0797 162.5 64.1797 162.4L64.9797 161.2C65.4797 160.4 66.0797 159.7 66.6797 159.1C67.0797 158.7 67.5797 158.3 67.9797 157.9C68.0797 157.8 68.2797 157.8 68.3797 157.9C68.4797 158 68.4797 158.2 68.3797 158.3C67.6797 158.9 67.0797 159.5 66.4797 160.1C66.0797 160.5 65.7797 161 65.3797 161.5L64.6797 162.7C64.5797 162.9 64.4797 163.4 64.3797 163.5C64.2797 163.6 64.0797 163.7 63.8797 163.4C63.7797 163.2 63.7797 163.1 63.8797 163ZM64.1797 163C64.2464 163.067 64.2464 163.067 64.1797 163V163Z" fill="#1F5440"/>
<path d="M70.0805 163V163.2C69.9805 163.3 69.8805 163.3 69.6805 163.3C69.5805 163.2 69.4805 163.1 69.5805 162.9C69.5805 162.6 69.7805 162.2 69.8805 162.1C70.0805 161.7 70.2805 161.3 70.5805 160.9C70.8805 160.5 71.1805 160.2 71.4805 159.9C71.5805 159.8 71.7805 159.8 71.8805 159.9C71.9805 160 71.9805 160.2 71.8805 160.3C71.5805 160.6 71.2805 160.9 71.0805 161.3C70.8805 161.6 70.5805 162 70.4805 162.4C70.2805 162.4 70.2805 162.9 70.0805 163Z" fill="#1F5440"/>
<path d="M75.6793 162.8C75.7793 162.8 75.9793 162.6 76.0793 162.5C76.2793 162.3 76.4793 161.9 76.5793 161.8L78.7793 159.5C78.8793 159.4 78.8793 159.3 78.7793 159.2C78.6793 159.1 78.5793 159.1 78.4793 159.2L76.1793 161.4L75.4793 162.4C75.3793 162.5 75.2793 162.6 75.3793 162.7C75.3793 162.8 75.4793 162.8 75.6793 162.8Z" fill="#1F5440"/>
<path d="M31.0793 163C30.8793 163 30.7793 162.9 30.7793 162.7C30.7793 162.7 30.9793 162.5 31.2793 162.5C31.7793 162.6 32.9793 162.6 33.0793 162.6H36.9793C37.0793 162.6 37.1793 162.7 37.1793 162.8C37.1793 162.9 37.0793 163 36.9793 163C36.5793 163 36.1793 163.1 35.7793 163.1C34.8793 163.1 33.9793 163.1 33.0793 163C32.9793 163 31.7793 162.9 31.2793 162.9C31.0793 162.9 31.0793 163 31.0793 163Z" fill="#1F5440"/>
<path d="M33.1794 166.1C33.8794 166.3 34.6794 166.3 35.4794 166.2C37.0794 165.9 38.7794 164.9 40.2794 164.6C40.3794 164.6 40.4794 164.5 40.4794 164.3C40.4794 164.2 40.3794 164.1 40.1794 164.1C38.7794 164.4 37.0794 165.3 35.3794 165.6C34.6794 165.7 33.9794 165.8 33.3794 165.6C33.2794 165.6 33.0794 165.6 33.0794 165.8C32.9794 165.9 32.9794 166.1 33.1794 166.1Z" fill="#1F5440"/>
<path d="M39.6793 168.2C39.5793 168.3 39.3793 168.3 39.2793 168.1C39.2793 168.1 39.2793 167.8 39.4793 167.6C39.7793 167.4 40.6793 166.8 40.7793 166.7C41.2793 166.3 41.8793 165.8 42.3793 165.4C42.6793 165.2 42.8793 165 43.1793 164.9C43.2793 164.8 43.4793 164.9 43.5793 165C43.6793 165.1 43.5793 165.3 43.4793 165.4L41.1793 167.2C41.0793 167.2 40.2793 167.8 39.8793 168C39.8126 168.067 39.746 168.133 39.6793 168.2C39.6793 168.133 39.6793 168.133 39.6793 168.2Z" fill="#1F5440"/>
<path d="M49.9702 80.1C50.0702 80.2 49.9702 80.3 49.9702 80.4C49.7702 80.6 49.5702 80.5 49.4702 80.4C49.3702 80.3 49.4702 79.6 49.4702 79.3V76.4C49.6702 74.9 49.9702 73.5 50.3702 72.1C50.7702 70.7 51.3702 69.3 51.9702 68C54.5702 62.6 58.4702 58.3 61.5702 53.4C62.8702 51.3 64.0702 49.2 64.8702 46.8C64.9702 46.6 65.1702 46.5 65.3702 46.5C65.5702 46.6 65.6702 46.8 65.6702 47C64.8702 49.5 63.6702 51.7 62.3702 53.8C59.2702 58.7 55.2702 63 52.6702 68.3C52.0702 69.6 51.4702 70.9 51.0702 72.3C50.6702 73.7 50.2702 75.1 50.0702 76.5L49.9702 79.3C50.0702 79.4 50.1702 80 49.9702 80.1Z" fill="#1F5440"/>
<path d="M52.8809 94.1999C53.2809 93.3999 53.6809 92.6999 53.9809 91.8999C54.6809 90.0999 55.0809 88.3999 55.9809 86.5999C56.4809 85.6999 56.9809 84.6999 57.8809 83.6999C60.7809 80.0999 64.6809 77.5999 67.3809 73.9999C68.1809 72.8999 68.9809 71.6999 69.4809 70.3999C69.6809 69.7999 69.8809 69.2999 69.9809 68.6999C70.0809 68.4999 69.8809 68.2999 69.6809 68.1999C69.4809 68.0999 69.2809 68.2999 69.1809 68.4999C68.9809 69.0999 68.7809 69.5999 68.5809 70.0999C68.0809 71.2999 67.3809 72.4999 66.5809 73.4999C63.8809 77.0999 60.0809 79.5999 57.1809 83.1999C55.9809 84.6999 55.2809 85.9999 54.6809 87.3999C54.0809 88.9999 53.6809 90.4999 53.1809 92.0999C52.9809 92.6999 52.7809 93.3999 52.4809 94.0999C52.3809 94.1999 52.4809 94.3999 52.5809 94.3999C52.6809 94.2999 52.7809 94.2999 52.8809 94.1999Z" fill="#1F5440"/>
<path d="M26.1793 79.5C26.1126 79.5 26.1126 79.5 26.1793 79.5C25.9793 79.6 25.7793 79.5 25.7793 79.4V79.2C25.7793 79.2 25.8793 79.1 25.9793 79.1C26.2793 79 26.6793 79 27.1793 79.1C27.9793 79.2 28.9793 79.5 29.5793 79.6L36.6793 80.3C39.5793 80.6 42.0793 82 44.4793 84C47.7793 86.7 50.4793 90.5 52.8793 93.6C52.9793 93.8 52.9793 94 52.7793 94.1C52.5793 94.2 52.3793 94.2 52.2793 94C49.8793 91 47.0793 87.3 43.8793 84.6C41.6793 82.8 39.2793 81.4 36.5793 81.1L29.5793 80.4C28.7793 80.3 27.6793 79.9 26.7793 79.8C26.4793 79.5 26.2793 79.5 26.1793 79.5Z" fill="#1F5440"/>
<path d="M54.0805 110.6C54.1805 110.6 54.1805 110.7 54.1805 110.8C54.1805 110.9 54.0805 111.1 53.9805 111.1C53.9805 111.1 53.5805 110.9 53.2805 110.6C52.7805 110 51.9805 109 51.5805 108.7C50.1805 107.3 48.6805 106 47.1805 104.8C45.5805 103.7 43.8805 102.7 42.0805 102C36.3805 99.8 29.7805 101.1 24.9805 100.3C23.8805 100.1 22.8805 99.9 21.9805 99.4C21.5805 99.2 21.1805 98.9 20.8805 98.6C20.6805 98.5 20.6805 98.3 20.7805 98.1C20.8805 97.9 21.0805 97.9 21.2805 98C21.6805 98.2 21.9805 98.4 22.3805 98.5C23.2805 98.9 24.1805 99.1 25.1805 99.3C30.0805 100.1 36.6805 98.8 42.4805 101C44.3805 101.7 46.1805 102.8 47.7805 104C49.3805 105.2 50.8805 106.6 52.2805 108.1C52.6805 108.5 53.4805 109.5 53.8805 110.2C53.8805 110.3 54.0805 110.6 54.0805 110.6Z" fill="#1F5440"/>
<path d="M56.1801 112.6V112.8C56.1801 112.9 56.0801 112.9 55.9801 112.9C55.8801 112.9 55.7801 112.9 55.6801 112.7C55.6801 112.6 55.5801 112.4 55.5801 112.1C55.5801 111.3 55.6801 110 55.7801 109.8C56.0801 109 56.3801 108.3 56.7801 107.6C57.3801 106.5 58.0801 105.5 58.7801 104.6C59.5801 103.6 60.3801 102.7 61.2801 101.8C64.0801 99.1 67.1801 96.8 69.9801 94.1C70.6801 93.4 71.3801 92.8 71.9801 92C72.0801 91.8 72.3801 91.8 72.4801 91.9C72.6801 92 72.6801 92.3 72.5801 92.4C72.2801 92.9 71.8801 93.4 71.4801 93.9C71.0801 94.4 70.6801 94.8 70.1801 95.2C66.7801 98.6 62.5801 101.1 59.5801 105C58.9801 105.7 58.3801 106.5 57.8801 107.4C57.3801 108.2 56.8801 109.1 56.5801 109.9C56.4801 110.2 56.2801 111.7 56.1801 112.2V112.6Z" fill="#1F5440"/>
<path d="M56.4707 128.1C56.6707 128.1 57.2707 127.5 57.2707 127.5C58.1707 127 59.0707 126.6 59.9707 126.2C60.8707 125.8 61.8707 125.4 62.7707 125C66.7707 123.3 70.8707 121.9 74.3707 119.6C76.6707 118.1 78.6707 116.2 80.1707 113.6C80.2707 113.4 80.5707 113.3 80.7707 113.4C80.9707 113.5 81.0707 113.8 80.9707 114C79.3707 116.7 77.2707 118.7 74.8707 120.3C71.3707 122.6 67.2707 124.1 63.1707 125.8L57.6707 128.2C57.5707 128.2 56.8707 128.5 56.5707 128.6C56.3707 128.6 56.2707 128.6 56.1707 128.5C56.0707 128.4 56.0707 128.2 56.1707 128.1C56.2707 128 56.3707 128 56.4707 128.1C56.4707 128.033 56.4707 128.033 56.4707 128.1C56.4707 128 56.3707 127.9 56.4707 128.1Z" fill="#1F5440"/>
<path d="M27.3797 116C27.2797 116 27.1797 115.8 27.1797 115.7C27.1797 115.5 27.3797 115.5 27.4797 115.4C27.6797 115.4 28.0797 115.9 28.2797 116C28.5797 116.3 28.9797 116.6 29.2797 116.8C29.8797 117.2 30.3797 117.5 30.9797 117.9C32.0797 118.6 33.2797 119.2 34.3797 119.8C35.5797 120.4 36.7797 120.9 37.9797 121.4C41.9797 123 47.9797 123.6 52.1797 126C54.1797 127.1 55.7797 128.5 56.7797 130.6C56.8797 130.8 56.7797 131 56.5797 131.1C56.3797 131.2 56.1797 131.1 56.0797 130.9C55.1797 129 53.5797 127.6 51.7797 126.6C47.4797 124.3 41.6797 123.7 37.5797 122.1C36.0797 121.5 34.5797 120.9 33.1797 120.2C32.1797 119.7 31.2797 119.2 30.3797 118.6C29.7797 118.2 29.1797 117.9 28.6797 117.4C28.2797 117.1 27.8797 116.8 27.5797 116.5C27.4797 116.4 27.3797 116 27.2797 115.9C27.5797 116 27.4797 116 27.3797 116H27.4797C27.5797 115.9 27.4797 115.9 27.3797 116Z" fill="#1F5440"/>
<path d="M26.4691 133C26.6691 133.2 26.7691 133.4 26.8691 133.5C28.3691 135.1 29.6691 136.5 31.2691 137.9C32.3691 138.9 33.6691 139.8 35.2691 140.4C39.7691 142.1 44.4691 142.3 48.1691 144.2C50.4691 145.4 52.3691 147.3 53.3691 150.7C53.4691 150.9 53.6691 151 53.8691 151C54.0691 150.9 54.1691 150.7 54.1691 150.5C53.1691 146.7 51.1691 144.6 48.6691 143.3C44.9691 141.4 40.1691 141.2 35.6691 139.5C34.5691 139.1 33.6691 138.5 32.7691 137.9C31.4691 136.9 30.4691 135.8 29.2691 134.7C28.6691 134.1 28.0691 133.5 27.3691 132.9C27.1691 132.8 26.9691 132.7 26.7691 132.6C26.6691 132.5 26.4691 132.5 26.3691 132.6C26.3691 132.7 26.3691 132.9 26.4691 133Z" fill="#1F5440"/>
<path d="M54.5805 152.4C54.4805 152.4 54.7805 151.7 54.8805 151.7C55.6805 150.8 56.4805 150 57.4805 149.3C58.8805 148.3 60.4805 147.4 62.0805 146.8C68.3805 144.1 73.0805 143.6 77.8805 141.6C80.2805 140.6 82.5805 139.2 85.2805 137.1C85.8805 136.7 86.3805 136.2 86.9805 135.7C87.1805 135.6 87.3805 135.6 87.5805 135.7C87.6805 135.9 87.6805 136.1 87.5805 136.2L85.9805 137.8C83.2805 140.1 80.7805 141.4 78.2805 142.5C73.4805 144.5 68.7805 145 62.4805 147.7C61.1805 148.2 59.9805 148.9 58.7805 149.6C57.5805 150.4 56.4805 151.2 55.5805 152.2L54.7805 152.9C54.6805 152.9 54.4805 152.8 54.4805 152.6C54.4805 152.5 54.4805 152.4 54.5805 152.4Z" fill="#1F5440"/>
<path d="M27.3801 154.6C27.4801 154.5 27.5801 154.7 27.5801 154.9C27.8801 155.4 27.9801 156.3 28.3801 156.7C29.0801 157.6 29.9801 158.4 30.8801 159.2C31.7801 160 32.7801 160.7 33.7801 161.3C38.0801 164.1 42.6801 164.7 46.2801 166.7C48.5801 168 50.3801 169.9 51.4801 173.5C51.5801 173.7 51.7801 173.8 51.9801 173.8C52.1801 173.8 52.2801 173.5 52.2801 173.3C51.2801 169.4 49.2801 167.3 46.8801 165.9C43.2801 163.8 38.6801 163.3 34.3801 160.6C33.3801 160 32.4801 159.3 31.5801 158.6C30.6801 157.9 29.8801 157.1 29.0801 156.3C28.6801 155.9 28.4801 154.8 28.0801 154.4C27.8801 154.2 27.5801 154.1 27.2801 154.3C27.1801 154.4 27.0801 154.5 27.1801 154.6H27.3801Z" fill="#1F5440"/>
<path d="M44.8799 54.1C44.6799 53.8 44.2799 53.4001 44.0799 53.2001L42.6799 50.9001C42.0799 49.8001 41.4799 48.6001 41.0799 47.4001C40.5799 46.2001 40.2799 44.9 40.0799 43.6C39.5799 40.7 39.9799 38.1 40.7799 35.7001C41.9799 32.1 44.0799 28.8 45.6799 25C45.9799 24.4 46.4799 21.8 46.9799 20.3C47.1799 19.6 47.5799 19.1 47.7799 18.9C47.9799 18.8 48.2799 18.7 48.5799 19C48.6799 19.2 48.9799 19.7 48.9799 19.8C49.8799 21.9 50.9799 23.9 51.7799 26C52.3799 27.4 52.8799 28.9 53.2799 30.4C54.0799 33.8 53.9799 37.0001 53.1799 39.9001C51.9799 44.3001 49.3799 48.3 46.5799 52.3C46.3799 52.5 46.0799 52.6001 45.8799 52.4001C45.6799 52.2001 45.5799 51.9001 45.7799 51.7001C48.4799 47.7001 50.8799 43.8 51.9799 39.5C52.6799 36.7001 52.8799 33.8 52.0799 30.6C51.7799 29.1 51.2799 27.8 50.6799 26.4C49.8799 24.5 48.8799 22.6 48.0799 20.6C47.9799 20.8 47.9799 21 47.8799 21.2C47.3799 22.7 46.9799 24.9 46.6799 25.4C45.0799 29.1 42.9799 32.4 41.7799 36C40.9799 38.3 40.5799 40.7001 40.9799 43.5C41.1799 44.7001 41.4799 45.9 41.8799 47.1C42.2799 48.3 42.7799 49.4 43.3799 50.5L44.6799 52.7001C44.8799 53 45.2799 53.7001 45.3799 53.9001C45.5799 54.3001 45.1799 54.5 45.1799 54.4001C45.1799 54.4001 44.9799 54.5 44.8799 54.2001V54.1C44.8799 54.0334 44.8799 54.0334 44.8799 54.1ZM45.0799 53.8C45.1466 53.8 45.2132 53.8334 45.2799 53.9001H45.3799C45.3799 53.8001 45.1799 53.8 45.0799 53.8Z" fill="#1F5440"/>
<path d="M0.780078 44.8C0.680078 44.7 0.680078 44.5 0.580078 44.4L0.480078 44.2C0.480078 44.1 0.480078 44 0.580078 43.9C0.580078 43.9 0.680078 43.8 0.880078 43.9C0.980078 43.9 0.980078 44 1.08008 44.1V44.2L1.48008 44.8H2.58008C5.28008 44.9 7.68008 45.6 9.88008 46.7C13.7801 48.6 17.0801 51.7 21.3801 54.3C23.3801 55.5 25.3801 56.6 27.4801 57.6C30.6801 59.1 33.8801 60.5 37.0801 61.9C38.7801 62.7 41.3801 64.8 43.1801 67.2C44.4801 68.9 45.3801 70.7 45.3801 72.2C45.3801 72.7 45.0801 72.8 44.6801 72.7C44.3801 72.6 43.8801 72.3 43.5801 72.2L41.1801 71.7C39.8801 71.5 38.5801 71.4 37.2801 71.4C35.9801 71.4 34.7801 71.5 33.4801 71.7C32.0801 71.9 27.1801 70.9 22.3801 69.6C17.3801 68.2 12.5801 66.5 11.7801 65.6C10.9801 64.8 10.3801 63.8 9.88008 62.6C8.78008 60.2 8.18008 57.4 7.08008 55.3C6.58008 54.3 5.98008 53.3 5.38008 52.3C4.48008 50.8 3.58008 49.3 2.68008 47.9C2.28008 47.2 1.78008 46.5 1.28008 45.8C1.08008 45.8 0.880078 45.7 0.580078 45.7C0.280078 45.7 0.0800781 45.5 0.0800781 45.3C0.0800781 45 0.280078 44.8 0.480078 44.8H0.780078ZM2.38008 45.9L3.48008 47.5C4.28008 48.7 5.08008 49.9 5.88008 51.1C6.68008 52.3 7.38008 53.6 8.08008 54.9C9.18008 57 9.88008 59.8 10.9801 62.2C11.4801 63.2 11.9801 64.1 12.6801 64.8C13.4801 65.6 18.0801 67.1 22.7801 68.4C27.3801 69.7 32.0801 70.7 33.3801 70.5C34.7801 70.3 36.0801 70.2 37.3801 70.3C38.6801 70.3 39.9801 70.5 41.3801 70.7L43.8801 71.3C43.9801 71.3 44.3801 71.4 44.5801 71.5C44.3801 70.3 43.5801 68.9 42.5801 67.5C40.7801 65.3 38.2801 63.3 36.6801 62.6C33.3801 61.2 30.1801 59.9 26.9801 58.4C24.8801 57.4 22.7801 56.3 20.6801 55.1C16.4801 52.5 13.0801 49.6 9.28008 47.7C7.28008 46.7 5.08008 46.1 2.58008 45.9H2.38008Z" fill="#1F5440"/>
<path d="M50.2804 71.9V72.9C50.2804 74 50.2804 74.9 50.5804 75.1C50.6804 75.2 50.7804 75.3 50.6804 75.4C50.5804 75.5 50.4804 75.6 50.3804 75.5C49.8804 75.3 49.5804 74.2 49.5804 72.9C49.4804 70.6 49.8804 67.5 49.9804 66.9C50.3804 62.2 51.3804 59 53.2804 56.5C55.1804 53.9 57.8804 51.9 61.4804 49.2C62.0804 48.8 62.5804 48.3 63.0804 47.9C63.5804 47.4 63.9804 46.9 64.3804 46.3C64.3804 46.2 64.9804 45.4 65.1804 45.1C65.4804 44.7 65.8804 44.9 65.9804 44.9C66.0804 45 66.2804 45.2 66.3804 45.5C66.5804 46 66.5804 47.2 66.4804 48.6C66.2804 51.6 65.5804 55.6 65.3804 56.2C64.8804 57.5 64.2804 58.8 63.4804 60.1C62.7804 61.3 61.8804 62.5 61.0804 63.6C60.4804 64.3 59.8804 65 59.1804 65.6C56.9804 67.4 54.4804 68.7 52.3804 70.5C51.8804 70.9 51.3804 71.4 50.9804 71.9C50.6804 71.9 50.4804 72 50.2804 71.9ZM65.3804 46.4L65.0804 46.8C64.6804 47.4 64.1804 48 63.6804 48.5C63.1804 49 62.6804 49.5 61.9804 50C58.4804 52.6 55.8804 54.6 54.0804 57.1C52.2804 59.6 51.1804 62.5 50.7804 67C50.7804 67.4 50.4804 69.1 50.3804 70.8C50.4804 70.6 50.6804 70.4 50.8804 70.1C51.1804 69.7 51.4804 69.4 51.8804 69.1C54.3804 66.9 57.8804 65.4 59.9804 62.7C60.7804 61.6 61.5804 60.5 62.2804 59.3C62.9804 58.1 63.5804 56.9 64.0804 55.6C64.2804 55.1 64.6804 52.8 64.9804 50.4C65.1804 49 65.2804 47.5 65.3804 46.4Z" fill="#1F5440"/>
<path d="M68.5806 68.3C68.5806 68.3 68.5806 68.2 68.6806 68.2C68.9806 67.7 69.2806 67.6 69.5806 68.1C69.6806 68.2 69.6806 68.4 69.5806 68.5C69.4806 68.5 69.4806 68.6 69.3806 68.5V68.6C69.4806 70 69.3806 71.4 69.1806 72.7C68.7806 74.7 68.0806 76.7 67.2806 78.5C66.7806 79.6 66.1806 80.8 65.4806 81.8C64.7806 82.9 63.9806 83.8 62.9806 84.7C61.1806 86.2 59.6806 87.2 58.5806 87.7C56.6806 88.5 55.5806 88.2 54.8806 87.4C53.0806 85.3 54.6806 79 55.2806 78.4C55.9806 77.7 56.8806 77.1 57.7806 76.6C59.7806 75.4 61.9806 74.5 63.8806 73.4C64.7806 72.9 65.6806 72.3 66.4806 71.7C66.9806 71.3 67.4806 70.8 67.8806 70.3C68.1806 70 68.2806 69.2 68.4806 68.7C68.3806 68.5 68.4806 68.4 68.5806 68.3ZM68.3806 70.6L68.2806 70.7C67.8806 71.3 67.3806 71.8 66.7806 72.3C65.9806 73 65.0806 73.5 64.1806 74.1C62.2806 75.3 60.0806 76.3 58.1806 77.5C57.3806 78 56.5806 78.6 55.8806 79.2C55.2806 79.7 53.7806 85.2 55.3806 86.9C55.8806 87.5 56.7806 87.5 58.1806 86.9C59.2806 86.4 60.6806 85.5 62.3806 84C63.2806 83.2 64.0806 82.3 64.6806 81.3C65.3806 80.3 65.8806 79.2 66.3806 78.1C67.0806 76.6 67.5806 75 67.9806 73.4C68.1806 72.5 68.3806 71.6 68.3806 70.6Z" fill="#1F5440"/>
<path d="M26.9693 78.6C27.2693 78.4 27.6693 78.3 28.0693 78.1C30.1693 77.3 32.7693 76.5 35.1693 76.1C37.3693 75.8 39.5693 75.8 41.4693 76.7C42.5693 77.2 43.4693 78.1 44.2693 79.2C45.8693 81.4 46.8693 84.6 47.8693 86.7C47.9693 86.8 48.5693 87.6 48.7693 88.2C48.9693 88.6 48.7693 88.9 48.5693 89.1C48.4693 89.2 48.3693 89.2 48.1693 89.2C48.0693 89.2 47.8693 89.1 47.7693 89.1C44.7693 88.2 41.4693 87.7 38.3693 86.9C36.9693 86.5 35.6693 86.1 34.3693 85.6C33.6693 85.3 32.9693 84.9 32.3693 84.5C30.2693 83 28.4693 81.1 26.2693 79.6C26.0693 79.4 25.8693 79.3 25.5693 79.1C25.3693 79 25.2693 78.7 25.3693 78.5C25.4693 78.3 25.7693 78.2 25.9693 78.3C26.3693 78.3 26.6693 78.4 26.9693 78.6ZM47.4693 88.1C47.2693 87.7 47.1693 87.2 47.1693 87.1C46.2693 85.3 45.3693 82.8 44.0693 80.8C43.2693 79.4 42.2693 78.3 40.9693 77.7C39.2693 76.9 37.2693 76.9 35.2693 77.2C32.8693 77.5 30.4693 78.4 28.2693 79C28.0693 79 27.9693 79.1 27.7693 79.1C27.8693 79.2 27.9693 79.2 28.0693 79.3C30.4693 80.9 32.1693 83.3 34.8693 84.5C36.0693 85 37.3693 85.4 38.6693 85.8C41.6693 86.5 44.6693 87.1 47.4693 88.1Z" fill="#1F5440"/>
<path d="M49.7809 106.4C49.1809 105.4 48.4809 104.5 47.6809 103.6C46.3809 102.2 44.8809 101 43.5809 99.7C41.4809 97.6 39.4809 96.7 37.3809 96.4C33.9809 95.9 30.5809 97.1 26.4809 97.9L21.4809 98.3C21.3809 98.4 21.1809 98.4 21.0809 98.3C20.9809 98.2 20.9809 98 21.0809 97.9C21.2809 97.7 21.6809 97.5 22.1809 97.4C23.4809 97.1 25.5809 97.2 26.2809 97C30.4809 96.2 34.0809 95 37.4809 95.4C39.7809 95.7 41.9809 96.7 44.2809 99C45.5809 100.3 46.9809 101.6 48.2809 103C49.1809 104 49.9809 105 50.5809 106.2C50.5809 106.3 50.9809 106.9 51.0809 107.1C51.1809 107.4 51.0809 107.6 51.0809 107.7C51.0809 107.7 50.8809 107.9 50.4809 107.7C50.1809 107.6 49.4809 107.3 49.4809 107.3C48.3809 106.9 47.1809 106.7 45.9809 106.5C44.1809 106.2 42.2809 106.1 40.4809 105.8C38.6809 105.5 36.8809 105.4 35.0809 105.1C34.2809 105 33.4809 104.8 32.6809 104.6C31.0809 104.2 29.4809 103.6 27.8809 102.8C26.0809 101.9 24.2809 101 22.5809 99.9C22.1809 99.6 21.7809 99.3 21.3809 99C21.1809 98.9 21.0809 98.6 21.2809 98.4C21.3809 98.2 21.6809 98.1 21.8809 98.3C22.2809 98.5 22.7809 98.7 23.2809 98.9C24.9809 99.8 26.6809 100.9 28.4809 101.7C29.9809 102.4 31.4809 103 32.9809 103.4C33.6809 103.6 34.4809 103.7 35.1809 103.8C36.9809 104.1 38.7809 104.2 40.5809 104.5C42.6809 104.9 44.8809 105 46.9809 105.5C48.0809 105.7 48.9809 106 49.7809 106.4Z" fill="#1F5440"/>
<path d="M26.6805 114.6C26.4805 114.4 26.4805 114.1 26.6805 114C26.8805 113.8 27.1805 113.8 27.2805 114C27.4805 114.2 27.7805 114.3 27.9805 114.5C30.2805 116.2 32.5805 117 35.0805 117.3C37.9805 117.7 41.0805 117.8 44.0805 118.8C46.2805 119.6 48.5805 120.8 50.6805 123.2C51.2805 123.9 51.8805 124.5 52.5805 125.1C53.1805 125.7 53.8805 126.3 54.5805 126.9C54.8805 127.2 55.7805 127.4 56.0805 127.7C56.3805 128 56.4805 128.3 56.0805 128.7C55.9805 128.8 55.6805 128.9 55.1805 128.8C53.7805 128.7 50.3805 128.1 49.7805 128.1C44.7805 128.1 41.0805 130 37.6805 129C35.6805 128.4 33.7805 126.9 31.7805 123.3C31.1805 122.2 30.5805 121 29.9805 119.9C29.5805 119.2 29.1805 118.4 28.6805 117.7L27.3805 115.9C27.1805 115.6 26.5805 115 26.4805 114.8C26.6805 114.7 26.6805 114.6 26.6805 114.6ZM29.1805 116.7L29.5805 117.2C29.9805 117.7 30.2805 118.3 30.5805 118.8C31.3805 120.1 31.9805 121.4 32.6805 122.8C34.4805 126 36.1805 127.5 37.9805 128C41.2805 128.9 44.8805 127 49.7805 127L54.3805 127.8C54.1805 127.7 54.0805 127.5 53.9805 127.5C53.1805 126.8 52.3805 126.1 51.5805 125.4L50.0805 123.9C48.0805 121.7 45.9805 120.6 43.8805 119.9C40.9805 119 37.9805 119 35.0805 118.6C32.9805 118.2 30.9805 117.8 29.1805 116.7Z" fill="#1F5440"/>
<path d="M27.0803 132.3C27.0803 132.2 27.0803 132.1 27.1803 132C27.2803 131.8 27.5803 131.8 27.7803 131.9C28.3803 132.3 29.0803 132.7 29.6803 133C31.2803 133.9 32.7803 134.5 34.3803 135C38.0803 136.1 41.7803 136.5 45.1803 138.1C47.3803 139.2 49.4803 140.8 51.3803 143.5C51.5803 143.8 52.2803 144.5 52.6803 145.2C52.9803 145.6 53.1803 146 53.1803 146.3C53.1803 146.7 52.9803 146.9 52.6803 146.9C52.4803 146.9 52.0803 146.8 51.8803 146.8L45.5803 147.2C40.7803 147.6 38.1803 147.7 36.1803 146.6C34.2803 145.5 32.8803 143.3 30.6803 139C30.2803 138.3 29.9803 137.6 29.5803 136.9C29.1803 136.2 28.7803 135.5 28.3803 134.9C28.0803 134.4 27.0803 133.7 26.8803 133.2C26.4803 132.7 26.4803 132.4 27.0803 132.3ZM27.3803 132.7C27.3803 132.7 27.3803 132.8 27.2803 132.8C27.6803 133.2 28.5803 133.9 28.8803 134.4C29.2803 135.1 29.7803 135.8 30.1803 136.5C30.5803 137.2 30.9803 137.9 31.2803 138.6C33.3803 142.7 34.5803 144.9 36.4803 145.9C38.3803 147 40.8803 146.8 45.3803 146.4L51.6803 145.9H51.8803C51.7803 145.8 51.7803 145.7 51.6803 145.6C51.2803 145 50.6803 144.4 50.4803 144.2C48.6803 141.7 46.6803 140.3 44.5803 139.3C41.1803 137.7 37.5803 137.4 33.8803 136.3C32.2803 135.8 30.5803 135.2 28.9803 134.1C28.4803 133.7 27.8803 133.2 27.3803 132.7Z" fill="#1F5440"/>
<path d="M27.3796 153.7V153.4C27.4796 153.2 27.6796 153.2 27.8796 153.3C28.3796 153.6 28.7796 153.8 29.2796 154.1C30.9796 155.3 32.4796 156.7 34.1796 157.9C35.0796 158.5 35.9796 159.1 36.9796 159.6C38.4796 160.3 39.9796 160.9 41.4796 161.6C42.0796 161.9 42.7796 162.2 43.3796 162.6C44.0796 163 44.6796 163.3 45.3796 163.7C45.7796 164 46.2796 164.3 46.6796 164.6C46.9796 164.8 48.9796 166.6 49.9796 167.8C50.4796 168.4 50.5796 169 50.3796 169.2C50.0796 169.5 49.4796 169.7 48.6796 169.6C46.8796 169.5 43.7796 168.4 43.0796 168.3C41.2796 168 39.5796 168.4 37.7796 168.3C36.9796 168.3 36.1796 168.1 35.3796 167.9C33.6796 167.3 32.5796 166.3 31.6796 165.1C30.3796 163.3 29.7796 161.1 29.0796 158.9C28.9796 158.6 27.6796 155.8 27.2796 154.6C27.0796 154.2 27.1796 153.9 27.1796 153.8C27.0796 153.7 27.2796 153.6 27.3796 153.7ZM27.4696 153.9C27.5696 154 27.5696 154.1 27.6696 154.3C28.2696 155.4 29.5696 158.3 29.6696 158.6C30.3696 160.7 30.9696 162.9 32.1696 164.5C32.9696 165.6 33.9696 166.4 35.4696 166.9C36.1696 167.1 36.8696 167.2 37.5696 167.3C39.3696 167.4 41.1696 167.1 42.9696 167.4C43.5696 167.5 45.9696 168.4 47.7696 168.7C48.5696 168.8 49.1696 168.9 49.4696 168.7C49.4696 168.7 49.3696 168.5 49.3696 168.4C49.1696 168.1 48.8696 167.7 48.4696 167.3C47.4696 166.3 46.2696 165.2 46.0696 165.1C45.6696 164.8 45.2696 164.5 44.8696 164.3C44.2696 163.9 43.5696 163.6 42.9696 163.2C42.3696 162.9 41.7696 162.6 41.0696 162.3C39.5696 161.6 38.0696 161 36.5696 160.4C35.1696 159.7 33.8696 158.9 32.6696 158.1C31.2696 157.1 29.8696 156 28.4696 154.9C28.1696 154.5 27.8696 154.2 27.4696 153.9Z" fill="#1F5440"/>
<path d="M50.5791 174.7C50.4791 174.2 51.3791 173.3 52.3791 172.3C53.8791 170.9 55.6791 169.3 56.0791 168.9C58.6791 166.3 60.9791 164.9 63.1791 164.2C67.4791 162.8 71.2791 163.9 75.3791 163.2C77.3791 162.9 79.4791 162.2 81.5791 160.5C81.9791 160.2 82.3791 159.8 82.7791 159.3C82.9791 159.2 82.9791 158.9 82.7791 158.8C82.6791 158.6 82.3791 158.6 82.2791 158.8C81.7791 159.1 81.3791 159.4 80.8791 159.7C78.7791 161.1 76.9791 161.8 75.0791 162.2C70.9791 162.9 67.0791 161.8 62.7791 163.3C60.4791 164.1 58.0791 165.6 55.3791 168.4C54.8791 168.9 52.5791 170.8 51.2791 172.5C50.4791 173.5 49.9791 174.5 50.0791 174.9C50.0791 175 50.2791 175.1 50.3791 175.1C50.4791 175.1 50.5791 174.8 50.5791 174.7Z" fill="#1F5440"/>
<path d="M54.8793 169.3C54.8793 169 54.9793 168.5 55.0793 168.3L55.8793 166C56.3793 164.6 56.9793 163.2 57.7793 161.9C58.2793 161 58.9793 160.2 59.7793 159.5C61.1793 158.2 62.5793 157.7 64.0793 157.5C67.4793 157.2 70.8793 159.2 74.3793 159.2C77.4793 159.2 80.7793 157.6 82.3793 157.3C83.1793 157.2 83.5793 157.4 83.6793 157.7C84.0793 158.9 83.5793 160.3 82.6793 161.6C81.4793 163.4 79.4793 165 78.4793 165.6C74.7793 167.9 72.1793 169 69.8793 169.5C65.8793 170.3 62.8793 169.2 57.2793 168.6C56.8793 168.6 56.3793 168.5 55.8793 168.4H55.6793V168.5C55.5793 168.8 55.3793 169.6 55.2793 169.7C55.1793 169.8 55.0793 169.8 55.0793 169.8C54.9793 169.8 54.8793 169.8 54.7793 169.5C54.7793 169.5 54.7793 169.3 54.8793 169.3ZM82.8793 158.1C82.7793 158.2 82.4793 158.1 82.1793 158.2C81.0793 158.5 79.1793 159.3 77.2793 159.7C76.3793 159.9 75.3793 160.1 74.4793 160.1C70.9793 160.2 67.5793 158.1 64.2793 158.4C62.9793 158.5 61.7793 159 60.4793 160.1C59.7793 160.7 59.1793 161.5 58.5793 162.3C57.7793 163.5 57.1793 164.9 56.5793 166.2L56.0793 167.7H57.3793C62.8793 167.9 65.7793 169.3 69.6793 168.6C71.8793 168.2 74.3793 167.1 77.9793 164.9C78.9793 164.3 80.7793 162.8 81.9793 161.1C82.6793 160.1 83.1793 159 82.8793 158.1Z" fill="#1F5440"/>
<path d="M57.1801 150V149.6C57.2801 149.3 57.2801 149 57.3801 148.8C57.4801 148.4 57.6801 148 57.8801 147.6C58.3801 146.6 58.9801 145.7 59.7801 144.9C60.4801 144.1 61.2801 143.3 62.1801 142.6C63.5801 141.5 65.2801 140.9 66.9801 140.5C70.7801 139.6 74.9801 140 78.6801 139C79.9801 138.6 81.2801 138.2 82.5801 137.7C83.4801 137.4 84.2801 137 84.9801 136.5C85.1801 136.4 86.9801 135.1 87.6801 134.6C88.1801 134.3 88.5801 134.4 88.5801 134.4C88.7801 134.6 88.8801 134.8 88.7801 135.2C88.6801 135.6 88.3801 136.2 87.9801 136.9C86.4801 139.1 83.2801 142.5 82.3801 143.2C78.8801 145.9 75.2801 148.7 71.2801 150.4C68.5801 151.6 65.6801 152.2 62.4801 152.1C61.8801 152.1 61.3801 152 60.7801 151.8C59.8801 151.6 58.8801 151.3 57.9801 151C57.7801 150.9 57.5801 150.8 57.2801 150.8C57.0801 150.8 56.8801 150.6 56.8801 150.4C56.7801 150.2 56.9801 150 57.1801 150ZM87.3801 135.9C86.5801 136.5 85.5801 137.2 85.4801 137.3C84.6801 137.8 83.7801 138.2 82.8801 138.6C81.5801 139.1 80.1801 139.6 78.8801 140C75.1801 141 70.9801 140.7 67.1801 141.5C65.5801 141.9 64.0801 142.4 62.7801 143.4C61.9801 144 61.1801 144.7 60.4801 145.5C59.7801 146.3 59.1801 147.1 58.6801 148.1L57.8801 149.8V150C58.0801 150 58.2801 150 58.4801 150.1C59.8801 150.3 61.0801 151 62.4801 151.1C65.4801 151.3 68.2801 150.6 70.7801 149.5C74.7801 147.8 78.2801 145 81.6801 142.4C82.2801 141.9 83.7801 140.4 85.1801 138.7C86.0801 137.7 86.8801 136.7 87.3801 135.9Z" fill="#1F5440"/>
<path d="M60.1797 126.1C60.1797 126.033 60.213 125.933 60.2797 125.8C60.4797 125.1 60.9797 123.4 60.9797 123.3C61.4797 122.2 62.0797 121.1 62.8797 120.2C63.3797 119.5 63.9797 119 64.6797 118.5C65.6797 117.8 66.6797 117.5 67.7797 117.2C70.1797 116.7 72.6797 116.8 74.9797 115.8C75.9797 115.3 77.0797 114.9 78.0797 114.3C78.6797 113.9 79.2797 113.5 79.8797 113L80.5797 112.2C80.6797 112.1 80.8797 112 81.0797 112.1C81.2797 112.2 81.3797 112.4 81.3797 112.6L81.1797 114.6C80.8797 116 80.2797 117.4 79.5797 118.6C78.4797 120.4 76.9797 122 75.6797 123.6C72.7797 127 70.8797 128.2 68.8797 128.4C66.9797 128.6 64.8797 128 61.5797 127C61.2797 126.9 61.0797 126.8 60.7797 126.7C60.6797 126.7 60.4797 126.6 60.4797 126.4H60.3797C60.1797 126.4 60.1797 126.2 60.1797 126.1ZM80.1797 114C79.6797 114.5 79.0797 114.9 78.4797 115.2C77.4797 115.8 76.3797 116.3 75.2797 116.8C72.9797 117.9 70.3797 117.7 67.9797 118.3C66.9797 118.5 66.0797 118.8 65.1797 119.4C64.3797 119.9 63.7797 120.6 63.1797 121.4C62.5797 122.2 62.0797 123 61.6797 123.9C61.6797 123.9 61.1797 125.1 60.8797 125.8C61.1797 125.8 61.3797 125.9 61.6797 125.9C64.8797 126.6 66.7797 127.5 68.5797 127.3C70.3797 127.1 71.9797 125.9 74.5797 122.9C75.8797 121.4 77.2797 119.8 78.3797 118.1C79.0797 117 79.6797 115.8 79.9797 114.5L80.1797 114Z" fill="#1F5440"/>
<path d="M57.8807 106.9V107.1C57.8807 107.2 57.7807 107.3 57.7807 107.3C57.6807 107.4 57.4807 107.4 57.3807 107.1V106.2C57.3807 105.8 57.3807 105.5 57.4807 105.1C57.5807 104.7 57.5807 104.4 57.6807 104C57.8807 103.1 58.1807 102.2 58.5807 101.3C58.9807 100.4 59.3807 99.6 59.9807 98.8C60.8807 97.6 61.8807 96.8 62.9807 96.3C65.4807 95 68.4807 95 70.7807 93C71.3807 92.4 71.9807 91.8 72.5807 91.2C73.8807 89.7 75.1807 88.2 76.5807 86.7C76.5807 86.7 77.1807 86.1 77.3807 85.9C77.5807 85.8 77.7807 85.8 77.8807 85.8C78.0807 85.9 78.1807 86.1 78.0807 86.4C77.9807 86.8 76.9807 87.8 76.9807 87.9C76.2807 88.7 75.6807 89.4 75.1807 90.3C74.7807 90.8 74.4807 91.4 74.1807 92C73.2807 93.9 73.0807 96.1 72.3807 98C72.0807 98.9 71.6807 99.8 70.9807 100.5C69.9807 101.8 68.6807 102.7 67.3807 103.5C64.5807 105.2 61.5807 106.3 58.9807 108.1C58.6807 108.3 58.3807 108.5 58.0807 108.7C57.8807 108.9 57.6807 108.8 57.4807 108.7C57.2807 108.5 57.3807 108.3 57.4807 108.1C57.6807 107.9 57.7807 107.7 57.9807 107.5C58.6807 106.8 59.5807 106.3 60.4807 105.8C62.8807 104.4 65.5807 103.5 67.9807 101.8C68.7807 101.2 69.4807 100.6 70.1807 99.9C70.7807 99.2 71.1807 98.5 71.4807 97.7C72.1807 95.9 72.3807 94 73.1807 92.2C72.6807 92.7 72.1807 93.3 71.5807 93.8C69.2807 95.9 66.1807 96 63.5807 97.3C62.5807 97.8 61.6807 98.5 60.9807 99.5C60.4807 100.2 59.9807 101 59.6807 101.8C59.2807 102.6 58.9807 103.5 58.7807 104.3L58.2807 106.3C57.9807 106.4 57.8807 106.8 57.8807 106.9Z" fill="#1F5440"/>
<path d="M48.2793 31.3C48.1793 31.2 48.1793 30.8 48.1793 30.4V28.6C48.0793 26 48.5793 23.5 48.4793 20.9C48.4793 20.6 48.4793 20.3 48.3793 20C48.3793 19.8 48.1793 19.6 47.9793 19.6C47.7793 19.6 47.5793 19.8 47.5793 20C47.5793 20.2 47.4793 20.3 47.4793 20.5C47.3793 22 47.3793 23.6 47.2793 25.1C47.2793 26.3 47.2793 27.4 47.3793 28.6C47.3793 28.8 47.3793 30.2 47.4793 31C47.5793 31.4 47.6793 31.7 47.7793 31.7C47.8793 31.8 48.0793 31.7 48.0793 31.6C48.3793 31.5 48.3793 31.4 48.2793 31.3Z" fill="#1F5440"/>
<path d="M48.4707 33.7999H48.3707C48.0707 33.6999 47.9707 33.4 47.9707 33C47.9707 32.4 48.2707 31.6 48.3707 31.2L50.4707 24.9C50.4707 24.8 50.6707 24.7 50.7707 24.7C50.8707 24.7 50.9707 24.9 50.9707 25C50.8707 25.4 50.7707 25.8999 50.5707 26.2999C50.0707 27.9999 49.2707 29.5999 48.8707 31.2999C48.7707 31.6999 48.4707 32.5 48.4707 33C48.4707 33.2 48.3707 33.4 48.5707 33.5H48.6707C48.7707 33.6 48.8707 33.6999 48.7707 33.7999C48.7707 33.9 48.6707 33.9 48.5707 33.9C48.504 33.9 48.4707 33.8666 48.4707 33.7999Z" fill="#1F5440"/>
</g>
<defs>
<clipPath id="clip0_472_3586">
<rect width="88.81" height="194.8" fill="white"/>
</clipPath>
</defs>
</svg>
