<svg width="87" height="201" viewBox="0 0 87 201" fill="none" xmlns="http://www.w3.org/2000/svg">
<g clip-path="url(#clip0_472_4095)">
<path d="M27.6801 57.3C26.6801 56 25.6801 53.6 24.7801 52.9C23.8801 52.3 22.9801 51.9 22.0801 51.5C20.6801 50.9 19.1801 50.5 17.6801 49.9C15.0801 48.9 12.3801 47.2 9.88014 45.1C7.38014 43 5.28014 40.6 3.88014 38.2C3.48014 37.5 1.28014 33.6 0.380136 30.7C-0.219864 28.8 -0.119864 27.3 0.780136 26.8C2.28014 26.1 3.58014 26.4 4.78014 27.3C6.98014 29 8.58014 32.8 9.48014 34.6C13.1801 42.2 21.1801 46.1 25.8801 52.6C26.7801 53.9 27.5801 55.3 28.1801 56.8L28.2801 56.9C28.5801 57.3 28.8801 57.6 29.1801 57.7C29.2801 57.7 29.3801 57.9 29.3801 58C29.3801 58.1 29.1801 58.2 29.0801 58.2C28.9801 58.2 28.8801 58.1 28.7801 58V58.1C28.7801 58.2 28.7801 58.4 28.6801 58.4C28.5801 58.4 28.3801 58.4 28.3801 58.3C27.9801 58 27.8801 57.7 27.6801 57.3ZM24.0801 51.7C19.1801 46.1 12.0801 42.2 8.48014 35.2C7.78014 33.7 6.58014 30.8 4.88014 29C3.88014 27.9 2.58014 27.1 1.18014 27.9C0.980136 28 0.880136 28.3 0.880136 28.7C0.880136 29.5 1.18014 30.5 1.58014 31.7C2.58014 34.3 4.18014 37.3 4.58014 37.9C5.98014 40.2 8.08014 42.5 10.4801 44.5C12.8801 46.5 15.4801 48.2 17.9801 49.1C19.4801 49.7 20.9801 50.2 22.3801 50.8C22.9801 51.1 23.4801 51.3 24.0801 51.7Z" fill="#1F5440"/>
<path d="M28.9808 58.6999C28.8808 58.5999 28.7808 58.4999 28.6808 58.2999C28.3808 57.6999 28.1808 56.2999 28.0808 54.5999C27.8808 52.7999 27.8808 50.4999 28.1808 48.4999C28.5808 45.4999 29.6808 42.4999 31.0808 39.4999C33.1808 35.1999 36.0808 31.0999 38.5808 27.5999C39.3808 26.4999 40.9808 24.0999 42.6808 22.8999C43.5808 22.2999 44.5808 21.9999 45.4808 22.2999C46.7808 22.6999 47.0808 23.9999 46.8808 25.5999C46.4808 28.3999 44.1808 32.1999 43.5808 33.0999C40.5808 37.0999 35.5808 43.0999 32.4808 49.1999C30.2808 53.4999 29.0808 57.7999 30.0808 61.4999C30.1808 61.6999 29.9808 61.8999 29.8808 61.8999C29.7808 61.8999 29.4808 61.7999 29.4808 61.6999C29.1808 60.6999 28.9808 59.6999 28.9808 58.6999ZM29.0808 57.2999C29.2808 54.5999 30.3808 51.6999 31.7808 48.7999C34.8808 42.5999 39.8808 36.5999 42.9808 32.4999C43.4808 31.7999 45.1808 28.9999 45.9808 26.4999C46.4808 24.8999 46.5808 23.2999 45.3808 22.8999C44.4808 22.5999 43.4808 23.1999 42.5808 23.9999C41.1808 25.2999 39.9808 27.1999 39.2808 28.0999C36.7808 31.5999 33.9808 35.6999 31.8808 39.8999C30.4808 42.7999 29.3808 45.6999 28.9808 48.5999C28.7808 50.1999 28.6808 51.9999 28.7808 53.5999C28.6808 55.0999 28.8808 56.3999 29.0808 57.2999Z" fill="#1F5440"/>
<path d="M0.380859 27.9C0.580859 28.4 0.780859 28.9 1.18086 29.3C1.88086 30.3 2.78086 31.1 3.48086 32.2C5.08086 34.7 6.58086 37.1 8.38086 39.3C9.58086 40.8 10.7809 42.2 12.1809 43.6C12.9809 44.4 13.7809 45.1 14.6809 45.7C16.7809 47.2 18.9809 48.5 20.9809 50.1C23.4809 52.1 25.3809 54.2 27.0809 56.6C28.7809 59 30.1809 61.5 31.5809 64.3C31.5809 64.4 31.7809 64.4 31.8809 64.4C31.9809 64.4 31.9809 64.2 31.9809 64.1C30.5809 61.3 29.1809 58.7 27.4809 56.3C25.7809 53.9 23.8809 51.7 21.2809 49.7C19.2809 48.1 17.0809 46.8 14.9809 45.3C14.0809 44.7 13.2809 44 12.4809 43.2C11.0809 41.8 9.88086 40.4 8.68086 38.9C6.98086 36.7 5.38086 34.3 3.78086 31.9C3.08086 30.9 2.18086 30 1.48086 29C1.18086 28.6 0.880859 28.2 0.780859 27.7C0.780859 27.6 0.580859 27.5 0.480859 27.5C0.380859 27.6 0.380859 27.8 0.380859 27.9Z" fill="#1F5440"/>
<path d="M24.9799 37.4C24.2799 34.7 23.2799 31 22.9799 27.5C22.7799 25.1 22.9799 22.8 23.8799 21C25.1799 18.1 29.4799 12 32.2799 6.9C33.8799 4.1 34.9799 1.7 34.9799 0.3C34.9799 0.1 34.8799 0 34.6799 0C34.4799 0 34.3799 0.1 34.3799 0.3C34.3799 1.3 33.7799 2.8 32.8799 4.6C30.1799 9.9 24.7799 17.5 23.3799 20.8C22.5799 22.7 22.3799 25.1 22.5799 27.6C22.8799 31.1 23.7799 34.9 24.4799 37.6C24.4799 37.7 24.6799 37.8 24.7799 37.8C24.9799 37.6 25.0799 37.5 24.9799 37.4Z" fill="#1F5440"/>
<path d="M29.5809 58.5C29.2809 53.9001 29.7809 50.3 30.8809 47C32.6809 41.9 36.0809 37.7001 40.1809 32.2C41.8809 29.9 43.1809 26.8 44.6809 24.1C45.3809 22.9 46.0809 21.9 46.9809 21C47.0809 20.9 47.0809 20.7 46.9809 20.5C46.8809 20.4 46.6809 20.4 46.4809 20.5C45.5809 21.4 44.7809 22.5 44.0809 23.7C42.5809 26.3 41.2809 29.5 39.6809 31.7C35.4809 37.3 32.1809 41.5 30.3809 46.7001C29.1809 50 28.6809 53.7001 29.0809 58.4001C29.0809 58.5 29.1809 58.6 29.3809 58.6C29.4809 58.8 29.5809 58.7001 29.5809 58.5Z" fill="#1F5440"/>
<path d="M19.9796 112.4C19.8796 112.3 19.7796 112.3 19.6796 112.2C18.4796 111.4 17.2796 110 16.5796 109.5C13.2796 107 10.2796 104.1 8.0796 100.7C5.8796 97.3 4.4796 93.4 4.4796 89.1C4.4796 87.5 4.0796 84.6 4.5796 82.4C4.7796 81.2 5.2796 80.3 6.1796 79.9C7.1796 79.4 7.9796 80.2 8.5796 81.7C9.7796 85 9.9796 91.9 10.2796 93.7C10.5796 95.2 11.1796 96.5 11.9796 97.8C13.8796 100.8 16.5796 103.2 18.1796 106.4C18.9796 108 19.5796 110.2 20.4796 112.1C20.7796 112.3 21.0796 112.4 21.2796 112.4C21.3796 112.4 21.5796 112.5 21.4796 112.7C21.4796 112.8 21.3796 112.9 21.1796 112.9C20.9796 112.9 20.8796 112.9 20.6796 112.8L20.7796 113C21.2796 114 21.7796 114.8 22.3796 115.5C22.4796 115.6 22.4796 115.8 22.3796 115.9C22.2796 116 22.0796 116 21.9796 115.9C21.2796 115.2 20.6796 114.3 20.1796 113.3C20.2796 113 20.1796 112.7 19.9796 112.4ZM19.6796 111.5C18.9796 109.8 18.3796 108 17.6796 106.7C16.0796 103.5 13.2796 101.1 11.4796 98.2C10.6796 96.9 10.0796 95.5 9.6796 93.9C9.3796 92.4 9.1796 87 8.4796 83.4C8.0796 81.4 7.5796 79.9 6.4796 80.4C5.7796 80.8 5.3796 81.6 5.1796 82.5C4.6796 84.6 5.0796 87.5 5.0796 89.1C5.0796 93.3 6.3796 97.1 8.5796 100.4C10.6796 103.7 13.6796 106.6 16.8796 109C17.4796 109.5 18.5796 110.7 19.6796 111.5Z" fill="#1F5440"/>
<path d="M69.2794 137.7C69.3794 137.8 69.3794 138 69.2794 138.1C69.0794 138.3 68.9794 138.2 68.8794 138.2C68.7794 138.2 68.7794 138.1 68.7794 138C68.7794 137.8 68.9794 137.2 68.9794 136.9L69.2794 134.8C69.3794 133.8 69.3794 132.8 69.2794 131.8C69.1794 130.8 69.0794 129.8 68.8794 128.9C68.1794 125.7 66.8794 122.6 66.2794 119.4C65.8794 117.2 65.6794 115 66.1794 112.8C66.3794 112 66.8794 110 67.6794 108.9C68.1794 108.2 68.7794 107.8 69.3794 107.9C70.1794 108 70.8794 108.8 71.1794 110C71.7794 112 71.8794 115.1 71.8794 116C71.8794 119.2 71.7794 122.3 71.4794 125.4C71.0794 130.1 70.3794 134.7 69.8794 139.4C69.8794 139.5 69.7794 139.6 69.5794 139.6C69.4794 139.6 69.3794 139.5 69.3794 139.3C69.8794 134.6 70.3794 129.9 70.7794 125.3C71.0794 122.2 71.1794 119.1 71.1794 115.9C71.1794 115.1 71.0794 112.8 70.6794 110.9C70.3794 109.6 70.0794 108.5 69.2794 108.5C68.6794 108.5 68.2794 109 67.8794 109.7C67.2794 110.8 66.8794 112.3 66.7794 112.9C66.2794 115.1 66.4794 117.2 66.8794 119.3C67.4794 122.5 68.7794 125.6 69.4794 128.8C69.6794 129.8 69.8794 130.8 69.8794 131.8C69.9794 132.8 69.8794 133.8 69.8794 134.9L69.5794 137C69.5794 137.1 69.3794 137.5 69.2794 137.7ZM69.2794 137.8C69.2127 137.867 69.2127 137.867 69.2794 137.8C69.2794 137.867 69.2794 137.867 69.2794 137.8Z" fill="#1F5440"/>
<path d="M64.0807 150.9V150.3L64.1807 148.3C64.1807 147.4 64.1807 146.4 64.0807 145.5C63.9807 144.6 63.8807 143.6 63.7807 142.7C63.6807 141.6 63.3807 140.6 63.0807 139.6C61.9807 135.4 59.9807 131.6 59.1807 127.3C59.0807 126.6 58.6807 124.7 58.9807 123.5C59.1807 122.8 59.4807 122.3 60.1807 122.1C60.9807 121.9 61.6807 122.5 62.2807 123.5C63.2807 125.2 64.0807 127.9 64.2807 128.7C65.2807 132.7 66.3807 137.1 66.4807 141.5C66.5807 144.5 66.1807 147.4 65.0807 150.1C65.0807 150.2 64.8807 150.3 64.7807 150.2C64.6807 150.2 64.5807 150 64.6807 149.9C65.6807 147.3 65.9807 144.4 65.8807 141.5C65.6807 137.2 64.6807 132.7 63.6807 128.8C63.4807 128.1 62.9807 126 62.1807 124.4C61.6807 123.3 61.0807 122.4 60.2807 122.6C59.6807 122.7 59.4807 123.3 59.4807 124C59.3807 125.1 59.5807 126.5 59.6807 127.1C60.4807 131.4 62.4807 135.2 63.5807 139.4C63.8807 140.4 64.0807 141.5 64.2807 142.6C64.3807 143.5 64.4807 144.5 64.5807 145.4C64.6807 146.3 64.6807 147.3 64.6807 148.3L64.5807 150.4C64.5807 150.7 64.4807 151.4 64.4807 151.5C64.3807 151.8 64.0807 151.7 64.0807 151.7C64.0807 151.7 63.9807 151.6 63.9807 151.5V151.4C63.5807 151.2 63.7807 150.9 64.0807 150.9ZM63.9807 151.1C64.0474 151.1 64.0474 151.1 63.9807 151.1C64.1807 151.1 64.3807 151.2 64.3807 151.3C64.3807 150.9 64.1807 150.8 63.9807 150.8C64.0807 151 63.9807 151.1 63.9807 151.1C63.8807 151.1 63.8807 151.2 63.8807 151.3C63.9474 151.3 63.9807 151.233 63.9807 151.1Z" fill="#1F5440"/>
<path d="M64.1797 152C64.1797 152 64.0797 152.1 63.9797 152.1C63.8797 152.1 63.7797 152 63.7797 152C63.6797 151.9 63.6797 151.8 63.6797 151.7C63.6797 151.7 63.6797 151.6 63.8797 151.5C63.9797 151.4 64.5797 151.3 64.8797 151.2L66.3797 150.3C67.1797 149.8 67.8797 149.2 68.5797 148.5C69.2797 147.9 69.8797 147.2 70.4797 146.4C72.6797 143.6 74.5797 140.3 77.0797 137.6C78.1797 136.4 79.3797 135.4 80.7797 134.5C81.4797 134.1 82.8797 133.4 84.1797 133.3C85.0797 133.2 85.9797 133.4 86.4797 134.2C86.9797 135 86.9797 135.9 86.6797 136.8C85.9797 138.6 84.0797 140.5 83.1797 141.5C80.6797 144.2 77.9797 146.4 75.0797 148.3C72.0797 150.1 68.8797 151.5 65.2797 152.3C65.0797 152.3 64.8797 152.2 64.8797 152C64.8797 151.8 64.9797 151.6 65.1797 151.6C68.6797 150.8 71.8797 149.5 74.7797 147.8C77.6797 146 80.3797 143.8 82.8797 141.2C83.5797 140.4 85.0797 138.9 85.8797 137.4C86.3797 136.4 86.5797 135.4 85.9797 134.6C85.5797 134.1 84.8797 134 84.1797 134C83.0797 134.1 81.7797 134.7 81.1797 135.1C79.3797 136.1 77.8797 137.5 76.5797 139.1C74.5797 141.5 72.8797 144.3 70.9797 146.7C70.3797 147.5 69.6797 148.2 68.9797 148.8C68.2797 149.5 67.4797 150.1 66.6797 150.6L65.0797 151.5C64.8797 151.8 64.3797 152 64.1797 152Z" fill="#1F5440"/>
<path d="M52.1797 164.1C52.0797 164 51.9797 163.9 52.0797 163.8C52.8797 162.2 53.1797 160.4 53.2797 158.5C53.3797 154.2 52.0797 149.7 52.1797 145.6C52.1797 144.3 52.2797 142.6 52.6797 141.1C52.9797 140 53.4797 139 54.2797 138.4C54.5797 138.1 54.8797 138.1 55.1797 138.3C55.5797 138.6 55.9797 139.4 56.0797 139.8C56.3797 140.6 56.5797 141.4 56.6797 142.2C56.8797 143.4 56.8797 144.7 56.8797 145.9C56.7797 148.6 56.3797 151.3 55.7797 154C54.9797 157.6 53.8797 161.1 52.6797 164.6C52.5797 165 52.3797 165.4 52.1797 165.7C52.1797 165.8 51.9797 165.9 51.8797 165.8C51.7797 165.8 51.6797 165.6 51.7797 165.5C51.8797 165.1 51.9797 164.7 52.0797 164.3L52.1797 164.1ZM53.6797 159.2C54.2797 157.4 54.7797 155.6 55.1797 153.8C55.7797 151.2 56.1797 148.5 56.2797 145.8C56.2797 144.6 56.2797 143.4 56.0797 142.2C55.9797 141.4 55.7797 140.6 55.4797 139.9C55.3797 139.6 55.1797 139.1 54.8797 138.8C54.7797 138.7 54.5797 138.6 54.3797 138.8C53.6797 139.4 53.2797 140.3 53.0797 141.3C52.6797 142.8 52.5797 144.5 52.5797 145.7C52.4797 149.7 53.7797 154.3 53.6797 158.6V159.2Z" fill="#1F5440"/>
<path d="M51.9795 165.3C52.0795 165.2 52.2795 165.1 52.3795 165.1L53.2795 164.5L56.6795 162.3C58.4795 161 60.2795 159.7 62.2795 158.5C63.5795 157.8 64.9795 157.1 66.3795 156.7C67.1795 156.4 68.4795 156.2 69.4795 156.5C70.2795 156.7 70.8795 157.1 71.1795 158C71.4795 159 71.0795 159.8 70.3795 160.6C69.4795 161.5 67.9795 162.3 67.1795 162.7C65.6795 163.4 64.2795 164.1 62.6795 164.6C61.1795 165.2 59.5795 165.6 57.9795 165.8C56.4795 166 54.9795 165.8 53.4795 166C52.8795 166.1 52.2795 166.2 51.6795 166.4C51.4795 166.5 51.2795 166.4 51.2795 166.2C51.1795 166 51.2795 165.8 51.4795 165.8C51.4795 165.8 51.4795 165.7 51.5795 165.7C51.7795 165.3 51.8795 165.2 51.9795 165.3ZM53.4795 165.1H53.5795C55.0795 165 56.5795 165.2 57.9795 165C59.5795 164.8 61.0795 164.4 62.5795 163.8C64.0795 163.3 65.5795 162.6 66.9795 161.9C67.7795 161.5 69.1795 160.9 70.0795 160C70.5795 159.4 70.9795 158.8 70.6795 158C70.4795 157.4 69.9795 157.1 69.3795 157C68.4795 156.8 67.2795 156.9 66.5795 157.2C65.1795 157.6 63.7795 158.2 62.5795 159C60.6795 160.1 58.8795 161.4 57.0795 162.7L53.6795 165L53.4795 165.1Z" fill="#1F5440"/>
<path d="M28.4802 124.1C28.3802 123.9 28.2802 123.6 28.1802 123.4L27.5802 121.5L25.9802 116.1C24.9802 112.6 23.3802 109 22.3802 105.3C21.9802 103.7 21.5802 102.1 21.4802 100.5C21.3802 99.5 21.4802 97.9 21.9802 96.8C22.3802 95.9 22.9802 95.2 23.9802 95.1C25.3802 94.9 26.4802 95.8 27.2802 97.1C28.2802 98.8 28.6802 101.3 28.7802 102.6C29.3802 108 28.2802 113.2 28.3802 118.5C28.3802 120.7 28.6802 122.9 29.3802 125.1C29.3802 125.2 29.3802 125.3 29.2802 125.4C29.1802 125.4 29.0802 125.4 28.9802 125.3C28.8802 125.1 28.8802 125 28.8802 124.8C28.7802 126 28.7802 125.5 28.4802 124.3V124.1ZM28.2802 121.8C28.0802 120.7 28.0802 119.6 27.9802 118.5C27.8802 113.3 28.8802 108 28.2802 102.7C28.1802 101.5 27.6802 99.1 26.7802 97.5C26.1802 96.4 25.2802 95.6 24.0802 95.8C23.2802 95.9 22.8802 96.4 22.5802 97.1C22.0802 98.2 21.9802 99.6 22.0802 100.5C22.1802 102.1 22.5802 103.6 22.9802 105.2C23.9802 108.8 25.5802 112.5 26.5802 115.9L28.0802 121.3L28.2802 121.8Z" fill="#1F5440"/>
<path d="M29.6807 125.6C29.5807 125.2 28.8807 124.6 27.9807 123.8C26.3807 122.5 24.0807 120.9 23.5807 120.6C20.2807 118.6 15.0807 116.2 11.1807 113.2C9.48069 111.8 7.98069 110.3 7.18069 108.7C7.08069 108.5 7.08069 108.3 7.28069 108.3C7.68069 108.1 8.28069 108.2 8.58069 108.3C9.38069 108.4 10.1807 108.7 10.8807 109.1C11.6807 109.5 12.3807 109.9 12.9807 110.4C14.6807 111.6 16.2807 113 17.8807 114.3C21.5807 117.5 25.0807 121 28.7807 124.3C28.8807 124.4 29.0807 124.4 29.1807 124.3C29.2807 124.2 29.2807 124 29.1807 123.9C26.0807 121 23.0807 118 19.9807 115.2C17.8807 113.3 15.7807 111.5 13.3807 109.8C12.6807 109.3 11.9807 108.9 11.1807 108.5C10.3807 108.1 9.58069 107.8 8.68069 107.7C8.28069 107.6 7.48069 107.6 7.08069 107.8C6.68069 108 6.38069 108.4 6.78069 109C7.68069 110.7 9.18069 112.3 10.9807 113.7C14.8807 116.7 20.1807 119.1 23.4807 121.1C23.9807 121.4 26.2807 122.9 27.8807 124.2C28.6807 124.8 29.2807 125.4 29.3807 125.7C29.3807 125.8 29.5807 125.9 29.6807 125.9C29.5807 125.9 29.6807 125.7 29.6807 125.6Z" fill="#1F5440"/>
<path d="M34.9799 139.5C34.9799 139.6 34.8799 139.6 34.7799 139.6C34.6799 139.6 34.5799 139.6 34.4799 139.5C34.3799 139.4 34.0799 138.8 33.9799 138.6L32.4799 136.9C31.7799 136.2 31.0799 135.5 30.3799 134.9C29.6799 134.3 28.8799 133.7 28.0799 133.2C27.0799 132.6 26.0799 132.1 24.9799 131.7C22.4799 130.7 19.7799 130 17.2799 128.8C16.5799 128.4 15.6799 127.9 14.9799 127.2C14.4799 126.7 14.1799 126.1 14.0799 125.5C13.9799 124.9 14.2799 124.5 14.6799 124.3C15.1799 124 15.9799 124 16.4799 124C17.6799 124 18.7799 124.2 19.9799 124.5C21.0799 124.8 22.2799 125.3 23.2799 125.9C26.0799 127.5 28.6799 129.8 30.8799 132.4C33.0799 135 34.8799 138 35.9799 141C35.9799 141.1 35.9799 141.2 35.8799 141.2C35.7799 141.2 35.6799 141.2 35.6799 141.1C35.4799 140.6 35.2799 140.1 34.9799 139.5ZM34.3799 138.3C33.3799 136.4 31.9799 134.5 30.5799 132.8C28.3799 130.2 25.7799 128 23.0799 126.4C22.0799 125.8 21.0799 125.4 19.9799 125.1C18.8799 124.8 17.7799 124.6 16.5799 124.6C16.1799 124.6 15.4799 124.6 15.0799 124.9C14.8799 125 14.6799 125.2 14.7799 125.5C14.8799 126 15.1799 126.5 15.5799 126.9C16.1799 127.5 17.0799 128.1 17.6799 128.4C20.0799 129.7 22.7799 130.3 25.2799 131.3C26.3799 131.7 27.4799 132.2 28.4799 132.9C29.2799 133.4 30.0799 134 30.8799 134.6C31.6799 135.2 32.3799 135.9 32.9799 136.6L34.3799 138.3Z" fill="#1F5440"/>
<path d="M35.9793 141.3C36.0793 141.4 36.0793 141.5 35.9793 141.6C35.8793 141.8 35.6793 141.8 35.5793 141.8C35.4793 141.8 35.4793 141.7 35.3793 141.6C35.3793 141.5 35.3793 141 35.2793 140.8L35.1793 139.4L34.6793 134.9C34.4793 132.4 34.2793 129.8 34.4793 127.2C34.5793 125.5 34.8793 123.8 35.3793 122.1C35.5793 121.5 35.9793 120.1 36.6793 119.3C37.0793 118.9 37.4793 118.6 38.0793 118.7C38.7793 118.8 39.2793 119.4 39.4793 120.3C39.9793 121.8 39.7793 124.1 39.7793 124.9C39.4793 128.9 37.6793 132.4 36.6793 136.2C36.2793 137.8 35.9793 139.4 36.0793 141.1V141.2L35.9793 141.3ZM35.6793 138.5C35.7793 137.7 35.9793 136.8 36.1793 136C37.1793 132.3 38.8793 128.7 39.1793 124.8C39.1793 124.2 39.2793 122.4 39.0793 121C38.8793 120.1 38.6793 119.3 37.9793 119.2C37.5793 119.1 37.1793 119.5 36.8793 119.9C36.3793 120.6 36.0793 121.7 35.9793 122.2C35.4793 123.8 35.1793 125.5 35.0793 127.1C34.8793 129.6 35.0793 132.2 35.2793 134.7L35.6793 138.5Z" fill="#1F5440"/>
<path d="M36.3809 79.5L36.2809 79.4C34.7809 75.4 34.7809 71.5 35.7809 67.7C37.1809 62 40.4809 56.6 43.7809 51.9C44.7809 50.5 45.7809 48.9 46.9809 47.4C47.7809 46.4 48.5809 45.5 49.4809 44.7C50.0809 44.2 50.9809 43.6 51.7809 43.6C52.3809 43.6 52.8809 43.8 53.2809 44.5C54.2809 45.9 54.0809 47.7 53.3809 49.5C52.4809 52 50.4809 54.5 49.3809 55.9C46.2809 60.1 42.3809 64.4 39.7809 69.2C38.0809 72.4 36.8809 75.8 36.7809 79.5C36.7809 79.6 36.6809 79.8 36.4809 79.8C36.4809 79.8 36.3809 79.7 36.3809 79.5ZM36.4809 78.2C36.7809 74.9 37.8809 71.9 39.3809 69C41.9809 64.2 45.7809 59.8 48.8809 55.6C49.9809 54.2 51.8809 51.8 52.7809 49.3C53.3809 47.7 53.6809 46 52.8809 44.7C52.5809 44.2 52.1809 44 51.7809 44.1C51.0809 44.1 50.3809 44.7 49.7809 45.1C48.8809 45.9 48.0809 46.8 47.3809 47.7C46.2809 49.2 45.2809 50.7 44.2809 52.2C41.0809 56.8 37.6809 62.1 36.3809 67.7C35.4809 71.1 35.3809 74.7 36.4809 78.2Z" fill="#1F5440"/>
<path d="M36.4801 80.8C36.3801 80.6 36.0801 80.4 35.9801 80.3L34.4801 79.1C33.6801 78.5 32.7801 78 31.9801 77.5C31.0801 77 30.1801 76.6 29.2801 76.2C26.0801 74.8 22.7801 73.6 19.8801 71.9C17.8801 70.7 16.1801 69.2 14.6801 67.2C14.1801 66.5 12.9801 64.9 12.6801 63.5C12.4801 62.7 12.5801 62 12.9801 61.5C13.4801 60.9 14.4801 60.8 15.5801 61.1C17.4801 61.7 19.8801 63.3 20.4801 63.9C23.7801 66.7 27.5801 69.5 30.9801 72.5C33.2801 74.6 35.3801 76.8 36.9801 79.3C37.0801 79.4 36.9801 79.6 36.8801 79.6C36.7801 79.7 36.5801 79.6 36.5801 79.5C34.8801 77.1 32.7801 74.9 30.5801 72.9C27.1801 69.9 23.4801 67.1 20.0801 64.3C19.4801 63.8 17.7801 62.6 16.0801 61.9C14.9801 61.5 13.9801 61.2 13.4801 61.8C13.0801 62.3 13.1801 63 13.4801 63.8C13.8801 65 14.7801 66.2 15.1801 66.8C16.5801 68.7 18.2801 70.1 20.1801 71.3C23.0801 73.1 26.3801 74.2 29.4801 75.6C30.3801 76 31.2801 76.5 32.1801 77C33.0801 77.5 33.8801 78.1 34.7801 78.7L36.2801 80C36.3801 80.1 36.5801 80.5 36.6801 80.6C36.6801 80.6 36.7801 80.6 36.7801 80.7V80.8C37.6801 81.7 38.1801 81.8 36.8801 81.2C37.0801 82.6 36.9801 82.2 36.4801 81H36.3801C36.4467 80.9333 36.4801 80.8666 36.4801 80.8Z" fill="#1F5440"/>
<path d="M42.8805 99.6C42.3805 99.3 42.0805 98.8 41.9805 98.1C41.7805 97.3 41.7805 96.3 41.6805 95.8C41.5805 94.6 41.5805 93.4 41.6805 92.3C41.7805 91.1 42.0805 89.9 42.3805 88.8C43.1805 86.1 44.8805 83.8 46.9805 81.6C49.8805 78.5 53.5805 75.7 56.3805 73.1C57.0805 72.4 58.6805 70.7 60.2805 70C61.0805 69.6 61.9805 69.5 62.5805 70C63.5805 70.7 63.5805 71.9 62.9805 73.3C61.9805 75.7 59.2805 78.6 58.6805 79.4C56.1805 82.4 51.3805 87 47.7805 91.7C45.2805 95 43.2805 98.4 43.0805 101.3C43.0805 101.4 42.9805 101.6 42.7805 101.5C42.6805 101.5 42.4805 101.4 42.5805 101.2C42.6805 100.7 42.6805 100.2 42.8805 99.6ZM42.9805 99.1C43.4805 97.3 44.4805 95.4 45.7805 93.5C49.4805 88 55.3805 82.3 58.2805 78.9C58.8805 78.2 61.4805 75.3 62.4805 73C62.8805 71.9 62.9805 71 62.2805 70.5C61.6805 70.1 60.7805 70.4 59.9805 70.9C58.6805 71.7 57.3805 73 56.8805 73.5C54.0805 76.1 50.4805 78.9 47.5805 82C45.6805 84.1 43.9805 86.4 43.1805 89C42.8805 90.1 42.5805 91.2 42.4805 92.3C42.3805 93.4 42.3805 94.6 42.3805 95.7C42.3805 96.2 42.4805 97.1 42.5805 97.9C42.6805 98.5 42.7805 98.9 42.9805 99.1Z" fill="#1F5440"/>
<path d="M44.5793 117.7C44.5126 117.7 44.446 117.633 44.3793 117.5C44.2793 117.4 44.1793 116.8 44.1793 116.7L44.2793 114.9C44.3793 114 44.6793 113.1 44.9793 112.2C45.2793 111.3 45.5793 110.5 45.8793 109.6C46.8793 107.1 48.1793 104.6 49.7793 102.3C51.3793 100 53.2793 97.9 55.4793 96.3C56.2793 95.7 57.8793 94.6 59.2793 94.2C60.0793 94 60.7793 94 61.2793 94.4C62.4793 95.2 62.5793 96.5 62.1793 97.9C61.6793 99.7 60.1793 101.6 59.3793 102.5C55.8793 106.3 50.8793 109.7 47.4793 114C45.9793 115.8 44.7793 117.8 44.1793 120.1C44.1793 120.2 44.0793 120.3 43.9793 120.2C43.8793 120.2 43.7793 120.1 43.8793 120C43.9793 119.3 44.2793 118.5 44.5793 117.7ZM44.8793 117.2C45.4793 116 46.1793 114.9 47.0793 113.9C50.4793 109.6 55.5793 106.2 59.0793 102.4C59.8793 101.6 61.1793 99.7 61.6793 98C61.9793 96.9 61.8793 95.8 60.9793 95.2C60.4793 94.8 59.6793 95 58.9793 95.2C57.7793 95.7 56.5793 96.5 55.9793 97C53.8793 98.5 51.9793 100.6 50.4793 102.9C48.9793 105.2 47.6793 107.6 46.6793 110.1C46.3793 110.9 45.9793 111.8 45.7793 112.6C45.4793 113.4 45.2793 114.3 45.1793 115.2L44.9793 116.9C44.7793 116.8 44.8793 117 44.8793 117.2Z" fill="#1F5440"/>
<path d="M43.9807 117.3C43.7807 117.1 43.4807 116.5 43.0807 115.7C42.3807 114.2 41.5807 112.1 41.2807 111.4C40.6807 110.4 39.9807 109.4 39.2807 108.4C37.6807 106.2 35.7807 104.2 34.3807 101.8C34.1807 101.5 33.3807 100.1 32.9807 98.8C32.6807 98 32.4807 97.3 32.9807 97.1C33.5807 96.9 34.3807 97.4 35.0807 98.1C36.1807 99.1 37.1807 100.6 37.4807 101.2C38.7807 103.3 39.9807 105.5 40.9807 107.8C42.1807 110.6 43.0807 113.5 43.8807 116.3C44.0807 117 44.3807 117.7 44.5807 118.4C44.5807 118.5 44.7807 118.6 44.8807 118.6C44.9807 118.6 45.0807 118.4 45.0807 118.3C44.8807 117.4 44.6807 116.5 44.3807 115.5C43.7807 113.4 42.9807 111.3 42.1807 109.2C40.9807 106.2 39.5807 103.3 37.9807 100.7C37.5807 100 36.2807 98.1 34.9807 97C34.2807 96.4 33.4807 96.1 32.8807 96.3C32.2807 96.5 32.1807 97.2 32.3807 98.1C32.7807 99.5 33.7807 101.4 33.9807 101.8C35.4807 104.2 37.2807 106.2 38.8807 108.4C39.5807 109.3 40.1807 110.3 40.7807 111.3C41.1807 112 42.0807 114.6 42.8807 116.1C43.1807 116.7 43.4807 117.1 43.6807 117.3C43.7807 117.4 43.9807 117.4 44.0807 117.3C44.0807 117.5 44.0807 117.3 43.9807 117.3Z" fill="#1F5440"/>
<path d="M38.2805 162.9L38.3805 163.1C38.6805 163.9 38.6805 164.7 38.3805 165C38.2805 165.1 38.0805 165.1 37.9805 165C37.8805 164.9 37.8805 164.7 37.9805 164.6C38.2805 164.3 37.9805 163.5 37.5805 162.7C37.0805 161.5 36.1805 160.1 35.9805 159.7C34.9805 158.2 33.8805 156.8 32.5805 155.6C29.5805 152.7 25.9805 150.3 23.0805 147.1C22.5805 146.6 20.8805 144.7 20.1805 143.2C19.7805 142.3 19.6805 141.4 20.2805 140.9C20.8805 140.3 21.7805 140.3 22.7805 140.8C24.5805 141.5 26.5805 143.5 27.1805 144.2C30.0805 147.1 33.0805 150.6 35.2805 154.4C36.7805 157 37.9805 159.7 38.4805 162.5C38.6805 162.7 38.5805 162.8 38.2805 162.9C38.3471 162.9 38.3471 162.9 38.2805 162.9ZM37.9805 162.1C37.3805 159.6 36.1805 157.1 34.7805 154.8C32.5805 151.1 29.5805 147.6 26.7805 144.7C26.2805 144.1 24.7805 142.7 23.2805 141.8C22.2805 141.2 21.3805 140.9 20.7805 141.5C20.2805 142 20.5805 142.8 21.0805 143.7C21.8805 145 23.1805 146.4 23.5805 146.9C26.3805 150 29.9805 152.4 32.9805 155.4C34.2805 156.7 35.4805 158 36.4805 159.6C36.7805 159.9 37.4805 161 37.9805 162.1Z" fill="#1F5440"/>
<path d="M42.7797 141.4C43.2797 138.4 43.6797 135.3 44.4797 132.4C45.1797 130.1 46.0797 127.9 47.5797 125.9C48.1797 125.1 50.9797 122.4 52.8797 122.1C53.9797 121.9 54.8797 122.3 54.9797 124C55.0797 125 54.7797 126 54.2797 127C53.5797 128.4 52.5797 129.6 51.7797 130.7C49.4797 133.7 46.7797 135.9 44.7797 138.7C44.1797 139.6 43.5797 140.5 43.1797 141.5C43.0797 142 42.9797 142.5 42.9797 143C42.9797 143.1 42.7797 143.2 42.6797 143.2C42.5797 143.2 42.4797 143 42.4797 142.9H42.3797C42.2797 142.9 42.1797 142.7 42.1797 142.6C42.3797 142.2 42.5797 141.8 42.7797 141.4ZM43.4797 140C43.7797 139.5 44.0797 139 44.4797 138.5C46.4797 135.6 49.1797 133.4 51.4797 130.4C52.2797 129.4 53.1797 128.1 53.8797 126.8C54.2797 125.9 54.4797 125 54.3797 124.1C54.2797 122.7 53.3797 122.6 52.2797 123.1C50.5797 123.8 48.6797 125.7 48.1797 126.4C46.6797 128.3 45.7797 130.4 45.0797 132.6C44.2797 135 43.8797 137.5 43.4797 140Z" fill="#1F5440"/>
<path d="M38.0801 185.8C37.8801 183.9 37.0801 182 35.8801 180.3C33.2801 176.5 29.0801 173.2 26.7801 170.1C26.0801 169.1 25.0801 167.8 24.4801 166.5C24.0801 165.6 23.8801 164.7 24.0801 163.9C24.1801 163.2 24.7801 163.4 25.4801 163.8C27.1801 164.7 29.3801 166.9 29.6801 167.3C31.7801 169.7 33.7801 172.2 35.2801 175C36.7801 177.7 37.8801 180.7 38.2801 183.9C38.2801 184 38.3801 184.1 38.5801 184.1C38.6801 184.1 38.7801 184 38.7801 183.9C38.4801 180.6 37.4801 177.5 35.8801 174.7C34.3801 171.9 32.3801 169.3 30.1801 166.9C29.8801 166.6 27.5801 164.2 25.7801 163.3C24.5801 162.7 23.5801 162.7 23.3801 163.9C23.1801 164.9 23.4801 165.9 23.8801 166.9C24.4801 168.3 25.5801 169.6 26.2801 170.6C28.5801 173.7 32.7801 177 35.3801 180.8C36.4801 182.5 37.3801 184.2 37.4801 186.1C37.4801 186.2 37.5801 186.3 37.7801 186.3C37.9801 186.1 38.0801 186 38.0801 185.8Z" fill="#1F5440"/>
<path d="M24.0796 164.5C23.9796 164.5 23.9796 164.4 23.8796 164.4C23.7796 164.2 23.9796 164.1 23.9796 164H24.2796C24.3796 164.1 24.6796 164.4 24.6796 164.4L26.2796 166L29.8796 169.9C31.6796 171.9 33.2796 174 34.7796 176.2C36.2796 178.4 37.5796 180.8 38.5796 183.3C38.5796 183.4 38.5796 183.6 38.4796 183.6C38.3796 183.6 38.1796 183.6 38.1796 183.5C37.1796 181 35.8796 178.7 34.3796 176.5C32.8796 174.3 31.1796 172.2 29.4796 170.2L25.8796 166.3L24.2796 164.7L24.0796 164.5Z" fill="#1F5440"/>
<path d="M21.1801 142.2C21.1801 142 21.3801 141.9 21.3801 141.9C21.4801 141.9 21.4801 142 21.4801 142.1C21.8801 142.6 23.0801 143.6 23.3801 143.8L27.3801 147.3C29.9801 149.7 32.4801 152 34.5801 154.7C35.9801 156.5 37.2801 158.3 38.2801 160.5C38.3801 160.6 38.2801 160.8 38.1801 160.8C38.0801 160.9 37.9801 160.8 37.8801 160.7C36.7801 158.6 35.5801 156.8 34.1801 155C32.0801 152.4 29.6801 150.1 27.0801 147.7L23.0801 144.2C22.8801 144 21.7801 142.8 21.2801 142.4C21.2801 142.4 21.1801 142.4 21.1801 142.3H21.0801C21.1801 142.3 21.1801 142.2 21.1801 142.2Z" fill="#1F5440"/>
<path d="M14.7793 124.9C14.8793 125.2 15.3793 125.6 16.0793 125.8C17.2793 126.2 18.8793 126.6 19.2793 126.7C21.2793 127.4 23.1793 128.2 24.9793 129.2C26.7793 130.2 28.4793 131.4 30.0793 132.8C30.1793 132.9 30.2793 132.9 30.3793 132.8C30.4793 132.7 30.4793 132.6 30.3793 132.5C28.7793 131.1 27.0793 129.8 25.1793 128.8C23.3793 127.8 21.3793 126.9 19.3793 126.2C18.9793 126.1 17.3793 125.7 16.1793 125.3C15.6793 125.1 15.2793 124.9 15.1793 124.7C15.1793 124.6 14.9793 124.5 14.8793 124.5C14.8793 124.6 14.7793 124.7 14.7793 124.9Z" fill="#1F5440"/>
<path d="M7.68048 108.6C10.0805 109.9 12.2805 111.4 14.4805 113.1C17.7805 115.6 20.8805 118.3 24.0805 120.8C24.1805 120.9 24.2805 120.8 24.3805 120.8C24.4805 120.7 24.3805 120.6 24.3805 120.5C21.1805 118 18.0805 115.3 14.7805 112.7C12.5805 111 10.2805 109.4 7.88048 108.1C7.78048 108 7.58048 108.1 7.58048 108.2C7.48048 108.3 7.58048 108.5 7.68048 108.6Z" fill="#1F5440"/>
<path d="M5.9793 80.2001C5.8793 80.0001 5.9793 79.9001 6.0793 79.8001C6.0793 79.8001 6.2793 79.7001 6.3793 80.0001C6.3793 80.0001 6.3793 80.1001 6.4793 80.3001C6.6793 80.9001 7.1793 82.6001 7.1793 82.7001L9.0793 92.6001C9.6793 95.6001 10.7793 98.3001 12.1793 100.8C14.2793 104.6 16.9793 108 19.5793 111.8C19.6793 111.9 19.5793 112 19.5793 112.1C19.4793 112.2 19.3793 112.1 19.2793 112.1C16.5793 108.4 13.8793 105 11.6793 101.2C10.2793 98.7001 9.1793 95.9001 8.5793 92.9001L6.6793 83.0001C6.6793 82.9001 6.1793 81.3001 5.9793 80.7001V80.2001C5.8793 80.3001 5.8793 80.2001 5.9793 80.2001ZM5.9793 80.2001C5.9793 80.2667 5.9793 80.2667 5.9793 80.2001V80.2001Z" fill="#1F5440"/>
<path d="M28.4797 122.2C28.3797 122.2 28.3797 122.1 28.2797 122.1C27.8797 121.6 27.7797 120.8 27.6797 120C27.2797 118 27.2797 115.7 26.9797 114.2C26.2797 110 25.7797 105.8 25.0797 101.7C24.7797 99.9 24.4797 98.1 24.0797 96.4C24.0797 96.3 23.9797 96.2 23.8797 96.3C23.7797 96.3 23.6797 96.4 23.7797 96.5C24.1797 98.3 24.4797 100.1 24.6797 101.8C25.3797 106 25.8797 110.2 26.4797 114.3C26.6797 115.5 26.6797 117.5 26.9797 119.3C27.1797 120.4 27.5797 121.4 27.9797 122.2C28.0797 122.3 28.0797 122.4 28.0797 122.5C28.1797 122.6 28.2797 122.6 28.4797 122.6C28.5797 122.5 28.5797 122.3 28.4797 122.2Z" fill="#1F5440"/>
<path d="M35.6797 138.7C35.6797 138.8 35.5797 139 35.4797 139C35.3797 139 35.2797 139 35.1797 138.8V138.5C35.1797 138.2 35.1797 137.6 35.2797 136.6L35.6797 132.2C35.9797 129 36.0797 125.8 36.4797 122.6C36.5797 121.8 36.6797 121 36.7797 120.2C36.7797 120.1 36.8797 120 36.9797 120C37.0797 120 37.1797 120.1 37.1797 120.2L36.2797 132.2L35.8797 136.6C35.7797 137.7 35.7797 138.2 35.7797 138.5C35.713 138.567 35.6797 138.633 35.6797 138.7C35.6797 138.767 35.6797 138.767 35.6797 138.7ZM35.5797 138.6C35.6464 138.6 35.6464 138.6 35.5797 138.6V138.6Z" fill="#1F5440"/>
<path d="M43.2797 140.2C43.6797 139.8 44.0797 139.1 44.4797 138.3C45.1797 136.7 45.6797 134.7 46.1797 133.6C47.2797 131.6 48.5797 129.6 49.9797 127.7C51.3797 125.8 52.9797 124.1 54.6797 122.6C54.7797 122.5 54.7797 122.4 54.6797 122.3C54.5797 122.2 54.4797 122.2 54.3797 122.3C52.6797 123.9 51.0797 125.6 49.5797 127.5C48.0797 129.4 46.7797 131.4 45.6797 133.4C45.0797 134.5 44.5797 136.5 43.8797 138.1C43.5797 138.8 43.1797 139.5 42.8797 139.8C42.7797 139.9 42.7797 140.1 42.8797 140.2C43.0797 140.3 43.1797 140.3 43.2797 140.2Z" fill="#1F5440"/>
<path d="M54.8797 138C55.013 137.933 55.013 137.933 54.8797 138C54.9797 138.2 54.9797 138.3 54.8797 138.3V138.4C54.8797 138.9 54.9797 140 54.9797 140.5L55.1797 145C55.2797 147.3 55.1797 149.7 55.0797 152C54.8797 154.3 54.5797 156.7 54.0797 159C54.0797 159.1 53.9797 159.2 53.8797 159.2C53.7797 159.2 53.6797 159.1 53.6797 159C54.1797 156.7 54.4797 154.4 54.5797 152.1C54.7797 149.8 54.7797 147.4 54.6797 145.1L54.4797 140.6C54.4797 140.1 54.4797 139 54.3797 138.5C54.4797 138 54.8797 138 54.8797 138Z" fill="#1F5440"/>
<path d="M52.9793 164.5C53.046 164.5 53.1126 164.467 53.1793 164.4C54.1793 164.2 56.7793 163.3 56.9793 163.2C58.2793 162.7 59.6793 162.2 60.9793 161.7C64.0793 160.5 67.0793 159.1 70.1793 157.9C70.2793 157.9 70.3793 157.9 70.4793 158C70.4793 158.1 70.4793 158.2 70.3793 158.3C67.7793 159.4 65.1793 160.6 62.5793 161.7C60.8793 162.4 59.0793 163.1 57.2793 163.7C57.1793 163.8 54.4793 164.7 53.4793 164.9C53.0793 165 52.7793 164.8 52.7793 164.7C52.7793 164.6 52.7793 164.4 52.8793 164.4C52.7793 164.4 52.8793 164.4 52.9793 164.5C52.9126 164.5 52.9126 164.5 52.9793 164.5C52.9793 164.4 52.8793 164.4 52.9793 164.5Z" fill="#1F5440"/>
<path d="M65.0801 150.1C65.3801 147.3 65.2801 144.6 64.8801 141.8C63.9801 136.1 62.1801 130.6 60.8801 125C60.7801 124.4 60.5801 123.8 60.4801 123.1C60.4801 123 60.3801 122.9 60.2801 122.9C60.1801 122.9 60.0801 123 60.0801 123.1C60.1801 123.7 60.2801 124.4 60.3801 125C61.3801 130.6 63.6801 136.1 64.4801 141.8C64.8801 144.5 64.9801 147.2 64.5801 149.9C64.5801 150 64.6801 150.2 64.7801 150.2C64.9801 150.4 65.0801 150.3 65.0801 150.1Z" fill="#1F5440"/>
<path d="M68.8797 108.3V108.1C68.9797 108 69.0797 107.9 69.1797 108C69.2797 108 69.2797 108.1 69.3797 108.2V108.9L69.4797 113.7C69.5797 117.6 69.7797 121.4 69.8797 125.3C69.8797 127 69.9797 128.6 69.8797 130.3C69.8797 130.4 69.7797 130.5 69.6797 130.5C69.5797 130.5 69.4797 130.4 69.4797 130.3C69.4797 128.6 69.4797 127 69.3797 125.3C69.2797 121.4 69.0797 117.6 68.8797 113.7L68.6797 108.9C68.8797 108.9 68.7797 108.4 68.8797 108.3Z" fill="#1F5440"/>
<path d="M66.3809 150.4C66.4809 150.4 66.7809 150.3 66.9809 150.2C67.4809 150 67.9809 149.6 68.1809 149.5C68.7809 149.1 69.4809 148.7 70.0809 148.2C70.9809 147.5 71.9809 146.8 72.8809 146.1C75.5809 144 78.3809 142 81.0809 139.9C82.8809 138.5 84.6809 137 86.2809 135.5C86.3809 135.4 86.4809 135.4 86.5809 135.5C86.6809 135.6 86.6809 135.7 86.5809 135.8C84.8809 137.3 83.1809 138.8 81.2809 140.2C78.5809 142.3 75.7809 144.4 73.0809 146.4C72.1809 147.1 71.2809 147.8 70.2809 148.5C69.6809 149 68.9809 149.4 68.3809 149.8C68.1809 149.9 67.4809 150.5 66.8809 150.7C66.4809 150.8 66.1809 150.8 65.9809 150.7C65.8809 150.6 65.8809 150.3 65.8809 150.2C65.9809 150.1 66.0809 150 66.1809 150.1C66.3809 150.2 66.3809 150.3 66.3809 150.4ZM66.2809 150.6C66.1809 150.7 66.0809 150.7 65.9809 150.6C66.1809 150.7 66.2809 150.7 66.2809 150.6Z" fill="#1F5440"/>
<path d="M44.9809 116.4C44.9809 116.2 45.0809 115.8 45.0809 115.3C45.1809 114.8 45.2809 114.4 45.3809 114C45.7809 113.2 46.1809 112.3 46.5809 111.5C46.9809 110.7 47.4809 109.9 47.9809 109.2C49.6809 106.7 51.6809 104.4 53.7809 102.3C55.9809 100.2 58.2809 98.3 60.7809 96.6C60.8809 96.5 60.9809 96.6 61.0809 96.6C61.1809 96.7 61.0809 96.8 61.0809 96.9C58.5809 98.6 56.2809 100.5 54.1809 102.6C52.0809 104.7 50.1809 107 48.4809 109.5C47.9809 110.2 47.4809 111 47.0809 111.8C46.6809 112.6 46.2809 113.4 45.8809 114.2L45.1809 116.8C45.0809 116.8 44.8809 116.8 44.8809 116.6C44.8809 116.5 44.8809 116.4 44.9809 116.4Z" fill="#1F5440"/>
<path d="M32.4806 97.9C32.7806 98.4 33.0806 98.8 33.4806 99.2C34.2806 100.2 35.2806 101.1 35.9806 102C37.3806 103.9 38.7806 105.8 40.0806 107.8C41.3806 109.8 42.5806 111.8 43.6806 113.9C43.6806 114 43.7806 114 43.8806 114C43.9806 114 43.9806 113.9 43.9806 113.8C42.9806 111.7 41.7806 109.6 40.4806 107.6C39.1806 105.6 37.8806 103.6 36.3806 101.7C35.6806 100.8 34.6806 99.8 33.8806 98.9C33.4806 98.5 33.1806 98.1 32.9806 97.6C32.8806 97.5 32.7806 97.4 32.6806 97.5C32.4806 97.7 32.3806 97.8 32.4806 97.9Z" fill="#1F5440"/>
<path d="M43.3809 98.4V98.5C43.3809 98.6 43.2809 98.7 43.0809 98.7C43.0809 98.7 42.8809 98.6 42.8809 98.3C42.8809 98.1 42.8809 97.6 42.9809 97C43.0809 96.4 43.1809 95.7 43.3809 94.8C43.7809 93.4 44.3809 91.6 45.3809 89.6C46.8809 86.6 48.7809 83.9 50.9809 81.4C54.1809 77.7 57.9809 74.5 61.6809 71.2C61.7809 71.1 61.8809 71.1 61.9809 71.2C62.0809 71.3 62.0809 71.4 61.9809 71.5C58.3809 74.8 54.6809 78.1 51.4809 81.7C49.3809 84.1 47.4809 86.8 46.0809 89.7C45.2809 91.3 44.7809 92.7 44.3809 93.9C43.7809 95.8 43.4809 97.2 43.4809 97.9C43.3809 98.2 43.3809 98.4 43.3809 98.4Z" fill="#1F5440"/>
<path d="M35.6809 76.7C35.5809 76.4 35.6809 75.8 35.6809 75.5L36.1809 73C36.4809 71.6 36.8809 70.3 37.3809 69C37.8809 67.7001 38.3809 66.4 39.0809 65.2C40.2809 63 41.5809 60.9 43.0809 59C46.4809 54.4 50.4809 50.3001 53.5809 45.4001C53.6809 45.3001 53.7809 45.3 53.8809 45.3C53.9809 45.4 53.9809 45.5 53.9809 45.6C50.8809 50.5 46.9809 54.6 43.4809 59.2001C41.9809 61.2001 40.6809 63.2001 39.5809 65.4001C38.9809 66.6001 38.3809 67.9 37.9809 69.2C37.4809 70.5 37.0809 71.8 36.7809 73.1L36.2809 75.6C36.1809 76 36.3809 76.9 36.2809 77.1C36.1809 77.3 35.9809 77.4 35.7809 77.1C35.5809 76.9 35.5809 76.8 35.6809 76.7Z" fill="#1F5440"/>
<path d="M13.5809 63C18.3809 67.3 24.1809 70.3 29.4809 74.1C31.6809 75.7 33.8809 77.4 35.8809 79.3C35.9809 79.4 36.0809 79.4 36.1809 79.3C36.2809 79.2 36.2809 79.1 36.1809 79C34.2809 77 32.0809 75.2 29.8809 73.6C24.5809 69.9 18.7809 66.9 13.9809 62.7C13.8809 62.6 13.6809 62.6 13.5809 62.7C13.4809 62.7 13.4809 62.9 13.5809 63Z" fill="#1F5440"/>
<path d="M25.1801 38.4C25.0801 38.4 24.9801 38.3 24.9801 38.2C24.8801 37.8 24.6801 37.5 24.5801 37.1C23.1801 33.5 21.0801 30.8 20.1801 27.6C19.4801 25.4 19.4801 22.9 20.6801 19.7C21.0801 18.7 21.5801 17.9 22.0801 17C23.2801 15.1 24.7801 13.4 25.9801 11.5L26.0801 11.2C27.3801 8.69996 28.1801 3.79996 30.5801 1.49996C31.7801 0.399963 33.1801 -0.100037 35.2801 0.499964C35.7801 0.699964 36.3801 0.999964 36.8801 1.39996C37.1801 1.69996 37.4801 2.09996 37.6801 2.49996C38.2801 4.09996 37.8801 5.89996 37.0801 7.79996C35.3801 11.4 31.7801 15.2 30.2801 17.6C28.0801 21.1 26.7801 24.5 26.1801 28.1C25.5801 31.7 25.6801 35.4 26.2801 39.4C26.2801 39.6 26.1801 39.8 25.9801 39.9C25.7801 39.9 25.5801 39.8 25.4801 39.6C25.2801 39.2 25.2801 38.8 25.1801 38.4ZM24.9801 36C24.7801 33.2 24.7801 30.6 25.1801 28C25.7801 24.3 27.0801 20.8 29.3801 17.1C30.8801 14.8 34.4801 11 36.0801 7.49996C36.7801 5.89996 37.1801 4.29996 36.6801 2.99996C36.5801 2.69996 36.2801 2.39996 35.9801 2.19996C35.6801 1.99996 35.2801 1.79996 34.8801 1.69996C32.6801 0.999964 31.2801 1.99996 30.2801 3.49996C28.6801 5.89996 27.9801 9.79996 26.8801 11.8L26.6801 12.1C25.4801 14.1 23.9801 15.8 22.7801 17.7C22.2801 18.5 21.7801 19.3 21.4801 20.2C20.2801 23.1 20.3801 25.4 20.9801 27.5C21.7801 30.3 23.7801 32.8 24.9801 36Z" fill="#1F5440"/>
<path d="M25.9809 39.6C26.0809 40 26.4809 41.2 26.5809 41.7L27.2809 46C27.5809 48.2 27.9809 50.3 28.3809 52.5C28.7809 54.6 29.3809 56.8 29.9809 58.9C32.7809 68 35.9809 76.9 38.7809 85.9C39.9809 89.8 41.0809 93.7 42.0809 97.7C44.5809 108 44.9809 118.3 44.2809 128.4C42.7809 152.2 35.7809 175.6 39.1809 199.8C39.1809 200 39.0809 200.2 38.8809 200.2C38.6809 200.2 38.4809 200.1 38.4809 199.9C36.1809 183.3 38.5809 167 40.8809 150.7C42.3809 139.8 43.8809 129 43.7809 118.1C43.6809 111.4 42.9809 104.6 41.3809 97.8C40.3809 93.8 39.2809 89.9 38.0809 86.1C35.2809 77 31.9809 68.2 29.1809 59.1C28.4809 57 27.9809 54.8 27.5809 52.7C27.1809 50.5 26.7809 48.4 26.4809 46.2L25.8809 41.9C25.7809 41.4 25.4809 40.3 25.3809 39.7C25.3809 39.4 25.4809 39.2 25.5809 39.1C25.6809 39 25.8809 39 26.0809 39.1C26.1809 39.2 26.2809 39.3 26.1809 39.5C26.1809 39.5 26.0809 39.6 25.9809 39.6Z" fill="#1F5440"/>
<path d="M69.4805 137.5C69.4805 137.5 69.2805 137.8 69.2805 138.2C69.1805 138.9 68.9805 140.2 68.8805 140.3C68.3805 142.3 67.6805 144.3 66.7805 146.2C65.8805 148.1 64.8805 149.9 63.6805 151.7C58.0805 160.1 48.6805 166.9 42.8805 175.5C40.3805 179.3 38.5805 183.4 37.9805 188.2C37.9805 188.3 38.0805 188.4 38.1805 188.5C38.2805 188.5 38.3805 188.4 38.4805 188.3C39.0805 183.6 40.9805 179.6 43.4805 176C49.3805 167.4 58.6805 160.6 64.2805 152.2C65.4805 150.4 66.4805 148.5 67.3805 146.6C68.2805 144.6 68.9805 142.6 69.4805 140.5L69.7805 138C69.8805 138 69.9805 137.8 69.8805 137.7C69.6805 137.5 69.5805 137.4 69.4805 137.5Z" fill="#1F5440"/>
<path d="M21.1797 112.5C21.1797 112.7 21.5797 113.6 22.2797 114.8C25.0797 119.7 32.4797 131.1 33.5797 134C35.5797 139.3 36.6797 144.8 37.3797 150.3C38.3797 158.6 38.2797 167.1 38.6797 175.5C38.6797 175.6 38.7797 175.7 38.8797 175.7C38.9797 175.7 39.0797 175.6 39.0797 175.5C38.7797 167.1 38.9797 158.6 38.0797 150.3C37.4797 144.7 36.2797 139.2 34.2797 133.9C33.9797 133 33.0797 131.4 31.8797 129.5C28.1797 123.3 21.7797 113.5 21.7797 112.6C21.7797 112.5 21.6797 112.3 21.4797 112.3C21.2797 112.2 21.1797 112.4 21.1797 112.5Z" fill="#1F5440"/>
</g>
<defs>
<clipPath id="clip0_472_4095">
<rect width="86.88" height="200.2" fill="white"/>
</clipPath>
</defs>
</svg>
